<svg width="16" height="17" viewBox="0 0 16 17" fill="none" xmlns="http://www.w3.org/2000/svg">
<g clip-path="url(#clip0_256_4813)">
<mask id="mask0_256_4813" style="mask-type:alpha" maskUnits="userSpaceOnUse" x="0" y="0" width="16" height="17">
<path d="M7.39407 0.750926C7.72872 0.416277 8.27129 0.416277 8.60594 0.750925L10.983 3.12797C11.3176 3.46262 11.3176 4.00519 10.983 4.33984L8.60594 6.71688C8.27129 7.05153 7.72872 7.05153 7.39407 6.71688L5.01702 4.33984C4.68238 4.00519 4.68238 3.46262 5.01702 3.12797L7.39407 0.750926Z" fill="#1F2024"/>
<path d="M15.749 7.89405C16.0837 8.22869 16.0837 8.77127 15.749 9.10592L13.372 11.483C13.0373 11.8176 12.4948 11.8176 12.1601 11.483L9.78307 9.10592C9.44843 8.77127 9.44843 8.22869 9.78307 7.89405L12.1601 5.517C12.4948 5.18235 13.0373 5.18235 13.372 5.517L15.749 7.89405Z" fill="#1F2024"/>
<path d="M7.39407 10.2831C7.72872 9.94844 8.27129 9.94844 8.60594 10.2831L10.983 12.6601C11.3176 12.9948 11.3176 13.5374 10.983 13.872L8.60594 16.249C8.27129 16.5837 7.72872 16.5837 7.39407 16.249L5.01702 13.872C4.68238 13.5374 4.68238 12.9948 5.01702 12.6601L7.39407 10.2831Z" fill="#1F2024"/>
<path d="M6.21694 7.89405C6.55159 8.22869 6.55159 8.77127 6.21694 9.10592L3.8399 11.483C3.50525 11.8176 2.96268 11.8176 2.62803 11.483L0.250987 9.10592C-0.0836621 8.77127 -0.0836623 8.22869 0.250987 7.89405L2.62803 5.517C2.96268 5.18235 3.50525 5.18235 3.8399 5.517L6.21694 7.89405Z" fill="#1F2024"/>
</mask>
<g mask="url(#mask0_256_4813)">
<rect y="0.5" width="16" height="16" fill="#1F2024"/>
</g>
</g>
<defs>
<clipPath id="clip0_256_4813">
<rect width="16" height="16" fill="white" transform="translate(0 0.5)"/>
</clipPath>
</defs>
</svg>
