<svg width="124" height="73" viewBox="0 0 124 73" fill="none" xmlns="http://www.w3.org/2000/svg">
<rect x="1.42139" y="0.5" width="33" height="33" rx="16.5" fill="#006FFD"/>
<rect x="1.42139" y="0.5" width="33" height="33" rx="16.5" stroke="#006FFD" stroke-linecap="round" stroke-linejoin="round"/>
<circle cx="17.9214" cy="17" r="6" fill="white"/>
<g clip-path="url(#clip0_248_4446)">
<mask id="mask0_248_4446" style="mask-type:alpha" maskUnits="userSpaceOnUse" x="56" y="8" width="17" height="17">
<path d="M63.8155 8.7685C64.1501 8.43386 64.6927 8.43385 65.0273 8.7685L67.4044 11.1455C67.739 11.4802 67.739 12.0228 67.4044 12.3574L65.0273 14.7345C64.6927 15.0691 64.1501 15.0691 63.8155 14.7345L61.4384 12.3574C61.1038 12.0228 61.1038 11.4802 61.4384 11.1455L63.8155 8.7685Z" fill="#1F2024"/>
<path d="M72.1704 15.9116C72.5051 16.2463 72.5051 16.7888 72.1704 17.1235L69.7934 19.5005C69.4587 19.8352 68.9162 19.8352 68.5815 19.5005L66.2045 17.1235C65.8698 16.7888 65.8698 16.2463 66.2045 15.9116L68.5815 13.5346C68.9162 13.1999 69.4587 13.1999 69.7934 13.5346L72.1704 15.9116Z" fill="#1F2024"/>
<path d="M63.8155 18.3007C64.1501 17.966 64.6927 17.966 65.0273 18.3007L67.4044 20.6777C67.739 21.0124 67.739 21.5549 67.4044 21.8896L65.0273 24.2666C64.6927 24.6013 64.1501 24.6013 63.8155 24.2666L61.4384 21.8896C61.1038 21.5549 61.1038 21.0124 61.4384 20.6777L63.8155 18.3007Z" fill="#1F2024"/>
<path d="M62.6383 15.9116C62.973 16.2463 62.973 16.7888 62.6383 17.1235L60.2613 19.5005C59.9266 19.8352 59.3841 19.8352 59.0494 19.5005L56.6724 17.1235C56.3377 16.7888 56.3377 16.2463 56.6724 15.9116L59.0494 13.5346C59.3841 13.1999 59.9266 13.1999 60.2613 13.5346L62.6383 15.9116Z" fill="#1F2024"/>
</mask>
<g mask="url(#mask0_248_4446)">
<rect x="56.4214" y="8.51758" width="16" height="16" fill="#8F9098"/>
</g>
</g>
<path d="M85.2793 15.063C85.2367 14.7032 85.0639 14.4238 84.7609 14.225C84.4578 14.0261 84.0862 13.9267 83.6458 13.9267C83.3238 13.9267 83.0421 13.9788 82.8006 14.0829C82.5615 14.1871 82.3745 14.3303 82.2396 14.5126C82.107 14.6949 82.0407 14.902 82.0407 15.1341C82.0407 15.3282 82.0869 15.4951 82.1792 15.6348C82.2739 15.7721 82.3946 15.8869 82.5414 15.9792C82.6882 16.0692 82.8421 16.1438 83.0031 16.2029C83.164 16.2598 83.312 16.3059 83.447 16.3414L84.1856 16.5403C84.375 16.59 84.5857 16.6587 84.8177 16.7463C85.0521 16.8339 85.2758 16.9534 85.4889 17.1049C85.7043 17.2541 85.8819 17.4458 86.0215 17.6802C86.1612 17.9146 86.231 18.2022 86.231 18.5431C86.231 18.9361 86.1281 19.2913 85.9221 19.6085C85.7185 19.9257 85.4202 20.1779 85.0272 20.3649C84.6366 20.5519 84.1619 20.6454 83.6032 20.6454C83.0824 20.6454 82.6314 20.5614 82.2502 20.3933C81.8714 20.2252 81.5731 19.9908 81.3553 19.6902C81.1399 19.3895 81.018 19.0403 80.9896 18.6426H81.8987C81.9223 18.9172 82.0147 19.1445 82.1756 19.3244C82.339 19.502 82.545 19.6345 82.7935 19.7221C83.0445 19.8074 83.3144 19.85 83.6032 19.85C83.9394 19.85 84.2412 19.7955 84.5087 19.6866C84.7763 19.5753 84.9881 19.4215 85.1444 19.225C85.3006 19.0261 85.3788 18.7941 85.3788 18.5289C85.3788 18.2875 85.3113 18.091 85.1764 17.9395C85.0414 17.7879 84.8639 17.6648 84.6437 17.5701C84.4235 17.4754 84.1856 17.3926 83.9299 17.3216L83.035 17.0659C82.4668 16.9025 82.017 16.6693 81.6856 16.3663C81.3542 16.0633 81.1884 15.6667 81.1884 15.1767C81.1884 14.7695 81.2985 14.4144 81.5187 14.1113C81.7412 13.8059 82.0395 13.5692 82.4136 13.4011C82.79 13.2306 83.2102 13.1454 83.6742 13.1454C84.143 13.1454 84.5596 13.2295 84.9242 13.3975C85.2888 13.5633 85.5776 13.7905 85.7907 14.0794C86.0061 14.3682 86.1198 14.6961 86.1316 15.063H85.2793ZM87.7154 20.5176V15.063H88.5535V20.5176H87.7154ZM88.1415 14.1539C87.9782 14.1539 87.8373 14.0983 87.7189 13.987C87.6029 13.8758 87.5449 13.742 87.5449 13.5858C87.5449 13.4295 87.6029 13.2958 87.7189 13.1845C87.8373 13.0732 87.9782 13.0176 88.1415 13.0176C88.3049 13.0176 88.4446 13.0732 88.5606 13.1845C88.6789 13.2958 88.7381 13.4295 88.7381 13.5858C88.7381 13.742 88.6789 13.8758 88.5606 13.987C88.4446 14.0983 88.3049 14.1539 88.1415 14.1539ZM90.0822 20.5176V19.8784L93.1788 15.9011V15.8443H90.1816V15.063H94.2583V15.7306L91.247 19.6795V19.7363H94.3578V20.5176H90.0822ZM97.9293 20.6312C97.4037 20.6312 96.9503 20.5152 96.5692 20.2832C96.1904 20.0488 95.898 19.7221 95.6921 19.3031C95.4885 18.8817 95.3867 18.3916 95.3867 17.8329C95.3867 17.2742 95.4885 16.7818 95.6921 16.3556C95.898 15.9271 96.1845 15.5933 96.5514 15.3542C96.9207 15.1127 97.3516 14.992 97.844 14.992C98.1281 14.992 98.4087 15.0394 98.6857 15.1341C98.9627 15.2288 99.2148 15.3826 99.4421 15.5957C99.6693 15.8064 99.8504 16.0858 99.9854 16.4338C100.12 16.7818 100.188 17.2103 100.188 17.7193V18.0744H95.9832V17.35H99.3355C99.3355 17.0422 99.274 16.7676 99.1509 16.5261C99.0301 16.2846 98.8573 16.094 98.6324 15.9544C98.4099 15.8147 98.1471 15.7449 97.844 15.7449C97.5102 15.7449 97.2214 15.8277 96.9776 15.9934C96.7361 16.1568 96.5502 16.3699 96.42 16.6326C96.2898 16.8954 96.2247 17.1771 96.2247 17.4778V17.9608C96.2247 18.3727 96.2957 18.7219 96.4378 19.0083C96.5822 19.2924 96.7823 19.5091 97.0379 19.6582C97.2936 19.805 97.5907 19.8784 97.9293 19.8784C98.1494 19.8784 98.3483 19.8476 98.5259 19.786C98.7058 19.7221 98.8609 19.6274 98.9911 19.502C99.1213 19.3741 99.2219 19.2155 99.2929 19.0261L100.103 19.2534C100.017 19.528 99.8741 19.7695 99.6729 19.9778C99.4716 20.1838 99.2231 20.3448 98.9271 20.4608C98.6312 20.5744 98.2986 20.6312 97.9293 20.6312Z" fill="#1F2024"/>
<g clip-path="url(#clip1_248_4446)">
<mask id="mask1_248_4446" style="mask-type:alpha" maskUnits="userSpaceOnUse" x="56" y="56" width="17" height="17">
<path d="M63.8155 56.315C64.1501 55.9804 64.6927 55.9804 65.0273 56.315L67.4044 58.6921C67.739 59.0267 67.739 59.5693 67.4044 59.9039L65.0273 62.281C64.6927 62.6156 64.1501 62.6156 63.8155 62.281L61.4384 59.9039C61.1038 59.5693 61.1038 59.0267 61.4384 58.6921L63.8155 56.315Z" fill="#1F2024"/>
<path d="M72.1704 63.4581C72.5051 63.7928 72.5051 64.3354 72.1704 64.67L69.7934 67.047C69.4587 67.3817 68.9162 67.3817 68.5815 67.047L66.2045 64.67C65.8698 64.3354 65.8698 63.7928 66.2045 63.4581L68.5815 61.0811C68.9162 60.7464 69.4587 60.7464 69.7934 61.0811L72.1704 63.4581Z" fill="#1F2024"/>
<path d="M63.8155 65.8472C64.1501 65.5125 64.6927 65.5125 65.0273 65.8472L67.4044 68.2242C67.739 68.5589 67.739 69.1014 67.4044 69.4361L65.0273 71.8131C64.6927 72.1478 64.1501 72.1478 63.8155 71.8131L61.4384 69.4361C61.1038 69.1014 61.1038 68.5589 61.4384 68.2242L63.8155 65.8472Z" fill="#1F2024"/>
<path d="M62.6383 63.4581C62.973 63.7928 62.973 64.3354 62.6383 64.67L60.2613 67.047C59.9266 67.3817 59.3841 67.3817 59.0494 67.047L56.6724 64.67C56.3377 64.3354 56.3377 63.7928 56.6724 63.4581L59.0494 61.0811C59.3841 60.7464 59.9266 60.7464 60.2613 61.0811L62.6383 63.4581Z" fill="#1F2024"/>
</mask>
<g mask="url(#mask1_248_4446)">
<rect x="56.4214" y="56.0641" width="16" height="16" fill="#8F9098"/>
</g>
</g>
<path d="M85.2793 62.6095C85.2367 62.2497 85.0639 61.9703 84.7609 61.7715C84.4578 61.5726 84.0862 61.4732 83.6458 61.4732C83.3238 61.4732 83.0421 61.5253 82.8006 61.6294C82.5615 61.7336 82.3745 61.8768 82.2396 62.0591C82.107 62.2414 82.0407 62.4486 82.0407 62.6806C82.0407 62.8747 82.0869 63.0416 82.1792 63.1813C82.2739 63.3186 82.3946 63.4334 82.5414 63.5257C82.6882 63.6157 82.8421 63.6903 83.0031 63.7495C83.164 63.8063 83.312 63.8524 83.447 63.888L84.1856 64.0868C84.375 64.1365 84.5857 64.2052 84.8177 64.2928C85.0521 64.3804 85.2758 64.4999 85.4889 64.6514C85.7043 64.8006 85.8819 64.9924 86.0215 65.2267C86.1612 65.4611 86.231 65.7487 86.231 66.0897C86.231 66.4826 86.1281 66.8378 85.9221 67.155C85.7185 67.4722 85.4202 67.7244 85.0272 67.9114C84.6366 68.0984 84.1619 68.1919 83.6032 68.1919C83.0824 68.1919 82.6314 68.1079 82.2502 67.9398C81.8714 67.7717 81.5731 67.5373 81.3553 67.2367C81.1399 66.936 81.018 66.5868 80.9896 66.1891H81.8987C81.9223 66.4637 82.0147 66.691 82.1756 66.8709C82.339 67.0485 82.545 67.181 82.7935 67.2686C83.0445 67.3539 83.3144 67.3965 83.6032 67.3965C83.9394 67.3965 84.2412 67.342 84.5087 67.2331C84.7763 67.1219 84.9881 66.968 85.1444 66.7715C85.3006 66.5726 85.3788 66.3406 85.3788 66.0755C85.3788 65.834 85.3113 65.6375 85.1764 65.486C85.0414 65.3344 84.8639 65.2113 84.6437 65.1166C84.4235 65.0219 84.1856 64.9391 83.9299 64.8681L83.035 64.6124C82.4668 64.449 82.017 64.2158 81.6856 63.9128C81.3542 63.6098 81.1884 63.2132 81.1884 62.7232C81.1884 62.316 81.2985 61.9609 81.5187 61.6578C81.7412 61.3524 82.0395 61.1157 82.4136 60.9476C82.79 60.7772 83.2102 60.6919 83.6742 60.6919C84.143 60.6919 84.5596 60.776 84.9242 60.9441C85.2888 61.1098 85.5776 61.3371 85.7907 61.6259C86.0061 61.9147 86.1198 62.2426 86.1316 62.6095H85.2793ZM90.0023 68.1777C89.4767 68.1777 89.0234 68.0617 88.6422 67.8297C88.2634 67.5953 87.9711 67.2686 87.7651 66.8496C87.5615 66.4282 87.4597 65.9381 87.4597 65.3794C87.4597 64.8207 87.5615 64.3283 87.7651 63.9022C87.9711 63.4737 88.2575 63.1398 88.6245 62.9007C88.9938 62.6593 89.4247 62.5385 89.9171 62.5385C90.2012 62.5385 90.4817 62.5859 90.7587 62.6806C91.0357 62.7753 91.2878 62.9291 91.5151 63.1422C91.7424 63.3529 91.9235 63.6323 92.0584 63.9803C92.1934 64.3283 92.2608 64.7568 92.2608 65.2658V65.6209H88.0563V64.8965H91.4086C91.4086 64.5887 91.347 64.3141 91.2239 64.0726C91.1032 63.8311 90.9303 63.6406 90.7054 63.5009C90.4829 63.3612 90.2201 63.2914 89.9171 63.2914C89.5833 63.2914 89.2945 63.3742 89.0506 63.5399C88.8091 63.7033 88.6233 63.9164 88.4931 64.1791C88.3629 64.4419 88.2978 64.7237 88.2978 65.0243V65.5073C88.2978 65.9192 88.3688 66.2684 88.5108 66.5549C88.6553 66.8389 88.8553 67.0556 89.111 67.2047C89.3667 67.3515 89.6638 67.4249 90.0023 67.4249C90.2225 67.4249 90.4214 67.3941 90.5989 67.3326C90.7788 67.2686 90.9339 67.1739 91.0641 67.0485C91.1943 66.9206 91.2949 66.762 91.366 66.5726L92.1756 66.7999C92.0904 67.0745 91.9472 67.316 91.7459 67.5243C91.5447 67.7303 91.2961 67.8913 91.0002 68.0073C90.7043 68.1209 90.3716 68.1777 90.0023 68.1777ZM94.5238 60.7914V68.0641H93.6857V60.7914H94.5238ZM98.4957 68.1777C97.9701 68.1777 97.5167 68.0617 97.1356 67.8297C96.7568 67.5953 96.4644 67.2686 96.2585 66.8496C96.0549 66.4282 95.9531 65.9381 95.9531 65.3794C95.9531 64.8207 96.0549 64.3283 96.2585 63.9022C96.4644 63.4737 96.7509 63.1398 97.1178 62.9007C97.4872 62.6593 97.918 62.5385 98.4104 62.5385C98.6945 62.5385 98.9751 62.5859 99.2521 62.6806C99.5291 62.7753 99.7812 62.9291 100.008 63.1422C100.236 63.3529 100.417 63.6323 100.552 63.9803C100.687 64.3283 100.754 64.7568 100.754 65.2658V65.6209H96.5497V64.8965H99.9019C99.9019 64.5887 99.8404 64.3141 99.7173 64.0726C99.5965 63.8311 99.4237 63.6406 99.1988 63.5009C98.9763 63.3612 98.7135 63.2914 98.4104 63.2914C98.0766 63.2914 97.7878 63.3742 97.544 63.5399C97.3025 63.7033 97.1167 63.9164 96.9864 64.1791C96.8562 64.4419 96.7911 64.7237 96.7911 65.0243V65.5073C96.7911 65.9192 96.8622 66.2684 97.0042 66.5549C97.1486 66.8389 97.3487 67.0556 97.6043 67.2047C97.86 67.3515 98.1571 67.4249 98.4957 67.4249C98.7158 67.4249 98.9147 67.3941 99.0923 67.3326C99.2722 67.2686 99.4273 67.1739 99.5575 67.0485C99.6877 66.9206 99.7883 66.762 99.8593 66.5726L100.669 66.7999C100.584 67.0745 100.441 67.316 100.239 67.5243C100.038 67.7303 99.7895 67.8913 99.4935 68.0073C99.1976 68.1209 98.865 68.1777 98.4957 68.1777ZM104.395 68.1777C103.884 68.1777 103.443 68.057 103.074 67.8155C102.705 67.574 102.421 67.2414 102.222 66.8176C102.023 66.3939 101.923 65.9097 101.923 65.3652C101.923 64.8112 102.025 64.3224 102.229 63.8986C102.435 63.4725 102.721 63.1398 103.088 62.9007C103.457 62.6593 103.888 62.5385 104.381 62.5385C104.764 62.5385 105.11 62.6095 105.418 62.7516C105.725 62.8936 105.978 63.0925 106.174 63.3482C106.371 63.6039 106.493 63.9022 106.54 64.2431H105.702C105.638 63.9945 105.496 63.7743 105.276 63.5826C105.058 63.3884 104.764 63.2914 104.395 63.2914C104.068 63.2914 103.782 63.3766 103.536 63.547C103.292 63.7151 103.101 63.9531 102.964 64.2608C102.829 64.5662 102.761 64.9249 102.761 65.3368C102.761 65.7582 102.828 66.1252 102.96 66.4377C103.095 66.7502 103.285 66.9928 103.528 67.1656C103.775 67.3385 104.064 67.4249 104.395 67.4249C104.613 67.4249 104.81 67.387 104.988 67.3112C105.166 67.2355 105.316 67.1266 105.439 66.9845C105.562 66.8425 105.65 66.672 105.702 66.4732H106.54C106.493 66.7951 106.375 67.0852 106.188 67.3432C106.004 67.5989 105.759 67.8025 105.453 67.954C105.15 68.1031 104.797 68.1777 104.395 68.1777ZM110.287 62.6095V63.3198H107.46V62.6095H110.287ZM108.284 61.3027H109.122V66.5016C109.122 66.7383 109.157 66.9159 109.225 67.0343C109.296 67.1503 109.386 67.2284 109.495 67.2686C109.607 67.3065 109.724 67.3255 109.847 67.3255C109.939 67.3255 110.015 67.3207 110.074 67.3112C110.133 67.2994 110.181 67.2899 110.216 67.2828L110.387 68.0357C110.33 68.057 110.25 68.0783 110.149 68.0996C110.047 68.1233 109.918 68.1351 109.762 68.1351C109.525 68.1351 109.293 68.0842 109.066 67.9824C108.841 67.8806 108.654 67.7255 108.504 67.5172C108.358 67.3089 108.284 67.0461 108.284 66.7289V61.3027ZM113.926 68.1777C113.401 68.1777 112.947 68.0617 112.566 67.8297C112.187 67.5953 111.895 67.2686 111.689 66.8496C111.485 66.4282 111.384 65.9381 111.384 65.3794C111.384 64.8207 111.485 64.3283 111.689 63.9022C111.895 63.4737 112.181 63.1398 112.548 62.9007C112.918 62.6593 113.348 62.5385 113.841 62.5385C114.125 62.5385 114.406 62.5859 114.683 62.6806C114.96 62.7753 115.212 62.9291 115.439 63.1422C115.666 63.3529 115.847 63.6323 115.982 63.9803C116.117 64.3283 116.185 64.7568 116.185 65.2658V65.6209H111.98V64.8965H115.332C115.332 64.5887 115.271 64.3141 115.148 64.0726C115.027 63.8311 114.854 63.6406 114.629 63.5009C114.407 63.3612 114.144 63.2914 113.841 63.2914C113.507 63.2914 113.218 63.3742 112.974 63.5399C112.733 63.7033 112.547 63.9164 112.417 64.1791C112.287 64.4419 112.222 64.7237 112.222 65.0243V65.5073C112.222 65.9192 112.293 66.2684 112.435 66.5549C112.579 66.8389 112.779 67.0556 113.035 67.2047C113.29 67.3515 113.588 67.4249 113.926 67.4249C114.146 67.4249 114.345 67.3941 114.523 67.3326C114.703 67.2686 114.858 67.1739 114.988 67.0485C115.118 66.9206 115.219 66.762 115.29 66.5726L116.099 66.7999C116.014 67.0745 115.871 67.316 115.67 67.5243C115.469 67.7303 115.22 67.8913 114.924 68.0073C114.628 68.1209 114.295 68.1777 113.926 68.1777ZM119.669 68.1777C119.215 68.1777 118.813 68.0629 118.465 67.8333C118.117 67.6013 117.845 67.2746 117.649 66.8531C117.452 66.4294 117.354 65.9287 117.354 65.351C117.354 64.7781 117.452 64.2809 117.649 63.8595C117.845 63.4381 118.119 63.1126 118.469 62.883C118.819 62.6533 119.224 62.5385 119.683 62.5385C120.039 62.5385 120.319 62.5977 120.525 62.7161C120.733 62.8321 120.892 62.9647 121.001 63.1138C121.112 63.2606 121.199 63.3813 121.26 63.476H121.331V60.7914H122.169V68.0641H121.36V67.226H121.26C121.199 67.3255 121.111 67.4509 120.997 67.6024C120.884 67.7516 120.722 67.8853 120.511 68.0037C120.3 68.1197 120.02 68.1777 119.669 68.1777ZM119.783 67.4249C120.119 67.4249 120.403 67.3373 120.635 67.1621C120.867 66.9845 121.043 66.7395 121.164 66.427C121.285 66.1121 121.345 65.7487 121.345 65.3368C121.345 64.9296 121.286 64.5733 121.168 64.2679C121.049 63.9602 120.874 63.721 120.642 63.5506C120.41 63.3778 120.124 63.2914 119.783 63.2914C119.428 63.2914 119.132 63.3825 118.895 63.5648C118.661 63.7447 118.484 63.9897 118.366 64.2999C118.25 64.6076 118.192 64.9533 118.192 65.3368C118.192 65.7251 118.251 66.0778 118.369 66.3951C118.49 66.7099 118.668 66.9609 118.902 67.1479C119.139 67.3326 119.432 67.4249 119.783 67.4249Z" fill="#1F2024"/>
<path d="M45.7749 0.646447C45.5797 0.451184 45.2631 0.451184 45.0678 0.646447L41.8859 3.82843C41.6906 4.02369 41.6906 4.34027 41.8859 4.53553C42.0811 4.7308 42.3977 4.7308 42.593 4.53553L45.4214 1.70711L48.2498 4.53553C48.4451 4.7308 48.7617 4.7308 48.9569 4.53553C49.1522 4.34027 49.1522 4.02369 48.9569 3.82843L45.7749 0.646447ZM45.0678 32.3886C45.2631 32.5839 45.5797 32.5839 45.7749 32.3886L48.9569 29.2067C49.1522 29.0114 49.1522 28.6948 48.9569 28.4996C48.7617 28.3043 48.4451 28.3043 48.2498 28.4996L45.4214 31.328L42.593 28.4996C42.3977 28.3043 42.0811 28.3043 41.8859 28.4996C41.6906 28.6948 41.6906 29.0114 41.8859 29.2067L45.0678 32.3886ZM44.9214 1V32.0351H45.9214V1H44.9214Z" fill="#8F9098"/>
<path d="M17.9214 29.3455V56.0641C17.9214 60.4824 21.5031 64.0641 25.9214 64.0641H48.9214" stroke="#8F9098"/>
<defs>
<clipPath id="clip0_248_4446">
<rect width="16" height="16" fill="white" transform="translate(56.4214 8.51758)"/>
</clipPath>
<clipPath id="clip1_248_4446">
<rect width="16" height="16" fill="white" transform="translate(56.4214 56.0641)"/>
</clipPath>
</defs>
</svg>
