<svg width="430" height="102" viewBox="0 0 430 102" fill="none" xmlns="http://www.w3.org/2000/svg">
<mask id="mask0_256_4912" style="mask-type:alpha" maskUnits="userSpaceOnUse" x="349" y="2" width="17" height="12">
<path d="M357.001 5.83742C356.422 5.83742 355.867 6.06729 355.458 6.47646C355.049 6.88563 354.819 7.44059 354.819 8.01924C354.819 8.5979 355.049 9.15285 355.458 9.56202C355.867 9.97119 356.422 10.2011 357.001 10.2011C357.58 10.2011 358.135 9.97119 358.544 9.56202C358.953 9.15285 359.183 8.5979 359.183 8.01924C359.183 7.44059 358.953 6.88563 358.544 6.47646C358.135 6.06729 357.58 5.83742 357.001 5.83742ZM357.001 11.6556C356.037 11.6556 355.112 11.2725 354.43 10.5905C353.748 9.90859 353.365 8.98367 353.365 8.01924C353.365 7.05482 353.748 6.1299 354.43 5.44795C355.112 4.76599 356.037 4.38288 357.001 4.38288C357.965 4.38288 358.89 4.76599 359.572 5.44795C360.254 6.1299 360.637 7.05482 360.637 8.01924C360.637 8.98367 360.254 9.90859 359.572 10.5905C358.89 11.2725 357.965 11.6556 357.001 11.6556ZM357.001 2.5647C353.466 2.5647 350.296 4.74652 349.001 8.01924C350.739 12.4411 355.728 14.6083 360.15 12.8702C362.368 11.9974 364.128 10.2447 365.001 8.01924C363.706 4.74652 360.536 2.5647 357.001 2.5647Z" fill="#006FFD"/>
</mask>
<g mask="url(#mask0_256_4912)">
<rect x="349.001" y="0.019043" width="16" height="16" fill="#8F9098"/>
</g>
<path d="M377.859 6.5645C377.816 6.20465 377.643 5.92529 377.34 5.72643C377.037 5.52757 376.666 5.42813 376.225 5.42813C375.903 5.42813 375.622 5.48022 375.38 5.58438C375.141 5.68855 374.954 5.83178 374.819 6.01407C374.687 6.19636 374.62 6.40351 374.62 6.63552C374.62 6.82965 374.666 6.99655 374.759 7.13623C374.853 7.27354 374.974 7.38836 375.121 7.48069C375.268 7.57065 375.422 7.64523 375.583 7.70441C375.744 7.76123 375.892 7.8074 376.027 7.84291L376.765 8.04177C376.955 8.09149 377.165 8.16014 377.397 8.24774C377.632 8.33533 377.855 8.45489 378.068 8.6064C378.284 8.75555 378.461 8.94731 378.601 9.18168C378.741 9.41606 378.811 9.7037 378.811 10.0446C378.811 10.4376 378.708 10.7927 378.502 11.11C378.298 11.4272 378 11.6793 377.607 11.8663C377.216 12.0534 376.742 12.1469 376.183 12.1469C375.662 12.1469 375.211 12.0628 374.83 11.8948C374.451 11.7267 374.153 11.4923 373.935 11.1916C373.719 10.891 373.598 10.5418 373.569 10.144H374.478C374.502 10.4187 374.594 10.6459 374.755 10.8259C374.919 11.0034 375.125 11.136 375.373 11.2236C375.624 11.3088 375.894 11.3514 376.183 11.3514C376.519 11.3514 376.821 11.297 377.088 11.1881C377.356 11.0768 377.568 10.9229 377.724 10.7264C377.88 10.5276 377.958 10.2956 377.958 10.0304C377.958 9.78893 377.891 9.59243 377.756 9.44092C377.621 9.2894 377.443 9.1663 377.223 9.0716C377.003 8.9769 376.765 8.89404 376.509 8.82302L375.615 8.56734C375.046 8.40399 374.597 8.17079 374.265 7.86776C373.934 7.56473 373.768 7.16819 373.768 6.67813C373.768 6.27094 373.878 5.91582 374.098 5.61279C374.321 5.3074 374.619 5.07065 374.993 4.90257C375.37 4.73211 375.79 4.64688 376.254 4.64688C376.723 4.64688 377.139 4.73093 377.504 4.89901C377.868 5.06473 378.157 5.29201 378.37 5.58083C378.586 5.86966 378.699 6.19755 378.711 6.5645H377.859ZM381.133 8.73779V12.019H380.295V4.74632H381.133V7.41677H381.204C381.332 7.13505 381.524 6.91133 381.779 6.74561C382.037 6.57752 382.381 6.49347 382.809 6.49347C383.181 6.49347 383.506 6.56805 383.786 6.7172C384.065 6.86398 384.282 7.09007 384.436 7.39546C384.592 7.69849 384.67 8.08438 384.67 8.55313V12.019H383.832V8.60995C383.832 8.17671 383.719 7.84172 383.495 7.60498C383.272 7.36587 382.963 7.24632 382.568 7.24632C382.293 7.24632 382.047 7.30432 381.829 7.42032C381.614 7.53633 381.443 7.7056 381.318 7.92813C381.195 8.15067 381.133 8.42056 381.133 8.73779ZM388.569 12.1327C388.077 12.1327 387.645 12.0155 387.273 11.7811C386.904 11.5467 386.615 11.2189 386.406 10.7975C386.2 10.3761 386.097 9.88363 386.097 9.32018C386.097 8.752 386.2 8.25602 386.406 7.83225C386.615 7.40848 386.904 7.07941 387.273 6.84504C387.645 6.61066 388.077 6.49347 388.569 6.49347C389.062 6.49347 389.492 6.61066 389.862 6.84504C390.233 7.07941 390.522 7.40848 390.728 7.83225C390.937 8.25602 391.041 8.752 391.041 9.32018C391.041 9.88363 390.937 10.3761 390.728 10.7975C390.522 11.2189 390.233 11.5467 389.862 11.7811C389.492 12.0155 389.062 12.1327 388.569 12.1327ZM388.569 11.3798C388.943 11.3798 389.251 11.284 389.492 11.0922C389.734 10.9004 389.913 10.6483 390.029 10.3358C390.145 10.0233 390.203 9.68476 390.203 9.32018C390.203 8.9556 390.145 8.61587 390.029 8.301C389.913 7.98614 389.734 7.73164 389.492 7.53751C389.251 7.34338 388.943 7.24632 388.569 7.24632C388.195 7.24632 387.887 7.34338 387.646 7.53751C387.404 7.73164 387.226 7.98614 387.11 8.301C386.994 8.61587 386.936 8.9556 386.936 9.32018C386.936 9.68476 386.994 10.0233 387.11 10.3358C387.226 10.6483 387.404 10.9004 387.646 11.0922C387.887 11.284 388.195 11.3798 388.569 11.3798ZM393.52 12.019L391.858 6.5645H392.739L393.918 10.7406H393.975L395.14 6.5645H396.034L397.185 10.7264H397.242L398.421 6.5645H399.301L397.64 12.019H396.816L395.622 7.8287H395.537L394.344 12.019H393.52ZM403.934 4.74632L406.093 10.8685H406.178L408.337 4.74632H409.261L406.59 12.019H405.681L403.011 4.74632H403.934ZM411.527 12.1469C411.181 12.1469 410.868 12.0818 410.586 11.9516C410.304 11.819 410.081 11.6284 409.915 11.3798C409.749 11.1289 409.666 10.8259 409.666 10.4707C409.666 10.1582 409.728 9.90493 409.851 9.7108C409.974 9.51431 410.139 9.36043 410.345 9.24916C410.55 9.13789 410.778 9.05503 411.026 9.00058C411.277 8.94376 411.529 8.89878 411.783 8.86563C412.114 8.82302 412.383 8.79106 412.589 8.76975C412.797 8.74608 412.949 8.70702 413.043 8.65257C413.14 8.59811 413.189 8.50342 413.189 8.36847V8.34007C413.189 7.98969 413.093 7.71743 412.901 7.5233C412.712 7.32918 412.424 7.23211 412.038 7.23211C411.638 7.23211 411.325 7.31971 411.097 7.4949C410.87 7.67008 410.71 7.85711 410.618 8.05597L409.822 7.77188C409.965 7.44044 410.154 7.1824 410.391 6.99774C410.63 6.81071 410.89 6.6805 411.172 6.60711C411.456 6.53135 411.735 6.49347 412.01 6.49347C412.185 6.49347 412.386 6.51478 412.614 6.55739C412.843 6.59764 413.065 6.68168 413.278 6.80953C413.493 6.93737 413.672 7.13031 413.814 7.38836C413.956 7.64641 414.027 7.99205 414.027 8.42529V12.019H413.189V11.2804H413.146C413.09 11.3988 412.995 11.5254 412.862 11.6604C412.73 11.7953 412.553 11.9101 412.333 12.0048C412.113 12.0995 411.844 12.1469 411.527 12.1469ZM411.655 11.394C411.986 11.394 412.266 11.3289 412.493 11.1987C412.723 11.0685 412.895 10.9004 413.011 10.6945C413.13 10.4885 413.189 10.2719 413.189 10.0446V9.27757C413.153 9.32018 413.075 9.35924 412.955 9.39475C412.836 9.4279 412.699 9.45749 412.543 9.48353C412.389 9.50721 412.238 9.52851 412.092 9.54745C411.947 9.56402 411.83 9.57823 411.74 9.59007C411.522 9.61847 411.319 9.66464 411.129 9.72856C410.942 9.79011 410.791 9.88363 410.675 10.0091C410.561 10.1322 410.504 10.3003 410.504 10.5134C410.504 10.8046 410.612 11.0247 410.827 11.1739C411.045 11.3207 411.321 11.394 411.655 11.394ZM416.545 4.74632V12.019H415.707V4.74632H416.545ZM421.667 9.78893V6.5645H422.505V12.019H421.667V11.0957H421.61C421.483 11.3727 421.284 11.6083 421.014 11.8024C420.744 11.9942 420.403 12.0901 419.991 12.0901C419.65 12.0901 419.347 12.0155 419.082 11.8663C418.817 11.7148 418.609 11.4876 418.457 11.1845C418.305 10.8791 418.23 10.4944 418.23 10.0304V6.5645H419.068V9.97359C419.068 10.3713 419.179 10.6886 419.402 10.9253C419.627 11.162 419.913 11.2804 420.261 11.2804C420.469 11.2804 420.681 11.2271 420.897 11.1206C421.114 11.0141 421.297 10.8507 421.444 10.6305C421.593 10.4104 421.667 10.1298 421.667 9.78893ZM426.477 12.1327C425.952 12.1327 425.498 12.0167 425.117 11.7847C424.738 11.5503 424.446 11.2236 424.24 10.8046C424.036 10.3832 423.935 9.8931 423.935 9.33438C423.935 8.77567 424.036 8.28325 424.24 7.85711C424.446 7.42861 424.732 7.0948 425.099 6.85569C425.469 6.61421 425.9 6.49347 426.392 6.49347C426.676 6.49347 426.957 6.54082 427.234 6.63552C427.511 6.73022 427.763 6.8841 427.99 7.09717C428.217 7.30787 428.398 7.58722 428.533 7.93524C428.668 8.28325 428.736 8.71175 428.736 9.22075V9.57586H424.531V8.85143H427.883C427.883 8.54366 427.822 8.26904 427.699 8.02757C427.578 7.78609 427.405 7.59551 427.18 7.45583C426.958 7.31615 426.695 7.24632 426.392 7.24632C426.058 7.24632 425.769 7.32918 425.526 7.4949C425.284 7.65825 425.098 7.87132 424.968 8.1341C424.838 8.39688 424.773 8.67861 424.773 8.97927V9.46222C424.773 9.87416 424.844 10.2234 424.986 10.5098C425.13 10.7939 425.33 11.0105 425.586 11.1597C425.842 11.3064 426.139 11.3798 426.477 11.3798C426.697 11.3798 426.896 11.3491 427.074 11.2875C427.254 11.2236 427.409 11.1289 427.539 11.0034C427.669 10.8756 427.77 10.717 427.841 10.5276L428.651 10.7548C428.565 11.0295 428.422 11.2709 428.221 11.4793C428.02 11.6852 427.771 11.8462 427.475 11.9622C427.179 12.0759 426.847 12.1327 426.477 12.1327Z" fill="#1F2024"/>
<mask id="mask1_256_4912" style="mask-type:alpha" maskUnits="userSpaceOnUse" x="349" y="25" width="16" height="14">
<path d="M363.52 25.3524H350.483C350.266 25.3524 350.059 25.435 349.906 25.5821C349.754 25.7292 349.668 25.9287 349.668 26.1367V28.4897C349.668 28.6977 349.754 28.8972 349.906 29.0443C350.059 29.1914 350.266 29.274 350.483 29.274C350.699 29.274 350.906 29.1914 351.059 29.0443C351.212 28.8972 351.297 28.6977 351.297 28.4897V26.921H356.186V37.1171H354.557C354.341 37.1171 354.133 37.1998 353.98 37.3468C353.828 37.4939 353.742 37.6934 353.742 37.9014C353.742 38.1094 353.828 38.3089 353.98 38.456C354.133 38.6031 354.341 38.6858 354.557 38.6858H359.446C359.662 38.6858 359.869 38.6031 360.022 38.456C360.174 38.3089 360.26 38.1094 360.26 37.9014C360.26 37.6934 360.174 37.4939 360.022 37.3468C359.869 37.1998 359.662 37.1171 359.446 37.1171H357.816V26.921H362.705V28.4897C362.705 28.6977 362.791 28.8972 362.943 29.0443C363.096 29.1914 363.303 29.274 363.52 29.274C363.736 29.274 363.943 29.1914 364.096 29.0443C364.249 28.8972 364.334 28.6977 364.334 28.4897V26.1367C364.334 25.9287 364.249 25.7292 364.096 25.5821C363.943 25.435 363.736 25.3524 363.52 25.3524Z" fill="black"/>
</mask>
<g mask="url(#mask1_256_4912)">
<rect x="349.001" y="24.019" width="16" height="16" fill="#8F9098"/>
</g>
<path d="M374.18 28.7463L376.339 34.8685H376.424L378.583 28.7463H379.507L376.836 36.019H375.927L373.257 28.7463H374.18ZM381.773 36.1469C381.427 36.1469 381.114 36.0818 380.832 35.9516C380.55 35.819 380.327 35.6284 380.161 35.3798C379.995 35.1289 379.912 34.8259 379.912 34.4707C379.912 34.1582 379.974 33.9049 380.097 33.7108C380.22 33.5143 380.385 33.3604 380.591 33.2492C380.797 33.1379 381.024 33.055 381.272 33.0006C381.523 32.9438 381.776 32.8988 382.029 32.8656C382.36 32.823 382.629 32.7911 382.835 32.7698C383.043 32.7461 383.195 32.707 383.289 32.6526C383.387 32.5981 383.435 32.5034 383.435 32.3685V32.3401C383.435 31.9897 383.339 31.7174 383.147 31.5233C382.958 31.3292 382.67 31.2321 382.284 31.2321C381.884 31.2321 381.571 31.3197 381.343 31.4949C381.116 31.6701 380.956 31.8571 380.864 32.056L380.069 31.7719C380.211 31.4404 380.4 31.1824 380.637 30.9977C380.876 30.8107 381.136 30.6805 381.418 30.6071C381.702 30.5314 381.981 30.4935 382.256 30.4935C382.431 30.4935 382.633 30.5148 382.86 30.5574C383.089 30.5976 383.311 30.6817 383.524 30.8095C383.739 30.9374 383.918 31.1303 384.06 31.3884C384.202 31.6464 384.273 31.9921 384.273 32.4253V36.019H383.435V35.2804H383.392C383.336 35.3988 383.241 35.5254 383.108 35.6604C382.976 35.7953 382.799 35.9101 382.579 36.0048C382.359 36.0995 382.09 36.1469 381.773 36.1469ZM381.901 35.394C382.232 35.394 382.512 35.3289 382.739 35.1987C382.969 35.0685 383.142 34.9004 383.258 34.6945C383.376 34.4885 383.435 34.2719 383.435 34.0446V33.2776C383.4 33.3202 383.321 33.3592 383.201 33.3948C383.082 33.4279 382.945 33.4575 382.789 33.4835C382.635 33.5072 382.485 33.5285 382.338 33.5475C382.193 33.564 382.076 33.5782 381.986 33.5901C381.768 33.6185 381.565 33.6646 381.375 33.7286C381.188 33.7901 381.037 33.8836 380.921 34.0091C380.807 34.1322 380.75 34.3003 380.75 34.5134C380.75 34.8046 380.858 35.0247 381.074 35.1739C381.291 35.3207 381.567 35.394 381.901 35.394ZM386.791 28.7463V36.019H385.953V28.7463H386.791ZM391.913 33.7889V30.5645H392.751V36.019H391.913V35.0957H391.857C391.729 35.3727 391.53 35.6083 391.26 35.8024C390.99 35.9942 390.649 36.0901 390.237 36.0901C389.896 36.0901 389.593 36.0155 389.328 35.8663C389.063 35.7148 388.855 35.4876 388.703 35.1845C388.552 34.8791 388.476 34.4944 388.476 34.0304V30.5645H389.314V33.9736C389.314 34.3713 389.425 34.6886 389.648 34.9253C389.873 35.162 390.159 35.2804 390.507 35.2804C390.715 35.2804 390.927 35.2271 391.143 35.1206C391.361 35.0141 391.543 34.8507 391.69 34.6305C391.839 34.4104 391.913 34.1298 391.913 33.7889ZM396.723 36.1327C396.198 36.1327 395.744 36.0167 395.363 35.7847C394.984 35.5503 394.692 35.2236 394.486 34.8046C394.282 34.3832 394.181 33.8931 394.181 33.3344C394.181 32.7757 394.282 32.2832 394.486 31.8571C394.692 31.4286 394.979 31.0948 395.345 30.8557C395.715 30.6142 396.146 30.4935 396.638 30.4935C396.922 30.4935 397.203 30.5408 397.48 30.6355C397.757 30.7302 398.009 30.8841 398.236 31.0972C398.463 31.3079 398.644 31.5872 398.779 31.9352C398.914 32.2832 398.982 32.7118 398.982 33.2207V33.5759H394.777V32.8514H398.13C398.13 32.5437 398.068 32.269 397.945 32.0276C397.824 31.7861 397.651 31.5955 397.426 31.4558C397.204 31.3162 396.941 31.2463 396.638 31.2463C396.304 31.2463 396.015 31.3292 395.772 31.4949C395.53 31.6582 395.344 31.8713 395.214 32.1341C395.084 32.3969 395.019 32.6786 395.019 32.9793V33.4622C395.019 33.8742 395.09 34.2234 395.232 34.5098C395.376 34.7939 395.576 35.0105 395.832 35.1597C396.088 35.3064 396.385 35.3798 396.723 35.3798C396.943 35.3798 397.142 35.3491 397.32 35.2875C397.5 35.2236 397.655 35.1289 397.785 35.0034C397.915 34.8756 398.016 34.717 398.087 34.5276L398.897 34.7548C398.811 35.0295 398.668 35.2709 398.467 35.4793C398.266 35.6852 398.017 35.8462 397.721 35.9622C397.425 36.0759 397.093 36.1327 396.723 36.1327Z" fill="#1F2024"/>
<path d="M312.975 61.3803V31.7664M342.166 10.4304H320.975C316.557 10.4304 312.975 14.0121 312.975 18.4304V31.7664M312.975 31.7664H342.166" stroke="#8F9098"/>
<rect x="0.921387" y="77.3802" width="278" height="8" rx="4" fill="#E8E9F1"/>
<rect x="0.921387" y="77.3413" width="129" height="8" rx="4" fill="#006FFD"/>
<g filter="url(#filter0_d_256_4912)">
<rect x="124.921" y="71.3413" width="20" height="20" rx="10" fill="white"/>
<circle cx="134.983" cy="81.4033" r="5" fill="#006FFD"/>
</g>
<rect x="292.921" y="61.3802" width="56" height="40" rx="12" fill="#F8F9FE"/>
<path d="M312.157 85.4996C311.657 85.4996 311.206 85.4001 310.806 85.2013C310.405 85.0024 310.084 84.7297 309.843 84.3831C309.601 84.0365 309.469 83.6416 309.446 83.1984H310.469C310.509 83.5933 310.688 83.92 311.006 84.1785C311.327 84.4342 311.711 84.5621 312.157 84.5621C312.515 84.5621 312.833 84.4783 313.111 84.3106C313.392 84.143 313.613 83.9129 313.772 83.6203C313.934 83.3249 314.015 82.991 314.015 82.6189C314.015 82.2382 313.931 81.8987 313.763 81.6004C313.598 81.2993 313.371 81.0621 313.081 80.8888C312.792 80.7155 312.461 80.6274 312.088 80.6246C311.821 80.6217 311.547 80.6629 311.266 80.7481C310.985 80.8305 310.753 80.9371 310.571 81.0677L309.583 80.9484L310.111 76.653H314.645V77.5905H310.998L310.691 80.1643H310.742C310.921 80.0223 311.145 79.9044 311.415 79.8106C311.685 79.7169 311.966 79.67 312.259 79.67C312.793 79.67 313.269 79.7979 313.687 80.0535C314.107 80.3064 314.437 80.653 314.675 81.0933C314.917 81.5337 315.037 82.0365 315.037 82.6018C315.037 83.1587 314.912 83.6558 314.662 84.0933C314.415 84.528 314.074 84.8717 313.64 85.1246C313.205 85.3746 312.711 85.4996 312.157 85.4996ZM319.697 85.4996C319.055 85.4996 318.508 85.3249 318.056 84.9754C317.604 84.6231 317.259 84.1132 317.021 83.4456C316.782 82.7751 316.663 81.9655 316.663 81.0166C316.663 80.0734 316.782 79.268 317.021 78.6004C317.262 77.93 317.609 77.4186 318.06 77.0663C318.515 76.7112 319.06 76.5337 319.697 76.5337C320.333 76.5337 320.877 76.7112 321.329 77.0663C321.783 77.4186 322.13 77.93 322.369 78.6004C322.61 79.268 322.731 80.0734 322.731 81.0166C322.731 81.9655 322.612 82.7751 322.373 83.4456C322.134 84.1132 321.789 84.6231 321.337 84.9754C320.886 85.3249 320.339 85.4996 319.697 85.4996ZM319.697 84.5621C320.333 84.5621 320.827 84.2552 321.18 83.6416C321.532 83.028 321.708 82.153 321.708 81.0166C321.708 80.2609 321.627 79.6175 321.465 79.0862C321.306 78.555 321.076 78.1501 320.775 77.8717C320.477 77.5933 320.117 77.4541 319.697 77.4541C319.066 77.4541 318.573 77.7652 318.218 78.3874C317.863 79.0067 317.685 79.8831 317.685 81.0166C317.685 81.7723 317.765 82.4143 317.924 82.9427C318.083 83.4712 318.312 83.8731 318.61 84.1487C318.911 84.4243 319.273 84.5621 319.697 84.5621ZM328.919 83.7439V83.2837C328.919 82.9655 328.984 82.6743 329.115 82.4101C329.249 82.143 329.442 81.93 329.695 81.7709C329.95 81.6089 330.26 81.528 330.624 81.528C330.993 81.528 331.303 81.6089 331.553 81.7709C331.803 81.93 331.991 82.143 332.119 82.4101C332.247 82.6743 332.311 82.9655 332.311 83.2837V83.7439C332.311 84.0621 332.246 84.3547 332.115 84.6217C331.987 84.8859 331.797 85.099 331.544 85.2609C331.294 85.42 330.987 85.4996 330.624 85.4996C330.254 85.4996 329.943 85.42 329.69 85.2609C329.438 85.099 329.246 84.8859 329.115 84.6217C328.984 84.3547 328.919 84.0621 328.919 83.7439ZM329.788 83.2837V83.7439C329.788 84.0081 329.851 84.2453 329.976 84.4555C330.101 84.6629 330.317 84.7666 330.624 84.7666C330.922 84.7666 331.132 84.6629 331.254 84.4555C331.379 84.2453 331.442 84.0081 331.442 83.7439V83.2837C331.442 83.0195 331.382 82.7837 331.263 82.5763C331.143 82.366 330.93 82.2609 330.624 82.2609C330.325 82.2609 330.111 82.366 329.98 82.5763C329.852 82.7837 329.788 83.0195 329.788 83.2837ZM324.572 78.7496V78.2893C324.572 77.9712 324.638 77.68 324.768 77.4158C324.902 77.1487 325.095 76.9356 325.348 76.7766C325.604 76.6146 325.913 76.5337 326.277 76.5337C326.646 76.5337 326.956 76.6146 327.206 76.7766C327.456 76.9356 327.645 77.1487 327.773 77.4158C327.901 77.68 327.965 77.9712 327.965 78.2893V78.7496C327.965 79.0677 327.899 79.3604 327.768 79.6274C327.641 79.8916 327.45 80.1047 327.197 80.2666C326.947 80.4257 326.641 80.5052 326.277 80.5052C325.908 80.5052 325.597 80.4257 325.344 80.2666C325.091 80.1047 324.899 79.8916 324.768 79.6274C324.638 79.3604 324.572 79.0677 324.572 78.7496ZM325.442 78.2893V78.7496C325.442 79.0138 325.504 79.251 325.629 79.4612C325.754 79.6686 325.97 79.7723 326.277 79.7723C326.575 79.7723 326.786 79.6686 326.908 79.4612C327.033 79.251 327.095 79.0138 327.095 78.7496V78.2893C327.095 78.0251 327.036 77.7893 326.916 77.582C326.797 77.3717 326.584 77.2666 326.277 77.2666C325.979 77.2666 325.764 77.3717 325.634 77.582C325.506 77.7893 325.442 78.0251 325.442 78.2893ZM324.896 85.3802L330.896 76.653H331.868L325.868 85.3802H324.896Z" fill="#1F2024"/>
<g clip-path="url(#clip0_256_4912)">
<mask id="mask2_256_4912" style="mask-type:alpha" maskUnits="userSpaceOnUse" x="94" y="26" width="17" height="17">
<path d="M101.815 26.27C102.15 25.9354 102.693 25.9354 103.027 26.27L105.404 28.6471C105.739 28.9817 105.739 29.5243 105.404 29.8589L103.027 32.236C102.693 32.5706 102.15 32.5706 101.815 32.236L99.4384 29.8589C99.1038 29.5243 99.1038 28.9817 99.4384 28.6471L101.815 26.27Z" fill="#1F2024"/>
<path d="M110.17 33.4131C110.505 33.7478 110.505 34.2904 110.17 34.625L107.793 37.0021C107.459 37.3367 106.916 37.3367 106.582 37.0021L104.204 34.625C103.87 34.2904 103.87 33.7478 104.204 33.4131L106.582 31.0361C106.916 30.7015 107.459 30.7015 107.793 31.0361L110.17 33.4131Z" fill="#1F2024"/>
<path d="M101.815 35.8022C102.15 35.4675 102.693 35.4675 103.027 35.8022L105.404 38.1792C105.739 38.5139 105.739 39.0565 105.404 39.3911L103.027 41.7681C102.693 42.1028 102.15 42.1028 101.815 41.7681L99.4384 39.3911C99.1038 39.0565 99.1038 38.5139 99.4384 38.1792L101.815 35.8022Z" fill="#1F2024"/>
<path d="M100.638 33.4131C100.973 33.7478 100.973 34.2904 100.638 34.625L98.2613 37.0021C97.9266 37.3367 97.3841 37.3367 97.0494 37.0021L94.6724 34.625C94.3377 34.2904 94.3377 33.7478 94.6724 33.4131L97.0494 31.0361C97.3841 30.7015 97.9266 30.7015 98.2613 31.0361L100.638 33.4131Z" fill="#1F2024"/>
</mask>
<g mask="url(#mask2_256_4912)">
<rect x="94.4214" y="26.019" width="16" height="16" fill="#8F9098"/>
</g>
</g>
<path d="M123.279 32.5645C123.237 32.2046 123.064 31.9253 122.761 31.7264C122.458 31.5276 122.086 31.4281 121.646 31.4281C121.324 31.4281 121.042 31.4802 120.801 31.5844C120.562 31.6886 120.375 31.8318 120.24 32.0141C120.107 32.1964 120.041 32.4035 120.041 32.6355C120.041 32.8296 120.087 32.9966 120.179 33.1362C120.274 33.2735 120.395 33.3884 120.541 33.4807C120.688 33.5707 120.842 33.6452 121.003 33.7044C121.164 33.7612 121.312 33.8074 121.447 33.8429L122.186 34.0418C122.375 34.0915 122.586 34.1601 122.818 34.2477C123.052 34.3353 123.276 34.4549 123.489 34.6064C123.704 34.7555 123.882 34.9473 124.022 35.1817C124.161 35.4161 124.231 35.7037 124.231 36.0446C124.231 36.4376 124.128 36.7927 123.922 37.11C123.718 37.4272 123.42 37.6793 123.027 37.8663C122.637 38.0534 122.162 38.1469 121.603 38.1469C121.082 38.1469 120.631 38.0628 120.25 37.8948C119.871 37.7267 119.573 37.4923 119.355 37.1916C119.14 36.891 119.018 36.5418 118.99 36.144H119.899C119.922 36.4187 120.015 36.6459 120.176 36.8259C120.339 37.0034 120.545 37.136 120.794 37.2236C121.044 37.3088 121.314 37.3514 121.603 37.3514C121.939 37.3514 122.241 37.297 122.509 37.1881C122.776 37.0768 122.988 36.9229 123.144 36.7264C123.301 36.5276 123.379 36.2956 123.379 36.0304C123.379 35.7889 123.311 35.5924 123.176 35.4409C123.041 35.2894 122.864 35.1663 122.644 35.0716C122.424 34.9769 122.186 34.894 121.93 34.823L121.035 34.5673C120.467 34.404 120.017 34.1708 119.686 33.8678C119.354 33.5647 119.188 33.1682 119.188 32.6781C119.188 32.2709 119.299 31.9158 119.519 31.6128C119.741 31.3074 120.04 31.0707 120.414 30.9026C120.79 30.7321 121.21 30.6469 121.674 30.6469C122.143 30.6469 122.56 30.7309 122.924 30.899C123.289 31.0647 123.578 31.292 123.791 31.5808C124.006 31.8697 124.12 32.1975 124.132 32.5645H123.279ZM126.553 30.7463V38.019H125.715V30.7463H126.553ZM128.238 38.019V32.5645H129.077V38.019H128.238ZM128.665 31.6554C128.501 31.6554 128.36 31.5998 128.242 31.4885C128.126 31.3772 128.068 31.2435 128.068 31.0872C128.068 30.931 128.126 30.7972 128.242 30.6859C128.36 30.5747 128.501 30.519 128.665 30.519C128.828 30.519 128.968 30.5747 129.084 30.6859C129.202 30.7972 129.261 30.931 129.261 31.0872C129.261 31.2435 129.202 31.3772 129.084 31.4885C128.968 31.5998 128.828 31.6554 128.665 31.6554ZM132.821 38.1327C132.367 38.1327 131.965 38.0179 131.617 37.7882C131.269 37.5562 130.997 37.2295 130.801 36.8081C130.604 36.3843 130.506 35.8836 130.506 35.306C130.506 34.7331 130.604 34.2359 130.801 33.8145C130.997 33.3931 131.27 33.0676 131.621 32.8379C131.971 32.6083 132.376 32.4935 132.835 32.4935C133.19 32.4935 133.471 32.5527 133.677 32.671C133.885 32.787 134.044 32.9196 134.153 33.0688C134.264 33.2155 134.35 33.3363 134.412 33.431H134.483V30.7463H135.321V38.019H134.511V37.181H134.412C134.35 37.2804 134.263 37.4059 134.149 37.5574C134.036 37.7065 133.873 37.8403 133.663 37.9587C133.452 38.0747 133.172 38.1327 132.821 38.1327ZM132.935 37.3798C133.271 37.3798 133.555 37.2922 133.787 37.1171C134.019 36.9395 134.195 36.6945 134.316 36.382C134.437 36.0671 134.497 35.7037 134.497 35.2918C134.497 34.8846 134.438 34.5283 134.32 34.2229C134.201 33.9151 134.026 33.676 133.794 33.5055C133.562 33.3327 133.276 33.2463 132.935 33.2463C132.58 33.2463 132.284 33.3375 132.047 33.5198C131.813 33.6997 131.636 33.9447 131.518 34.2548C131.402 34.5626 131.344 34.9082 131.344 35.2918C131.344 35.68 131.403 36.0328 131.521 36.35C131.642 36.6649 131.82 36.9158 132.054 37.1028C132.291 37.2875 132.584 37.3798 132.935 37.3798ZM139.409 38.1327C138.884 38.1327 138.43 38.0167 138.049 37.7847C137.67 37.5503 137.378 37.2236 137.172 36.8046C136.969 36.3832 136.867 35.8931 136.867 35.3344C136.867 34.7757 136.969 34.2832 137.172 33.8571C137.378 33.4286 137.665 33.0948 138.032 32.8557C138.401 32.6142 138.832 32.4935 139.324 32.4935C139.608 32.4935 139.889 32.5408 140.166 32.6355C140.443 32.7302 140.695 32.8841 140.922 33.0972C141.149 33.3079 141.331 33.5872 141.465 33.9352C141.6 34.2832 141.668 34.7118 141.668 35.2207V35.5759H137.463V34.8514H140.816C140.816 34.5437 140.754 34.269 140.631 34.0276C140.51 33.7861 140.337 33.5955 140.112 33.4558C139.89 33.3162 139.627 33.2463 139.324 33.2463C138.99 33.2463 138.701 33.3292 138.458 33.4949C138.216 33.6582 138.03 33.8713 137.9 34.1341C137.77 34.3969 137.705 34.6786 137.705 34.9793V35.4622C137.705 35.8742 137.776 36.2234 137.918 36.5098C138.062 36.7939 138.262 37.0105 138.518 37.1597C138.774 37.3064 139.071 37.3798 139.409 37.3798C139.63 37.3798 139.828 37.3491 140.006 37.2875C140.186 37.2236 140.341 37.1289 140.471 37.0034C140.601 36.8756 140.702 36.717 140.773 36.5276L141.583 36.7548C141.497 37.0295 141.354 37.2709 141.153 37.4793C140.952 37.6852 140.703 37.8462 140.407 37.9622C140.111 38.0759 139.779 38.1327 139.409 38.1327ZM143.093 38.019V32.5645H143.902V33.3884H143.959C144.059 33.1185 144.239 32.8995 144.499 32.7314C144.759 32.5633 145.053 32.4793 145.38 32.4793C145.441 32.4793 145.518 32.4805 145.61 32.4828C145.703 32.4852 145.773 32.4887 145.82 32.4935V33.3457C145.792 33.3386 145.726 33.328 145.625 33.3138C145.525 33.2972 145.42 33.2889 145.309 33.2889C145.043 33.2889 144.807 33.3446 144.598 33.4558C144.392 33.5647 144.229 33.7162 144.108 33.9104C143.99 34.1021 143.931 34.3211 143.931 34.5673V38.019H143.093ZM150.04 38.019V30.7463H152.582C153.089 30.7463 153.507 30.8339 153.836 31.0091C154.165 31.1819 154.41 31.4151 154.571 31.7087C154.732 31.9999 154.812 32.323 154.812 32.6781C154.812 32.9906 154.757 33.2487 154.645 33.4523C154.536 33.6559 154.392 33.8169 154.212 33.9352C154.035 34.0536 153.842 34.1412 153.633 34.198V34.269C153.856 34.2832 154.08 34.3614 154.304 34.5034C154.529 34.6455 154.718 34.8491 154.869 35.1142C155.021 35.3794 155.096 35.7037 155.096 36.0872C155.096 36.4518 155.014 36.7797 154.848 37.0709C154.682 37.3621 154.42 37.5929 154.063 37.7634C153.706 37.9338 153.24 38.019 152.667 38.019H150.04ZM150.92 37.2378H152.667C153.243 37.2378 153.651 37.1265 153.893 36.904C154.136 36.6791 154.258 36.4068 154.258 36.0872C154.258 35.841 154.196 35.6137 154.07 35.4054C153.945 35.1947 153.766 35.0266 153.534 34.9011C153.302 34.7733 153.027 34.7094 152.71 34.7094H150.92V37.2378ZM150.92 33.9423H152.554C152.819 33.9423 153.058 33.8903 153.271 33.7861C153.487 33.6819 153.657 33.5351 153.782 33.3457C153.91 33.1564 153.974 32.9338 153.974 32.6781C153.974 32.3585 153.863 32.0875 153.64 31.8649C153.418 31.64 153.065 31.5276 152.582 31.5276H150.92V33.9423ZM158.185 38.1469C157.839 38.1469 157.526 38.0818 157.244 37.9516C156.962 37.819 156.738 37.6284 156.573 37.3798C156.407 37.1289 156.324 36.8259 156.324 36.4707C156.324 36.1582 156.386 35.9049 156.509 35.7108C156.632 35.5143 156.796 35.3604 157.002 35.2492C157.208 35.1379 157.436 35.055 157.684 35.0006C157.935 34.9438 158.187 34.8988 158.441 34.8656C158.772 34.823 159.041 34.7911 159.247 34.7698C159.455 34.7461 159.607 34.707 159.701 34.6526C159.798 34.5981 159.847 34.5034 159.847 34.3685V34.3401C159.847 33.9897 159.751 33.7174 159.559 33.5233C159.37 33.3292 159.082 33.2321 158.696 33.2321C158.296 33.2321 157.983 33.3197 157.755 33.4949C157.528 33.6701 157.368 33.8571 157.276 34.056L156.48 33.7719C156.622 33.4404 156.812 33.1824 157.049 32.9977C157.288 32.8107 157.548 32.6805 157.83 32.6071C158.114 32.5314 158.393 32.4935 158.668 32.4935C158.843 32.4935 159.044 32.5148 159.272 32.5574C159.501 32.5976 159.723 32.6817 159.936 32.8095C160.151 32.9374 160.33 33.1303 160.472 33.3884C160.614 33.6464 160.685 33.9921 160.685 34.4253V38.019H159.847V37.2804H159.804C159.747 37.3988 159.653 37.5254 159.52 37.6604C159.388 37.7953 159.211 37.9101 158.991 38.0048C158.771 38.0995 158.502 38.1469 158.185 38.1469ZM158.313 37.394C158.644 37.394 158.924 37.3289 159.151 37.1987C159.381 37.0685 159.553 36.9004 159.669 36.6945C159.788 36.4885 159.847 36.2719 159.847 36.0446V35.2776C159.811 35.3202 159.733 35.3592 159.613 35.3948C159.494 35.4279 159.357 35.4575 159.201 35.4835C159.047 35.5072 158.896 35.5285 158.75 35.5475C158.605 35.564 158.488 35.5782 158.398 35.5901C158.18 35.6185 157.977 35.6646 157.787 35.7286C157.6 35.7901 157.449 35.8836 157.333 36.0091C157.219 36.1322 157.162 36.3003 157.162 36.5134C157.162 36.8046 157.27 37.0247 157.485 37.1739C157.703 37.3207 157.979 37.394 158.313 37.394ZM162.365 38.019V32.5645H163.174V33.3884H163.231C163.331 33.1185 163.51 32.8995 163.771 32.7314C164.031 32.5633 164.325 32.4793 164.652 32.4793C164.713 32.4793 164.79 32.4805 164.882 32.4828C164.975 32.4852 165.045 32.4887 165.092 32.4935V33.3457C165.063 33.3386 164.998 33.328 164.897 33.3138C164.797 33.2972 164.692 33.2889 164.581 33.2889C164.315 33.2889 164.079 33.3446 163.87 33.4558C163.664 33.5647 163.501 33.7162 163.38 33.9104C163.262 34.1021 163.203 34.3211 163.203 34.5673V38.019H162.365ZM169.61 30.7463L171.769 36.8685H171.854L174.013 30.7463H174.936L172.266 38.019H171.357L168.686 30.7463H169.61ZM177.203 38.1469C176.857 38.1469 176.544 38.0818 176.262 37.9516C175.98 37.819 175.756 37.6284 175.591 37.3798C175.425 37.1289 175.342 36.8259 175.342 36.4707C175.342 36.1582 175.404 35.9049 175.527 35.7108C175.65 35.5143 175.814 35.3604 176.02 35.2492C176.226 35.1379 176.454 35.055 176.702 35.0006C176.953 34.9438 177.205 34.8988 177.459 34.8656C177.79 34.823 178.059 34.7911 178.265 34.7698C178.473 34.7461 178.625 34.707 178.719 34.6526C178.816 34.5981 178.865 34.5034 178.865 34.3685V34.3401C178.865 33.9897 178.769 33.7174 178.577 33.5233C178.388 33.3292 178.1 33.2321 177.714 33.2321C177.314 33.2321 177.001 33.3197 176.773 33.4949C176.546 33.6701 176.386 33.8571 176.294 34.056L175.498 33.7719C175.64 33.4404 175.83 33.1824 176.067 32.9977C176.306 32.8107 176.566 32.6805 176.848 32.6071C177.132 32.5314 177.411 32.4935 177.686 32.4935C177.861 32.4935 178.062 32.5148 178.29 32.5574C178.519 32.5976 178.741 32.6817 178.954 32.8095C179.169 32.9374 179.348 33.1303 179.49 33.3884C179.632 33.6464 179.703 33.9921 179.703 34.4253V38.019H178.865V37.2804H178.822C178.765 37.3988 178.671 37.5254 178.538 37.6604C178.406 37.7953 178.229 37.9101 178.009 38.0048C177.789 38.0995 177.52 38.1469 177.203 38.1469ZM177.331 37.394C177.662 37.394 177.942 37.3289 178.169 37.1987C178.398 37.0685 178.571 36.9004 178.687 36.6945C178.806 36.4885 178.865 36.2719 178.865 36.0446V35.2776C178.829 35.3202 178.751 35.3592 178.63 35.3948C178.512 35.4279 178.375 35.4575 178.219 35.4835C178.065 35.5072 177.914 35.5285 177.768 35.5475C177.623 35.564 177.506 35.5782 177.416 35.5901C177.198 35.6185 176.995 35.6646 176.805 35.7286C176.618 35.7901 176.467 35.8836 176.351 36.0091C176.237 36.1322 176.18 36.3003 176.18 36.5134C176.18 36.8046 176.288 37.0247 176.503 37.1739C176.721 37.3207 176.997 37.394 177.331 37.394ZM182.221 30.7463V38.019H181.383V30.7463H182.221ZM187.343 35.7889V32.5645H188.181V38.019H187.343V37.0957H187.286C187.158 37.3727 186.96 37.6083 186.69 37.8024C186.42 37.9942 186.079 38.0901 185.667 38.0901C185.326 38.0901 185.023 38.0155 184.758 37.8663C184.493 37.7148 184.284 37.4876 184.133 37.1845C183.981 36.8791 183.906 36.4944 183.906 36.0304V32.5645H184.744V35.9736C184.744 36.3713 184.855 36.6886 185.077 36.9253C185.302 37.162 185.589 37.2804 185.937 37.2804C186.145 37.2804 186.357 37.2271 186.573 37.1206C186.79 37.0141 186.973 36.8507 187.119 36.6305C187.269 36.4104 187.343 36.1298 187.343 35.7889ZM192.153 38.1327C191.628 38.1327 191.174 38.0167 190.793 37.7847C190.414 37.5503 190.122 37.2236 189.916 36.8046C189.712 36.3832 189.61 35.8931 189.61 35.3344C189.61 34.7757 189.712 34.2832 189.916 33.8571C190.122 33.4286 190.408 33.0948 190.775 32.8557C191.145 32.6142 191.575 32.4935 192.068 32.4935C192.352 32.4935 192.633 32.5408 192.909 32.6355C193.186 32.7302 193.439 32.8841 193.666 33.0972C193.893 33.3079 194.074 33.5872 194.209 33.9352C194.344 34.2832 194.412 34.7118 194.412 35.2207V35.5759H190.207V34.8514H193.559C193.559 34.5437 193.498 34.269 193.375 34.0276C193.254 33.7861 193.081 33.5955 192.856 33.4558C192.634 33.3162 192.371 33.2463 192.068 33.2463C191.734 33.2463 191.445 33.3292 191.201 33.4949C190.96 33.6582 190.774 33.8713 190.644 34.1341C190.514 34.3969 190.449 34.6786 190.449 34.9793V35.4622C190.449 35.8742 190.52 36.2234 190.662 36.5098C190.806 36.7939 191.006 37.0105 191.262 37.1597C191.517 37.3064 191.815 37.3798 192.153 37.3798C192.373 37.3798 192.572 37.3491 192.75 37.2875C192.93 37.2236 193.085 37.1289 193.215 37.0034C193.345 36.8756 193.446 36.717 193.517 36.5276L194.326 36.7548C194.241 37.0295 194.098 37.2709 193.897 37.4793C193.695 37.6852 193.447 37.8462 193.151 37.9622C192.855 38.0759 192.522 38.1327 192.153 38.1327Z" fill="#1F2024"/>
<path d="M64.4214 79.8013V42.5345C64.4214 38.1162 68.0031 34.5345 72.4214 34.5345H87.9927" stroke="#8F9098"/>
<defs>
<filter id="filter0_d_256_4912" x="117.921" y="67.3413" width="32" height="32" filterUnits="userSpaceOnUse" color-interpolation-filters="sRGB">
<feFlood flood-opacity="0" result="BackgroundImageFix"/>
<feColorMatrix in="SourceAlpha" type="matrix" values="0 0 0 0 0 0 0 0 0 0 0 0 0 0 0 0 0 0 127 0" result="hardAlpha"/>
<feOffset dx="-1" dy="2"/>
<feGaussianBlur stdDeviation="3"/>
<feComposite in2="hardAlpha" operator="out"/>
<feColorMatrix type="matrix" values="0 0 0 0 0 0 0 0 0 0 0 0 0 0 0 0 0 0 0.15 0"/>
<feBlend mode="normal" in2="BackgroundImageFix" result="effect1_dropShadow_256_4912"/>
<feBlend mode="normal" in="SourceGraphic" in2="effect1_dropShadow_256_4912" result="shape"/>
</filter>
<clipPath id="clip0_256_4912">
<rect width="16" height="16" fill="white" transform="translate(94.4214 26.019)"/>
</clipPath>
</defs>
</svg>
