<svg width="118" height="62" viewBox="0 0 118 62" fill="none" xmlns="http://www.w3.org/2000/svg">
<g clip-path="url(#clip0_261_6761)">
<mask id="mask0_261_6761" style="mask-type:alpha" maskUnits="userSpaceOnUse" x="62" y="45" width="17" height="17">
<path d="M69.6416 45.3121C69.9763 44.9775 70.5188 44.9775 70.8535 45.3121L73.2305 47.6892C73.5652 48.0238 73.5652 48.5664 73.2305 48.9011L70.8535 51.2781C70.5188 51.6128 69.9763 51.6128 69.6416 51.2781L67.2646 48.9011C66.9299 48.5664 66.9299 48.0238 67.2646 47.6892L69.6416 45.3121Z" fill="#1F2024"/>
<path d="M77.9966 52.4553C78.3312 52.7899 78.3312 53.3325 77.9966 53.6671L75.6195 56.0442C75.2849 56.3788 74.7423 56.3788 74.4077 56.0442L72.0306 53.6671C71.696 53.3325 71.696 52.7899 72.0306 52.4553L74.4077 50.0782C74.7423 49.7436 75.2849 49.7436 75.6195 50.0782L77.9966 52.4553Z" fill="#1F2024"/>
<path d="M69.6416 54.8443C69.9763 54.5097 70.5188 54.5097 70.8535 54.8443L73.2305 57.2213C73.5652 57.556 73.5652 58.0986 73.2305 58.4332L70.8535 60.8103C70.5188 61.1449 69.9763 61.1449 69.6416 60.8103L67.2646 58.4332C66.9299 58.0986 66.9299 57.556 67.2646 57.2213L69.6416 54.8443Z" fill="#1F2024"/>
<path d="M68.4645 52.4553C68.7992 52.7899 68.7992 53.3325 68.4645 53.6671L66.0875 56.0442C65.7528 56.3788 65.2102 56.3788 64.8756 56.0442L62.4985 53.6671C62.1639 53.3325 62.1639 52.7899 62.4985 52.4553L64.8756 50.0782C65.2102 49.7436 65.7528 49.7436 66.0875 50.0782L68.4645 52.4553Z" fill="#1F2024"/>
</mask>
<g mask="url(#mask0_261_6761)">
<rect x="62.2476" y="45.0612" width="16" height="16" fill="#8F9098"/>
</g>
</g>
<path d="M87.1282 57.0612V49.7884H89.5856C90.1538 49.7884 90.6202 49.8855 90.9848 50.0796C91.3494 50.2714 91.6192 50.5354 91.7944 50.8715C91.9696 51.2077 92.0572 51.59 92.0572 52.0185C92.0572 52.447 91.9696 52.827 91.7944 53.1585C91.6192 53.4899 91.3505 53.7503 90.9883 53.9397C90.6261 54.1267 90.1633 54.2202 89.5998 54.2202H87.6112V53.4248H89.5714C89.9597 53.4248 90.2722 53.368 90.5089 53.2543C90.748 53.1407 90.9209 52.9797 91.0274 52.7714C91.1363 52.5607 91.1907 52.3097 91.1907 52.0185C91.1907 51.7274 91.1363 51.4729 91.0274 51.255C90.9185 51.0372 90.7445 50.8692 90.5054 50.7508C90.2663 50.63 89.9502 50.5697 89.5572 50.5697H88.0089V57.0612H87.1282ZM90.5515 53.7941L92.3413 57.0612H91.3186L89.5572 53.7941H90.5515ZM95.1662 57.189C94.8206 57.189 94.5069 57.1239 94.2252 56.9937C93.9434 56.8611 93.7197 56.6705 93.554 56.422C93.3883 56.171 93.3054 55.868 93.3054 55.5129C93.3054 55.2004 93.367 54.947 93.4901 54.7529C93.6132 54.5564 93.7777 54.4025 93.9837 54.2913C94.1896 54.18 94.4169 54.0971 94.6655 54.0427C94.9164 53.9859 95.1686 53.9409 95.4219 53.9077C95.7533 53.8651 96.022 53.8332 96.228 53.8119C96.4363 53.7882 96.5878 53.7491 96.6825 53.6947C96.7796 53.6402 96.8281 53.5455 96.8281 53.4106V53.3822C96.8281 53.0318 96.7323 52.7595 96.5405 52.5654C96.3511 52.3713 96.0635 52.2742 95.6776 52.2742C95.2775 52.2742 94.9638 52.3618 94.7365 52.537C94.5092 52.7122 94.3494 52.8992 94.2571 53.0981L93.4617 52.814C93.6037 52.4826 93.7931 52.2245 94.0298 52.0399C94.2689 51.8528 94.5294 51.7226 94.8111 51.6492C95.0952 51.5735 95.3745 51.5356 95.6492 51.5356C95.8243 51.5356 96.0256 51.5569 96.2528 51.5995C96.4825 51.6398 96.7038 51.7238 96.9169 51.8516C97.1323 51.9795 97.3111 52.1724 97.4531 52.4305C97.5952 52.6885 97.6662 53.0342 97.6662 53.4674V57.0612H96.8281V56.3225H96.7855C96.7287 56.4409 96.634 56.5675 96.5014 56.7025C96.3689 56.8374 96.1925 56.9523 95.9723 57.047C95.7521 57.1416 95.4834 57.189 95.1662 57.189ZM95.294 56.4362C95.6255 56.4362 95.9048 56.3711 96.1321 56.2408C96.3618 56.1106 96.5346 55.9425 96.6506 55.7366C96.7689 55.5306 96.8281 55.314 96.8281 55.0867V54.3197C96.7926 54.3623 96.7145 54.4014 96.5938 54.4369C96.4754 54.47 96.3381 54.4996 96.1818 54.5256C96.0279 54.5493 95.8776 54.5706 95.7308 54.5896C95.5864 54.6061 95.4692 54.6203 95.3793 54.6322C95.1615 54.6606 94.9579 54.7068 94.7685 54.7707C94.5814 54.8322 94.4299 54.9257 94.3139 55.0512C94.2003 55.1743 94.1435 55.3424 94.1435 55.5555C94.1435 55.8467 94.2512 56.0668 94.4666 56.216C94.6844 56.3628 94.9602 56.4362 95.294 56.4362ZM101.718 51.6066V52.3168H98.8913V51.6066H101.718ZM99.7152 50.2998H100.553V55.4987C100.553 55.7354 100.588 55.913 100.656 56.0313C100.727 56.1473 100.817 56.2255 100.926 56.2657C101.037 56.3036 101.155 56.3225 101.278 56.3225C101.37 56.3225 101.446 56.3178 101.505 56.3083C101.564 56.2965 101.611 56.287 101.647 56.2799L101.817 57.0327C101.761 57.0541 101.681 57.0754 101.58 57.0967C101.478 57.1203 101.349 57.1322 101.192 57.1322C100.956 57.1322 100.724 57.0813 100.496 56.9795C100.272 56.8777 100.084 56.7226 99.9353 56.5143C99.7886 56.3059 99.7152 56.0432 99.7152 55.7259V50.2998ZM103.129 57.0612V51.6066H103.967V57.0612H103.129ZM103.555 50.6975C103.391 50.6975 103.251 50.6419 103.132 50.5306C103.016 50.4193 102.958 50.2856 102.958 50.1293C102.958 49.9731 103.016 49.8393 103.132 49.7281C103.251 49.6168 103.391 49.5612 103.555 49.5612C103.718 49.5612 103.858 49.6168 103.974 49.7281C104.092 49.8393 104.151 49.9731 104.151 50.1293C104.151 50.2856 104.092 50.4193 103.974 50.5306C103.858 50.6419 103.718 50.6975 103.555 50.6975ZM106.49 53.7799V57.0612H105.652V51.6066H106.461V52.4589H106.532C106.66 52.1819 106.854 51.9594 107.115 51.7913C107.375 51.6208 107.711 51.5356 108.123 51.5356C108.493 51.5356 108.816 51.6113 109.093 51.7629C109.37 51.912 109.585 52.1393 109.739 52.4447C109.893 52.7477 109.97 53.1312 109.97 53.5952V57.0612H109.132V53.6521C109.132 53.2236 109.021 52.8898 108.798 52.6506C108.575 52.4092 108.27 52.2884 107.882 52.2884C107.614 52.2884 107.375 52.3464 107.164 52.4624C106.956 52.5784 106.792 52.7477 106.671 52.9702C106.55 53.1928 106.49 53.4627 106.49 53.7799ZM113.853 59.2202C113.448 59.2202 113.1 59.1682 112.809 59.064C112.518 58.9622 112.275 58.8273 112.081 58.6592C111.889 58.4934 111.737 58.3159 111.623 58.1265L112.291 57.6577C112.366 57.7572 112.462 57.8708 112.578 57.9987C112.694 58.1289 112.853 58.2413 113.054 58.336C113.258 58.4331 113.524 58.4816 113.853 58.4816C114.293 58.4816 114.657 58.3751 114.943 58.162C115.23 57.9489 115.373 57.6151 115.373 57.1606V56.0526H115.302C115.24 56.1521 115.153 56.2752 115.039 56.422C114.928 56.5664 114.767 56.6954 114.556 56.809C114.348 56.9203 114.066 56.9759 113.711 56.9759C113.271 56.9759 112.875 56.8718 112.525 56.6634C112.177 56.4551 111.901 56.1521 111.697 55.7543C111.496 55.3566 111.396 54.8737 111.396 54.3055C111.396 53.7468 111.494 53.2603 111.69 52.846C111.887 52.4293 112.16 52.1073 112.511 51.88C112.861 51.6504 113.266 51.5356 113.725 51.5356C114.08 51.5356 114.362 51.5948 114.57 51.7131C114.781 51.8291 114.942 51.9617 115.053 52.1109C115.167 52.2577 115.255 52.3784 115.316 52.4731H115.401V51.6066H116.211V57.2174C116.211 57.6862 116.104 58.0673 115.891 58.3609C115.681 58.6568 115.397 58.8734 115.039 59.0107C114.684 59.1504 114.289 59.2202 113.853 59.2202ZM113.825 56.2231C114.161 56.2231 114.445 56.1461 114.677 55.9923C114.909 55.8384 115.085 55.617 115.206 55.3282C115.327 55.0394 115.387 54.6937 115.387 54.2913C115.387 53.8983 115.328 53.5515 115.21 53.2508C115.091 52.9501 114.916 52.7146 114.684 52.5441C114.452 52.3737 114.166 52.2884 113.825 52.2884C113.47 52.2884 113.174 52.3784 112.937 52.5583C112.702 52.7382 112.526 52.9797 112.408 53.2827C112.292 53.5858 112.234 53.922 112.234 54.2913C112.234 54.6701 112.293 55.005 112.411 55.2962C112.532 55.5851 112.71 55.8123 112.944 55.9781C113.181 56.1414 113.474 56.2231 113.825 56.2231Z" fill="#1F2024"/>
<path d="M33.9214 28V44.7717C33.9214 49.19 37.5031 52.7718 41.9214 52.7718H54.3936" stroke="#8F9098"/>
<g clip-path="url(#clip1_261_6761)">
<mask id="mask1_261_6761" style="mask-type:alpha" maskUnits="userSpaceOnUse" x="0" y="0" width="21" height="20">
<path d="M20.2751 6.72533L14.2794 5.85397L11.5992 0.420341C11.526 0.271572 11.4056 0.15114 11.2568 0.0779356C10.8837 -0.106255 10.4303 0.0472372 10.2438 0.420341L7.56355 5.85397L1.56791 6.72533C1.40261 6.74895 1.25148 6.82687 1.13577 6.94494C0.99588 7.08872 0.918796 7.28216 0.921453 7.48274C0.92411 7.68332 1.00629 7.87464 1.14994 8.01467L5.48786 12.244L4.46301 18.216C4.43897 18.3549 4.45435 18.4978 4.50738 18.6284C4.56042 18.7591 4.64899 18.8722 4.76307 18.9551C4.87714 19.0379 5.01215 19.0871 5.15278 19.0972C5.29341 19.1072 5.43403 19.0776 5.5587 19.0118L10.9215 16.1923L16.2843 19.0118C16.4307 19.0897 16.6007 19.1157 16.7636 19.0874C17.1745 19.0165 17.4508 18.6269 17.38 18.216L16.3551 12.244L20.693 8.01467C20.8111 7.89896 20.889 7.74783 20.9127 7.58253C20.9764 7.16928 20.6883 6.78673 20.2751 6.72533Z" fill="#006FFD"/>
</mask>
<g mask="url(#mask1_261_6761)">
<rect x="0.921387" width="20" height="20" fill="#006FFD"/>
</g>
</g>
<g clip-path="url(#clip2_261_6761)">
<mask id="mask2_261_6761" style="mask-type:alpha" maskUnits="userSpaceOnUse" x="24" y="0" width="21" height="20">
<path d="M44.2751 6.72533L38.2794 5.85397L35.5992 0.420341C35.526 0.271572 35.4056 0.15114 35.2568 0.0779356C34.8837 -0.106255 34.4303 0.0472372 34.2438 0.420341L31.5635 5.85397L25.5679 6.72533C25.4026 6.74895 25.2515 6.82687 25.1358 6.94494C24.9959 7.08872 24.9188 7.28216 24.9215 7.48274C24.9241 7.68332 25.0063 7.87464 25.1499 8.01467L29.4879 12.244L28.463 18.216C28.439 18.3549 28.4543 18.4978 28.5074 18.6284C28.5604 18.7591 28.649 18.8722 28.7631 18.9551C28.8771 19.0379 29.0121 19.0871 29.1528 19.0972C29.2934 19.1072 29.434 19.0776 29.5587 19.0118L34.9215 16.1923L40.2843 19.0118C40.4307 19.0897 40.6007 19.1157 40.7636 19.0874C41.1745 19.0165 41.4508 18.6269 41.38 18.216L40.3551 12.244L44.693 8.01467C44.8111 7.89896 44.889 7.74783 44.9127 7.58253C44.9764 7.16928 44.6883 6.78673 44.2751 6.72533Z" fill="#006FFD"/>
</mask>
<g mask="url(#mask2_261_6761)">
<rect x="24.9214" width="20" height="20" fill="#006FFD"/>
</g>
</g>
<g clip-path="url(#clip3_261_6761)">
<mask id="mask3_261_6761" style="mask-type:alpha" maskUnits="userSpaceOnUse" x="48" y="0" width="21" height="20">
<path d="M68.2751 6.72533L62.2794 5.85397L59.5992 0.420341C59.526 0.271572 59.4056 0.15114 59.2568 0.0779356C58.8837 -0.106255 58.4303 0.0472372 58.2438 0.420341L55.5635 5.85397L49.5679 6.72533C49.4026 6.74895 49.2515 6.82687 49.1358 6.94494C48.9959 7.08872 48.9188 7.28216 48.9215 7.48274C48.9241 7.68332 49.0063 7.87464 49.1499 8.01467L53.4879 12.244L52.463 18.216C52.439 18.3549 52.4543 18.4978 52.5074 18.6284C52.5604 18.7591 52.649 18.8722 52.7631 18.9551C52.8771 19.0379 53.0121 19.0871 53.1528 19.0972C53.2934 19.1072 53.434 19.0776 53.5587 19.0118L58.9215 16.1923L64.2843 19.0118C64.4307 19.0897 64.6007 19.1157 64.7636 19.0874C65.1745 19.0165 65.4508 18.6269 65.38 18.216L64.3551 12.244L68.693 8.01467C68.8111 7.89896 68.889 7.74783 68.9127 7.58253C68.9764 7.16928 68.6883 6.78673 68.2751 6.72533Z" fill="#006FFD"/>
</mask>
<g mask="url(#mask3_261_6761)">
<rect x="48.9214" width="20" height="20" fill="#006FFD"/>
</g>
</g>
<mask id="mask4_261_6761" style="mask-type:alpha" maskUnits="userSpaceOnUse" x="72" y="0" width="21" height="20">
<path fill-rule="evenodd" clip-rule="evenodd" d="M85.9797 7.91558C85.301 7.81694 84.7143 7.39059 84.4109 6.77552L82.9214 3.75582L81.4319 6.77552C81.1285 7.39059 80.5418 7.81694 79.8631 7.91558L76.5296 8.40004L78.9422 10.7521C79.4331 11.2308 79.6571 11.9204 79.5411 12.5962L78.9716 15.915L81.9519 14.3481C82.5588 14.029 83.2839 14.029 83.8909 14.3481L86.8712 15.915L86.3016 12.5962C86.1857 11.9204 86.4096 11.2308 86.9006 10.7521L89.3131 8.40004L85.9797 7.91558ZM92.2749 6.72526C92.6881 6.78665 92.9762 7.1692 92.9124 7.58244C92.8888 7.74774 92.8109 7.89887 92.6928 8.01458L88.3549 12.2438L89.3798 18.2158C89.4506 18.6267 89.1744 19.0163 88.7635 19.0872C88.6005 19.1155 88.4305 19.0895 88.2841 19.0116L82.9214 16.1921L77.5587 19.0116C77.434 19.0774 77.2934 19.107 77.1527 19.097C77.0121 19.0869 76.8771 19.0377 76.763 18.9549C76.649 18.872 76.5604 18.7589 76.5073 18.6282C76.4543 18.4976 76.4389 18.3547 76.463 18.2158L77.4878 12.2438L73.1499 8.01458C73.0063 7.87456 72.9241 7.68324 72.9215 7.48266C72.9188 7.28208 72.9959 7.08864 73.1358 6.94487C73.2515 6.8268 73.4026 6.74887 73.5679 6.72526L79.5635 5.8539L82.2437 0.420337C82.4302 0.0472366 82.8836 -0.106254 83.2567 0.0779347C83.4055 0.151138 83.5259 0.271569 83.5991 0.420337L86.2793 5.8539L92.2749 6.72526Z" fill="#006FFD"/>
</mask>
<g mask="url(#mask4_261_6761)">
<rect x="72.9214" width="20" height="20" fill="#D4D6DD"/>
</g>
<mask id="mask5_261_6761" style="mask-type:alpha" maskUnits="userSpaceOnUse" x="96" y="0" width="21" height="20">
<path fill-rule="evenodd" clip-rule="evenodd" d="M109.98 7.91558C109.301 7.81694 108.714 7.39059 108.411 6.77552L106.921 3.75582L105.432 6.77552C105.128 7.39059 104.542 7.81694 103.863 7.91558L100.53 8.40004L102.942 10.7521C103.433 11.2308 103.657 11.9204 103.541 12.5962L102.972 15.915L105.952 14.3481C106.559 14.029 107.284 14.029 107.891 14.3481L110.871 15.915L110.302 12.5962C110.186 11.9204 110.41 11.2308 110.901 10.7521L113.313 8.40004L109.98 7.91558ZM116.275 6.72526C116.688 6.78665 116.976 7.1692 116.912 7.58244C116.889 7.74774 116.811 7.89887 116.693 8.01458L112.355 12.2438L113.38 18.2158C113.451 18.6267 113.174 19.0163 112.763 19.0872C112.601 19.1155 112.431 19.0895 112.284 19.0116L106.921 16.1921L101.559 19.0116C101.434 19.0774 101.293 19.107 101.153 19.097C101.012 19.0869 100.877 19.0377 100.763 18.9549C100.649 18.872 100.56 18.7589 100.507 18.6282C100.454 18.4976 100.439 18.3547 100.463 18.2158L101.488 12.2438L97.1499 8.01458C97.0063 7.87456 96.9241 7.68324 96.9215 7.48266C96.9188 7.28208 96.9959 7.08864 97.1358 6.94487C97.2515 6.8268 97.4026 6.74887 97.5679 6.72526L103.563 5.8539L106.244 0.420337C106.43 0.0472366 106.884 -0.106254 107.257 0.0779347C107.405 0.151138 107.526 0.271569 107.599 0.420337L110.279 5.8539L116.275 6.72526Z" fill="#006FFD"/>
</mask>
<g mask="url(#mask5_261_6761)">
<rect x="96.9214" width="20" height="20" fill="#D4D6DD"/>
</g>
<defs>
<clipPath id="clip0_261_6761">
<rect width="16" height="16" fill="white" transform="translate(62.2476 45.0612)"/>
</clipPath>
<clipPath id="clip1_261_6761">
<rect width="20" height="20" fill="white" transform="translate(0.921387)"/>
</clipPath>
<clipPath id="clip2_261_6761">
<rect width="20" height="20" fill="white" transform="translate(24.9214)"/>
</clipPath>
<clipPath id="clip3_261_6761">
<rect width="20" height="20" fill="white" transform="translate(48.9214)"/>
</clipPath>
</defs>
</svg>
