<svg width="126" height="28" viewBox="0 0 126 28" fill="none" xmlns="http://www.w3.org/2000/svg">
<g clip-path="url(#clip0_248_4631)">
<mask id="mask0_248_4631" style="mask-type:alpha" maskUnits="userSpaceOnUse" x="75" y="6" width="17" height="16">
<path d="M82.8155 6.25093C83.1501 5.91628 83.6927 5.91628 84.0273 6.25093L86.4044 8.62797C86.739 8.96262 86.739 9.50519 86.4044 9.83984L84.0273 12.2169C83.6927 12.5515 83.1501 12.5515 82.8155 12.2169L80.4384 9.83984C80.1038 9.50519 80.1038 8.96262 80.4384 8.62797L82.8155 6.25093Z" fill="#1F2024"/>
<path d="M91.1704 13.394C91.5051 13.7287 91.5051 14.2713 91.1704 14.6059L88.7934 16.983C88.4587 17.3176 87.9162 17.3176 87.5815 16.983L85.2045 14.6059C84.8698 14.2713 84.8698 13.7287 85.2045 13.394L87.5815 11.017C87.9162 10.6824 88.4587 10.6824 88.7934 11.017L91.1704 13.394Z" fill="#1F2024"/>
<path d="M82.8155 15.7831C83.1501 15.4484 83.6927 15.4484 84.0273 15.7831L86.4044 18.1601C86.739 18.4948 86.739 19.0374 86.4044 19.372L84.0273 21.749C83.6927 22.0837 83.1501 22.0837 82.8155 21.749L80.4384 19.372C80.1038 19.0374 80.1038 18.4948 80.4384 18.1601L82.8155 15.7831Z" fill="#1F2024"/>
<path d="M81.6383 13.394C81.973 13.7287 81.973 14.2713 81.6383 14.6059L79.2613 16.983C78.9266 17.3176 78.3841 17.3176 78.0494 16.983L75.6724 14.6059C75.3377 14.2713 75.3377 13.7287 75.6724 13.394L78.0494 11.017C78.3841 10.6824 78.9266 10.6824 79.2613 11.017L81.6383 13.394Z" fill="#1F2024"/>
</mask>
<g mask="url(#mask0_248_4631)">
<rect x="75.4214" y="6" width="16" height="16" fill="#8F9098"/>
</g>
</g>
<path d="M104.279 12.5455C104.237 12.1856 104.064 11.9062 103.761 11.7074C103.458 11.5085 103.086 11.4091 102.646 11.4091C102.324 11.4091 102.042 11.4612 101.801 11.5653C101.562 11.6695 101.375 11.8127 101.24 11.995C101.107 12.1773 101.041 12.3845 101.041 12.6165C101.041 12.8106 101.087 12.9775 101.179 13.1172C101.274 13.2545 101.395 13.3693 101.541 13.4616C101.688 13.5516 101.842 13.6262 102.003 13.6854C102.164 13.7422 102.312 13.7884 102.447 13.8239L103.186 14.0227C103.375 14.0724 103.586 14.1411 103.818 14.2287C104.052 14.3163 104.276 14.4358 104.489 14.5874C104.704 14.7365 104.882 14.9283 105.022 15.1626C105.161 15.397 105.231 15.6847 105.231 16.0256C105.231 16.4186 105.128 16.7737 104.922 17.0909C104.718 17.4081 104.42 17.6603 104.027 17.8473C103.637 18.0343 103.162 18.1278 102.603 18.1278C102.082 18.1278 101.631 18.0438 101.25 17.8757C100.871 17.7076 100.573 17.4732 100.355 17.1726C100.14 16.8719 100.018 16.5227 99.9896 16.125H100.899C100.922 16.3996 101.015 16.6269 101.176 16.8068C101.339 16.9844 101.545 17.117 101.794 17.2045C102.044 17.2898 102.314 17.3324 102.603 17.3324C102.939 17.3324 103.241 17.2779 103.509 17.169C103.776 17.0578 103.988 16.9039 104.144 16.7074C104.301 16.5085 104.379 16.2765 104.379 16.0114C104.379 15.7699 104.311 15.5734 104.176 15.4219C104.041 15.2704 103.864 15.1473 103.644 15.0526C103.424 14.9579 103.186 14.875 102.93 14.804L102.035 14.5483C101.467 14.3849 101.017 14.1518 100.686 13.8487C100.354 13.5457 100.188 13.1491 100.188 12.6591C100.188 12.2519 100.299 11.8968 100.519 11.5938C100.741 11.2884 101.04 11.0516 101.414 10.8835C101.79 10.7131 102.21 10.6278 102.674 10.6278C103.143 10.6278 103.56 10.7119 103.924 10.88C104.289 11.0457 104.578 11.273 104.791 11.5618C105.006 11.8506 105.12 12.1785 105.132 12.5455H104.279ZM109.088 12.5455V13.2557H106.261V12.5455H109.088ZM107.085 11.2386H107.923V16.4375C107.923 16.6742 107.957 16.8518 108.026 16.9702C108.097 17.0862 108.187 17.1643 108.296 17.2045C108.407 17.2424 108.524 17.2614 108.647 17.2614C108.74 17.2614 108.815 17.2566 108.874 17.2472C108.934 17.2353 108.981 17.2259 109.017 17.2188L109.187 17.9716C109.13 17.9929 109.051 18.0142 108.949 18.0355C108.847 18.0592 108.718 18.071 108.562 18.071C108.325 18.071 108.093 18.0201 107.866 17.9183C107.641 17.8165 107.454 17.6615 107.305 17.4531C107.158 17.2448 107.085 16.982 107.085 16.6648V11.2386ZM112.103 18.1278C111.758 18.1278 111.444 18.0627 111.162 17.9325C110.881 17.8 110.657 17.6094 110.491 17.3608C110.325 17.1098 110.243 16.8068 110.243 16.4517C110.243 16.1392 110.304 15.8859 110.427 15.6918C110.55 15.4953 110.715 15.3414 110.921 15.2301C111.127 15.1188 111.354 15.036 111.603 14.9815C111.854 14.9247 112.106 14.8797 112.359 14.8466C112.69 14.804 112.959 14.772 113.165 14.7507C113.373 14.727 113.525 14.688 113.62 14.6335C113.717 14.5791 113.765 14.4844 113.765 14.3494V14.321C113.765 13.9706 113.669 13.6984 113.478 13.5043C113.288 13.3101 113.001 13.2131 112.615 13.2131C112.215 13.2131 111.901 13.3007 111.674 13.4759C111.446 13.651 111.287 13.8381 111.194 14.0369L110.399 13.7528C110.541 13.4214 110.73 13.1634 110.967 12.9787C111.206 12.7917 111.466 12.6615 111.748 12.5881C112.032 12.5123 112.312 12.4744 112.586 12.4744C112.761 12.4744 112.963 12.4957 113.19 12.5384C113.42 12.5786 113.641 12.6626 113.854 12.7905C114.069 12.9183 114.248 13.1113 114.39 13.3693C114.532 13.6274 114.603 13.973 114.603 14.4062V18H113.765V17.2614H113.723C113.666 17.3797 113.571 17.5064 113.439 17.6413C113.306 17.7763 113.13 17.8911 112.909 17.9858C112.689 18.0805 112.421 18.1278 112.103 18.1278ZM112.231 17.375C112.563 17.375 112.842 17.3099 113.069 17.1797C113.299 17.0495 113.472 16.8814 113.588 16.6754C113.706 16.4695 113.765 16.2528 113.765 16.0256V15.2585C113.73 15.3011 113.652 15.3402 113.531 15.3757C113.412 15.4089 113.275 15.4384 113.119 15.4645C112.965 15.4882 112.815 15.5095 112.668 15.5284C112.524 15.545 112.406 15.5592 112.316 15.571C112.099 15.5994 111.895 15.6456 111.706 15.7095C111.519 15.7711 111.367 15.8646 111.251 15.9901C111.137 16.1132 111.081 16.2812 111.081 16.4943C111.081 16.7855 111.188 17.0057 111.404 17.1548C111.622 17.3016 111.897 17.375 112.231 17.375ZM118.655 12.5455V13.2557H115.828V12.5455H118.655ZM116.652 11.2386H117.49V16.4375C117.49 16.6742 117.525 16.8518 117.593 16.9702C117.664 17.0862 117.754 17.1643 117.863 17.2045C117.974 17.2424 118.092 17.2614 118.215 17.2614C118.307 17.2614 118.383 17.2566 118.442 17.2472C118.501 17.2353 118.549 17.2259 118.584 17.2188L118.755 17.9716C118.698 17.9929 118.618 18.0142 118.517 18.0355C118.415 18.0592 118.286 18.071 118.13 18.071C117.893 18.071 117.661 18.0201 117.434 17.9183C117.209 17.8165 117.022 17.6615 116.872 17.4531C116.726 17.2448 116.652 16.982 116.652 16.6648V11.2386ZM122.294 18.1136C121.769 18.1136 121.315 17.9976 120.934 17.7656C120.555 17.5312 120.263 17.2045 120.057 16.7855C119.853 16.3641 119.752 15.8741 119.752 15.3153C119.752 14.7566 119.853 14.2642 120.057 13.8381C120.263 13.4096 120.549 13.0758 120.916 12.8366C121.286 12.5952 121.716 12.4744 122.209 12.4744C122.493 12.4744 122.774 12.5218 123.051 12.6165C123.327 12.7112 123.58 12.8651 123.807 13.0781C124.034 13.2888 124.215 13.5682 124.35 13.9162C124.485 14.2642 124.553 14.6927 124.553 15.2017V15.5568H120.348V14.8324H123.7C123.7 14.5246 123.639 14.25 123.516 14.0085C123.395 13.767 123.222 13.5765 122.997 13.4368C122.775 13.2971 122.512 13.2273 122.209 13.2273C121.875 13.2273 121.586 13.3101 121.342 13.4759C121.101 13.6392 120.915 13.8523 120.785 14.1151C120.655 14.3778 120.59 14.6596 120.59 14.9602V15.4432C120.59 15.8551 120.661 16.2043 120.803 16.4908C120.947 16.7749 121.147 16.9915 121.403 17.1406C121.658 17.2874 121.956 17.3608 122.294 17.3608C122.514 17.3608 122.713 17.33 122.891 17.2685C123.071 17.2045 123.226 17.1098 123.356 16.9844C123.486 16.8565 123.587 16.6979 123.658 16.5085L124.467 16.7358C124.382 17.0104 124.239 17.2519 124.038 17.4602C123.836 17.6662 123.588 17.8272 123.292 17.9432C122.996 18.0568 122.663 18.1136 122.294 18.1136Z" fill="#1F2024"/>
<rect x="0.421387" width="45" height="28" rx="14" fill="#006FFD"/>
<circle cx="31.4214" cy="14" r="10" fill="white"/>
<path d="M39.012 13.927H67.6877" stroke="#8F9098"/>
<defs>
<clipPath id="clip0_248_4631">
<rect width="16" height="16" fill="white" transform="translate(75.4214 6)"/>
</clipPath>
</defs>
</svg>
