<svg width="320" height="88" viewBox="0 0 320 88" fill="none" xmlns="http://www.w3.org/2000/svg">
<rect x="0.100098" y="0.368042" width="40" height="40" rx="20" fill="#006FFD"/>
<path d="M13.161 24.868V23.5385L16.2675 20.6621C16.5317 20.4064 16.7533 20.1763 16.9323 19.9717C17.1141 19.7672 17.2519 19.5669 17.3457 19.3709C17.4394 19.172 17.4863 18.9575 17.4863 18.7274C17.4863 18.4717 17.428 18.2516 17.3116 18.0669C17.1951 17.8794 17.036 17.7359 16.8343 17.6365C16.6326 17.5342 16.4039 17.4831 16.1482 17.4831C15.8812 17.4831 15.6482 17.5371 15.4494 17.645C15.2505 17.753 15.0971 17.9078 14.9891 18.1095C14.8812 18.3112 14.8272 18.5513 14.8272 18.8297H13.0758C13.0758 18.2587 13.205 17.7629 13.4636 17.3425C13.7221 16.922 14.0843 16.5967 14.5502 16.3666C15.0161 16.1365 15.553 16.0215 16.161 16.0215C16.786 16.0215 17.33 16.1322 17.7931 16.3538C18.259 16.5726 18.6212 16.8766 18.8797 17.2658C19.1383 17.655 19.2675 18.101 19.2675 18.6038C19.2675 18.9334 19.2022 19.2587 19.0715 19.5797C18.9437 19.9007 18.715 20.2572 18.3854 20.6493C18.0559 21.0385 17.5914 21.5058 16.992 22.0513L15.7178 23.2999V23.3595H19.3826V24.868H13.161ZM23.9071 24.9874C23.3048 24.9874 22.7679 24.8766 22.2963 24.655C21.8275 24.4334 21.4554 24.128 21.1798 23.7388C20.9043 23.3496 20.7608 22.9036 20.7494 22.4007H22.5392C22.5591 22.7388 22.7011 23.0129 22.9653 23.2232C23.2295 23.4334 23.5435 23.5385 23.9071 23.5385C24.1969 23.5385 24.4525 23.4746 24.6741 23.3467C24.8986 23.2161 25.0733 23.0357 25.1983 22.8055C25.3261 22.5726 25.39 22.3055 25.39 22.0044C25.39 21.6976 25.3247 21.4277 25.194 21.1947C25.0662 20.9618 24.8886 20.78 24.6614 20.6493C24.4341 20.5186 24.1741 20.4518 23.8815 20.449C23.6258 20.449 23.3773 20.5016 23.1358 20.6067C22.8972 20.7118 22.7111 20.8553 22.5775 21.0371L20.9369 20.743L21.3503 16.1408H26.6855V17.6493H22.8716L22.6457 19.8354H22.6969C22.8503 19.6195 23.0818 19.4405 23.3915 19.2984C23.7011 19.1564 24.0477 19.0854 24.4312 19.0854C24.9568 19.0854 25.4256 19.209 25.8375 19.4561C26.2494 19.7033 26.5747 20.0428 26.8133 20.4746C27.052 20.9036 27.1699 21.3979 27.167 21.9575C27.1699 22.5456 27.0335 23.0683 26.7579 23.5257C26.4852 23.9803 26.1031 24.3382 25.6116 24.5996C25.123 24.8581 24.5548 24.9874 23.9071 24.9874Z" fill="white"/>
<g clip-path="url(#clip0_6_757)">
<mask id="mask0_6_757" style="mask-type:alpha" maskUnits="userSpaceOnUse" x="48" y="55" width="17" height="17">
<path d="M55.8203 55.8829C56.155 55.5483 56.6976 55.5483 57.0322 55.8829L59.4093 58.26C59.7439 58.5946 59.7439 59.1372 59.4093 59.4719L57.0322 61.8489C56.6976 62.1836 56.155 62.1836 55.8203 61.8489L53.4433 59.4719C53.1086 59.1372 53.1086 58.5946 53.4433 58.26L55.8203 55.8829Z" fill="#1F2024"/>
<path d="M64.1753 63.0261C64.5099 63.3607 64.5099 63.9033 64.1753 64.2379L61.7983 66.615C61.4636 66.9496 60.921 66.9496 60.5864 66.615L58.2093 64.2379C57.8747 63.9033 57.8747 63.3607 58.2093 63.0261L60.5864 60.649C60.921 60.3144 61.4636 60.3144 61.7983 60.649L64.1753 63.0261Z" fill="#1F2024"/>
<path d="M55.8203 65.4151C56.155 65.0805 56.6976 65.0805 57.0322 65.4151L59.4093 67.7921C59.7439 68.1268 59.7439 68.6694 59.4093 69.004L57.0322 71.3811C56.6976 71.7157 56.155 71.7157 55.8203 71.3811L53.4433 69.004C53.1086 68.6694 53.1086 68.1268 53.4433 67.7921L55.8203 65.4151Z" fill="#1F2024"/>
<path d="M54.6432 63.0261C54.9779 63.3607 54.9779 63.9033 54.6432 64.2379L52.2662 66.615C51.9315 66.9496 51.3889 66.9496 51.0543 66.615L48.6773 64.2379C48.3426 63.9033 48.3426 63.3607 48.6773 63.0261L51.0543 60.649C51.3889 60.3144 51.9315 60.3144 52.2662 60.649L54.6432 63.0261Z" fill="#1F2024"/>
</mask>
<g mask="url(#mask0_6_757)">
<rect x="48.4263" y="55.632" width="16" height="16" fill="#8F9098"/>
</g>
</g>
<path d="M77.2842 62.1774C77.2416 61.8176 77.0688 61.5382 76.7658 61.3393C76.4627 61.1405 76.091 61.041 75.6507 61.041C75.3287 61.041 75.047 61.0931 74.8055 61.1973C74.5664 61.3015 74.3794 61.4447 74.2445 61.627C74.1119 61.8093 74.0456 62.0164 74.0456 62.2484C74.0456 62.4426 74.0918 62.6095 74.1841 62.7491C74.2788 62.8865 74.3995 63.0013 74.5463 63.0936C74.6931 63.1836 74.847 63.2581 75.0079 63.3173C75.1689 63.3741 75.3169 63.4203 75.4518 63.4558L76.1905 63.6547C76.3799 63.7044 76.5906 63.7731 76.8226 63.8607C77.057 63.9482 77.2807 64.0678 77.4937 64.2193C77.7092 64.3685 77.8867 64.5602 78.0264 64.7946C78.1661 65.029 78.2359 65.3166 78.2359 65.6575C78.2359 66.0505 78.1329 66.4056 77.927 66.7229C77.7234 67.0401 77.4251 67.2922 77.0321 67.4793C76.6415 67.6663 76.1668 67.7598 75.6081 67.7598C75.0873 67.7598 74.6363 67.6758 74.2551 67.5077C73.8763 67.3396 73.578 67.1052 73.3602 66.8045C73.1448 66.5039 73.0229 66.1547 72.9945 65.757H73.9035C73.9272 66.0316 74.0195 66.2589 74.1805 66.4388C74.3439 66.6163 74.5498 66.7489 74.7984 66.8365C75.0494 66.9217 75.3193 66.9643 75.6081 66.9643C75.9443 66.9643 76.2461 66.9099 76.5136 66.801C76.7811 66.6897 76.993 66.5358 77.1493 66.3393C77.3055 66.1405 77.3837 65.9085 77.3837 65.6433C77.3837 65.4018 77.3162 65.2053 77.1812 65.0538C77.0463 64.9023 76.8687 64.7792 76.6486 64.6845C76.4284 64.5898 76.1905 64.507 75.9348 64.4359L75.0399 64.1803C74.4717 64.0169 74.0219 63.7837 73.6905 63.4807C73.359 63.1776 73.1933 62.7811 73.1933 62.291C73.1933 61.8839 73.3034 61.5287 73.5236 61.2257C73.7461 60.9203 74.0444 60.6836 74.4185 60.5155C74.7949 60.345 75.2151 60.2598 75.6791 60.2598C76.1479 60.2598 76.5645 60.3438 76.9291 60.5119C77.2937 60.6776 77.5825 60.9049 77.7956 61.1937C78.011 61.4826 78.1247 61.8105 78.1365 62.1774H77.2842ZM82.0924 62.1774V62.8876H79.2657V62.1774H82.0924ZM80.0896 60.8706H80.9277V66.0695C80.9277 66.3062 80.962 66.4838 81.0306 66.6021C81.1017 66.7181 81.1916 66.7963 81.3005 66.8365C81.4118 66.8744 81.529 66.8933 81.6521 66.8933C81.7444 66.8933 81.8202 66.8886 81.8794 66.8791C81.9385 66.8673 81.9859 66.8578 82.0214 66.8507L82.1919 67.6035C82.135 67.6249 82.0557 67.6462 81.9539 67.6675C81.8521 67.6911 81.7231 67.703 81.5669 67.703C81.3301 67.703 81.0981 67.6521 80.8708 67.5503C80.6459 67.4485 80.4589 67.2934 80.3098 67.0851C80.163 66.8767 80.0896 66.614 80.0896 66.2967V60.8706ZM85.1082 67.7598C84.7626 67.7598 84.4489 67.6947 84.1671 67.5645C83.8854 67.4319 83.6617 67.2413 83.496 66.9928C83.3303 66.7418 83.2474 66.4388 83.2474 66.0837C83.2474 65.7712 83.309 65.5178 83.4321 65.3237C83.5552 65.1272 83.7197 64.9733 83.9257 64.8621C84.1316 64.7508 84.3589 64.6679 84.6075 64.6135C84.8584 64.5567 85.1106 64.5117 85.3639 64.4785C85.6953 64.4359 85.964 64.404 86.17 64.3827C86.3783 64.359 86.5298 64.3199 86.6245 64.2655C86.7216 64.211 86.7701 64.1163 86.7701 63.9814V63.953C86.7701 63.6026 86.6742 63.3303 86.4825 63.1362C86.2931 62.9421 86.0054 62.845 85.6196 62.845C85.2195 62.845 84.9058 62.9326 84.6785 63.1078C84.4512 63.283 84.2914 63.47 84.1991 63.6689L83.4036 63.3848C83.5457 63.0534 83.7351 62.7953 83.9718 62.6107C84.2109 62.4236 84.4714 62.2934 84.7531 62.22C85.0372 62.1443 85.3165 62.1064 85.5911 62.1064C85.7663 62.1064 85.9676 62.1277 86.1948 62.1703C86.4245 62.2106 86.6458 62.2946 86.8589 62.4224C87.0743 62.5503 87.2531 62.7432 87.3951 63.0013C87.5372 63.2593 87.6082 63.605 87.6082 64.0382V67.632H86.7701V66.8933H86.7275C86.6707 67.0117 86.576 67.1384 86.4434 67.2733C86.3108 67.4082 86.1345 67.5231 85.9143 67.6178C85.6941 67.7125 85.4254 67.7598 85.1082 67.7598ZM85.236 67.007C85.5675 67.007 85.8468 66.9419 86.0741 66.8116C86.3037 66.6814 86.4766 66.5134 86.5926 66.3074C86.7109 66.1014 86.7701 65.8848 86.7701 65.6575V64.8905C86.7346 64.9331 86.6565 64.9722 86.5358 65.0077C86.4174 65.0408 86.2801 65.0704 86.1238 65.0964C85.9699 65.1201 85.8196 65.1414 85.6728 65.1604C85.5284 65.1769 85.4112 65.1911 85.3213 65.203C85.1035 65.2314 84.8999 65.2776 84.7105 65.3415C84.5234 65.403 84.3719 65.4965 84.2559 65.622C84.1423 65.7451 84.0855 65.9132 84.0855 66.1263C84.0855 66.4175 84.1932 66.6376 84.4086 66.7868C84.6264 66.9336 84.9022 67.007 85.236 67.007ZM91.66 62.1774V62.8876H88.8333V62.1774H91.66ZM89.6572 60.8706H90.4952V66.0695C90.4952 66.3062 90.5296 66.4838 90.5982 66.6021C90.6692 66.7181 90.7592 66.7963 90.8681 66.8365C90.9794 66.8744 91.0966 66.8933 91.2197 66.8933C91.312 66.8933 91.3878 66.8886 91.4469 66.8791C91.5061 66.8673 91.5535 66.8578 91.589 66.8507L91.7594 67.6035C91.7026 67.6249 91.6233 67.6462 91.5215 67.6675C91.4197 67.6911 91.2907 67.703 91.1344 67.703C90.8977 67.703 90.6657 67.6521 90.4384 67.5503C90.2135 67.4485 90.0265 67.2934 89.8773 67.0851C89.7306 66.8767 89.6572 66.614 89.6572 66.2967V60.8706ZM95.299 67.7456C94.7734 67.7456 94.3201 67.6296 93.9389 67.3976C93.5601 67.1632 93.2677 66.8365 93.0618 66.4175C92.8582 65.9961 92.7564 65.506 92.7564 64.9473C92.7564 64.3886 92.8582 63.8962 93.0618 63.47C93.2677 63.0415 93.5542 62.7077 93.9212 62.4686C94.2905 62.2271 94.7213 62.1064 95.2138 62.1064C95.4979 62.1064 95.7784 62.1537 96.0554 62.2484C96.3324 62.3431 96.5845 62.497 96.8118 62.7101C97.0391 62.9208 97.2202 63.2001 97.3551 63.5482C97.49 63.8962 97.5575 64.3247 97.5575 64.8337V65.1888H93.353V64.4643H96.7052C96.7052 64.1566 96.6437 63.882 96.5206 63.6405C96.3998 63.399 96.227 63.2084 96.0021 63.0687C95.7796 62.9291 95.5168 62.8592 95.2138 62.8592C94.88 62.8592 94.5911 62.9421 94.3473 63.1078C94.1058 63.2712 93.92 63.4842 93.7898 63.747C93.6596 64.0098 93.5945 64.2915 93.5945 64.5922V65.0751C93.5945 65.4871 93.6655 65.8363 93.8075 66.1227C93.9519 66.4068 94.152 66.6234 94.4077 66.7726C94.6633 66.9194 94.9605 66.9928 95.299 66.9928C95.5192 66.9928 95.718 66.962 95.8956 66.9004C96.0755 66.8365 96.2306 66.7418 96.3608 66.6163C96.491 66.4885 96.5916 66.3299 96.6626 66.1405L97.4723 66.3678C97.3871 66.6424 97.2438 66.8839 97.0426 67.0922C96.8414 67.2982 96.5928 67.4591 96.2969 67.5751C96.0009 67.6888 95.6683 67.7456 95.299 67.7456Z" fill="#1F2024"/>
<path d="M20.1001 40.368V55.3425C20.1001 59.7608 23.6818 63.3425 28.1001 63.3425H40.5723" stroke="#8F9098"/>
<mask id="mask1_6_757" style="mask-type:alpha" maskUnits="userSpaceOnUse" x="74" y="13" width="15" height="15">
<path d="M87.9446 13.7014H74.9076C74.6915 13.7014 74.4842 13.784 74.3314 13.9311C74.1786 14.0782 74.0928 14.2777 74.0928 14.4857V16.8387C74.0928 17.0467 74.1786 17.2462 74.3314 17.3933C74.4842 17.5404 74.6915 17.623 74.9076 17.623C75.1237 17.623 75.3309 17.5404 75.4837 17.3933C75.6366 17.2462 75.7224 17.0467 75.7224 16.8387V15.27H80.6113V25.4661H78.9817C78.7656 25.4661 78.5583 25.5488 78.4055 25.6958C78.2527 25.8429 78.1668 26.0424 78.1668 26.2504C78.1668 26.4584 78.2527 26.6579 78.4055 26.805C78.5583 26.9521 78.7656 27.0347 78.9817 27.0347H83.8706C84.0867 27.0347 84.2939 26.9521 84.4467 26.805C84.5995 26.6579 84.6854 26.4584 84.6854 26.2504C84.6854 26.0424 84.5995 25.8429 84.4467 25.6958C84.2939 25.5488 84.0867 25.4661 83.8706 25.4661H82.2409V15.27H87.1298V16.8387C87.1298 17.0467 87.2157 17.2462 87.3685 17.3933C87.5213 17.5404 87.7285 17.623 87.9446 17.623C88.1607 17.623 88.368 17.5404 88.5208 17.3933C88.6736 17.2462 88.7594 17.0467 88.7594 16.8387V14.4857C88.7594 14.2777 88.6736 14.0782 88.5208 13.9311C88.368 13.784 88.1607 13.7014 87.9446 13.7014Z" fill="black"/>
</mask>
<g mask="url(#mask1_6_757)">
<rect x="73.4263" y="12.368" width="16" height="16" fill="#8F9098"/>
</g>
<path d="M100.551 24.368H98.307V17.0953H100.651C101.356 17.0953 101.96 17.2409 102.462 17.5321C102.964 17.8209 103.348 18.2364 103.616 18.7786C103.883 19.3183 104.017 19.9646 104.017 20.7175C104.017 21.475 103.882 22.1273 103.612 22.6741C103.342 23.2187 102.949 23.6377 102.433 23.9313C101.917 24.2224 101.29 24.368 100.551 24.368ZM99.1876 23.5868H100.494C101.096 23.5868 101.594 23.4708 101.989 23.2388C102.385 23.0068 102.68 22.6765 102.874 22.248C103.068 21.8195 103.165 21.3093 103.165 20.7175C103.165 20.1304 103.069 19.6249 102.877 19.2011C102.686 18.775 102.399 18.4483 102.018 18.221C101.637 17.9914 101.162 17.8766 100.594 17.8766H99.1876V23.5868ZM107.136 24.4959C106.79 24.4959 106.477 24.4308 106.195 24.3006C105.913 24.168 105.689 23.9774 105.524 23.7288C105.358 23.4779 105.275 23.1749 105.275 22.8197C105.275 22.5072 105.337 22.2539 105.46 22.0598C105.583 21.8633 105.747 21.7094 105.953 21.5982C106.159 21.4869 106.387 21.404 106.635 21.3496C106.886 21.2928 107.138 21.2478 107.392 21.2146C107.723 21.172 107.992 21.1401 108.198 21.1188C108.406 21.0951 108.558 21.056 108.652 21.0016C108.749 20.9471 108.798 20.8524 108.798 20.7175V20.6891C108.798 20.3387 108.702 20.0664 108.51 19.8723C108.321 19.6782 108.033 19.5811 107.647 19.5811C107.247 19.5811 106.934 19.6687 106.706 19.8439C106.479 20.0191 106.319 20.2061 106.227 20.405L105.431 20.1209C105.573 19.7894 105.763 19.5314 106 19.3467C106.239 19.1597 106.499 19.0295 106.781 18.9561C107.065 18.8804 107.344 18.8425 107.619 18.8425C107.794 18.8425 107.995 18.8638 108.223 18.9064C108.452 18.9466 108.674 19.0307 108.887 19.1585C109.102 19.2864 109.281 19.4793 109.423 19.7374C109.565 19.9954 109.636 20.3411 109.636 20.7743V24.368H108.798V23.6294H108.755C108.698 23.7478 108.604 23.8744 108.471 24.0094C108.339 24.1443 108.162 24.2591 107.942 24.3538C107.722 24.4485 107.453 24.4959 107.136 24.4959ZM107.264 23.743C107.595 23.743 107.875 23.6779 108.102 23.5477C108.331 23.4175 108.504 23.2494 108.62 23.0435C108.739 22.8375 108.798 22.6209 108.798 22.3936V21.6266C108.762 21.6692 108.684 21.7082 108.563 21.7438C108.445 21.7769 108.308 21.8065 108.152 21.8325C107.998 21.8562 107.847 21.8775 107.701 21.8965C107.556 21.913 107.439 21.9272 107.349 21.9391C107.131 21.9675 106.928 22.0136 106.738 22.0776C106.551 22.1391 106.4 22.2326 106.284 22.3581C106.17 22.4812 106.113 22.6493 106.113 22.8624C106.113 23.1536 106.221 23.3737 106.436 23.5229C106.654 23.6697 106.93 23.743 107.264 23.743ZM113.688 18.9135V19.6237H110.861V18.9135H113.688ZM111.685 17.6067H112.523V22.8055C112.523 23.0423 112.557 23.2198 112.626 23.3382C112.697 23.4542 112.787 23.5323 112.896 23.5726C113.007 23.6105 113.124 23.6294 113.247 23.6294C113.34 23.6294 113.415 23.6247 113.475 23.6152C113.534 23.6034 113.581 23.5939 113.617 23.5868L113.787 24.3396C113.73 24.3609 113.651 24.3822 113.549 24.4036C113.447 24.4272 113.318 24.4391 113.162 24.4391C112.925 24.4391 112.693 24.3882 112.466 24.2864C112.241 24.1846 112.054 24.0295 111.905 23.8212C111.758 23.6128 111.685 23.35 111.685 23.0328V17.6067ZM117.327 24.4817C116.801 24.4817 116.348 24.3657 115.967 24.1337C115.588 23.8993 115.295 23.5726 115.09 23.1536C114.886 22.7322 114.784 22.2421 114.784 21.6834C114.784 21.1247 114.886 20.6322 115.09 20.2061C115.295 19.7776 115.582 19.4438 115.949 19.2047C116.318 18.9632 116.749 18.8425 117.242 18.8425C117.526 18.8425 117.806 18.8898 118.083 18.9845C118.36 19.0792 118.612 19.2331 118.84 19.4462C119.067 19.6569 119.248 19.9362 119.383 20.2842C119.518 20.6322 119.585 21.0608 119.585 21.5697V21.9249H115.381V21.2004H118.733C118.733 20.8927 118.671 20.618 118.548 20.3766C118.428 20.1351 118.255 19.9445 118.03 19.8048C117.807 19.6652 117.545 19.5953 117.242 19.5953C116.908 19.5953 116.619 19.6782 116.375 19.8439C116.134 20.0072 115.948 20.2203 115.817 20.4831C115.687 20.7459 115.622 21.0276 115.622 21.3283V21.8112C115.622 22.2232 115.693 22.5724 115.835 22.8588C115.98 23.1429 116.18 23.3595 116.435 23.5087C116.691 23.6554 116.988 23.7288 117.327 23.7288C117.547 23.7288 117.746 23.6981 117.923 23.6365C118.103 23.5726 118.258 23.4779 118.389 23.3524C118.519 23.2246 118.619 23.066 118.69 22.8766L119.5 23.1038C119.415 23.3785 119.272 23.6199 119.07 23.8283C118.869 24.0342 118.621 24.1952 118.325 24.3112C118.029 24.4249 117.696 24.4817 117.327 24.4817Z" fill="#1F2024"/>
<path d="M35.0708 20.368H65.2632" stroke="#8F9098"/>
<rect x="168.763" y="0.368042" width="44" height="62" rx="16" fill="#006FFD"/>
<path d="M182.827 15.0953H184.439L186.598 20.3652H186.684L188.843 15.0953H190.455V22.368H189.191V17.3716H189.123L187.113 22.3467H186.169L184.159 17.3609H184.091V22.368H182.827V15.0953ZM198.888 18.7317C198.888 19.5153 198.741 20.1865 198.448 20.7452C198.157 21.3015 197.759 21.7277 197.255 22.0236C196.753 22.3195 196.183 22.4675 195.547 22.4675C194.91 22.4675 194.339 22.3195 193.835 22.0236C193.333 21.7253 192.935 21.298 192.642 20.7416C192.351 20.1829 192.205 19.5129 192.205 18.7317C192.205 17.9481 192.351 17.2781 192.642 16.7217C192.935 16.163 193.333 15.7357 193.835 15.4398C194.339 15.1438 194.91 14.9959 195.547 14.9959C196.183 14.9959 196.753 15.1438 197.255 15.4398C197.759 15.7357 198.157 16.163 198.448 16.7217C198.741 17.2781 198.888 17.9481 198.888 18.7317ZM197.564 18.7317C197.564 18.1801 197.477 17.7149 197.304 17.3361C197.134 16.9549 196.897 16.6673 196.594 16.4732C196.291 16.2767 195.942 16.1784 195.547 16.1784C195.151 16.1784 194.802 16.2767 194.499 16.4732C194.196 16.6673 193.958 16.9549 193.785 17.3361C193.615 17.7149 193.53 18.1801 193.53 18.7317C193.53 19.2833 193.615 19.7497 193.785 20.1308C193.958 20.5096 194.196 20.7973 194.499 20.9938C194.802 21.1879 195.151 21.2849 195.547 21.2849C195.942 21.2849 196.291 21.1879 196.594 20.9938C196.897 20.7973 197.134 20.5096 197.304 20.1308C197.477 19.7497 197.564 19.2833 197.564 18.7317Z" fill="#B4DBFF"/>
<path d="M182.257 45.368V44.3453L186.098 40.1408C186.548 39.6483 186.92 39.2203 187.211 38.8567C187.503 38.4893 187.719 38.1446 187.859 37.8226C188.003 37.4968 188.075 37.1559 188.075 36.7999C188.075 36.3908 187.976 36.0366 187.78 35.7374C187.586 35.4381 187.321 35.2071 186.984 35.0442C186.647 34.8813 186.268 34.7999 185.848 34.7999C185.401 34.7999 185.011 34.8927 184.677 35.0783C184.348 35.2601 184.092 35.5158 183.91 35.8453C183.732 36.1749 183.643 36.5612 183.643 37.0044H182.302C182.302 36.3226 182.459 35.7241 182.774 35.209C183.088 34.6938 183.516 34.2923 184.058 34.0044C184.603 33.7165 185.215 33.5726 185.893 33.5726C186.575 33.5726 187.179 33.7165 187.706 34.0044C188.232 34.2923 188.645 34.6805 188.944 35.1692C189.244 35.6578 189.393 36.2014 189.393 36.7999C189.393 37.2279 189.316 37.6465 189.16 38.0555C189.009 38.4608 188.744 38.9135 188.365 39.4135C187.99 39.9097 187.469 40.5158 186.802 41.2317L184.189 44.0271V44.118H189.598V45.368H182.257ZM195.581 45.5271C194.914 45.5271 194.314 45.3946 193.78 45.1294C193.245 44.8643 192.817 44.5006 192.495 44.0385C192.173 43.5764 191.997 43.0499 191.967 42.459H193.331C193.384 42.9855 193.622 43.4211 194.047 43.7658C194.475 44.1067 194.986 44.2771 195.581 44.2771C196.058 44.2771 196.482 44.1654 196.853 43.9419C197.228 43.7184 197.522 43.4116 197.734 43.0215C197.95 42.6275 198.058 42.1824 198.058 41.6862C198.058 41.1786 197.946 40.726 197.723 40.3283C197.503 39.9268 197.2 39.6105 196.814 39.3794C196.427 39.1483 195.986 39.0309 195.49 39.0271C195.134 39.0233 194.768 39.0783 194.393 39.1919C194.018 39.3018 193.709 39.4438 193.467 39.618L192.149 39.459L192.853 33.7317H198.899V34.9817H194.035L193.626 38.4135H193.694C193.933 38.2241 194.232 38.0669 194.592 37.9419C194.952 37.8169 195.327 37.7544 195.717 37.7544C196.429 37.7544 197.064 37.9249 197.62 38.2658C198.181 38.6029 198.62 39.065 198.939 39.6521C199.261 40.2393 199.422 40.9097 199.422 41.6635C199.422 42.4059 199.255 43.0688 198.922 43.6521C198.592 44.2317 198.137 44.69 197.558 45.0271C196.978 45.3605 196.319 45.5271 195.581 45.5271Z" fill="white"/>
<g clip-path="url(#clip1_6_757)">
<mask id="mask2_6_757" style="mask-type:alpha" maskUnits="userSpaceOnUse" x="220" y="71" width="17" height="17">
<path d="M227.657 71.8829C227.992 71.5483 228.534 71.5483 228.869 71.8829L231.246 74.26C231.581 74.5946 231.581 75.1372 231.246 75.4719L228.869 77.8489C228.534 78.1836 227.992 78.1836 227.657 77.8489L225.28 75.4719C224.946 75.1372 224.946 74.5946 225.28 74.26L227.657 71.8829Z" fill="#1F2024"/>
<path d="M236.012 79.0261C236.347 79.3607 236.347 79.9033 236.012 80.2379L233.635 82.615C233.301 82.9496 232.758 82.9496 232.423 82.615L230.046 80.2379C229.712 79.9033 229.712 79.3607 230.046 79.0261L232.423 76.649C232.758 76.3144 233.301 76.3144 233.635 76.649L236.012 79.0261Z" fill="#1F2024"/>
<path d="M227.657 81.4151C227.992 81.0805 228.534 81.0805 228.869 81.4151L231.246 83.7921C231.581 84.1268 231.581 84.6694 231.246 85.004L228.869 87.3811C228.534 87.7157 227.992 87.7157 227.657 87.3811L225.28 85.004C224.946 84.6694 224.946 84.1268 225.28 83.7921L227.657 81.4151Z" fill="#1F2024"/>
<path d="M226.48 79.0261C226.815 79.3607 226.815 79.9033 226.48 80.2379L224.103 82.615C223.768 82.9496 223.226 82.9496 222.891 82.615L220.514 80.2379C220.18 79.9033 220.18 79.3607 220.514 79.0261L222.891 76.649C223.226 76.3144 223.768 76.3144 224.103 76.649L226.48 79.0261Z" fill="#1F2024"/>
</mask>
<g mask="url(#mask2_6_757)">
<rect x="220.263" y="71.632" width="16" height="16" fill="#8F9098"/>
</g>
</g>
<path d="M249.121 78.1774C249.079 77.8176 248.906 77.5382 248.603 77.3393C248.3 77.1405 247.928 77.041 247.488 77.041C247.166 77.041 246.884 77.0931 246.642 77.1973C246.403 77.3015 246.216 77.4447 246.081 77.627C245.949 77.8093 245.883 78.0164 245.883 78.2484C245.883 78.4426 245.929 78.6095 246.021 78.7491C246.116 78.8865 246.236 79.0013 246.383 79.0936C246.53 79.1836 246.684 79.2581 246.845 79.3173C247.006 79.3741 247.154 79.4203 247.289 79.4558L248.027 79.6547C248.217 79.7044 248.427 79.7731 248.659 79.8607C248.894 79.9482 249.118 80.0678 249.331 80.2193C249.546 80.3685 249.724 80.5602 249.863 80.7946C250.003 81.029 250.073 81.3166 250.073 81.6575C250.073 82.0505 249.97 82.4056 249.764 82.7229C249.56 83.0401 249.262 83.2922 248.869 83.4793C248.478 83.6663 248.004 83.7598 247.445 83.7598C246.924 83.7598 246.473 83.6758 246.092 83.5077C245.713 83.3396 245.415 83.1052 245.197 82.8045C244.982 82.5039 244.86 82.1547 244.831 81.757H245.74C245.764 82.0316 245.856 82.2589 246.017 82.4388C246.181 82.6163 246.387 82.7489 246.635 82.8365C246.886 82.9217 247.156 82.9643 247.445 82.9643C247.781 82.9643 248.083 82.9099 248.351 82.801C248.618 82.6897 248.83 82.5358 248.986 82.3393C249.142 82.1405 249.221 81.9085 249.221 81.6433C249.221 81.4018 249.153 81.2053 249.018 81.0538C248.883 80.9023 248.706 80.7792 248.485 80.6845C248.265 80.5898 248.027 80.507 247.772 80.4359L246.877 80.1803C246.309 80.0169 245.859 79.7837 245.527 79.4807C245.196 79.1776 245.03 78.7811 245.03 78.291C245.03 77.8839 245.14 77.5287 245.36 77.2257C245.583 76.9203 245.881 76.6836 246.255 76.5155C246.632 76.345 247.052 76.2598 247.516 76.2598C247.985 76.2598 248.401 76.3438 248.766 76.5119C249.131 76.6776 249.419 76.9049 249.633 77.1937C249.848 77.4826 249.962 77.8105 249.973 78.1774H249.121ZM253.929 78.1774V78.8876H251.103V78.1774H253.929ZM251.927 76.8706H252.765V82.0695C252.765 82.3062 252.799 82.4838 252.868 82.6021C252.939 82.7181 253.029 82.7963 253.137 82.8365C253.249 82.8744 253.366 82.8933 253.489 82.8933C253.581 82.8933 253.657 82.8886 253.716 82.8791C253.775 82.8673 253.823 82.8578 253.858 82.8507L254.029 83.6035C253.972 83.6249 253.893 83.6462 253.791 83.6675C253.689 83.6911 253.56 83.703 253.404 83.703C253.167 83.703 252.935 83.6521 252.708 83.5503C252.483 83.4485 252.296 83.2934 252.147 83.0851C252 82.8767 251.927 82.614 251.927 82.2967V76.8706ZM256.945 83.7598C256.599 83.7598 256.286 83.6947 256.004 83.5645C255.722 83.4319 255.499 83.2413 255.333 82.9928C255.167 82.7418 255.084 82.4388 255.084 82.0837C255.084 81.7712 255.146 81.5178 255.269 81.3237C255.392 81.1272 255.557 80.9733 255.763 80.8621C255.969 80.7508 256.196 80.6679 256.444 80.6135C256.695 80.5567 256.947 80.5117 257.201 80.4785C257.532 80.4359 257.801 80.404 258.007 80.3827C258.215 80.359 258.367 80.3199 258.461 80.2655C258.559 80.211 258.607 80.1163 258.607 79.9814V79.953C258.607 79.6026 258.511 79.3303 258.319 79.1362C258.13 78.9421 257.842 78.845 257.456 78.845C257.056 78.845 256.743 78.9326 256.515 79.1078C256.288 79.283 256.128 79.47 256.036 79.6689L255.241 79.3848C255.383 79.0534 255.572 78.7953 255.809 78.6107C256.048 78.4236 256.308 78.2934 256.59 78.22C256.874 78.1443 257.153 78.1064 257.428 78.1064C257.603 78.1064 257.804 78.1277 258.032 78.1703C258.261 78.2106 258.483 78.2946 258.696 78.4224C258.911 78.5503 259.09 78.7432 259.232 79.0013C259.374 79.2593 259.445 79.605 259.445 80.0382V83.632H258.607V82.8933H258.564C258.508 83.0117 258.413 83.1384 258.28 83.2733C258.148 83.4082 257.971 83.5231 257.751 83.6178C257.531 83.7125 257.262 83.7598 256.945 83.7598ZM257.073 83.007C257.404 83.007 257.684 82.9419 257.911 82.8116C258.141 82.6814 258.313 82.5134 258.429 82.3074C258.548 82.1014 258.607 81.8848 258.607 81.6575V80.8905C258.572 80.9331 258.493 80.9722 258.373 81.0077C258.254 81.0408 258.117 81.0704 257.961 81.0964C257.807 81.1201 257.657 81.1414 257.51 81.1604C257.365 81.1769 257.248 81.1911 257.158 81.203C256.94 81.2314 256.737 81.2776 256.547 81.3415C256.36 81.403 256.209 81.4965 256.093 81.622C255.979 81.7451 255.922 81.9132 255.922 82.1263C255.922 82.4175 256.03 82.6376 256.246 82.7868C256.463 82.9336 256.739 83.007 257.073 83.007ZM263.497 78.1774V78.8876H260.67V78.1774H263.497ZM261.494 76.8706H262.332V82.0695C262.332 82.3062 262.366 82.4838 262.435 82.6021C262.506 82.7181 262.596 82.7963 262.705 82.8365C262.816 82.8744 262.933 82.8933 263.057 82.8933C263.149 82.8933 263.225 82.8886 263.284 82.8791C263.343 82.8673 263.39 82.8578 263.426 82.8507L263.596 83.6035C263.54 83.6249 263.46 83.6462 263.358 83.6675C263.257 83.6911 263.128 83.703 262.971 83.703C262.735 83.703 262.503 83.6521 262.275 83.5503C262.05 83.4485 261.863 83.2934 261.714 83.0851C261.567 82.8767 261.494 82.614 261.494 82.2967V76.8706ZM267.136 83.7456C266.61 83.7456 266.157 83.6296 265.776 83.3976C265.397 83.1632 265.105 82.8365 264.899 82.4175C264.695 81.9961 264.593 81.506 264.593 80.9473C264.593 80.3886 264.695 79.8962 264.899 79.47C265.105 79.0415 265.391 78.7077 265.758 78.4686C266.127 78.2271 266.558 78.1064 267.051 78.1064C267.335 78.1064 267.615 78.1537 267.892 78.2484C268.169 78.3431 268.421 78.497 268.649 78.7101C268.876 78.9208 269.057 79.2001 269.192 79.5482C269.327 79.8962 269.394 80.3247 269.394 80.8337V81.1888H265.19V80.4643H268.542C268.542 80.1566 268.481 79.882 268.358 79.6405C268.237 79.399 268.064 79.2084 267.839 79.0687C267.616 78.9291 267.354 78.8592 267.051 78.8592C266.717 78.8592 266.428 78.9421 266.184 79.1078C265.943 79.2712 265.757 79.4842 265.627 79.747C265.496 80.0098 265.431 80.2915 265.431 80.5922V81.0751C265.431 81.4871 265.502 81.8363 265.644 82.1227C265.789 82.4068 265.989 82.6234 266.245 82.7726C266.5 82.9194 266.797 82.9928 267.136 82.9928C267.356 82.9928 267.555 82.962 267.733 82.9004C267.912 82.8365 268.067 82.7418 268.198 82.6163C268.328 82.4885 268.429 82.3299 268.5 82.1405L269.309 82.3678C269.224 82.6424 269.081 82.8839 268.88 83.0922C268.678 83.2982 268.43 83.4591 268.134 83.5751C267.838 83.6888 267.505 83.7456 267.136 83.7456Z" fill="#1F2024"/>
<path d="M191.937 56.368V71.3425C191.937 75.7608 195.519 79.3425 199.937 79.3425H212.409" stroke="#8F9098"/>
<mask id="mask3_6_757" style="mask-type:alpha" maskUnits="userSpaceOnUse" x="247" y="31" width="16" height="15">
<path d="M261.282 31.7014H248.245C248.028 31.7014 247.821 31.784 247.668 31.9311C247.516 32.0782 247.43 32.2777 247.43 32.4857V34.8387C247.43 35.0467 247.516 35.2462 247.668 35.3933C247.821 35.5404 248.028 35.623 248.245 35.623C248.461 35.623 248.668 35.5404 248.821 35.3933C248.973 35.2462 249.059 35.0467 249.059 34.8387V33.27H253.948V43.4661H252.319C252.102 43.4661 251.895 43.5488 251.742 43.6958C251.59 43.8429 251.504 44.0424 251.504 44.2504C251.504 44.4584 251.59 44.6579 251.742 44.805C251.895 44.9521 252.102 45.0347 252.319 45.0347H257.207C257.424 45.0347 257.631 44.9521 257.784 44.805C257.936 44.6579 258.022 44.4584 258.022 44.2504C258.022 44.0424 257.936 43.8429 257.784 43.6958C257.631 43.5488 257.424 43.4661 257.207 43.4661H255.578V33.27H260.467V34.8387C260.467 35.0467 260.553 35.2462 260.705 35.3933C260.858 35.5404 261.065 35.623 261.282 35.623C261.498 35.623 261.705 35.5404 261.858 35.3933C262.011 35.2462 262.096 35.0467 262.096 34.8387V32.4857C262.096 32.2777 262.011 32.0782 261.858 31.9311C261.705 31.784 261.498 31.7014 261.282 31.7014Z" fill="black"/>
</mask>
<g mask="url(#mask3_6_757)">
<rect x="246.763" y="30.368" width="16" height="16" fill="#8F9098"/>
</g>
<path d="M273.888 42.368H271.644V35.0953H273.988C274.693 35.0953 275.297 35.2409 275.799 35.5321C276.301 35.8209 276.685 36.2364 276.953 36.7786C277.22 37.3183 277.354 37.9646 277.354 38.7175C277.354 39.475 277.219 40.1273 276.949 40.6741C276.679 41.2187 276.286 41.6377 275.77 41.9313C275.254 42.2224 274.627 42.368 273.888 42.368ZM272.525 41.5868H273.831C274.433 41.5868 274.931 41.4708 275.326 41.2388C275.722 41.0068 276.016 40.6765 276.211 40.248C276.405 39.8195 276.502 39.3093 276.502 38.7175C276.502 38.1304 276.406 37.6249 276.214 37.2011C276.022 36.775 275.736 36.4483 275.355 36.221C274.974 35.9914 274.499 35.8766 273.931 35.8766H272.525V41.5868ZM280.473 42.4959C280.127 42.4959 279.814 42.4308 279.532 42.3006C279.25 42.168 279.026 41.9774 278.861 41.7288C278.695 41.4779 278.612 41.1749 278.612 40.8197C278.612 40.5072 278.674 40.2539 278.797 40.0598C278.92 39.8633 279.084 39.7094 279.29 39.5982C279.496 39.4869 279.724 39.404 279.972 39.3496C280.223 39.2928 280.475 39.2478 280.729 39.2146C281.06 39.172 281.329 39.1401 281.535 39.1188C281.743 39.0951 281.894 39.056 281.989 39.0016C282.086 38.9471 282.135 38.8524 282.135 38.7175V38.6891C282.135 38.3387 282.039 38.0664 281.847 37.8723C281.658 37.6782 281.37 37.5811 280.984 37.5811C280.584 37.5811 280.27 37.6687 280.043 37.8439C279.816 38.0191 279.656 38.2061 279.564 38.405L278.768 38.1209C278.91 37.7894 279.1 37.5314 279.336 37.3467C279.576 37.1597 279.836 37.0295 280.118 36.9561C280.402 36.8804 280.681 36.8425 280.956 36.8425C281.131 36.8425 281.332 36.8638 281.559 36.9064C281.789 36.9466 282.01 37.0307 282.224 37.1585C282.439 37.2864 282.618 37.4793 282.76 37.7374C282.902 37.9954 282.973 38.3411 282.973 38.7743V42.368H282.135V41.6294H282.092C282.035 41.7478 281.941 41.8744 281.808 42.0094C281.675 42.1443 281.499 42.2591 281.279 42.3538C281.059 42.4485 280.79 42.4959 280.473 42.4959ZM280.601 41.743C280.932 41.743 281.211 41.6779 281.439 41.5477C281.668 41.4175 281.841 41.2494 281.957 41.0435C282.076 40.8375 282.135 40.6209 282.135 40.3936V39.6266C282.099 39.6692 282.021 39.7082 281.9 39.7438C281.782 39.7769 281.645 39.8065 281.488 39.8325C281.335 39.8562 281.184 39.8775 281.037 39.8965C280.893 39.913 280.776 39.9272 280.686 39.9391C280.468 39.9675 280.265 40.0136 280.075 40.0776C279.888 40.1391 279.737 40.2326 279.621 40.3581C279.507 40.4812 279.45 40.6493 279.45 40.8624C279.45 41.1536 279.558 41.3737 279.773 41.5229C279.991 41.6697 280.267 41.743 280.601 41.743ZM287.025 36.9135V37.6237H284.198V36.9135H287.025ZM285.022 35.6067H285.86V40.8055C285.86 41.0423 285.894 41.2198 285.963 41.3382C286.034 41.4542 286.124 41.5323 286.233 41.5726C286.344 41.6105 286.461 41.6294 286.584 41.6294C286.677 41.6294 286.752 41.6247 286.812 41.6152C286.871 41.6034 286.918 41.5939 286.954 41.5868L287.124 42.3396C287.067 42.3609 286.988 42.3822 286.886 42.4036C286.784 42.4272 286.655 42.4391 286.499 42.4391C286.262 42.4391 286.03 42.3882 285.803 42.2864C285.578 42.1846 285.391 42.0295 285.242 41.8212C285.095 41.6128 285.022 41.35 285.022 41.0328V35.6067ZM290.664 42.4817C290.138 42.4817 289.685 42.3657 289.304 42.1337C288.925 41.8993 288.632 41.5726 288.426 41.1536C288.223 40.7322 288.121 40.2421 288.121 39.6834C288.121 39.1247 288.223 38.6322 288.426 38.2061C288.632 37.7776 288.919 37.4438 289.286 37.2047C289.655 36.9632 290.086 36.8425 290.578 36.8425C290.863 36.8425 291.143 36.8898 291.42 36.9845C291.697 37.0792 291.949 37.2331 292.176 37.4462C292.404 37.6569 292.585 37.9362 292.72 38.2842C292.855 38.6322 292.922 39.0608 292.922 39.5697V39.9249H288.718V39.2004H292.07C292.07 38.8927 292.008 38.618 291.885 38.3766C291.764 38.1351 291.592 37.9445 291.367 37.8048C291.144 37.6652 290.881 37.5953 290.578 37.5953C290.245 37.5953 289.956 37.6782 289.712 37.8439C289.47 38.0072 289.285 38.2203 289.154 38.4831C289.024 38.7459 288.959 39.0276 288.959 39.3283V39.8112C288.959 40.2232 289.03 40.5724 289.172 40.8588C289.317 41.1429 289.517 41.3595 289.772 41.5087C290.028 41.6554 290.325 41.7288 290.664 41.7288C290.884 41.7288 291.083 41.6981 291.26 41.6365C291.44 41.5726 291.595 41.4779 291.725 41.3524C291.856 41.2246 291.956 41.066 292.027 40.8766L292.837 41.1038C292.752 41.3785 292.608 41.6199 292.407 41.8283C292.206 42.0342 291.957 42.1952 291.662 42.3112C291.366 42.4249 291.033 42.4817 290.664 42.4817Z" fill="#1F2024"/>
<mask id="mask4_6_757" style="mask-type:alpha" maskUnits="userSpaceOnUse" x="247" y="10" width="16" height="14">
<path d="M261.282 10.4375H248.245C248.028 10.4375 247.821 10.5201 247.668 10.6672C247.516 10.8143 247.43 11.0138 247.43 11.2218V13.5748C247.43 13.7828 247.516 13.9823 247.668 14.1293C247.821 14.2764 248.028 14.3591 248.245 14.3591C248.461 14.3591 248.668 14.2764 248.821 14.1293C248.973 13.9823 249.059 13.7828 249.059 13.5748V12.0061H253.948V22.2022H252.319C252.102 22.2022 251.895 22.2848 251.742 22.4319C251.59 22.579 251.504 22.7785 251.504 22.9865C251.504 23.1945 251.59 23.394 251.742 23.5411C251.895 23.6882 252.102 23.7708 252.319 23.7708H257.207C257.424 23.7708 257.631 23.6882 257.784 23.5411C257.936 23.394 258.022 23.1945 258.022 22.9865C258.022 22.7785 257.936 22.579 257.784 22.4319C257.631 22.2848 257.424 22.2022 257.207 22.2022H255.578V12.0061H260.467V13.5748C260.467 13.7828 260.553 13.9823 260.705 14.1293C260.858 14.2764 261.065 14.3591 261.282 14.3591C261.498 14.3591 261.705 14.2764 261.858 14.1293C262.011 13.9823 262.096 13.7828 262.096 13.5748V11.2218C262.096 11.0138 262.011 10.8143 261.858 10.6672C261.705 10.5201 261.498 10.4375 261.282 10.4375Z" fill="black"/>
</mask>
<g mask="url(#mask4_6_757)">
<rect x="246.763" y="9.10413" width="16" height="16" fill="#8F9098"/>
</g>
<path d="M272.965 21.1041L270.976 13.8314H271.871L273.391 19.7547H273.462L275.01 13.8314H276.005L277.553 19.7547H277.624L279.144 13.8314H280.039L278.05 21.1041H277.141L275.536 15.3087H275.479L273.874 21.1041H272.965ZM282.952 21.2178C282.426 21.2178 281.973 21.1018 281.591 20.8698C281.213 20.6354 280.92 20.3087 280.714 19.8896C280.511 19.4682 280.409 18.9782 280.409 18.4195C280.409 17.8608 280.511 17.3683 280.714 16.9422C280.92 16.5137 281.207 16.1799 281.574 15.9408C281.943 15.6993 282.374 15.5786 282.866 15.5786C283.15 15.5786 283.431 15.6259 283.708 15.7206C283.985 15.8153 284.237 15.9692 284.464 16.1823C284.692 16.393 284.873 16.6723 285.008 17.0203C285.143 17.3683 285.21 17.7968 285.21 18.3058V18.6609H281.006V17.9365H284.358C284.358 17.6287 284.296 17.3541 284.173 17.1126C284.052 16.8712 283.88 16.6806 283.655 16.5409C283.432 16.4012 283.169 16.3314 282.866 16.3314C282.533 16.3314 282.244 16.4143 282 16.58C281.758 16.7433 281.573 16.9564 281.442 17.2192C281.312 17.482 281.247 17.7637 281.247 18.0644V18.5473C281.247 18.9592 281.318 19.3084 281.46 19.5949C281.604 19.879 281.805 20.0956 282.06 20.2448C282.316 20.3915 282.613 20.4649 282.952 20.4649C283.172 20.4649 283.371 20.4341 283.548 20.3726C283.728 20.3087 283.883 20.214 284.013 20.0885C284.144 19.9607 284.244 19.802 284.315 19.6126L285.125 19.8399C285.04 20.1145 284.896 20.356 284.695 20.5644C284.494 20.7703 284.245 20.9313 283.949 21.0473C283.653 21.1609 283.321 21.2178 282.952 21.2178ZM288.922 21.2178C288.396 21.2178 287.943 21.1018 287.562 20.8698C287.183 20.6354 286.891 20.3087 286.685 19.8896C286.481 19.4682 286.379 18.9782 286.379 18.4195C286.379 17.8608 286.481 17.3683 286.685 16.9422C286.891 16.5137 287.177 16.1799 287.544 15.9408C287.913 15.6993 288.344 15.5786 288.837 15.5786C289.121 15.5786 289.401 15.6259 289.678 15.7206C289.955 15.8153 290.207 15.9692 290.435 16.1823C290.662 16.393 290.843 16.6723 290.978 17.0203C291.113 17.3683 291.18 17.7968 291.18 18.3058V18.6609H286.976V17.9365H290.328C290.328 17.6287 290.267 17.3541 290.143 17.1126C290.023 16.8712 289.85 16.6806 289.625 16.5409C289.402 16.4012 289.14 16.3314 288.837 16.3314C288.503 16.3314 288.214 16.4143 287.97 16.58C287.729 16.7433 287.543 16.9564 287.413 17.2192C287.282 17.482 287.217 17.7637 287.217 18.0644V18.5473C287.217 18.9592 287.288 19.3084 287.43 19.5949C287.575 19.879 287.775 20.0956 288.031 20.2448C288.286 20.3915 288.583 20.4649 288.922 20.4649C289.142 20.4649 289.341 20.4341 289.518 20.3726C289.698 20.3087 289.853 20.214 289.984 20.0885C290.114 19.9607 290.214 19.802 290.285 19.6126L291.095 19.8399C291.01 20.1145 290.867 20.356 290.665 20.5644C290.464 20.7703 290.216 20.9313 289.92 21.0473C289.624 21.1609 289.291 21.2178 288.922 21.2178ZM293.386 19.1155L293.372 18.0786H293.543L295.929 15.6496H296.966L294.423 18.2206H294.352L293.386 19.1155ZM292.605 21.1041V13.8314H293.443V21.1041H292.605ZM296.071 21.1041L293.94 18.4053L294.537 17.8229L297.136 21.1041H296.071ZM303.515 21.1041H301.271V13.8314H303.615C304.32 13.8314 304.924 13.977 305.426 14.2682C305.928 14.557 306.312 14.9725 306.58 15.5146C306.847 16.0544 306.981 16.7007 306.981 17.4536C306.981 18.2111 306.846 18.8634 306.576 19.4102C306.306 19.9547 305.913 20.3738 305.397 20.6673C304.881 20.9585 304.254 21.1041 303.515 21.1041ZM302.152 20.3229H303.458C304.06 20.3229 304.558 20.2069 304.953 19.9749C305.349 19.7429 305.643 19.4126 305.838 18.9841C306.032 18.5556 306.129 18.0454 306.129 17.4536C306.129 16.8664 306.033 16.361 305.841 15.9372C305.649 15.5111 305.363 15.1844 304.982 14.9571C304.601 14.7275 304.126 14.6126 303.558 14.6126H302.152V20.3229ZM310.1 21.232C309.754 21.232 309.44 21.1669 309.159 21.0367C308.877 20.9041 308.653 20.7135 308.488 20.4649C308.322 20.214 308.239 19.9109 308.239 19.5558C308.239 19.2433 308.301 18.99 308.424 18.7959C308.547 18.5994 308.711 18.4455 308.917 18.3342C309.123 18.223 309.351 18.1401 309.599 18.0857C309.85 18.0288 310.102 17.9839 310.355 17.9507C310.687 17.9081 310.956 17.8761 311.162 17.8548C311.37 17.8312 311.521 17.7921 311.616 17.7376C311.713 17.6832 311.762 17.5885 311.762 17.4536V17.4251C311.762 17.0748 311.666 16.8025 311.474 16.6084C311.285 16.4143 310.997 16.3172 310.611 16.3172C310.211 16.3172 309.897 16.4048 309.67 16.58C309.443 16.7552 309.283 16.9422 309.191 17.1411L308.395 16.857C308.537 16.5255 308.727 16.2675 308.963 16.0828C309.203 15.8958 309.463 15.7656 309.745 15.6922C310.029 15.6164 310.308 15.5786 310.583 15.5786C310.758 15.5786 310.959 15.5999 311.186 15.6425C311.416 15.6827 311.637 15.7668 311.851 15.8946C312.066 16.0224 312.245 16.2154 312.387 16.4734C312.529 16.7315 312.6 17.0771 312.6 17.5104V21.1041H311.762V20.3655H311.719C311.662 20.4839 311.568 20.6105 311.435 20.7455C311.302 20.8804 311.126 20.9952 310.906 21.0899C310.686 21.1846 310.417 21.232 310.1 21.232ZM310.228 20.4791C310.559 20.4791 310.838 20.414 311.066 20.2838C311.295 20.1536 311.468 19.9855 311.584 19.7796C311.703 19.5736 311.762 19.357 311.762 19.1297V18.3626C311.726 18.4053 311.648 18.4443 311.527 18.4798C311.409 18.513 311.272 18.5426 311.115 18.5686C310.962 18.5923 310.811 18.6136 310.664 18.6325C310.52 18.6491 310.403 18.6633 310.313 18.6751C310.095 18.7036 309.891 18.7497 309.702 18.8136C309.515 18.8752 309.364 18.9687 309.248 19.0942C309.134 19.2173 309.077 19.3854 309.077 19.5984C309.077 19.8896 309.185 20.1098 309.4 20.259C309.618 20.4057 309.894 20.4791 310.228 20.4791ZM314.624 23.1496C314.482 23.1496 314.355 23.1377 314.244 23.1141C314.133 23.0928 314.056 23.0715 314.013 23.0501L314.226 22.3115C314.43 22.3636 314.61 22.3825 314.766 22.3683C314.922 22.3541 315.061 22.2843 315.181 22.1588C315.305 22.0357 315.417 21.8357 315.519 21.5587L315.675 21.1325L313.658 15.6496H314.567L316.073 19.9962H316.13L317.635 15.6496H318.544L316.229 21.8996C316.125 22.1813 315.996 22.4145 315.842 22.5992C315.688 22.7862 315.509 22.9247 315.306 23.0146C315.104 23.1046 314.877 23.1496 314.624 23.1496Z" fill="#1F2024"/>
<path d="M208.408 38.368H238.6" stroke="#8F9098"/>
<path d="M208.408 17.1041H238.6" stroke="#8F9098"/>
<defs>
<clipPath id="clip0_6_757">
<rect width="16" height="16" fill="white" transform="translate(48.4263 55.632)"/>
</clipPath>
<clipPath id="clip1_6_757">
<rect width="16" height="16" fill="white" transform="translate(220.263 71.632)"/>
</clipPath>
</defs>
</svg>
