<svg width="406" height="128" viewBox="0 0 406 128" fill="none" xmlns="http://www.w3.org/2000/svg">
<g clip-path="url(#clip0_249_4983)">
<mask id="mask0_249_4983" style="mask-type:alpha" maskUnits="userSpaceOnUse" x="75" y="111" width="17" height="17">
<path d="M83.3155 111.612C83.6501 111.277 84.1927 111.277 84.5273 111.612L86.9044 113.989C87.239 114.324 87.239 114.866 86.9044 115.201L84.5273 117.578C84.1927 117.913 83.6501 117.913 83.3155 117.578L80.9384 115.201C80.6038 114.866 80.6038 114.324 80.9384 113.989L83.3155 111.612Z" fill="#1F2024"/>
<path d="M91.6704 118.755C92.0051 119.09 92.0051 119.632 91.6704 119.967L89.2934 122.344C88.9587 122.679 88.4162 122.679 88.0815 122.344L85.7045 119.967C85.3698 119.632 85.3698 119.09 85.7045 118.755L88.0815 116.378C88.4162 116.043 88.9587 116.043 89.2934 116.378L91.6704 118.755Z" fill="#1F2024"/>
<path d="M83.3155 121.144C83.6501 120.809 84.1927 120.809 84.5273 121.144L86.9044 123.521C87.239 123.856 87.239 124.398 86.9044 124.733L84.5273 127.11C84.1927 127.445 83.6501 127.445 83.3155 127.11L80.9384 124.733C80.6038 124.398 80.6038 123.856 80.9384 123.521L83.3155 121.144Z" fill="#1F2024"/>
<path d="M82.1383 118.755C82.473 119.09 82.473 119.632 82.1383 119.967L79.7613 122.344C79.4266 122.679 78.8841 122.679 78.5494 122.344L76.1724 119.967C75.8377 119.632 75.8377 119.09 76.1724 118.755L78.5494 116.378C78.8841 116.043 79.4266 116.043 79.7613 116.378L82.1383 118.755Z" fill="#1F2024"/>
</mask>
<g mask="url(#mask0_249_4983)">
<rect x="75.9214" y="111.361" width="16" height="16" fill="#8F9098"/>
</g>
</g>
<path d="M104.779 117.906C104.737 117.547 104.564 117.267 104.261 117.068C103.958 116.869 103.586 116.77 103.146 116.77C102.824 116.77 102.542 116.822 102.301 116.926C102.062 117.03 101.875 117.174 101.74 117.356C101.607 117.538 101.541 117.745 101.541 117.977C101.541 118.172 101.587 118.338 101.679 118.478C101.774 118.615 101.895 118.73 102.041 118.823C102.188 118.913 102.342 118.987 102.503 119.046C102.664 119.103 102.812 119.149 102.947 119.185L103.686 119.384C103.875 119.433 104.086 119.502 104.318 119.59C104.552 119.677 104.776 119.797 104.989 119.948C105.204 120.097 105.382 120.289 105.522 120.524C105.661 120.758 105.731 121.046 105.731 121.387C105.731 121.78 105.628 122.135 105.422 122.452C105.218 122.769 104.92 123.021 104.527 123.208C104.137 123.395 103.662 123.489 103.103 123.489C102.582 123.489 102.131 123.405 101.75 123.237C101.371 123.069 101.073 122.834 100.855 122.534C100.64 122.233 100.518 121.884 100.49 121.486H101.399C101.422 121.761 101.515 121.988 101.676 122.168C101.839 122.345 102.045 122.478 102.294 122.566C102.544 122.651 102.814 122.693 103.103 122.693C103.439 122.693 103.741 122.639 104.009 122.53C104.276 122.419 104.488 122.265 104.644 122.068C104.801 121.869 104.879 121.637 104.879 121.372C104.879 121.131 104.811 120.934 104.676 120.783C104.541 120.631 104.364 120.508 104.144 120.414C103.924 120.319 103.686 120.236 103.43 120.165L102.535 119.909C101.967 119.746 101.517 119.513 101.186 119.21C100.854 118.907 100.688 118.51 100.688 118.02C100.688 117.613 100.799 117.258 101.019 116.955C101.241 116.649 101.54 116.413 101.914 116.244C102.29 116.074 102.71 115.989 103.174 115.989C103.643 115.989 104.06 116.073 104.424 116.241C104.789 116.407 105.078 116.634 105.291 116.923C105.506 117.212 105.62 117.539 105.632 117.906H104.779ZM109.502 123.475C108.977 123.475 108.523 123.359 108.142 123.127C107.763 122.892 107.471 122.566 107.265 122.146C107.062 121.725 106.96 121.235 106.96 120.676C106.96 120.118 107.062 119.625 107.265 119.199C107.471 118.771 107.758 118.437 108.124 118.198C108.494 117.956 108.925 117.835 109.417 117.835C109.701 117.835 109.982 117.883 110.259 117.977C110.536 118.072 110.788 118.226 111.015 118.439C111.242 118.65 111.423 118.929 111.558 119.277C111.693 119.625 111.761 120.054 111.761 120.563V120.918H107.556V120.193H110.909C110.909 119.886 110.847 119.611 110.724 119.369C110.603 119.128 110.43 118.937 110.205 118.798C109.983 118.658 109.72 118.588 109.417 118.588C109.083 118.588 108.794 118.671 108.551 118.837C108.309 119 108.123 119.213 107.993 119.476C107.863 119.739 107.798 120.021 107.798 120.321V120.804C107.798 121.216 107.869 121.565 108.011 121.852C108.155 122.136 108.355 122.352 108.611 122.502C108.867 122.648 109.164 122.722 109.502 122.722C109.722 122.722 109.921 122.691 110.099 122.629C110.279 122.566 110.434 122.471 110.564 122.345C110.694 122.217 110.795 122.059 110.866 121.869L111.676 122.097C111.59 122.371 111.447 122.613 111.246 122.821C111.045 123.027 110.796 123.188 110.5 123.304C110.204 123.418 109.872 123.475 109.502 123.475ZM114.024 116.088V123.361H113.186V116.088H114.024ZM117.996 123.475C117.47 123.475 117.017 123.359 116.636 123.127C116.257 122.892 115.964 122.566 115.758 122.146C115.555 121.725 115.453 121.235 115.453 120.676C115.453 120.118 115.555 119.625 115.758 119.199C115.964 118.771 116.251 118.437 116.618 118.198C116.987 117.956 117.418 117.835 117.91 117.835C118.195 117.835 118.475 117.883 118.752 117.977C119.029 118.072 119.281 118.226 119.508 118.439C119.736 118.65 119.917 118.929 120.052 119.277C120.187 119.625 120.254 120.054 120.254 120.563V120.918H116.05V120.193H119.402C119.402 119.886 119.34 119.611 119.217 119.369C119.097 119.128 118.924 118.937 118.699 118.798C118.476 118.658 118.213 118.588 117.91 118.588C117.577 118.588 117.288 118.671 117.044 118.837C116.802 119 116.617 119.213 116.486 119.476C116.356 119.739 116.291 120.021 116.291 120.321V120.804C116.291 121.216 116.362 121.565 116.504 121.852C116.649 122.136 116.849 122.352 117.104 122.502C117.36 122.648 117.657 122.722 117.996 122.722C118.216 122.722 118.415 122.691 118.592 122.629C118.772 122.566 118.927 122.471 119.057 122.345C119.188 122.217 119.288 122.059 119.359 121.869L120.169 122.097C120.084 122.371 119.941 122.613 119.739 122.821C119.538 123.027 119.289 123.188 118.994 123.304C118.698 123.418 118.365 123.475 117.996 123.475ZM123.895 123.475C123.384 123.475 122.943 123.354 122.574 123.112C122.205 122.871 121.921 122.538 121.722 122.115C121.523 121.691 121.423 121.207 121.423 120.662C121.423 120.108 121.525 119.619 121.729 119.195C121.935 118.769 122.221 118.437 122.588 118.198C122.957 117.956 123.388 117.835 123.881 117.835C124.264 117.835 124.61 117.906 124.918 118.048C125.225 118.191 125.478 118.389 125.674 118.645C125.871 118.901 125.993 119.199 126.04 119.54H125.202C125.138 119.291 124.996 119.071 124.776 118.879C124.558 118.685 124.264 118.588 123.895 118.588C123.568 118.588 123.282 118.673 123.036 118.844C122.792 119.012 122.601 119.25 122.464 119.558C122.329 119.863 122.261 120.222 122.261 120.634C122.261 121.055 122.328 121.422 122.46 121.735C122.595 122.047 122.785 122.29 123.028 122.463C123.275 122.635 123.564 122.722 123.895 122.722C124.113 122.722 124.31 122.684 124.488 122.608C124.666 122.532 124.816 122.423 124.939 122.281C125.062 122.139 125.15 121.969 125.202 121.77H126.04C125.993 122.092 125.875 122.382 125.688 122.64C125.504 122.896 125.259 123.099 124.953 123.251C124.65 123.4 124.297 123.475 123.895 123.475ZM129.787 117.906V118.617H126.96V117.906H129.787ZM127.784 116.6H128.622V121.798C128.622 122.035 128.657 122.213 128.725 122.331C128.796 122.447 128.886 122.525 128.995 122.566C129.107 122.603 129.224 122.622 129.347 122.622C129.439 122.622 129.515 122.618 129.574 122.608C129.633 122.596 129.681 122.587 129.716 122.58L129.887 123.333C129.83 123.354 129.75 123.375 129.649 123.396C129.547 123.42 129.418 123.432 129.262 123.432C129.025 123.432 128.793 123.381 128.566 123.279C128.341 123.177 128.154 123.022 128.004 122.814C127.858 122.606 127.784 122.343 127.784 122.026V116.6ZM133.426 123.475C132.901 123.475 132.447 123.359 132.066 123.127C131.687 122.892 131.395 122.566 131.189 122.146C130.985 121.725 130.884 121.235 130.884 120.676C130.884 120.118 130.985 119.625 131.189 119.199C131.395 118.771 131.681 118.437 132.048 118.198C132.418 117.956 132.848 117.835 133.341 117.835C133.625 117.835 133.906 117.883 134.183 117.977C134.46 118.072 134.712 118.226 134.939 118.439C135.166 118.65 135.347 118.929 135.482 119.277C135.617 119.625 135.685 120.054 135.685 120.563V120.918H131.48V120.193H134.832C134.832 119.886 134.771 119.611 134.648 119.369C134.527 119.128 134.354 118.937 134.129 118.798C133.907 118.658 133.644 118.588 133.341 118.588C133.007 118.588 132.718 118.671 132.474 118.837C132.233 119 132.047 119.213 131.917 119.476C131.787 119.739 131.722 120.021 131.722 120.321V120.804C131.722 121.216 131.793 121.565 131.935 121.852C132.079 122.136 132.279 122.352 132.535 122.502C132.79 122.648 133.088 122.722 133.426 122.722C133.646 122.722 133.845 122.691 134.023 122.629C134.203 122.566 134.358 122.471 134.488 122.345C134.618 122.217 134.719 122.059 134.79 121.869L135.599 122.097C135.514 122.371 135.371 122.613 135.17 122.821C134.969 123.027 134.72 123.188 134.424 123.304C134.128 123.418 133.795 123.475 133.426 123.475ZM139.169 123.475C138.715 123.475 138.313 123.36 137.965 123.13C137.617 122.898 137.345 122.571 137.149 122.15C136.952 121.726 136.854 121.226 136.854 120.648C136.854 120.075 136.952 119.578 137.149 119.156C137.345 118.735 137.619 118.409 137.969 118.18C138.319 117.95 138.724 117.835 139.183 117.835C139.539 117.835 139.819 117.895 140.025 118.013C140.233 118.129 140.392 118.262 140.501 118.411C140.612 118.557 140.699 118.678 140.76 118.773H140.831V116.088H141.669V123.361H140.86V122.523H140.76C140.699 122.622 140.611 122.748 140.497 122.899C140.384 123.048 140.222 123.182 140.011 123.301C139.8 123.417 139.52 123.475 139.169 123.475ZM139.283 122.722C139.619 122.722 139.903 122.634 140.135 122.459C140.367 122.281 140.543 122.036 140.664 121.724C140.785 121.409 140.845 121.046 140.845 120.634C140.845 120.226 140.786 119.87 140.668 119.565C140.549 119.257 140.374 119.018 140.142 118.847C139.91 118.675 139.624 118.588 139.283 118.588C138.928 118.588 138.632 118.679 138.395 118.862C138.161 119.042 137.984 119.287 137.866 119.597C137.75 119.905 137.692 120.25 137.692 120.634C137.692 121.022 137.751 121.375 137.869 121.692C137.99 122.007 138.168 122.258 138.402 122.445C138.639 122.629 138.932 122.722 139.283 122.722Z" fill="#1F2024"/>
<mask id="mask1_249_4983" style="mask-type:alpha" maskUnits="userSpaceOnUse" x="202" y="89" width="15" height="14">
<path d="M216.103 89.3623H203.066C202.85 89.3623 202.642 89.4449 202.49 89.592C202.337 89.7391 202.251 89.9386 202.251 90.1466V92.4996C202.251 92.7076 202.337 92.9071 202.49 93.0542C202.642 93.2012 202.85 93.2839 203.066 93.2839C203.282 93.2839 203.489 93.2012 203.642 93.0542C203.795 92.9071 203.881 92.7076 203.881 92.4996V90.9309H208.769V101.127H207.14C206.924 101.127 206.717 101.21 206.564 101.357C206.411 101.504 206.325 101.703 206.325 101.911C206.325 102.119 206.411 102.319 206.564 102.466C206.717 102.613 206.924 102.696 207.14 102.696H212.029C212.245 102.696 212.452 102.613 212.605 102.466C212.758 102.319 212.844 102.119 212.844 101.911C212.844 101.703 212.758 101.504 212.605 101.357C212.452 101.21 212.245 101.127 212.029 101.127H210.399V90.9309H215.288V92.4996C215.288 92.7076 215.374 92.9071 215.527 93.0542C215.679 93.2012 215.887 93.2839 216.103 93.2839C216.319 93.2839 216.526 93.2012 216.679 93.0542C216.832 92.9071 216.918 92.7076 216.918 92.4996V90.1466C216.918 89.9386 216.832 89.7391 216.679 89.592C216.526 89.4449 216.319 89.3623 216.103 89.3623Z" fill="black"/>
</mask>
<g mask="url(#mask1_249_4983)">
<rect x="201.584" y="88.029" width="16" height="16" fill="#8F9098"/>
</g>
<path d="M226.067 93.5375V92.7563H231.522V93.5375H229.235V100.029H228.354V93.5375H226.067ZM232.918 100.029V94.5744H233.756V100.029H232.918ZM233.344 93.6654C233.18 93.6654 233.039 93.6097 232.921 93.4985C232.805 93.3872 232.747 93.2534 232.747 93.0972C232.747 92.9409 232.805 92.8072 232.921 92.6959C233.039 92.5846 233.18 92.529 233.344 92.529C233.507 92.529 233.647 92.5846 233.763 92.6959C233.881 92.8072 233.94 92.9409 233.94 93.0972C233.94 93.2534 233.881 93.3872 233.763 93.4985C233.647 93.6097 233.507 93.6654 233.344 93.6654ZM237.813 94.5744V95.2847H234.986V94.5744H237.813ZM235.81 93.2676H236.648V98.4665C236.648 98.7032 236.682 98.8808 236.751 98.9992C236.822 99.1152 236.912 99.1933 237.021 99.2335C237.132 99.2714 237.249 99.2904 237.372 99.2904C237.465 99.2904 237.54 99.2856 237.6 99.2762C237.659 99.2643 237.706 99.2548 237.742 99.2477L237.912 100.001C237.855 100.022 237.776 100.043 237.674 100.065C237.572 100.088 237.443 100.1 237.287 100.1C237.05 100.1 236.818 100.049 236.591 99.9473C236.366 99.8455 236.179 99.6905 236.03 99.4821C235.883 99.2738 235.81 99.011 235.81 98.6938V93.2676ZM240.179 92.7563V100.029H239.341V92.7563H240.179ZM244.151 100.143C243.625 100.143 243.172 100.027 242.79 99.7946C242.412 99.5602 242.119 99.2335 241.913 98.8145C241.71 98.3931 241.608 97.903 241.608 97.3443C241.608 96.7856 241.71 96.2932 241.913 95.8671C242.119 95.4386 242.406 95.1047 242.773 94.8656C243.142 94.6242 243.573 94.5034 244.065 94.5034C244.349 94.5034 244.63 94.5508 244.907 94.6455C245.184 94.7402 245.436 94.894 245.663 95.1071C245.891 95.3178 246.072 95.5972 246.207 95.9452C246.342 96.2932 246.409 96.7217 246.409 97.2307V97.5858H242.205V96.8614H245.557C245.557 96.5536 245.495 96.279 245.372 96.0375C245.251 95.796 245.079 95.6055 244.854 95.4658C244.631 95.3261 244.368 95.2563 244.065 95.2563C243.732 95.2563 243.443 95.3391 243.199 95.5048C242.957 95.6682 242.772 95.8813 242.641 96.144C242.511 96.4068 242.446 96.6886 242.446 96.9892V97.4722C242.446 97.8841 242.517 98.2333 242.659 98.5198C242.803 98.8038 243.004 99.0205 243.259 99.1696C243.515 99.3164 243.812 99.3898 244.151 99.3898C244.371 99.3898 244.57 99.359 244.747 99.2975C244.927 99.2335 245.082 99.1388 245.212 99.0134C245.343 98.8855 245.443 98.7269 245.514 98.5375L246.324 98.7648C246.239 99.0394 246.095 99.2809 245.894 99.4892C245.693 99.6952 245.444 99.8562 245.148 99.9722C244.853 100.086 244.52 100.143 244.151 100.143Z" fill="#1F2024"/>
<path d="M47.5952 71.303V111.072C47.5952 115.49 51.1769 119.072 55.5952 119.072H68.0674" stroke="#8F9098"/>
<path d="M173.258 47.971V87.7396C173.258 92.1578 176.84 95.7396 181.258 95.7396H193.731" stroke="#8F9098"/>
<path d="M33.442 31.093V29.3182H41.8042V31.093H38.687V39.5H36.5592V31.093H33.442ZM43.1416 39.5V31.8636H45.2595V39.5H43.1416ZM44.2055 30.8793C43.8906 30.8793 43.6205 30.7749 43.3951 30.5661C43.173 30.3539 43.062 30.1004 43.062 29.8054C43.062 29.5137 43.173 29.2635 43.3951 29.0547C43.6205 28.8426 43.8906 28.7365 44.2055 28.7365C44.5203 28.7365 44.7888 28.8426 45.0109 29.0547C45.2363 29.2635 45.3489 29.5137 45.3489 29.8054C45.3489 30.1004 45.2363 30.3539 45.0109 30.5661C44.7888 30.7749 44.5203 30.8793 44.2055 30.8793ZM51.0178 31.8636V33.4545H46.4191V31.8636H51.0178ZM47.4631 30.0341H49.581V37.1534C49.581 37.349 49.6108 37.5014 49.6705 37.6108C49.7302 37.7169 49.813 37.7914 49.9191 37.8345C50.0285 37.8776 50.1544 37.8991 50.2969 37.8991C50.3964 37.8991 50.4958 37.8909 50.5952 37.8743C50.6946 37.8544 50.7709 37.8395 50.8239 37.8295L51.157 39.4055C51.0509 39.4387 50.9018 39.4768 50.7096 39.5199C50.5173 39.5663 50.2837 39.5945 50.0086 39.6044C49.4982 39.6243 49.0507 39.5563 48.6662 39.4006C48.2851 39.2448 47.9884 39.0028 47.7763 38.6747C47.5642 38.3466 47.4598 37.9323 47.4631 37.4318V30.0341ZM54.6794 29.3182V39.5H52.5615V29.3182H54.6794ZM59.856 39.6491C59.0705 39.6491 58.3944 39.4901 57.8276 39.1719C57.2642 38.8504 56.83 38.3963 56.5251 37.8097C56.2202 37.2197 56.0677 36.522 56.0677 35.7166C56.0677 34.9311 56.2202 34.2417 56.5251 33.6484C56.83 33.0552 57.2592 32.5928 57.8127 32.2614C58.3695 31.9299 59.0225 31.7642 59.7715 31.7642C60.2753 31.7642 60.7443 31.8454 61.1785 32.0078C61.616 32.1669 61.9971 32.4072 62.322 32.7287C62.6501 33.0502 62.9053 33.4545 63.0876 33.9418C63.2699 34.4257 63.361 34.9924 63.361 35.642V36.2237H56.9129V34.9112H61.3674C61.3674 34.6063 61.3011 34.3362 61.1685 34.1009C61.036 33.8655 60.852 33.6816 60.6167 33.549C60.3847 33.4131 60.1146 33.3452 59.8063 33.3452C59.4848 33.3452 59.1998 33.4197 58.9512 33.5689C58.706 33.7147 58.5137 33.9119 58.3745 34.1605C58.2353 34.4058 58.164 34.6792 58.1607 34.9808V36.2287C58.1607 36.6065 58.2303 36.933 58.3695 37.2081C58.5121 37.4832 58.7126 37.6953 58.9711 37.8445C59.2296 37.9936 59.5362 38.0682 59.8908 38.0682C60.1262 38.0682 60.3416 38.035 60.5372 37.9688C60.7327 37.9025 60.9001 37.803 61.0393 37.6705C61.1785 37.5379 61.2845 37.3755 61.3575 37.1832L63.3163 37.3125C63.2168 37.7831 63.013 38.1941 62.7048 38.5455C62.3998 38.8935 62.0054 39.1652 61.5215 39.3608C61.0409 39.553 60.4858 39.6491 59.856 39.6491Z" fill="#1F2024"/>
<rect x="36.4214" y="56" width="24" height="4" rx="2" fill="#006FFD"/>
<path d="M97.0848 29.9119V28.8182H104.721V29.9119H101.519V39H100.287V29.9119H97.0848ZM106.465 39V31.3636H107.638V39H106.465ZM107.062 30.0909C106.833 30.0909 106.636 30.013 106.47 29.8572C106.308 29.7015 106.226 29.5142 106.226 29.2955C106.226 29.0767 106.308 28.8894 106.47 28.7337C106.636 28.5779 106.833 28.5 107.062 28.5C107.29 28.5 107.486 28.5779 107.648 28.7337C107.814 28.8894 107.897 29.0767 107.897 29.2955C107.897 29.5142 107.814 29.7015 107.648 29.8572C107.486 30.013 107.29 30.0909 107.062 30.0909ZM113.108 31.3636V32.358H109.151V31.3636H113.108ZM110.304 29.5341H111.478V36.8125C111.478 37.1439 111.526 37.3925 111.622 37.5582C111.721 37.7206 111.847 37.83 112 37.8864C112.155 37.9394 112.319 37.9659 112.492 37.9659C112.621 37.9659 112.727 37.9593 112.81 37.946C112.893 37.9295 112.959 37.9162 113.009 37.9062L113.247 38.9602C113.168 38.9901 113.057 39.0199 112.914 39.0497C112.772 39.0829 112.591 39.0994 112.372 39.0994C112.041 39.0994 111.716 39.0282 111.398 38.8857C111.083 38.7431 110.821 38.526 110.613 38.2344C110.407 37.9427 110.304 37.5748 110.304 37.1307V29.5341ZM116.211 28.8182V39H115.037V28.8182H116.211ZM121.561 39.1591C120.825 39.1591 120.191 38.9967 119.657 38.6719C119.127 38.3438 118.717 37.8864 118.429 37.2997C118.144 36.7098 118.002 36.0237 118.002 35.2415C118.002 34.4593 118.144 33.7699 118.429 33.1733C118.717 32.5734 119.119 32.1061 119.632 31.7713C120.149 31.4332 120.753 31.2642 121.442 31.2642C121.84 31.2642 122.232 31.3305 122.62 31.4631C123.008 31.5956 123.361 31.8111 123.679 32.1094C123.997 32.4044 124.251 32.7955 124.44 33.2827C124.629 33.7699 124.723 34.3698 124.723 35.0824V35.5795H118.837V34.5653H123.53C123.53 34.1345 123.444 33.75 123.271 33.4119C123.102 33.0739 122.86 32.8071 122.546 32.6115C122.234 32.416 121.866 32.3182 121.442 32.3182C120.975 32.3182 120.57 32.4342 120.229 32.6662C119.891 32.8949 119.631 33.1932 119.448 33.5611C119.266 33.929 119.175 34.3234 119.175 34.7443V35.4205C119.175 35.9972 119.274 36.486 119.473 36.8871C119.675 37.2848 119.955 37.5881 120.313 37.7969C120.671 38.0024 121.087 38.1051 121.561 38.1051C121.869 38.1051 122.148 38.062 122.396 37.9759C122.648 37.8864 122.865 37.7538 123.048 37.5781C123.23 37.3991 123.371 37.1771 123.47 36.9119L124.604 37.2301C124.485 37.6146 124.284 37.9527 124.002 38.2443C123.721 38.5327 123.373 38.758 122.958 38.9205C122.544 39.0795 122.078 39.1591 121.561 39.1591Z" fill="#71727A"/>
<path d="M159.085 29.9119V28.8182H166.721V29.9119H163.519V39H162.287V29.9119H159.085ZM168.465 39V31.3636H169.638V39H168.465ZM169.062 30.0909C168.833 30.0909 168.636 30.013 168.47 29.8572C168.308 29.7015 168.226 29.5142 168.226 29.2955C168.226 29.0767 168.308 28.8894 168.47 28.7337C168.636 28.5779 168.833 28.5 169.062 28.5C169.29 28.5 169.486 28.5779 169.648 28.7337C169.814 28.8894 169.897 29.0767 169.897 29.2955C169.897 29.5142 169.814 29.7015 169.648 29.8572C169.486 30.013 169.29 30.0909 169.062 30.0909ZM175.108 31.3636V32.358H171.151V31.3636H175.108ZM172.304 29.5341H173.478V36.8125C173.478 37.1439 173.526 37.3925 173.622 37.5582C173.721 37.7206 173.847 37.83 174 37.8864C174.155 37.9394 174.319 37.9659 174.492 37.9659C174.621 37.9659 174.727 37.9593 174.81 37.946C174.893 37.9295 174.959 37.9162 175.009 37.9062L175.247 38.9602C175.168 38.9901 175.057 39.0199 174.914 39.0497C174.772 39.0829 174.591 39.0994 174.372 39.0994C174.041 39.0994 173.716 39.0282 173.398 38.8857C173.083 38.7431 172.821 38.526 172.613 38.2344C172.407 37.9427 172.304 37.5748 172.304 37.1307V29.5341ZM178.211 28.8182V39H177.037V28.8182H178.211ZM183.561 39.1591C182.825 39.1591 182.191 38.9967 181.657 38.6719C181.127 38.3438 180.717 37.8864 180.429 37.2997C180.144 36.7098 180.002 36.0237 180.002 35.2415C180.002 34.4593 180.144 33.7699 180.429 33.1733C180.717 32.5734 181.119 32.1061 181.632 31.7713C182.149 31.4332 182.753 31.2642 183.442 31.2642C183.84 31.2642 184.232 31.3305 184.62 31.4631C185.008 31.5956 185.361 31.8111 185.679 32.1094C185.997 32.4044 186.251 32.7955 186.44 33.2827C186.629 33.7699 186.723 34.3698 186.723 35.0824V35.5795H180.837V34.5653H185.53C185.53 34.1345 185.444 33.75 185.271 33.4119C185.102 33.0739 184.86 32.8071 184.546 32.6115C184.234 32.416 183.866 32.3182 183.442 32.3182C182.975 32.3182 182.57 32.4342 182.229 32.6662C181.891 32.8949 181.631 33.1932 181.448 33.5611C181.266 33.929 181.175 34.3234 181.175 34.7443V35.4205C181.175 35.9972 181.274 36.486 181.473 36.8871C181.675 37.2848 181.955 37.5881 182.313 37.7969C182.671 38.0024 183.087 38.1051 183.561 38.1051C183.869 38.1051 184.148 38.062 184.396 37.9759C184.648 37.8864 184.865 37.7538 185.048 37.5781C185.23 37.3991 185.371 37.1771 185.47 36.9119L186.604 37.2301C186.485 37.6146 186.284 37.9527 186.002 38.2443C185.721 38.5327 185.373 38.758 184.958 38.9205C184.544 39.0795 184.078 39.1591 183.561 39.1591Z" fill="#71727A"/>
<path d="M221.085 29.9119V28.8182H228.721V29.9119H225.519V39H224.287V29.9119H221.085ZM230.465 39V31.3636H231.638V39H230.465ZM231.062 30.0909C230.833 30.0909 230.636 30.013 230.47 29.8572C230.308 29.7015 230.226 29.5142 230.226 29.2955C230.226 29.0767 230.308 28.8894 230.47 28.7337C230.636 28.5779 230.833 28.5 231.062 28.5C231.29 28.5 231.486 28.5779 231.648 28.7337C231.814 28.8894 231.897 29.0767 231.897 29.2955C231.897 29.5142 231.814 29.7015 231.648 29.8572C231.486 30.013 231.29 30.0909 231.062 30.0909ZM237.108 31.3636V32.358H233.151V31.3636H237.108ZM234.304 29.5341H235.478V36.8125C235.478 37.1439 235.526 37.3925 235.622 37.5582C235.721 37.7206 235.847 37.83 236 37.8864C236.155 37.9394 236.319 37.9659 236.492 37.9659C236.621 37.9659 236.727 37.9593 236.81 37.946C236.893 37.9295 236.959 37.9162 237.009 37.9062L237.247 38.9602C237.168 38.9901 237.057 39.0199 236.914 39.0497C236.772 39.0829 236.591 39.0994 236.372 39.0994C236.041 39.0994 235.716 39.0282 235.398 38.8857C235.083 38.7431 234.821 38.526 234.613 38.2344C234.407 37.9427 234.304 37.5748 234.304 37.1307V29.5341ZM240.211 28.8182V39H239.037V28.8182H240.211ZM245.561 39.1591C244.825 39.1591 244.191 38.9967 243.657 38.6719C243.127 38.3438 242.717 37.8864 242.429 37.2997C242.144 36.7098 242.002 36.0237 242.002 35.2415C242.002 34.4593 242.144 33.7699 242.429 33.1733C242.717 32.5734 243.119 32.1061 243.632 31.7713C244.149 31.4332 244.753 31.2642 245.442 31.2642C245.84 31.2642 246.232 31.3305 246.62 31.4631C247.008 31.5956 247.361 31.8111 247.679 32.1094C247.997 32.4044 248.251 32.7955 248.44 33.2827C248.629 33.7699 248.723 34.3698 248.723 35.0824V35.5795H242.837V34.5653H247.53C247.53 34.1345 247.444 33.75 247.271 33.4119C247.102 33.0739 246.86 32.8071 246.546 32.6115C246.234 32.416 245.866 32.3182 245.442 32.3182C244.975 32.3182 244.57 32.4342 244.229 32.6662C243.891 32.8949 243.631 33.1932 243.448 33.5611C243.266 33.929 243.175 34.3234 243.175 34.7443V35.4205C243.175 35.9972 243.274 36.486 243.473 36.8871C243.675 37.2848 243.955 37.5881 244.313 37.7969C244.671 38.0024 245.087 38.1051 245.561 38.1051C245.869 38.1051 246.148 38.062 246.396 37.9759C246.648 37.8864 246.865 37.7538 247.048 37.5781C247.23 37.3991 247.371 37.1771 247.47 36.9119L248.604 37.2301C248.485 37.6146 248.284 37.9527 248.002 38.2443C247.721 38.5327 247.373 38.758 246.958 38.9205C246.544 39.0795 246.078 39.1591 245.561 39.1591Z" fill="#71727A"/>
<path d="M283.085 29.9119V28.8182H290.721V29.9119H287.519V39H286.287V29.9119H283.085ZM292.465 39V31.3636H293.638V39H292.465ZM293.062 30.0909C292.833 30.0909 292.636 30.013 292.47 29.8572C292.308 29.7015 292.226 29.5142 292.226 29.2955C292.226 29.0767 292.308 28.8894 292.47 28.7337C292.636 28.5779 292.833 28.5 293.062 28.5C293.29 28.5 293.486 28.5779 293.648 28.7337C293.814 28.8894 293.897 29.0767 293.897 29.2955C293.897 29.5142 293.814 29.7015 293.648 29.8572C293.486 30.013 293.29 30.0909 293.062 30.0909ZM299.108 31.3636V32.358H295.151V31.3636H299.108ZM296.304 29.5341H297.478V36.8125C297.478 37.1439 297.526 37.3925 297.622 37.5582C297.721 37.7206 297.847 37.83 298 37.8864C298.155 37.9394 298.319 37.9659 298.492 37.9659C298.621 37.9659 298.727 37.9593 298.81 37.946C298.893 37.9295 298.959 37.9162 299.009 37.9062L299.247 38.9602C299.168 38.9901 299.057 39.0199 298.914 39.0497C298.772 39.0829 298.591 39.0994 298.372 39.0994C298.041 39.0994 297.716 39.0282 297.398 38.8857C297.083 38.7431 296.821 38.526 296.613 38.2344C296.407 37.9427 296.304 37.5748 296.304 37.1307V29.5341ZM302.211 28.8182V39H301.037V28.8182H302.211ZM307.561 39.1591C306.825 39.1591 306.191 38.9967 305.657 38.6719C305.127 38.3438 304.717 37.8864 304.429 37.2997C304.144 36.7098 304.002 36.0237 304.002 35.2415C304.002 34.4593 304.144 33.7699 304.429 33.1733C304.717 32.5734 305.119 32.1061 305.632 31.7713C306.149 31.4332 306.753 31.2642 307.442 31.2642C307.84 31.2642 308.232 31.3305 308.62 31.4631C309.008 31.5956 309.361 31.8111 309.679 32.1094C309.997 32.4044 310.251 32.7955 310.44 33.2827C310.629 33.7699 310.723 34.3698 310.723 35.0824V35.5795H304.837V34.5653H309.53C309.53 34.1345 309.444 33.75 309.271 33.4119C309.102 33.0739 308.86 32.8071 308.546 32.6115C308.234 32.416 307.866 32.3182 307.442 32.3182C306.975 32.3182 306.57 32.4342 306.229 32.6662C305.891 32.8949 305.631 33.1932 305.448 33.5611C305.266 33.929 305.175 34.3234 305.175 34.7443V35.4205C305.175 35.9972 305.274 36.486 305.473 36.8871C305.675 37.2848 305.955 37.5881 306.313 37.7969C306.671 38.0024 307.087 38.1051 307.561 38.1051C307.869 38.1051 308.148 38.062 308.396 37.9759C308.648 37.8864 308.865 37.7538 309.048 37.5781C309.23 37.3991 309.371 37.1771 309.47 36.9119L310.604 37.2301C310.485 37.6146 310.284 37.9527 310.002 38.2443C309.721 38.5327 309.373 38.758 308.958 38.9205C308.544 39.0795 308.078 39.1591 307.561 39.1591Z" fill="#71727A"/>
<path d="M345.085 29.9119V28.8182H352.721V29.9119H349.519V39H348.287V29.9119H345.085ZM354.465 39V31.3636H355.638V39H354.465ZM355.062 30.0909C354.833 30.0909 354.636 30.013 354.47 29.8572C354.308 29.7015 354.226 29.5142 354.226 29.2955C354.226 29.0767 354.308 28.8894 354.47 28.7337C354.636 28.5779 354.833 28.5 355.062 28.5C355.29 28.5 355.486 28.5779 355.648 28.7337C355.814 28.8894 355.897 29.0767 355.897 29.2955C355.897 29.5142 355.814 29.7015 355.648 29.8572C355.486 30.013 355.29 30.0909 355.062 30.0909ZM361.108 31.3636V32.358H357.151V31.3636H361.108ZM358.304 29.5341H359.478V36.8125C359.478 37.1439 359.526 37.3925 359.622 37.5582C359.721 37.7206 359.847 37.83 360 37.8864C360.155 37.9394 360.319 37.9659 360.492 37.9659C360.621 37.9659 360.727 37.9593 360.81 37.946C360.893 37.9295 360.959 37.9162 361.009 37.9062L361.247 38.9602C361.168 38.9901 361.057 39.0199 360.914 39.0497C360.772 39.0829 360.591 39.0994 360.372 39.0994C360.041 39.0994 359.716 39.0282 359.398 38.8857C359.083 38.7431 358.821 38.526 358.613 38.2344C358.407 37.9427 358.304 37.5748 358.304 37.1307V29.5341ZM364.211 28.8182V39H363.037V28.8182H364.211ZM369.561 39.1591C368.825 39.1591 368.191 38.9967 367.657 38.6719C367.127 38.3438 366.717 37.8864 366.429 37.2997C366.144 36.7098 366.002 36.0237 366.002 35.2415C366.002 34.4593 366.144 33.7699 366.429 33.1733C366.717 32.5734 367.119 32.1061 367.632 31.7713C368.149 31.4332 368.753 31.2642 369.442 31.2642C369.84 31.2642 370.232 31.3305 370.62 31.4631C371.008 31.5956 371.361 31.8111 371.679 32.1094C371.997 32.4044 372.251 32.7955 372.44 33.2827C372.629 33.7699 372.723 34.3698 372.723 35.0824V35.5795H366.837V34.5653H371.53C371.53 34.1345 371.444 33.75 371.271 33.4119C371.102 33.0739 370.86 32.8071 370.546 32.6115C370.234 32.416 369.866 32.3182 369.442 32.3182C368.975 32.3182 368.57 32.4342 368.229 32.6662C367.891 32.8949 367.631 33.1932 367.448 33.5611C367.266 33.929 367.175 34.3234 367.175 34.7443V35.4205C367.175 35.9972 367.274 36.486 367.473 36.8871C367.675 37.2848 367.955 37.5881 368.313 37.7969C368.671 38.0024 369.087 38.1051 369.561 38.1051C369.869 38.1051 370.148 38.062 370.396 37.9759C370.648 37.8864 370.865 37.7538 371.048 37.5781C371.23 37.3991 371.371 37.1771 371.47 36.9119L372.604 37.2301C372.485 37.6146 372.284 37.9527 372.002 38.2443C371.721 38.5327 371.373 38.758 370.958 38.9205C370.544 39.0795 370.078 39.1591 369.561 39.1591Z" fill="#71727A"/>
<defs>
<clipPath id="clip0_249_4983">
<rect width="16" height="16" fill="white" transform="translate(75.9214 111.361)"/>
</clipPath>
</defs>
</svg>
