<svg width="335" height="133" viewBox="0 0 335 133" fill="none" xmlns="http://www.w3.org/2000/svg">
<rect x="0.421387" y="42.2502" width="332" height="39" rx="16" fill="#F8F9FE"/>
<rect x="4.42139" y="46.2502" width="108" height="31" rx="12" fill="white"/>
<path d="M37.1721 60.0329C37.138 59.6892 36.9917 59.4221 36.7332 59.2318C36.4747 59.0414 36.1238 58.9463 35.6806 58.9463C35.3795 58.9463 35.1252 58.9889 34.9178 59.0741C34.7104 59.1565 34.5514 59.2716 34.4406 59.4193C34.3326 59.567 34.2786 59.7346 34.2786 59.9221C34.2729 60.0784 34.3056 60.2147 34.3766 60.3312C34.4505 60.4477 34.5514 60.5485 34.6792 60.6338C34.807 60.7162 34.9548 60.7886 35.1224 60.8511C35.29 60.9108 35.469 60.9619 35.6593 61.0045L36.4434 61.192C36.8241 61.2772 37.1735 61.3909 37.4917 61.5329C37.8099 61.675 38.0854 61.8497 38.3184 62.0571C38.5514 62.2644 38.7318 62.5088 38.8596 62.79C38.9903 63.0713 39.057 63.3937 39.0599 63.7573C39.057 64.2914 38.9207 64.7545 38.6508 65.1466C38.3837 65.5358 37.9974 65.8383 37.4917 66.0542C36.9889 66.2673 36.3823 66.3738 35.6721 66.3738C34.9676 66.3738 34.3539 66.2659 33.8312 66.05C33.3113 65.8341 32.9051 65.5144 32.6124 65.0912C32.3227 64.665 32.1707 64.138 32.1565 63.5102H33.942C33.9619 63.8028 34.0457 64.0471 34.1934 64.2431C34.344 64.4363 34.5443 64.5826 34.7943 64.6821C35.0471 64.7787 35.3326 64.8269 35.6508 64.8269C35.9633 64.8269 36.2346 64.7815 36.4647 64.6906C36.6977 64.5997 36.8781 64.4733 37.0059 64.3113C37.1337 64.1494 37.1977 63.9633 37.1977 63.7531C37.1977 63.5571 37.1394 63.3923 37.0229 63.2588C36.9093 63.1252 36.7417 63.0116 36.5201 62.9179C36.3014 62.8241 36.0329 62.7389 35.7147 62.6622L34.7644 62.4235C34.0286 62.2446 33.4477 61.9647 33.0215 61.5841C32.5954 61.2034 32.3837 60.6906 32.3866 60.0457C32.3837 59.5173 32.5244 59.0556 32.8085 58.6608C33.0954 58.2659 33.4889 57.9576 33.9889 57.736C34.4889 57.5144 35.057 57.4037 35.6934 57.4037C36.3411 57.4037 36.9065 57.5144 37.3894 57.736C37.8752 57.9576 38.2531 58.2659 38.5229 58.6608C38.7928 59.0556 38.932 59.513 38.9406 60.0329H37.1721ZM43.2499 66.3781C42.5766 66.3781 41.997 66.2417 41.5112 65.969C41.0283 65.6934 40.6561 65.3042 40.3948 64.8014C40.1334 64.2957 40.0027 63.6977 40.0027 63.0073C40.0027 62.3341 40.1334 61.7431 40.3948 61.2346C40.6561 60.7261 41.024 60.3298 41.4984 60.0457C41.9757 59.7616 42.5354 59.6196 43.1774 59.6196C43.6092 59.6196 44.0112 59.6892 44.3834 59.8284C44.7584 59.9647 45.0851 60.1707 45.3635 60.4463C45.6448 60.7218 45.8635 61.0684 46.0198 61.486C46.176 61.9008 46.2541 62.3866 46.2541 62.9434V63.442H40.7271V62.317H44.5453C44.5453 62.0556 44.4885 61.8241 44.3749 61.6224C44.2612 61.4207 44.1036 61.263 43.9019 61.1494C43.703 61.0329 43.4715 60.9747 43.2073 60.9747C42.9317 60.9747 42.6874 61.0386 42.4743 61.1664C42.2641 61.2914 42.0993 61.4605 41.98 61.6735C41.8607 61.8838 41.7996 62.1181 41.7967 62.3767V63.4463C41.7967 63.7701 41.8564 64.05 41.9757 64.2858C42.0979 64.5216 42.2698 64.7034 42.4913 64.8312C42.7129 64.9591 42.9757 65.023 43.2797 65.023C43.4814 65.023 43.6661 64.9946 43.8337 64.9377C44.0013 64.8809 44.1448 64.7957 44.2641 64.6821C44.3834 64.5684 44.4743 64.4292 44.5368 64.2644L46.2158 64.3752C46.1305 64.7787 45.9558 65.1309 45.6916 65.4321C45.4303 65.7304 45.0922 65.9633 44.6774 66.1309C44.2655 66.2957 43.7896 66.3781 43.2499 66.3781ZM50.3962 66.3781C49.7257 66.3781 49.149 66.236 48.6661 65.9519C48.1859 65.665 47.8166 65.2673 47.5581 64.7588C47.3024 64.2502 47.1746 63.665 47.1746 63.0031C47.1746 62.3326 47.3038 61.7446 47.5624 61.2389C47.8237 60.7304 48.1945 60.3341 48.6746 60.05C49.1547 59.763 49.7257 59.6196 50.3877 59.6196C50.9587 59.6196 51.4587 59.7233 51.8877 59.9306C52.3166 60.138 52.6561 60.4292 52.9061 60.8042C53.1561 61.1792 53.2939 61.6196 53.3195 62.1252H51.6064C51.5581 61.7985 51.4303 61.5358 51.2229 61.3369C51.0183 61.1352 50.7499 61.0343 50.4175 61.0343C50.1362 61.0343 49.8905 61.111 49.6803 61.2644C49.4729 61.415 49.3109 61.6352 49.1945 61.925C49.078 62.2147 49.0198 62.5656 49.0198 62.9775C49.0198 63.3951 49.0766 63.7502 49.1902 64.0429C49.3067 64.3355 49.47 64.5585 49.6803 64.7119C49.8905 64.8653 50.1362 64.942 50.4175 64.942C50.6249 64.942 50.8109 64.8994 50.9757 64.8142C51.1433 64.7289 51.2811 64.6054 51.3891 64.4434C51.4999 64.2787 51.5723 64.0812 51.6064 63.8511H53.3195C53.2911 64.3511 53.1547 64.7914 52.9104 65.1721C52.6689 65.55 52.3351 65.8454 51.909 66.0585C51.4828 66.2716 50.9786 66.3781 50.3962 66.3781ZM57.9633 59.7048V61.0684H54.0215V59.7048H57.9633ZM54.9164 58.1366H56.7318V64.2389C56.7318 64.4065 56.7573 64.5372 56.8085 64.6309C56.8596 64.7218 56.9306 64.7858 57.0215 64.8227C57.1153 64.8596 57.2232 64.8781 57.3454 64.8781C57.4306 64.8781 57.5158 64.871 57.6011 64.8568C57.6863 64.8397 57.7516 64.8269 57.7971 64.8184L58.0826 66.1693C57.9917 66.1977 57.8639 66.2304 57.6991 66.2673C57.5343 66.3071 57.334 66.3312 57.0982 66.3397C56.6607 66.3568 56.2772 66.2985 55.9477 66.165C55.621 66.0315 55.3667 65.8241 55.1849 65.5429C55.0031 65.2616 54.9136 64.9065 54.9164 64.4775V58.1366ZM59.1458 66.2502V59.7048H60.9612V66.2502H59.1458ZM60.0578 58.861C59.7879 58.861 59.5563 58.7716 59.3631 58.5926C59.1728 58.4108 59.0776 58.1934 59.0776 57.9406C59.0776 57.6906 59.1728 57.4761 59.3631 57.2971C59.5563 57.1153 59.7879 57.0244 60.0578 57.0244C60.3276 57.0244 60.5578 57.1153 60.7481 57.2971C60.9413 57.4761 61.0379 57.6906 61.0379 57.9406C61.0379 58.1934 60.9413 58.4108 60.7481 58.5926C60.5578 58.7716 60.3276 58.861 60.0578 58.861ZM65.3727 66.3781C64.7108 66.3781 64.1384 66.2375 63.6554 65.9562C63.1753 65.6721 62.8046 65.2772 62.5432 64.7716C62.2818 64.263 62.1511 63.6735 62.1511 63.0031C62.1511 62.3269 62.2818 61.736 62.5432 61.2304C62.8046 60.7218 63.1753 60.3269 63.6554 60.0457C64.1384 59.7616 64.7108 59.6196 65.3727 59.6196C66.0347 59.6196 66.6057 59.7616 67.0858 60.0457C67.5688 60.3269 67.9409 60.7218 68.2023 61.2304C68.4636 61.736 68.5943 62.3269 68.5943 63.0031C68.5943 63.6735 68.4636 64.263 68.2023 64.7716C67.9409 65.2772 67.5688 65.6721 67.0858 65.9562C66.6057 66.2375 66.0347 66.3781 65.3727 66.3781ZM65.3813 64.9718C65.6824 64.9718 65.9338 64.8866 66.1355 64.7162C66.3372 64.5429 66.4892 64.3071 66.5915 64.0088C66.6966 63.7105 66.7492 63.371 66.7492 62.9903C66.7492 62.6096 66.6966 62.2701 66.5915 61.9718C66.4892 61.6735 66.3372 61.4377 66.1355 61.2644C65.9338 61.0912 65.6824 61.0045 65.3813 61.0045C65.0773 61.0045 64.8216 61.0912 64.6142 61.2644C64.4097 61.4377 64.2548 61.6735 64.1497 61.9718C64.0475 62.2701 63.9963 62.6096 63.9963 62.9903C63.9963 63.371 64.0475 63.7105 64.1497 64.0088C64.2548 64.3071 64.4097 64.5429 64.6142 64.7162C64.8216 64.8866 65.0773 64.9718 65.3813 64.9718ZM71.5901 62.4662V66.2502H69.7747V59.7048H71.5048V60.8596H71.5815C71.7264 60.4789 71.9693 60.1778 72.3102 59.9562C72.6511 59.7318 73.0645 59.6196 73.5503 59.6196C74.0048 59.6196 74.4011 59.719 74.7392 59.9179C75.0773 60.1167 75.3401 60.4008 75.5276 60.7701C75.7151 61.1366 75.8088 61.5741 75.8088 62.0826V66.2502H73.9935V62.4065C73.9963 62.0059 73.894 61.6934 73.6867 61.469C73.4793 61.2417 73.1938 61.1281 72.8301 61.1281C72.5858 61.1281 72.3699 61.1806 72.1824 61.2858C71.9977 61.3909 71.8528 61.5443 71.7477 61.746C71.6455 61.9448 71.5929 62.1849 71.5901 62.4662ZM83.7967 57.523V66.2502H81.9516V59.2744H81.9004L79.9019 60.5272V58.8909L82.0624 57.523H83.7967Z" fill="#1F2024"/>
<path d="M112.421 56.7502V66.7502" stroke="#C5C6CC" stroke-linecap="round"/>
<path d="M144.328 60.0329C144.294 59.6892 144.148 59.4221 143.889 59.2318C143.631 59.0414 143.28 58.9463 142.837 58.9463C142.536 58.9463 142.281 58.9889 142.074 59.0741C141.867 59.1565 141.708 59.2716 141.597 59.4193C141.489 59.567 141.435 59.7346 141.435 59.9221C141.429 60.0784 141.462 60.2147 141.533 60.3312C141.607 60.4477 141.708 60.5485 141.835 60.6338C141.963 60.7162 142.111 60.7886 142.279 60.8511C142.446 60.9108 142.625 60.9619 142.816 61.0045L143.6 61.192C143.98 61.2772 144.33 61.3909 144.648 61.5329C144.966 61.675 145.242 61.8497 145.475 62.0571C145.708 62.2644 145.888 62.5088 146.016 62.79C146.147 63.0713 146.213 63.3937 146.216 63.7573C146.213 64.2914 146.077 64.7545 145.807 65.1466C145.54 65.5358 145.154 65.8383 144.648 66.0542C144.145 66.2673 143.539 66.3738 142.828 66.3738C142.124 66.3738 141.51 66.2659 140.987 66.05C140.468 65.8341 140.061 65.5144 139.769 65.0912C139.479 64.665 139.327 64.138 139.313 63.5102H141.098C141.118 63.8028 141.202 64.0471 141.35 64.2431C141.5 64.4363 141.701 64.5826 141.951 64.6821C142.203 64.7787 142.489 64.8269 142.807 64.8269C143.12 64.8269 143.391 64.7815 143.621 64.6906C143.854 64.5997 144.034 64.4733 144.162 64.3113C144.29 64.1494 144.354 63.9633 144.354 63.7531C144.354 63.5571 144.296 63.3923 144.179 63.2588C144.066 63.1252 143.898 63.0116 143.676 62.9179C143.458 62.8241 143.189 62.7389 142.871 62.6622L141.921 62.4235C141.185 62.2446 140.604 61.9647 140.178 61.5841C139.752 61.2034 139.54 60.6906 139.543 60.0457C139.54 59.5173 139.681 59.0556 139.965 58.6608C140.252 58.2659 140.645 57.9576 141.145 57.736C141.645 57.5144 142.213 57.4037 142.85 57.4037C143.497 57.4037 144.063 57.5144 144.546 57.736C145.031 57.9576 145.409 58.2659 145.679 58.6608C145.949 59.0556 146.088 59.513 146.097 60.0329H144.328ZM150.406 66.3781C149.733 66.3781 149.153 66.2417 148.667 65.969C148.185 65.6934 147.812 65.3042 147.551 64.8014C147.29 64.2957 147.159 63.6977 147.159 63.0073C147.159 62.3341 147.29 61.7431 147.551 61.2346C147.812 60.7261 148.18 60.3298 148.655 60.0457C149.132 59.7616 149.692 59.6196 150.334 59.6196C150.765 59.6196 151.167 59.6892 151.54 59.8284C151.915 59.9647 152.241 60.1707 152.52 60.4463C152.801 60.7218 153.02 61.0684 153.176 61.486C153.332 61.9008 153.41 62.3866 153.41 62.9434V63.442H147.883V62.317H151.702C151.702 62.0556 151.645 61.8241 151.531 61.6224C151.417 61.4207 151.26 61.263 151.058 61.1494C150.859 61.0329 150.628 60.9747 150.364 60.9747C150.088 60.9747 149.844 61.0386 149.631 61.1664C149.42 61.2914 149.256 61.4605 149.136 61.6735C149.017 61.8838 148.956 62.1181 148.953 62.3767V63.4463C148.953 63.7701 149.013 64.05 149.132 64.2858C149.254 64.5216 149.426 64.7034 149.648 64.8312C149.869 64.9591 150.132 65.023 150.436 65.023C150.638 65.023 150.822 64.9946 150.99 64.9377C151.158 64.8809 151.301 64.7957 151.42 64.6821C151.54 64.5684 151.631 64.4292 151.693 64.2644L153.372 64.3752C153.287 64.7787 153.112 65.1309 152.848 65.4321C152.587 65.7304 152.248 65.9633 151.834 66.1309C151.422 66.2957 150.946 66.3781 150.406 66.3781ZM157.552 66.3781C156.882 66.3781 156.305 66.236 155.822 65.9519C155.342 65.665 154.973 65.2673 154.714 64.7588C154.459 64.2502 154.331 63.665 154.331 63.0031C154.331 62.3326 154.46 61.7446 154.719 61.2389C154.98 60.7304 155.351 60.3341 155.831 60.05C156.311 59.763 156.882 59.6196 157.544 59.6196C158.115 59.6196 158.615 59.7233 159.044 59.9306C159.473 60.138 159.812 60.4292 160.062 60.8042C160.312 61.1792 160.45 61.6196 160.476 62.1252H158.763C158.714 61.7985 158.587 61.5358 158.379 61.3369C158.175 61.1352 157.906 61.0343 157.574 61.0343C157.292 61.0343 157.047 61.111 156.837 61.2644C156.629 61.415 156.467 61.6352 156.351 61.925C156.234 62.2147 156.176 62.5656 156.176 62.9775C156.176 63.3951 156.233 63.7502 156.346 64.0429C156.463 64.3355 156.626 64.5585 156.837 64.7119C157.047 64.8653 157.292 64.942 157.574 64.942C157.781 64.942 157.967 64.8994 158.132 64.8142C158.3 64.7289 158.437 64.6054 158.545 64.4434C158.656 64.2787 158.729 64.0812 158.763 63.8511H160.476C160.447 64.3511 160.311 64.7914 160.067 65.1721C159.825 65.55 159.491 65.8454 159.065 66.0585C158.639 66.2716 158.135 66.3781 157.552 66.3781ZM165.12 59.7048V61.0684H161.178V59.7048H165.12ZM162.073 58.1366H163.888V64.2389C163.888 64.4065 163.914 64.5372 163.965 64.6309C164.016 64.7218 164.087 64.7858 164.178 64.8227C164.272 64.8596 164.379 64.8781 164.502 64.8781C164.587 64.8781 164.672 64.871 164.757 64.8568C164.843 64.8397 164.908 64.8269 164.953 64.8184L165.239 66.1693C165.148 66.1977 165.02 66.2304 164.855 66.2673C164.691 66.3071 164.49 66.3312 164.254 66.3397C163.817 66.3568 163.433 66.2985 163.104 66.165C162.777 66.0315 162.523 65.8241 162.341 65.5429C162.159 65.2616 162.07 64.9065 162.073 64.4775V58.1366ZM166.302 66.2502V59.7048H168.117V66.2502H166.302ZM167.214 58.861C166.944 58.861 166.713 58.7716 166.519 58.5926C166.329 58.4108 166.234 58.1934 166.234 57.9406C166.234 57.6906 166.329 57.4761 166.519 57.2971C166.713 57.1153 166.944 57.0244 167.214 57.0244C167.484 57.0244 167.714 57.1153 167.904 57.2971C168.098 57.4761 168.194 57.6906 168.194 57.9406C168.194 58.1934 168.098 58.4108 167.904 58.5926C167.714 58.7716 167.484 58.861 167.214 58.861ZM172.529 66.3781C171.867 66.3781 171.295 66.2375 170.812 65.9562C170.332 65.6721 169.961 65.2772 169.699 64.7716C169.438 64.263 169.307 63.6735 169.307 63.0031C169.307 62.3269 169.438 61.736 169.699 61.2304C169.961 60.7218 170.332 60.3269 170.812 60.0457C171.295 59.7616 171.867 59.6196 172.529 59.6196C173.191 59.6196 173.762 59.7616 174.242 60.0457C174.725 60.3269 175.097 60.7218 175.359 61.2304C175.62 61.736 175.751 62.3269 175.751 63.0031C175.751 63.6735 175.62 64.263 175.359 64.7716C175.097 65.2772 174.725 65.6721 174.242 65.9562C173.762 66.2375 173.191 66.3781 172.529 66.3781ZM172.538 64.9718C172.839 64.9718 173.09 64.8866 173.292 64.7162C173.493 64.5429 173.645 64.3071 173.748 64.0088C173.853 63.7105 173.905 63.371 173.905 62.9903C173.905 62.6096 173.853 62.2701 173.748 61.9718C173.645 61.6735 173.493 61.4377 173.292 61.2644C173.09 61.0912 172.839 61.0045 172.538 61.0045C172.234 61.0045 171.978 61.0912 171.77 61.2644C171.566 61.4377 171.411 61.6735 171.306 61.9718C171.204 62.2701 171.153 62.6096 171.153 62.9903C171.153 63.371 171.204 63.7105 171.306 64.0088C171.411 64.3071 171.566 64.5429 171.77 64.7162C171.978 64.8866 172.234 64.9718 172.538 64.9718ZM178.746 62.4662V66.2502H176.931V59.7048H178.661V60.8596H178.738C178.883 60.4789 179.126 60.1778 179.466 59.9562C179.807 59.7318 180.221 59.6196 180.707 59.6196C181.161 59.6196 181.557 59.719 181.895 59.9179C182.234 60.1167 182.496 60.4008 182.684 60.7701C182.871 61.1366 182.965 61.5741 182.965 62.0826V66.2502H181.15V62.4065C181.153 62.0059 181.05 61.6934 180.843 61.469C180.636 61.2417 180.35 61.1281 179.986 61.1281C179.742 61.1281 179.526 61.1806 179.339 61.2858C179.154 61.3909 179.009 61.5443 178.904 61.746C178.802 61.9448 178.749 62.1849 178.746 62.4662ZM187.156 66.2502V64.9207L190.263 62.0443C190.527 61.7886 190.748 61.5585 190.927 61.3539C191.109 61.1494 191.247 60.9491 191.341 60.7531C191.435 60.5542 191.481 60.3397 191.481 60.1096C191.481 59.8539 191.423 59.6338 191.307 59.4491C191.19 59.2616 191.031 59.1181 190.829 59.0187C190.628 58.9164 190.399 58.8653 190.143 58.8653C189.876 58.8653 189.643 58.9193 189.444 59.0272C189.246 59.1352 189.092 59.29 188.984 59.4917C188.876 59.6934 188.822 59.9335 188.822 60.2119H187.071C187.071 59.6409 187.2 59.1451 187.459 58.7247C187.717 58.3042 188.079 57.9789 188.545 57.7488C189.011 57.5187 189.548 57.4037 190.156 57.4037C190.781 57.4037 191.325 57.5144 191.788 57.736C192.254 57.9548 192.616 58.2588 192.875 58.648C193.133 59.0372 193.263 59.4832 193.263 59.986C193.263 60.3156 193.197 60.6409 193.067 60.9619C192.939 61.2829 192.71 61.6394 192.381 62.0315C192.051 62.4207 191.587 62.888 190.987 63.4335L189.713 64.6821V64.7417H193.378V66.2502H187.156Z" fill="#71727A"/>
<path d="M220.421 56.7502V66.7502" stroke="#C5C6CC" stroke-linecap="round"/>
<path d="M252.153 60.0329C252.118 59.6892 251.972 59.4221 251.714 59.2318C251.455 59.0414 251.104 58.9463 250.661 58.9463C250.36 58.9463 250.106 58.9889 249.898 59.0741C249.691 59.1565 249.532 59.2716 249.421 59.4193C249.313 59.567 249.259 59.7346 249.259 59.9221C249.253 60.0784 249.286 60.2147 249.357 60.3312C249.431 60.4477 249.532 60.5485 249.66 60.6338C249.788 60.7162 249.935 60.7886 250.103 60.8511C250.27 60.9108 250.449 60.9619 250.64 61.0045L251.424 61.192C251.805 61.2772 252.154 61.3909 252.472 61.5329C252.79 61.675 253.066 61.8497 253.299 62.0571C253.532 62.2644 253.712 62.5088 253.84 62.79C253.971 63.0713 254.038 63.3937 254.04 63.7573C254.038 64.2914 253.901 64.7545 253.631 65.1466C253.364 65.5358 252.978 65.8383 252.472 66.0542C251.969 66.2673 251.363 66.3738 250.653 66.3738C249.948 66.3738 249.334 66.2659 248.812 66.05C248.292 65.8341 247.886 65.5144 247.593 65.0912C247.303 64.665 247.151 64.138 247.137 63.5102H248.922C248.942 63.8028 249.026 64.0471 249.174 64.2431C249.324 64.4363 249.525 64.5826 249.775 64.6821C250.028 64.7787 250.313 64.8269 250.631 64.8269C250.944 64.8269 251.215 64.7815 251.445 64.6906C251.678 64.5997 251.859 64.4733 251.986 64.3113C252.114 64.1494 252.178 63.9633 252.178 63.7531C252.178 63.5571 252.12 63.3923 252.003 63.2588C251.89 63.1252 251.722 63.0116 251.501 62.9179C251.282 62.8241 251.013 62.7389 250.695 62.6622L249.745 62.4235C249.009 62.2446 248.428 61.9647 248.002 61.5841C247.576 61.2034 247.364 60.6906 247.367 60.0457C247.364 59.5173 247.505 59.0556 247.789 58.6608C248.076 58.2659 248.469 57.9576 248.969 57.736C249.469 57.5144 250.038 57.4037 250.674 57.4037C251.322 57.4037 251.887 57.5144 252.37 57.736C252.856 57.9576 253.234 58.2659 253.503 58.6608C253.773 59.0556 253.913 59.513 253.921 60.0329H252.153ZM258.23 66.3781C257.557 66.3781 256.977 66.2417 256.492 65.969C256.009 65.6934 255.637 65.3042 255.375 64.8014C255.114 64.2957 254.983 63.6977 254.983 63.0073C254.983 62.3341 255.114 61.7431 255.375 61.2346C255.637 60.7261 256.004 60.3298 256.479 60.0457C256.956 59.7616 257.516 59.6196 258.158 59.6196C258.59 59.6196 258.992 59.6892 259.364 59.8284C259.739 59.9647 260.066 60.1707 260.344 60.4463C260.625 60.7218 260.844 61.0684 261 61.486C261.156 61.9008 261.235 62.3866 261.235 62.9434V63.442H255.708V62.317H259.526C259.526 62.0556 259.469 61.8241 259.355 61.6224C259.242 61.4207 259.084 61.263 258.882 61.1494C258.683 61.0329 258.452 60.9747 258.188 60.9747C257.912 60.9747 257.668 61.0386 257.455 61.1664C257.245 61.2914 257.08 61.4605 256.96 61.6735C256.841 61.8838 256.78 62.1181 256.777 62.3767V63.4463C256.777 63.7701 256.837 64.05 256.956 64.2858C257.078 64.5216 257.25 64.7034 257.472 64.8312C257.693 64.9591 257.956 65.023 258.26 65.023C258.462 65.023 258.647 64.9946 258.814 64.9377C258.982 64.8809 259.125 64.7957 259.245 64.6821C259.364 64.5684 259.455 64.4292 259.517 64.2644L261.196 64.3752C261.111 64.7787 260.936 65.1309 260.672 65.4321C260.411 65.7304 260.073 65.9633 259.658 66.1309C259.246 66.2957 258.77 66.3781 258.23 66.3781ZM265.377 66.3781C264.706 66.3781 264.129 66.236 263.647 65.9519C263.166 65.665 262.797 65.2673 262.539 64.7588C262.283 64.2502 262.155 63.665 262.155 63.0031C262.155 62.3326 262.284 61.7446 262.543 61.2389C262.804 60.7304 263.175 60.3341 263.655 60.05C264.135 59.763 264.706 59.6196 265.368 59.6196C265.939 59.6196 266.439 59.7233 266.868 59.9306C267.297 60.138 267.637 60.4292 267.887 60.8042C268.137 61.1792 268.274 61.6196 268.3 62.1252H266.587C266.539 61.7985 266.411 61.5358 266.203 61.3369C265.999 61.1352 265.73 61.0343 265.398 61.0343C265.117 61.0343 264.871 61.111 264.661 61.2644C264.453 61.415 264.291 61.6352 264.175 61.925C264.058 62.2147 264 62.5656 264 62.9775C264 63.3951 264.057 63.7502 264.171 64.0429C264.287 64.3355 264.451 64.5585 264.661 64.7119C264.871 64.8653 265.117 64.942 265.398 64.942C265.605 64.942 265.791 64.8994 265.956 64.8142C266.124 64.7289 266.262 64.6054 266.37 64.4434C266.48 64.2787 266.553 64.0812 266.587 63.8511H268.3C268.272 64.3511 268.135 64.7914 267.891 65.1721C267.649 65.55 267.316 65.8454 266.889 66.0585C266.463 66.2716 265.959 66.3781 265.377 66.3781ZM272.944 59.7048V61.0684H269.002V59.7048H272.944ZM269.897 58.1366H271.712V64.2389C271.712 64.4065 271.738 64.5372 271.789 64.6309C271.84 64.7218 271.911 64.7858 272.002 64.8227C272.096 64.8596 272.204 64.8781 272.326 64.8781C272.411 64.8781 272.496 64.871 272.582 64.8568C272.667 64.8397 272.732 64.8269 272.778 64.8184L273.063 66.1693C272.972 66.1977 272.844 66.2304 272.68 66.2673C272.515 66.3071 272.314 66.3312 272.079 66.3397C271.641 66.3568 271.258 66.2985 270.928 66.165C270.601 66.0315 270.347 65.8241 270.165 65.5429C269.984 65.2616 269.894 64.9065 269.897 64.4775V58.1366ZM274.126 66.2502V59.7048H275.942V66.2502H274.126ZM275.038 58.861C274.768 58.861 274.537 58.7716 274.344 58.5926C274.153 58.4108 274.058 58.1934 274.058 57.9406C274.058 57.6906 274.153 57.4761 274.344 57.2971C274.537 57.1153 274.768 57.0244 275.038 57.0244C275.308 57.0244 275.538 57.1153 275.729 57.2971C275.922 57.4761 276.018 57.6906 276.018 57.9406C276.018 58.1934 275.922 58.4108 275.729 58.5926C275.538 58.7716 275.308 58.861 275.038 58.861ZM280.353 66.3781C279.691 66.3781 279.119 66.2375 278.636 65.9562C278.156 65.6721 277.785 65.2772 277.524 64.7716C277.262 64.263 277.132 63.6735 277.132 63.0031C277.132 62.3269 277.262 61.736 277.524 61.2304C277.785 60.7218 278.156 60.3269 278.636 60.0457C279.119 59.7616 279.691 59.6196 280.353 59.6196C281.015 59.6196 281.586 59.7616 282.066 60.0457C282.549 60.3269 282.921 60.7218 283.183 61.2304C283.444 61.736 283.575 62.3269 283.575 63.0031C283.575 63.6735 283.444 64.263 283.183 64.7716C282.921 65.2772 282.549 65.6721 282.066 65.9562C281.586 66.2375 281.015 66.3781 280.353 66.3781ZM280.362 64.9718C280.663 64.9718 280.914 64.8866 281.116 64.7162C281.318 64.5429 281.47 64.3071 281.572 64.0088C281.677 63.7105 281.73 63.371 281.73 62.9903C281.73 62.6096 281.677 62.2701 281.572 61.9718C281.47 61.6735 281.318 61.4377 281.116 61.2644C280.914 61.0912 280.663 61.0045 280.362 61.0045C280.058 61.0045 279.802 61.0912 279.595 61.2644C279.39 61.4377 279.235 61.6735 279.13 61.9718C279.028 62.2701 278.977 62.6096 278.977 62.9903C278.977 63.371 279.028 63.7105 279.13 64.0088C279.235 64.3071 279.39 64.5429 279.595 64.7162C279.802 64.8866 280.058 64.9718 280.362 64.9718ZM286.571 62.4662V66.2502H284.755V59.7048H286.485V60.8596H286.562C286.707 60.4789 286.95 60.1778 287.291 59.9562C287.632 59.7318 288.045 59.6196 288.531 59.6196C288.985 59.6196 289.382 59.719 289.72 59.9179C290.058 60.1167 290.321 60.4008 290.508 60.7701C290.696 61.1366 290.789 61.5741 290.789 62.0826V66.2502H288.974V62.4065C288.977 62.0059 288.875 61.6934 288.667 61.469C288.46 61.2417 288.174 61.1281 287.811 61.1281C287.566 61.1281 287.35 61.1806 287.163 61.2858C286.978 61.3909 286.833 61.5443 286.728 61.746C286.626 61.9448 286.573 62.1849 286.571 62.4662ZM298.206 66.3696C297.57 66.3696 297.003 66.2602 296.506 66.0414C296.012 65.8198 295.621 65.5159 295.334 65.1295C295.05 64.7403 294.904 64.2914 294.895 63.7829H296.753C296.764 63.996 296.834 64.1835 296.962 64.3454C297.093 64.5045 297.266 64.6281 297.482 64.7162C297.698 64.8042 297.941 64.8483 298.21 64.8483C298.492 64.8483 298.74 64.7985 298.956 64.6991C299.172 64.5997 299.341 64.4619 299.463 64.2858C299.585 64.1096 299.647 63.9065 299.647 63.6764C299.647 63.4434 299.581 63.2375 299.451 63.0585C299.323 62.8767 299.138 62.7346 298.897 62.6323C298.658 62.5301 298.374 62.4789 298.044 62.4789H297.23V61.1238H298.044C298.323 61.1238 298.568 61.0755 298.781 60.9789C298.997 60.8823 299.165 60.7488 299.284 60.5784C299.404 60.4051 299.463 60.2034 299.463 59.9733C299.463 59.7545 299.411 59.5627 299.306 59.398C299.203 59.2304 299.058 59.0997 298.871 59.0059C298.686 58.9122 298.47 58.8653 298.223 58.8653C297.973 58.8653 297.745 58.9108 297.537 59.0017C297.33 59.0897 297.164 59.2162 297.039 59.3809C296.914 59.5457 296.847 59.7389 296.838 59.9605H295.07C295.078 59.4576 295.222 59.0144 295.5 58.6309C295.779 58.2474 296.154 57.9477 296.625 57.7318C297.1 57.513 297.635 57.4037 298.232 57.4037C298.834 57.4037 299.361 57.513 299.813 57.7318C300.264 57.9505 300.615 58.246 300.865 58.6181C301.118 58.9875 301.243 59.4022 301.24 59.8625C301.243 60.3511 301.091 60.7588 300.784 61.0855C300.48 61.4122 300.084 61.6196 299.595 61.7076V61.7758C300.237 61.8582 300.726 62.0812 301.061 62.4448C301.399 62.8056 301.567 63.2573 301.564 63.8C301.567 64.2971 301.424 64.7389 301.134 65.1252C300.847 65.5116 300.451 65.8156 299.945 66.0372C299.439 66.2588 298.86 66.3696 298.206 66.3696Z" fill="#71727A"/>
<g clip-path="url(#clip0_249_4783)">
<mask id="mask0_249_4783" style="mask-type:alpha" maskUnits="userSpaceOnUse" x="195" y="0" width="17" height="17">
<path d="M203.315 0.251109C203.65 -0.08354 204.193 -0.0835403 204.527 0.251109L206.904 2.62815C207.239 2.9628 207.239 3.50537 206.904 3.84002L204.527 6.21707C204.193 6.55171 203.65 6.55171 203.315 6.21707L200.938 3.84002C200.604 3.50537 200.604 2.9628 200.938 2.62815L203.315 0.251109Z" fill="#1F2024"/>
<path d="M211.67 7.39423C212.005 7.72888 212.005 8.27145 211.67 8.6061L209.293 10.9831C208.959 11.3178 208.416 11.3178 208.082 10.9831L205.704 8.6061C205.37 8.27145 205.37 7.72888 205.704 7.39423L208.082 5.01719C208.416 4.68254 208.959 4.68254 209.293 5.01719L211.67 7.39423Z" fill="#1F2024"/>
<path d="M203.315 9.78327C203.65 9.44862 204.193 9.44862 204.527 9.78327L206.904 12.1603C207.239 12.495 207.239 13.0375 206.904 13.3722L204.527 15.7492C204.193 16.0839 203.65 16.0839 203.315 15.7492L200.938 13.3722C200.604 13.0375 200.604 12.495 200.938 12.1603L203.315 9.78327Z" fill="#1F2024"/>
<path d="M202.138 7.39423C202.473 7.72888 202.473 8.27145 202.138 8.6061L199.761 10.9831C199.427 11.3178 198.884 11.3178 198.549 10.9831L196.172 8.6061C195.838 8.27145 195.838 7.72888 196.172 7.39423L198.549 5.01719C198.884 4.68254 199.427 4.68254 199.761 5.01719L202.138 7.39423Z" fill="#1F2024"/>
</mask>
<g mask="url(#mask0_249_4783)">
<rect x="195.921" y="0.00012207" width="16" height="16" fill="#8F9098"/>
</g>
</g>
<path d="M224.779 6.54558C224.737 6.18573 224.564 5.90637 224.261 5.70751C223.958 5.50864 223.586 5.40921 223.146 5.40921C222.824 5.40921 222.542 5.4613 222.301 5.56546C222.062 5.66963 221.875 5.81286 221.74 5.99515C221.607 6.17744 221.541 6.38459 221.541 6.6166C221.541 6.81073 221.587 6.97763 221.679 7.11731C221.774 7.25462 221.895 7.36944 222.041 7.46177C222.188 7.55173 222.342 7.62631 222.503 7.68549C222.664 7.74231 222.812 7.78847 222.947 7.82399L223.686 8.02285C223.875 8.07257 224.086 8.14122 224.318 8.22882C224.552 8.31641 224.776 8.43596 224.989 8.58748C225.204 8.73663 225.382 8.92839 225.522 9.16276C225.661 9.39714 225.731 9.68478 225.731 10.0257C225.731 10.4187 225.628 10.7738 225.422 11.091C225.218 11.4083 224.92 11.6604 224.527 11.8474C224.137 12.0344 223.662 12.128 223.103 12.128C222.582 12.128 222.131 12.0439 221.75 11.8758C221.371 11.7077 221.073 11.4734 220.855 11.1727C220.64 10.872 220.518 10.5228 220.49 10.1251H221.399C221.422 10.3997 221.515 10.627 221.676 10.8069C221.839 10.9845 222.045 11.1171 222.294 11.2047C222.544 11.2899 222.814 11.3325 223.103 11.3325C223.439 11.3325 223.741 11.2781 224.009 11.1692C224.276 11.0579 224.488 10.904 224.644 10.7075C224.801 10.5086 224.879 10.2766 224.879 10.0115C224.879 9.77001 224.811 9.57351 224.676 9.422C224.541 9.27048 224.364 9.14738 224.144 9.05268C223.924 8.95798 223.686 8.87512 223.43 8.8041L222.535 8.54842C221.967 8.38507 221.517 8.15187 221.186 7.84884C220.854 7.54581 220.688 7.14927 220.688 6.65921C220.688 6.25202 220.799 5.8969 221.019 5.59387C221.241 5.28847 221.54 5.05173 221.914 4.88364C222.29 4.71319 222.71 4.62796 223.174 4.62796C223.643 4.62796 224.06 4.71201 224.424 4.88009C224.789 5.04581 225.078 5.27309 225.291 5.56191C225.506 5.85074 225.62 6.17863 225.632 6.54558H224.779ZM229.502 12.1138C228.977 12.1138 228.523 11.9978 228.142 11.7657C227.763 11.5314 227.471 11.2047 227.265 10.7856C227.062 10.3642 226.96 9.87418 226.96 9.31546C226.96 8.75675 227.062 8.26433 227.265 7.83819C227.471 7.40969 227.758 7.07588 228.124 6.83677C228.494 6.59529 228.925 6.47455 229.417 6.47455C229.701 6.47455 229.982 6.5219 230.259 6.6166C230.536 6.7113 230.788 6.86518 231.015 7.07825C231.242 7.28895 231.423 7.5683 231.558 7.91632C231.693 8.26433 231.761 8.69283 231.761 9.20183V9.55694H227.556V8.83251H230.909C230.909 8.52474 230.847 8.25012 230.724 8.00864C230.603 7.76717 230.43 7.57659 230.205 7.43691C229.983 7.29723 229.72 7.22739 229.417 7.22739C229.083 7.22739 228.794 7.31025 228.551 7.47597C228.309 7.63933 228.123 7.85239 227.993 8.11518C227.863 8.37796 227.798 8.65969 227.798 8.96035V9.4433C227.798 9.85524 227.869 10.2044 228.011 10.4909C228.155 10.775 228.355 10.9916 228.611 11.1407C228.867 11.2875 229.164 11.3609 229.502 11.3609C229.722 11.3609 229.921 11.3301 230.099 11.2686C230.279 11.2047 230.434 11.11 230.564 10.9845C230.694 10.8567 230.795 10.698 230.866 10.5086L231.676 10.7359C231.59 11.0105 231.447 11.252 231.246 11.4603C231.045 11.6663 230.796 11.8273 230.5 11.9433C230.204 12.0569 229.872 12.1138 229.502 12.1138ZM234.024 4.72739V12.0001H233.186V4.72739H234.024ZM237.996 12.1138C237.47 12.1138 237.017 11.9978 236.636 11.7657C236.257 11.5314 235.964 11.2047 235.758 10.7856C235.555 10.3642 235.453 9.87418 235.453 9.31546C235.453 8.75675 235.555 8.26433 235.758 7.83819C235.964 7.40969 236.251 7.07588 236.618 6.83677C236.987 6.59529 237.418 6.47455 237.91 6.47455C238.195 6.47455 238.475 6.5219 238.752 6.6166C239.029 6.7113 239.281 6.86518 239.508 7.07825C239.736 7.28895 239.917 7.5683 240.052 7.91632C240.187 8.26433 240.254 8.69283 240.254 9.20183V9.55694H236.05V8.83251H239.402C239.402 8.52474 239.34 8.25012 239.217 8.00864C239.097 7.76717 238.924 7.57659 238.699 7.43691C238.476 7.29723 238.213 7.22739 237.91 7.22739C237.577 7.22739 237.288 7.31025 237.044 7.47597C236.802 7.63933 236.617 7.85239 236.486 8.11518C236.356 8.37796 236.291 8.65969 236.291 8.96035V9.4433C236.291 9.85524 236.362 10.2044 236.504 10.4909C236.649 10.775 236.849 10.9916 237.104 11.1407C237.36 11.2875 237.657 11.3609 237.996 11.3609C238.216 11.3609 238.415 11.3301 238.592 11.2686C238.772 11.2047 238.927 11.11 239.057 10.9845C239.188 10.8567 239.288 10.698 239.359 10.5086L240.169 10.7359C240.084 11.0105 239.941 11.252 239.739 11.4603C239.538 11.6663 239.289 11.8273 238.994 11.9433C238.698 12.0569 238.365 12.1138 237.996 12.1138ZM243.895 12.1138C243.384 12.1138 242.943 11.993 242.574 11.7515C242.205 11.5101 241.921 11.1774 241.722 10.7537C241.523 10.3299 241.423 9.84577 241.423 9.30126C241.423 8.74728 241.525 8.25841 241.729 7.83464C241.935 7.4085 242.221 7.07588 242.588 6.83677C242.957 6.59529 243.388 6.47455 243.881 6.47455C244.264 6.47455 244.61 6.54558 244.918 6.68762C245.225 6.82967 245.478 7.02853 245.674 7.28421C245.871 7.53989 245.993 7.83819 246.04 8.1791H245.202C245.138 7.93052 244.996 7.71035 244.776 7.51859C244.558 7.32446 244.264 7.22739 243.895 7.22739C243.568 7.22739 243.282 7.31262 243.036 7.48308C242.792 7.65116 242.601 7.88909 242.464 8.19685C242.329 8.50225 242.261 8.86092 242.261 9.27285C242.261 9.69425 242.328 10.0612 242.46 10.3737C242.595 10.6862 242.785 10.9289 243.028 11.1017C243.275 11.2745 243.564 11.3609 243.895 11.3609C244.113 11.3609 244.31 11.323 244.488 11.2473C244.666 11.1715 244.816 11.0626 244.939 10.9206C245.062 10.7785 245.15 10.6081 245.202 10.4092H246.04C245.993 10.7312 245.875 11.0212 245.688 11.2792C245.504 11.5349 245.259 11.7385 244.953 11.89C244.65 12.0392 244.297 12.1138 243.895 12.1138ZM249.787 6.54558V7.2558H246.96V6.54558H249.787ZM247.784 5.23876H248.622V10.4376C248.622 10.6744 248.657 10.8519 248.725 10.9703C248.796 11.0863 248.886 11.1644 248.995 11.2047C249.107 11.2425 249.224 11.2615 249.347 11.2615C249.439 11.2615 249.515 11.2568 249.574 11.2473C249.633 11.2354 249.681 11.226 249.716 11.2189L249.887 11.9717C249.83 11.993 249.75 12.0143 249.649 12.0356C249.547 12.0593 249.418 12.0711 249.262 12.0711C249.025 12.0711 248.793 12.0202 248.566 11.9184C248.341 11.8166 248.154 11.6616 248.004 11.4532C247.858 11.2449 247.784 10.9821 247.784 10.6649V5.23876ZM253.426 12.1138C252.901 12.1138 252.447 11.9978 252.066 11.7657C251.687 11.5314 251.395 11.2047 251.189 10.7856C250.985 10.3642 250.884 9.87418 250.884 9.31546C250.884 8.75675 250.985 8.26433 251.189 7.83819C251.395 7.40969 251.681 7.07588 252.048 6.83677C252.418 6.59529 252.848 6.47455 253.341 6.47455C253.625 6.47455 253.906 6.5219 254.183 6.6166C254.46 6.7113 254.712 6.86518 254.939 7.07825C255.166 7.28895 255.347 7.5683 255.482 7.91632C255.617 8.26433 255.685 8.69283 255.685 9.20183V9.55694H251.48V8.83251H254.832C254.832 8.52474 254.771 8.25012 254.648 8.00864C254.527 7.76717 254.354 7.57659 254.129 7.43691C253.907 7.29723 253.644 7.22739 253.341 7.22739C253.007 7.22739 252.718 7.31025 252.474 7.47597C252.233 7.63933 252.047 7.85239 251.917 8.11518C251.787 8.37796 251.722 8.65969 251.722 8.96035V9.4433C251.722 9.85524 251.793 10.2044 251.935 10.4909C252.079 10.775 252.279 10.9916 252.535 11.1407C252.79 11.2875 253.088 11.3609 253.426 11.3609C253.646 11.3609 253.845 11.3301 254.023 11.2686C254.203 11.2047 254.358 11.11 254.488 10.9845C254.618 10.8567 254.719 10.698 254.79 10.5086L255.599 10.7359C255.514 11.0105 255.371 11.252 255.17 11.4603C254.969 11.6663 254.72 11.8273 254.424 11.9433C254.128 12.0569 253.795 12.1138 253.426 12.1138ZM259.169 12.1138C258.715 12.1138 258.313 11.9989 257.965 11.7693C257.617 11.5373 257.345 11.2106 257.149 10.7892C256.952 10.3654 256.854 9.86471 256.854 9.28705C256.854 8.71414 256.952 8.21698 257.149 7.79558C257.345 7.37417 257.619 7.04865 257.969 6.81901C258.319 6.58937 258.724 6.47455 259.183 6.47455C259.539 6.47455 259.819 6.53374 260.025 6.65211C260.233 6.76811 260.392 6.90069 260.501 7.04984C260.612 7.19662 260.699 7.31736 260.76 7.41205H260.831V4.72739H261.669V12.0001H260.86V11.1621H260.76C260.699 11.2615 260.611 11.387 260.497 11.5385C260.384 11.6876 260.222 11.8214 260.011 11.9398C259.8 12.0558 259.52 12.1138 259.169 12.1138ZM259.283 11.3609C259.619 11.3609 259.903 11.2733 260.135 11.0981C260.367 10.9206 260.543 10.6755 260.664 10.363C260.785 10.0482 260.845 9.68478 260.845 9.27285C260.845 8.86565 260.786 8.50935 260.668 8.20396C260.549 7.89619 260.374 7.65708 260.142 7.48663C259.91 7.31381 259.624 7.22739 259.283 7.22739C258.928 7.22739 258.632 7.31854 258.395 7.50083C258.161 7.68076 257.984 7.92578 257.866 8.23592C257.75 8.54368 257.692 8.88933 257.692 9.27285C257.692 9.66111 257.751 10.0139 257.869 10.3311C257.99 10.646 258.168 10.8969 258.402 11.0839C258.639 11.2686 258.932 11.3609 259.283 11.3609Z" fill="#1F2024"/>
<g clip-path="url(#clip1_249_4783)">
<mask id="mask1_249_4783" style="mask-type:alpha" maskUnits="userSpaceOnUse" x="127" y="116" width="17" height="17">
<path d="M134.695 117.147C135.03 116.812 135.573 116.812 135.907 117.147L138.284 119.524C138.619 119.858 138.619 120.401 138.284 120.736L135.907 123.113C135.573 123.447 135.03 123.447 134.695 123.113L132.318 120.736C131.984 120.401 131.984 119.858 132.318 119.524L134.695 117.147Z" fill="#1F2024"/>
<path d="M143.05 124.29C143.385 124.624 143.385 125.167 143.05 125.502L140.673 127.879C140.339 128.213 139.796 128.213 139.461 127.879L137.084 125.502C136.75 125.167 136.75 124.624 137.084 124.29L139.461 121.913C139.796 121.578 140.339 121.578 140.673 121.913L143.05 124.29Z" fill="#1F2024"/>
<path d="M134.695 126.679C135.03 126.344 135.573 126.344 135.907 126.679L138.284 129.056C138.619 129.39 138.619 129.933 138.284 130.268L135.907 132.645C135.573 132.979 135.03 132.979 134.695 132.645L132.318 130.268C131.984 129.933 131.984 129.39 132.318 129.056L134.695 126.679Z" fill="#1F2024"/>
<path d="M133.518 124.29C133.853 124.624 133.853 125.167 133.518 125.502L131.141 127.879C130.807 128.213 130.264 128.213 129.929 127.879L127.552 125.502C127.218 125.167 127.218 124.624 127.552 124.29L129.929 121.913C130.264 121.578 130.807 121.578 131.141 121.913L133.518 124.29Z" fill="#1F2024"/>
</mask>
<g mask="url(#mask1_249_4783)">
<rect x="127.301" y="116.896" width="16" height="16" fill="#8F9098"/>
</g>
</g>
<path d="M157.949 121.623V128.896H157.097L153.134 123.185H153.063V128.896H152.182V121.623H153.034L157.011 127.347H157.083V121.623H157.949ZM161.964 129.009C161.471 129.009 161.039 128.892 160.667 128.658C160.298 128.423 160.009 128.095 159.801 127.674C159.595 127.253 159.492 126.76 159.492 126.197C159.492 125.629 159.595 125.133 159.801 124.709C160.009 124.285 160.298 123.956 160.667 123.722C161.039 123.487 161.471 123.37 161.964 123.37C162.456 123.37 162.887 123.487 163.256 123.722C163.628 123.956 163.917 124.285 164.123 124.709C164.331 125.133 164.435 125.629 164.435 126.197C164.435 126.76 164.331 127.253 164.123 127.674C163.917 128.095 163.628 128.423 163.256 128.658C162.887 128.892 162.456 129.009 161.964 129.009ZM161.964 128.256C162.338 128.256 162.645 128.161 162.887 127.969C163.128 127.777 163.307 127.525 163.423 127.212C163.539 126.9 163.597 126.561 163.597 126.197C163.597 125.832 163.539 125.492 163.423 125.178C163.307 124.863 163.128 124.608 162.887 124.414C162.645 124.22 162.338 124.123 161.964 124.123C161.589 124.123 161.282 124.22 161.04 124.414C160.799 124.608 160.62 124.863 160.504 125.178C160.388 125.492 160.33 125.832 160.33 126.197C160.33 126.561 160.388 126.9 160.504 127.212C160.62 127.525 160.799 127.777 161.04 127.969C161.282 128.161 161.589 128.256 161.964 128.256ZM166.475 128.952C166.3 128.952 166.15 128.89 166.024 128.764C165.899 128.639 165.836 128.488 165.836 128.313C165.836 128.138 165.899 127.988 166.024 127.862C166.15 127.737 166.3 127.674 166.475 127.674C166.65 127.674 166.801 127.737 166.926 127.862C167.052 127.988 167.114 128.138 167.114 128.313C167.114 128.429 167.085 128.536 167.026 128.633C166.969 128.73 166.892 128.808 166.795 128.867C166.7 128.924 166.594 128.952 166.475 128.952ZM173.947 129.009C173.454 129.009 173.022 128.892 172.651 128.658C172.281 128.423 171.992 128.095 171.784 127.674C171.578 127.253 171.475 126.76 171.475 126.197C171.475 125.629 171.578 125.133 171.784 124.709C171.992 124.285 172.281 123.956 172.651 123.722C173.022 123.487 173.454 123.37 173.947 123.37C174.439 123.37 174.87 123.487 175.239 123.722C175.611 123.956 175.9 124.285 176.106 124.709C176.314 125.133 176.418 125.629 176.418 126.197C176.418 126.76 176.314 127.253 176.106 127.674C175.9 128.095 175.611 128.423 175.239 128.658C174.87 128.892 174.439 129.009 173.947 129.009ZM173.947 128.256C174.321 128.256 174.629 128.161 174.87 127.969C175.111 127.777 175.29 127.525 175.406 127.212C175.522 126.9 175.58 126.561 175.58 126.197C175.58 125.832 175.522 125.492 175.406 125.178C175.29 124.863 175.111 124.608 174.87 124.414C174.629 124.22 174.321 124.123 173.947 124.123C173.573 124.123 173.265 124.22 173.023 124.414C172.782 124.608 172.603 124.863 172.487 125.178C172.371 125.492 172.313 125.832 172.313 126.197C172.313 126.561 172.371 126.9 172.487 127.212C172.603 127.525 172.782 127.777 173.023 127.969C173.265 128.161 173.573 128.256 173.947 128.256ZM180.277 123.441V124.151H177.336V123.441H180.277ZM178.217 128.896V122.688C178.217 122.376 178.29 122.115 178.437 121.907C178.584 121.699 178.774 121.542 179.009 121.438C179.243 121.334 179.491 121.282 179.751 121.282C179.957 121.282 180.125 121.299 180.255 121.332C180.385 121.365 180.483 121.396 180.546 121.424L180.305 122.148C180.262 122.134 180.203 122.117 180.127 122.095C180.054 122.074 179.957 122.063 179.836 122.063C179.559 122.063 179.359 122.133 179.236 122.273C179.115 122.412 179.055 122.617 179.055 122.887V128.896H178.217ZM184.564 128.896V123.441H185.402V128.896H184.564ZM184.99 122.532C184.826 122.532 184.686 122.476 184.567 122.365C184.451 122.254 184.393 122.12 184.393 121.964C184.393 121.808 184.451 121.674 184.567 121.563C184.686 121.451 184.826 121.396 184.99 121.396C185.153 121.396 185.293 121.451 185.409 121.563C185.527 121.674 185.586 121.808 185.586 121.964C185.586 122.12 185.527 122.254 185.409 122.365C185.293 122.476 185.153 122.532 184.99 122.532ZM189.459 123.441V124.151H186.632V123.441H189.459ZM187.456 122.134H188.294V127.333C188.294 127.57 188.328 127.747 188.397 127.866C188.468 127.982 188.558 128.06 188.667 128.1C188.778 128.138 188.895 128.157 189.018 128.157C189.111 128.157 189.187 128.152 189.246 128.143C189.305 128.131 189.352 128.121 189.388 128.114L189.558 128.867C189.501 128.889 189.422 128.91 189.32 128.931C189.219 128.955 189.09 128.967 188.933 128.967C188.697 128.967 188.465 128.916 188.237 128.814C188.012 128.712 187.825 128.557 187.676 128.349C187.529 128.14 187.456 127.878 187.456 127.56V122.134ZM193.098 129.009C192.572 129.009 192.119 128.893 191.738 128.661C191.359 128.427 191.067 128.1 190.861 127.681C190.657 127.26 190.555 126.77 190.555 126.211C190.555 125.652 190.657 125.16 190.861 124.734C191.067 124.305 191.353 123.971 191.72 123.732C192.089 123.491 192.52 123.37 193.013 123.37C193.297 123.37 193.577 123.417 193.854 123.512C194.131 123.607 194.383 123.761 194.611 123.974C194.838 124.184 195.019 124.464 195.154 124.812C195.289 125.16 195.356 125.588 195.356 126.097V126.452H191.152V125.728H194.504C194.504 125.42 194.443 125.146 194.319 124.904C194.199 124.663 194.026 124.472 193.801 124.332C193.578 124.193 193.316 124.123 193.013 124.123C192.679 124.123 192.39 124.206 192.146 124.371C191.905 124.535 191.719 124.748 191.589 125.011C191.458 125.273 191.393 125.555 191.393 125.856V126.339C191.393 126.751 191.464 127.1 191.606 127.386C191.751 127.67 191.951 127.887 192.206 128.036C192.462 128.183 192.759 128.256 193.098 128.256C193.318 128.256 193.517 128.226 193.694 128.164C193.874 128.1 194.029 128.005 194.16 127.88C194.29 127.752 194.39 127.594 194.461 127.404L195.271 127.631C195.186 127.906 195.043 128.148 194.841 128.356C194.64 128.562 194.392 128.723 194.096 128.839C193.8 128.952 193.467 129.009 193.098 129.009ZM196.781 128.896V123.441H197.591V124.293H197.662C197.776 124.002 197.959 123.776 198.212 123.615C198.466 123.452 198.77 123.37 199.125 123.37C199.485 123.37 199.784 123.452 200.023 123.615C200.265 123.776 200.453 124.002 200.588 124.293H200.645C200.785 124.012 200.994 123.788 201.273 123.622C201.553 123.454 201.888 123.37 202.278 123.37C202.766 123.37 203.165 123.523 203.475 123.828C203.785 124.131 203.94 124.603 203.94 125.245V128.896H203.102V125.245C203.102 124.843 202.992 124.555 202.772 124.382C202.552 124.209 202.293 124.123 201.994 124.123C201.611 124.123 201.314 124.239 201.103 124.471C200.892 124.701 200.787 124.992 200.787 125.344V128.896H199.935V125.16C199.935 124.85 199.834 124.6 199.633 124.411C199.432 124.219 199.172 124.123 198.855 124.123C198.637 124.123 198.434 124.181 198.244 124.297C198.057 124.413 197.906 124.574 197.79 124.78C197.676 124.983 197.619 125.219 197.619 125.487V128.896H196.781ZM209.486 124.663L208.733 124.876C208.686 124.75 208.616 124.628 208.524 124.51C208.434 124.389 208.311 124.29 208.155 124.212C207.998 124.134 207.798 124.094 207.554 124.094C207.221 124.094 206.942 124.171 206.72 124.325C206.5 124.477 206.39 124.67 206.39 124.904C206.39 125.112 206.465 125.277 206.617 125.398C206.768 125.518 207.005 125.619 207.327 125.7L208.137 125.898C208.625 126.017 208.988 126.198 209.227 126.442C209.466 126.683 209.586 126.995 209.586 127.376C209.586 127.688 209.496 127.968 209.316 128.214C209.138 128.46 208.89 128.654 208.57 128.796C208.25 128.938 207.879 129.009 207.455 129.009C206.899 129.009 206.438 128.889 206.074 128.647C205.709 128.406 205.478 128.053 205.381 127.589L206.177 127.39C206.252 127.684 206.396 127.904 206.606 128.05C206.819 128.197 207.098 128.271 207.441 128.271C207.831 128.271 208.142 128.188 208.371 128.022C208.603 127.854 208.719 127.653 208.719 127.418C208.719 127.229 208.653 127.07 208.52 126.943C208.388 126.812 208.184 126.715 207.91 126.651L207 126.438C206.501 126.32 206.134 126.136 205.9 125.888C205.668 125.637 205.552 125.323 205.552 124.947C205.552 124.639 205.638 124.367 205.811 124.13C205.986 123.893 206.224 123.707 206.525 123.572C206.828 123.438 207.171 123.37 207.554 123.37C208.094 123.37 208.518 123.488 208.826 123.725C209.136 123.962 209.356 124.274 209.486 124.663Z" fill="#1F2024"/>
<mask id="mask2_249_4783" style="mask-type:alpha" maskUnits="userSpaceOnUse" x="89" y="1" width="15" height="14">
<path d="M102.966 1.3335H89.9286C89.7125 1.3335 89.5052 1.41613 89.3524 1.56322C89.1996 1.7103 89.1138 1.9098 89.1138 2.11781V4.47075C89.1138 4.67876 89.1996 4.87826 89.3524 5.02534C89.5052 5.17243 89.7125 5.25506 89.9286 5.25506C90.1447 5.25506 90.3519 5.17243 90.5047 5.02534C90.6576 4.87826 90.7434 4.67876 90.7434 4.47075V2.90212H95.6323V13.0982H94.0027C93.7866 13.0982 93.5793 13.1808 93.4265 13.3279C93.2737 13.475 93.1878 13.6745 93.1878 13.8825C93.1878 14.0905 93.2737 14.29 93.4265 14.4371C93.5793 14.5842 93.7866 14.6668 94.0027 14.6668H98.8915C99.1076 14.6668 99.3149 14.5842 99.4677 14.4371C99.6205 14.29 99.7064 14.0905 99.7064 13.8825C99.7064 13.6745 99.6205 13.475 99.4677 13.3279C99.3149 13.1808 99.1076 13.0982 98.8915 13.0982H97.2619V2.90212H102.151V4.47075C102.151 4.67876 102.237 4.87826 102.389 5.02534C102.542 5.17243 102.75 5.25506 102.966 5.25506C103.182 5.25506 103.389 5.17243 103.542 5.02534C103.695 4.87826 103.78 4.67876 103.78 4.47075V2.11781C103.78 1.9098 103.695 1.7103 103.542 1.56322C103.389 1.41613 103.182 1.3335 102.966 1.3335Z" fill="black"/>
</mask>
<g mask="url(#mask2_249_4783)">
<rect x="88.4473" y="0.00012207" width="16" height="16" fill="#8F9098"/>
</g>
<path d="M112.93 5.50864V4.72739H118.385V5.50864H116.098V12.0001H115.217V5.50864H112.93ZM119.78 12.0001V6.54558H120.618V12.0001H119.78ZM120.206 5.63649C120.043 5.63649 119.902 5.58085 119.784 5.46958C119.668 5.35831 119.61 5.22455 119.61 5.0683C119.61 4.91205 119.668 4.77829 119.784 4.66703C119.902 4.55576 120.043 4.50012 120.206 4.50012C120.37 4.50012 120.509 4.55576 120.625 4.66703C120.744 4.77829 120.803 4.91205 120.803 5.0683C120.803 5.22455 120.744 5.35831 120.625 5.46958C120.509 5.58085 120.37 5.63649 120.206 5.63649ZM124.676 6.54558V7.2558H121.849V6.54558H124.676ZM122.673 5.23876H123.511V10.4376C123.511 10.6744 123.545 10.8519 123.614 10.9703C123.685 11.0863 123.775 11.1644 123.884 11.2047C123.995 11.2425 124.112 11.2615 124.235 11.2615C124.328 11.2615 124.403 11.2568 124.462 11.2473C124.522 11.2354 124.569 11.226 124.605 11.2189L124.775 11.9717C124.718 11.993 124.639 12.0143 124.537 12.0356C124.435 12.0593 124.306 12.0711 124.15 12.0711C123.913 12.0711 123.681 12.0202 123.454 11.9184C123.229 11.8166 123.042 11.6616 122.893 11.4532C122.746 11.2449 122.673 10.9821 122.673 10.6649V5.23876ZM127.041 4.72739V12.0001H126.203V4.72739H127.041ZM131.013 12.1138C130.488 12.1138 130.034 11.9978 129.653 11.7657C129.274 11.5314 128.982 11.2047 128.776 10.7856C128.573 10.3642 128.471 9.87418 128.471 9.31546C128.471 8.75675 128.573 8.26433 128.776 7.83819C128.982 7.40969 129.269 7.07588 129.636 6.83677C130.005 6.59529 130.436 6.47455 130.928 6.47455C131.212 6.47455 131.493 6.5219 131.77 6.6166C132.047 6.7113 132.299 6.86518 132.526 7.07825C132.753 7.28895 132.935 7.5683 133.069 7.91632C133.204 8.26433 133.272 8.69283 133.272 9.20183V9.55694H129.067V8.83251H132.42C132.42 8.52474 132.358 8.25012 132.235 8.00864C132.114 7.76717 131.941 7.57659 131.716 7.43691C131.494 7.29723 131.231 7.22739 130.928 7.22739C130.594 7.22739 130.305 7.31025 130.062 7.47597C129.82 7.63933 129.634 7.85239 129.504 8.11518C129.374 8.37796 129.309 8.65969 129.309 8.96035V9.4433C129.309 9.85524 129.38 10.2044 129.522 10.4909C129.666 10.775 129.866 10.9916 130.122 11.1407C130.378 11.2875 130.675 11.3609 131.013 11.3609C131.234 11.3609 131.432 11.3301 131.61 11.2686C131.79 11.2047 131.945 11.11 132.075 10.9845C132.205 10.8567 132.306 10.698 132.377 10.5086L133.187 10.7359C133.101 11.0105 132.958 11.252 132.757 11.4603C132.556 11.6663 132.307 11.8273 132.011 11.9433C131.715 12.0569 131.383 12.1138 131.013 12.1138Z" fill="#1F2024"/>
<path d="M167.595 50.2142V15.4945C167.595 11.0763 171.177 7.49454 175.595 7.49454H188.067" stroke="#8F9098"/>
<path d="M59.9751 50.2144V15.4945C59.9751 11.0762 63.5568 7.49451 67.9751 7.49451H80.4473" stroke="#8F9098"/>
<path d="M3.55518 92.75V97.3957C3.55518 101.814 7.1369 105.396 11.5552 105.396H326.047C330.465 105.396 334.047 101.814 334.047 97.3957V92.75" stroke="#8F9098"/>
<defs>
<clipPath id="clip0_249_4783">
<rect width="16" height="16" fill="white" transform="translate(195.921 0.00012207)"/>
</clipPath>
<clipPath id="clip1_249_4783">
<rect width="16" height="16" fill="white" transform="translate(127.301 116.896)"/>
</clipPath>
</defs>
</svg>
