<svg width="120" height="73" viewBox="0 0 120 73" fill="none" xmlns="http://www.w3.org/2000/svg">
<rect x="0.75" y="1.72101" width="30.5" height="30.5" rx="7.25" fill="#006FFD"/>
<rect x="0.75" y="1.72101" width="30.5" height="30.5" rx="7.25" stroke="#006FFD" stroke-width="1.5" stroke-linecap="round" stroke-linejoin="round"/>
<mask id="mask0_248_4444" style="mask-type:alpha" maskUnits="userSpaceOnUse" x="8" y="11" width="16" height="13">
<path fill-rule="evenodd" clip-rule="evenodd" d="M23.6719 12.039C24.1142 12.49 24.1076 13.2147 23.6573 13.6576L14.1296 23.0294L8.34203 17.3365C7.89174 16.8936 7.88522 16.1689 8.32748 15.7179C8.76973 15.2669 9.49329 15.2604 9.94359 15.7033L14.1296 19.8209L22.0558 12.0244C22.5061 11.5815 23.2296 11.588 23.6719 12.039Z" fill="white"/>
</mask>
<g mask="url(#mask0_248_4444)">
<rect x="8.00049" y="8.97113" width="15.9994" height="15.9994" fill="white"/>
</g>
<g clip-path="url(#clip0_248_4444)">
<mask id="mask1_248_4444" style="mask-type:alpha" maskUnits="userSpaceOnUse" x="52" y="9" width="17" height="17">
<path d="M59.8941 9.70442C60.2287 9.36977 60.7713 9.36977 61.1059 9.70442L63.483 12.0815C63.8176 12.4161 63.8176 12.9587 63.483 13.2933L61.1059 15.6704C60.7713 16.005 60.2287 16.005 59.8941 15.6704L57.517 13.2933C57.1824 12.9587 57.1824 12.4161 57.517 12.0815L59.8941 9.70442Z" fill="#1F2024"/>
<path d="M68.249 16.8475C68.5837 17.1822 68.5837 17.7248 68.249 18.0594L65.872 20.4365C65.5373 20.7711 64.9948 20.7711 64.6601 20.4365L62.2831 18.0594C61.9484 17.7248 61.9484 17.1822 62.2831 16.8475L64.6601 14.4705C64.9948 14.1358 65.5373 14.1358 65.872 14.4705L68.249 16.8475Z" fill="#1F2024"/>
<path d="M59.8941 19.2366C60.2287 18.9019 60.7713 18.9019 61.1059 19.2366L63.483 21.6136C63.8176 21.9483 63.8176 22.4908 63.483 22.8255L61.1059 25.2025C60.7713 25.5372 60.2287 25.5372 59.8941 25.2025L57.517 22.8255C57.1824 22.4908 57.1824 21.9483 57.517 21.6136L59.8941 19.2366Z" fill="#1F2024"/>
<path d="M58.7169 16.8475C59.0516 17.1822 59.0516 17.7248 58.7169 18.0594L56.3399 20.4365C56.0053 20.7711 55.4627 20.7711 55.128 20.4365L52.751 18.0594C52.4163 17.7248 52.4163 17.1822 52.751 16.8475L55.128 14.4705C55.4627 14.1358 56.0053 14.1358 56.3399 14.4705L58.7169 16.8475Z" fill="#1F2024"/>
</mask>
<g mask="url(#mask1_248_4444)">
<rect x="52.5" y="9.45349" width="16" height="16" fill="#8F9098"/>
</g>
</g>
<path d="M81.358 15.9989C81.3153 15.6391 81.1425 15.3597 80.8395 15.1609C80.5365 14.962 80.1648 14.8626 79.7244 14.8626C79.4025 14.8626 79.1207 14.9147 78.8793 15.0188C78.6402 15.123 78.4531 15.2662 78.3182 15.4485C78.1856 15.6308 78.1193 15.838 78.1193 16.07C78.1193 16.2641 78.1655 16.431 78.2578 16.5707C78.3525 16.708 78.4732 16.8228 78.62 16.9151C78.7668 17.0051 78.9207 17.0797 79.0817 17.1389C79.2427 17.1957 79.3906 17.2418 79.5256 17.2774L80.2642 17.4762C80.4536 17.5259 80.6643 17.5946 80.8963 17.6822C81.1307 17.7698 81.3544 17.8893 81.5675 18.0408C81.7829 18.19 81.9605 18.3818 82.1001 18.6161C82.2398 18.8505 82.3097 19.1382 82.3097 19.4791C82.3097 19.8721 82.2067 20.2272 82.0007 20.5444C81.7971 20.8616 81.4988 21.1138 81.1058 21.3008C80.7152 21.4878 80.2405 21.5813 79.6818 21.5813C79.161 21.5813 78.71 21.4973 78.3288 21.3292C77.95 21.1611 77.6518 20.9267 77.4339 20.6261C77.2185 20.3254 77.0966 19.9762 77.0682 19.5785H77.9773C78.0009 19.8531 78.0933 20.0804 78.2543 20.2603C78.4176 20.4379 78.6236 20.5704 78.8722 20.658C79.1231 20.7433 79.393 20.7859 79.6818 20.7859C80.018 20.7859 80.3198 20.7314 80.5874 20.6225C80.8549 20.5113 81.0668 20.3574 81.223 20.1609C81.3793 19.962 81.4574 19.73 81.4574 19.4649C81.4574 19.2234 81.3899 19.0269 81.255 18.8754C81.12 18.7239 80.9425 18.6007 80.7223 18.506C80.5021 18.4114 80.2642 18.3285 80.0085 18.2575L79.1136 18.0018C78.5455 17.8384 78.0956 17.6052 77.7642 17.3022C77.4328 16.9992 77.267 16.6026 77.267 16.1126C77.267 15.7054 77.3771 15.3503 77.5973 15.0472C77.8198 14.7418 78.1181 14.5051 78.4922 14.337C78.8686 14.1666 79.2888 14.0813 79.7528 14.0813C80.2216 14.0813 80.6383 14.1654 81.0028 14.3335C81.3674 14.4992 81.6563 14.7265 81.8693 15.0153C82.0848 15.3041 82.1984 15.632 82.2102 15.9989H81.358ZM83.794 21.4535V15.9989H84.6321V21.4535H83.794ZM84.2201 15.0899C84.0568 15.0899 83.9159 15.0342 83.7975 14.923C83.6815 14.8117 83.6235 14.6779 83.6235 14.5217C83.6235 14.3654 83.6815 14.2317 83.7975 14.1204C83.9159 14.0091 84.0568 13.9535 84.2201 13.9535C84.3835 13.9535 84.5232 14.0091 84.6392 14.1204C84.7575 14.2317 84.8167 14.3654 84.8167 14.5217C84.8167 14.6779 84.7575 14.8117 84.6392 14.923C84.5232 15.0342 84.3835 15.0899 84.2201 15.0899ZM86.1608 21.4535V20.8143L89.2574 16.837V16.7802H86.2602V15.9989H90.3369V16.6666L87.3256 20.6154V20.6722H90.4364V21.4535H86.1608ZM94.0079 21.5671C93.4823 21.5671 93.029 21.4511 92.6478 21.2191C92.269 20.9847 91.9766 20.658 91.7707 20.239C91.5671 19.8176 91.4653 19.3275 91.4653 18.7688C91.4653 18.2101 91.5671 17.7177 91.7707 17.2916C91.9766 16.8631 92.2631 16.5292 92.63 16.2901C92.9994 16.0487 93.4302 15.9279 93.9227 15.9279C94.2067 15.9279 94.4873 15.9753 94.7643 16.07C95.0413 16.1647 95.2934 16.3185 95.5207 16.5316C95.7479 16.7423 95.929 17.0217 96.064 17.3697C96.1989 17.7177 96.2664 18.1462 96.2664 18.6552V19.0103H92.0619V18.2859H95.4141C95.4141 17.9781 95.3526 17.7035 95.2295 17.462C95.1087 17.2205 94.9359 17.03 94.711 16.8903C94.4885 16.7506 94.2257 16.6808 93.9227 16.6808C93.5888 16.6808 93.3 16.7636 93.0562 16.9293C92.8147 17.0927 92.6289 17.3058 92.4987 17.5685C92.3684 17.8313 92.3033 18.1131 92.3033 18.4137V18.8967C92.3033 19.3086 92.3744 19.6578 92.5164 19.9443C92.6608 20.2283 92.8609 20.445 93.1165 20.5941C93.3722 20.7409 93.6693 20.8143 94.0079 20.8143C94.2281 20.8143 94.4269 20.7835 94.6045 20.722C94.7844 20.658 94.9395 20.5633 95.0697 20.4379C95.1999 20.31 95.3005 20.1514 95.3715 19.962L96.1812 20.1893C96.096 20.4639 95.9527 20.7054 95.7515 20.9137C95.5503 21.1197 95.3017 21.2807 95.0058 21.3967C94.7098 21.5103 94.3772 21.5671 94.0079 21.5671Z" fill="#1F2024"/>
<g clip-path="url(#clip1_248_4444)">
<mask id="mask2_248_4444" style="mask-type:alpha" maskUnits="userSpaceOnUse" x="52" y="57" width="17" height="16">
<path d="M59.8941 57.2509C60.2287 56.9163 60.7713 56.9163 61.1059 57.2509L63.483 59.628C63.8176 59.9626 63.8176 60.5052 63.483 60.8398L61.1059 63.2169C60.7713 63.5515 60.2287 63.5515 59.8941 63.2169L57.517 60.8398C57.1824 60.5052 57.1824 59.9626 57.517 59.628L59.8941 57.2509Z" fill="#1F2024"/>
<path d="M68.249 64.394C68.5837 64.7287 68.5837 65.2713 68.249 65.6059L65.872 67.983C65.5373 68.3176 64.9948 68.3176 64.6601 67.983L62.2831 65.6059C61.9484 65.2713 61.9484 64.7287 62.2831 64.394L64.6601 62.017C64.9948 61.6824 65.5373 61.6824 65.872 62.017L68.249 64.394Z" fill="#1F2024"/>
<path d="M59.8941 66.7831C60.2287 66.4484 60.7713 66.4484 61.1059 66.7831L63.483 69.1601C63.8176 69.4948 63.8176 70.0374 63.483 70.372L61.1059 72.749C60.7713 73.0837 60.2287 73.0837 59.8941 72.749L57.517 70.372C57.1824 70.0374 57.1824 69.4948 57.517 69.1601L59.8941 66.7831Z" fill="#1F2024"/>
<path d="M58.7169 64.394C59.0516 64.7287 59.0516 65.2713 58.7169 65.6059L56.3399 67.983C56.0053 68.3176 55.4627 68.3176 55.128 67.983L52.751 65.6059C52.4163 65.2713 52.4163 64.7287 52.751 64.394L55.128 62.017C55.4627 61.6824 56.0053 61.6824 56.3399 62.017L58.7169 64.394Z" fill="#1F2024"/>
</mask>
<g mask="url(#mask2_248_4444)">
<rect x="52.5" y="57" width="16" height="16" fill="#8F9098"/>
</g>
</g>
<path d="M81.358 63.5455C81.3153 63.1856 81.1425 62.9062 80.8395 62.7074C80.5365 62.5085 80.1648 62.4091 79.7244 62.4091C79.4025 62.4091 79.1207 62.4612 78.8793 62.5653C78.6402 62.6695 78.4531 62.8127 78.3182 62.995C78.1856 63.1773 78.1193 63.3845 78.1193 63.6165C78.1193 63.8106 78.1655 63.9775 78.2578 64.1172C78.3525 64.2545 78.4732 64.3693 78.62 64.4616C78.7668 64.5516 78.9207 64.6262 79.0817 64.6854C79.2427 64.7422 79.3906 64.7884 79.5256 64.8239L80.2642 65.0227C80.4536 65.0724 80.6643 65.1411 80.8963 65.2287C81.1307 65.3163 81.3544 65.4358 81.5675 65.5874C81.7829 65.7365 81.9605 65.9283 82.1001 66.1626C82.2398 66.397 82.3097 66.6847 82.3097 67.0256C82.3097 67.4186 82.2067 67.7737 82.0007 68.0909C81.7971 68.4081 81.4988 68.6603 81.1058 68.8473C80.7152 69.0343 80.2405 69.1278 79.6818 69.1278C79.161 69.1278 78.71 69.0438 78.3288 68.8757C77.95 68.7076 77.6518 68.4732 77.4339 68.1726C77.2185 67.8719 77.0966 67.5227 77.0682 67.125H77.9773C78.0009 67.3996 78.0933 67.6269 78.2543 67.8068C78.4176 67.9844 78.6236 68.117 78.8722 68.2045C79.1231 68.2898 79.393 68.3324 79.6818 68.3324C80.018 68.3324 80.3198 68.2779 80.5874 68.169C80.8549 68.0578 81.0668 67.9039 81.223 67.7074C81.3793 67.5085 81.4574 67.2765 81.4574 67.0114C81.4574 66.7699 81.3899 66.5734 81.255 66.4219C81.12 66.2704 80.9425 66.1473 80.7223 66.0526C80.5021 65.9579 80.2642 65.875 80.0085 65.804L79.1136 65.5483C78.5455 65.3849 78.0956 65.1518 77.7642 64.8487C77.4328 64.5457 77.267 64.1491 77.267 63.6591C77.267 63.2519 77.3771 62.8968 77.5973 62.5938C77.8198 62.2884 78.1181 62.0516 78.4922 61.8835C78.8686 61.7131 79.2888 61.6278 79.7528 61.6278C80.2216 61.6278 80.6383 61.7119 81.0028 61.88C81.3674 62.0457 81.6563 62.273 81.8693 62.5618C82.0848 62.8506 82.1984 63.1785 82.2102 63.5455H81.358ZM86.0809 69.1136C85.5554 69.1136 85.102 68.9976 84.7208 68.7656C84.3421 68.5312 84.0497 68.2045 83.8437 67.7855C83.6401 67.3641 83.5383 66.8741 83.5383 66.3153C83.5383 65.7566 83.6401 65.2642 83.8437 64.8381C84.0497 64.4096 84.3361 64.0758 84.7031 63.8366C85.0724 63.5952 85.5033 63.4744 85.9957 63.4744C86.2798 63.4744 86.5603 63.5218 86.8373 63.6165C87.1143 63.7112 87.3664 63.8651 87.5937 64.0781C87.821 64.2888 88.0021 64.5682 88.137 64.9162C88.272 65.2642 88.3395 65.6927 88.3395 66.2017V66.5568H84.1349V65.8324H87.4872C87.4872 65.5246 87.4256 65.25 87.3025 65.0085C87.1818 64.767 87.009 64.5765 86.7841 64.4368C86.5615 64.2971 86.2987 64.2273 85.9957 64.2273C85.6619 64.2273 85.3731 64.3101 85.1292 64.4759C84.8877 64.6392 84.7019 64.8523 84.5717 65.1151C84.4415 65.3778 84.3764 65.6596 84.3764 65.9602V66.4432C84.3764 66.8551 84.4474 67.2043 84.5895 67.4908C84.7339 67.7749 84.9339 67.9915 85.1896 68.1406C85.4453 68.2874 85.7424 68.3608 86.0809 68.3608C86.3011 68.3608 86.5 68.33 86.6775 68.2685C86.8574 68.2045 87.0125 68.1098 87.1427 67.9844C87.2729 67.8565 87.3735 67.6979 87.4446 67.5085L88.2542 67.7358C88.169 68.0104 88.0258 68.2519 87.8245 68.4602C87.6233 68.6662 87.3747 68.8272 87.0788 68.9432C86.7829 69.0568 86.4502 69.1136 86.0809 69.1136ZM90.6024 61.7273V69H89.7643V61.7273H90.6024ZM94.5743 69.1136C94.0487 69.1136 93.5954 68.9976 93.2142 68.7656C92.8354 68.5312 92.543 68.2045 92.3371 67.7855C92.1335 67.3641 92.0317 66.8741 92.0317 66.3153C92.0317 65.7566 92.1335 65.2642 92.3371 64.8381C92.543 64.4096 92.8295 64.0758 93.1964 63.8366C93.5658 63.5952 93.9966 63.4744 94.4891 63.4744C94.7732 63.4744 95.0537 63.5218 95.3307 63.6165C95.6077 63.7112 95.8598 63.8651 96.0871 64.0781C96.3143 64.2888 96.4955 64.5682 96.6304 64.9162C96.7653 65.2642 96.8328 65.6927 96.8328 66.2017V66.5568H92.6283V65.8324H95.9805C95.9805 65.5246 95.919 65.25 95.7959 65.0085C95.6751 64.767 95.5023 64.5765 95.2774 64.4368C95.0549 64.2971 94.7921 64.2273 94.4891 64.2273C94.1553 64.2273 93.8664 64.3101 93.6226 64.4759C93.3811 64.6392 93.1953 64.8523 93.0651 65.1151C92.9348 65.3778 92.8697 65.6596 92.8697 65.9602V66.4432C92.8697 66.8551 92.9408 67.2043 93.0828 67.4908C93.2272 67.7749 93.4273 67.9915 93.683 68.1406C93.9386 68.2874 94.2357 68.3608 94.5743 68.3608C94.7945 68.3608 94.9933 68.33 95.1709 68.2685C95.3508 68.2045 95.5059 68.1098 95.6361 67.9844C95.7663 67.8565 95.8669 67.6979 95.9379 67.5085L96.7476 67.7358C96.6624 68.0104 96.5191 68.2519 96.3179 68.4602C96.1167 68.6662 95.8681 68.8272 95.5722 68.9432C95.2762 69.0568 94.9436 69.1136 94.5743 69.1136ZM100.474 69.1136C99.9622 69.1136 99.5219 68.9929 99.1526 68.7514C98.7832 68.5099 98.4991 68.1773 98.3003 67.7536C98.1014 67.3298 98.002 66.8456 98.002 66.3011C98.002 65.7472 98.1038 65.2583 98.3074 64.8345C98.5134 64.4084 98.7998 64.0758 99.1668 63.8366C99.5361 63.5952 99.967 63.4744 100.459 63.4744C100.843 63.4744 101.189 63.5455 101.496 63.6875C101.804 63.8295 102.056 64.0284 102.253 64.2841C102.449 64.5398 102.571 64.8381 102.618 65.179H101.78C101.716 64.9304 101.574 64.7102 101.354 64.5185C101.136 64.3243 100.843 64.2273 100.474 64.2273C100.147 64.2273 99.8604 64.3125 99.6142 64.483C99.3704 64.651 99.1798 64.889 99.0425 65.1967C98.9075 65.5021 98.8401 65.8608 98.8401 66.2727C98.8401 66.6941 98.9063 67.0611 99.0389 67.3736C99.1739 67.6861 99.3633 67.9287 99.6071 68.1016C99.8533 68.2744 100.142 68.3608 100.474 68.3608C100.691 68.3608 100.889 68.3229 101.067 68.2472C101.244 68.1714 101.395 68.0625 101.518 67.9205C101.641 67.7784 101.728 67.608 101.78 67.4091H102.618C102.571 67.7311 102.454 68.0211 102.267 68.2791C102.082 68.5348 101.837 68.7384 101.532 68.8899C101.229 69.0391 100.876 69.1136 100.474 69.1136ZM106.366 63.5455V64.2557H103.539V63.5455H106.366ZM104.363 62.2386H105.201V67.4375C105.201 67.6742 105.235 67.8518 105.304 67.9702C105.375 68.0862 105.465 68.1643 105.574 68.2045C105.685 68.2424 105.802 68.2614 105.925 68.2614C106.018 68.2614 106.094 68.2566 106.153 68.2472C106.212 68.2353 106.259 68.2259 106.295 68.2188L106.465 68.9716C106.408 68.9929 106.329 69.0142 106.227 69.0355C106.125 69.0592 105.996 69.071 105.84 69.071C105.603 69.071 105.371 69.0201 105.144 68.9183C104.919 68.8165 104.732 68.6615 104.583 68.4531C104.436 68.2448 104.363 67.982 104.363 67.6648V62.2386ZM110.005 69.1136C109.479 69.1136 109.026 68.9976 108.645 68.7656C108.266 68.5312 107.974 68.2045 107.768 67.7855C107.564 67.3641 107.462 66.8741 107.462 66.3153C107.462 65.7566 107.564 65.2642 107.768 64.8381C107.974 64.4096 108.26 64.0758 108.627 63.8366C108.996 63.5952 109.427 63.4744 109.92 63.4744C110.204 63.4744 110.484 63.5218 110.761 63.6165C111.038 63.7112 111.29 63.8651 111.518 64.0781C111.745 64.2888 111.926 64.5682 112.061 64.9162C112.196 65.2642 112.263 65.6927 112.263 66.2017V66.5568H108.059V65.8324H111.411C111.411 65.5246 111.349 65.25 111.226 65.0085C111.106 64.767 110.933 64.5765 110.708 64.4368C110.485 64.2971 110.223 64.2273 109.92 64.2273C109.586 64.2273 109.297 64.3101 109.053 64.4759C108.812 64.6392 108.626 64.8523 108.496 65.1151C108.365 65.3778 108.3 65.6596 108.3 65.9602V66.4432C108.3 66.8551 108.371 67.2043 108.513 67.4908C108.658 67.7749 108.858 67.9915 109.113 68.1406C109.369 68.2874 109.666 68.3608 110.005 68.3608C110.225 68.3608 110.424 68.33 110.601 68.2685C110.781 68.2045 110.936 68.1098 111.067 67.9844C111.197 67.8565 111.297 67.6979 111.368 67.5085L112.178 67.7358C112.093 68.0104 111.95 68.2519 111.748 68.4602C111.547 68.6662 111.299 68.8272 111.003 68.9432C110.707 69.0568 110.374 69.1136 110.005 69.1136ZM115.748 69.1136C115.293 69.1136 114.892 68.9988 114.544 68.7692C114.196 68.5372 113.924 68.2105 113.727 67.7891C113.531 67.3653 113.432 66.8646 113.432 66.2869C113.432 65.714 113.531 65.2169 113.727 64.7955C113.924 64.3741 114.197 64.0485 114.548 63.8189C114.898 63.5893 115.303 63.4744 115.762 63.4744C116.117 63.4744 116.398 63.5336 116.604 63.652C116.812 63.768 116.971 63.9006 117.079 64.0497C117.191 64.1965 117.277 64.3172 117.339 64.4119H117.41V61.7273H118.248V69H117.438V68.1619H117.339C117.277 68.2614 117.19 68.3868 117.076 68.5384C116.962 68.6875 116.8 68.8213 116.589 68.9396C116.379 69.0556 116.098 69.1136 115.748 69.1136ZM115.861 68.3608C116.198 68.3608 116.482 68.2732 116.714 68.098C116.946 67.9205 117.122 67.6754 117.243 67.3629C117.364 67.0481 117.424 66.6847 117.424 66.2727C117.424 65.8655 117.365 65.5092 117.246 65.2038C117.128 64.8961 116.953 64.657 116.721 64.4865C116.489 64.3137 116.202 64.2273 115.861 64.2273C115.506 64.2273 115.21 64.3184 114.974 64.5007C114.739 64.6806 114.563 64.9257 114.445 65.2358C114.329 65.5436 114.271 65.8892 114.271 66.2727C114.271 66.661 114.33 67.0137 114.448 67.331C114.569 67.6458 114.746 67.8968 114.981 68.0838C115.217 68.2685 115.511 68.3608 115.861 68.3608Z" fill="#1F2024"/>
<path d="M41.8536 1.58236C41.6583 1.3871 41.3417 1.3871 41.1464 1.58236L37.9645 4.76434C37.7692 4.9596 37.7692 5.27618 37.9645 5.47145C38.1597 5.66671 38.4763 5.66671 38.6716 5.47145L41.5 2.64302L44.3284 5.47145C44.5237 5.66671 44.8403 5.66671 45.0355 5.47145C45.2308 5.27618 45.2308 4.9596 45.0355 4.76434L41.8536 1.58236ZM41.1464 33.3246C41.3417 33.5198 41.6583 33.5198 41.8536 33.3246L45.0355 30.1426C45.2308 29.9473 45.2308 29.6307 45.0355 29.4355C44.8403 29.2402 44.5237 29.2402 44.3284 29.4355L41.5 32.2639L38.6716 29.4355C38.4763 29.2402 38.1597 29.2402 37.9645 29.4355C37.7692 29.6307 37.7692 29.9473 37.9645 30.1426L41.1464 33.3246ZM41 1.93591V32.971H42V1.93591H41Z" fill="#8F9098"/>
<path d="M14 30.2814V57C14 61.4183 17.5817 65 22 65H45" stroke="#8F9098"/>
<defs>
<clipPath id="clip0_248_4444">
<rect width="16" height="16" fill="white" transform="translate(52.5 9.45349)"/>
</clipPath>
<clipPath id="clip1_248_4444">
<rect width="16" height="16" fill="white" transform="translate(52.5 57)"/>
</clipPath>
</defs>
</svg>
