<svg width="296" height="313" viewBox="0 0 296 313" fill="none" xmlns="http://www.w3.org/2000/svg">
<path d="M1.3474 108.703V107.182H8.51501V108.703H5.84314V115.909H4.01928V108.703H1.3474ZM9.66132 115.909V109.363H11.4767V115.909H9.66132ZM10.5733 108.52C10.3034 108.52 10.0718 108.43 9.87865 108.251C9.68831 108.069 9.59314 107.852 9.59314 107.599C9.59314 107.349 9.68831 107.135 9.87865 106.956C10.0718 106.774 10.3034 106.683 10.5733 106.683C10.8431 106.683 11.0733 106.774 11.2636 106.956C11.4568 107.135 11.5534 107.349 11.5534 107.599C11.5534 107.852 11.4568 108.069 11.2636 108.251C11.0733 108.43 10.8431 108.52 10.5733 108.52ZM16.4124 109.363V110.727H12.4706V109.363H16.4124ZM13.3655 107.795H15.1809V113.897C15.1809 114.065 15.2064 114.196 15.2576 114.289C15.3087 114.38 15.3797 114.444 15.4706 114.481C15.5644 114.518 15.6723 114.537 15.7945 114.537C15.8797 114.537 15.9649 114.53 16.0502 114.515C16.1354 114.498 16.2007 114.486 16.2462 114.477L16.5317 115.828C16.4408 115.856 16.313 115.889 16.1482 115.926C15.9834 115.966 15.7831 115.99 15.5473 115.998C15.1098 116.015 14.7263 115.957 14.3968 115.824C14.0701 115.69 13.8158 115.483 13.634 115.201C13.4522 114.92 13.3627 114.565 13.3655 114.136V107.795ZM19.5509 107.182V115.909H17.7355V107.182H19.5509ZM23.988 116.037C23.3147 116.037 22.7352 115.9 22.2494 115.628C21.7664 115.352 21.3943 114.963 21.1329 114.46C20.8715 113.954 20.7409 113.356 20.7409 112.666C20.7409 111.993 20.8715 111.402 21.1329 110.893C21.3943 110.385 21.7622 109.988 22.2366 109.704C22.7139 109.42 23.2735 109.278 23.9156 109.278C24.3474 109.278 24.7494 109.348 25.1215 109.487C25.4965 109.623 25.8233 109.829 26.1017 110.105C26.3829 110.38 26.6017 110.727 26.7579 111.145C26.9142 111.559 26.9923 112.045 26.9923 112.602V113.101H21.4653V111.976H25.2835C25.2835 111.714 25.2267 111.483 25.113 111.281C24.9994 111.079 24.8417 110.922 24.64 110.808C24.4412 110.691 24.2096 110.633 23.9454 110.633C23.6698 110.633 23.4255 110.697 23.2125 110.825C23.0022 110.95 22.8375 111.119 22.7181 111.332C22.5988 111.542 22.5377 111.777 22.5349 112.035V113.105C22.5349 113.429 22.5946 113.709 22.7139 113.944C22.836 114.18 23.0079 114.362 23.2295 114.49C23.4511 114.618 23.7139 114.682 24.0179 114.682C24.2196 114.682 24.4042 114.653 24.5718 114.596C24.7394 114.539 24.8829 114.454 25.0022 114.341C25.1215 114.227 25.2125 114.088 25.275 113.923L26.9539 114.034C26.8687 114.437 26.694 114.789 26.4298 115.091C26.1684 115.389 25.8304 115.622 25.4156 115.789C25.0037 115.954 24.5278 116.037 23.988 116.037Z" fill="#2F3036"/>
<rect x="1.42126" y="127.409" width="294" height="74" rx="11.5" stroke="#C5C6CC"/>
<path d="M18.1542 153.909V143.727H21.5946C22.3933 143.727 23.0463 143.871 23.5534 144.16C24.0638 144.445 24.4416 144.831 24.6869 145.318C24.9322 145.805 25.0548 146.349 25.0548 146.949C25.0548 147.548 24.9322 148.094 24.6869 148.584C24.4449 149.075 24.0704 149.466 23.5633 149.758C23.0562 150.046 22.4066 150.19 21.6144 150.19H19.1485V149.096H21.5747C22.1215 149.096 22.5607 149.002 22.8921 148.813C23.2236 148.624 23.4639 148.369 23.613 148.047C23.7655 147.722 23.8417 147.356 23.8417 146.949C23.8417 146.541 23.7655 146.176 23.613 145.855C23.4639 145.533 23.2219 145.281 22.8872 145.099C22.5524 144.914 22.1083 144.821 21.5548 144.821H19.3872V153.909H18.1542ZM28.0551 143.727V153.909H26.8818V143.727H28.0551ZM32.4513 154.088C31.9674 154.088 31.5282 153.997 31.1338 153.814C30.7394 153.629 30.4262 153.362 30.1942 153.014C29.9622 152.663 29.8462 152.238 29.8462 151.741C29.8462 151.304 29.9323 150.949 30.1047 150.677C30.277 150.402 30.5074 150.187 30.7957 150.031C31.0841 149.875 31.4023 149.759 31.7503 149.683C32.1016 149.603 32.4546 149.54 32.8092 149.494C33.2732 149.434 33.6494 149.39 33.9378 149.36C34.2294 149.327 34.4416 149.272 34.5741 149.196C34.71 149.12 34.778 148.987 34.778 148.798V148.758C34.778 148.268 34.6437 147.887 34.3753 147.615C34.1101 147.343 33.7074 147.207 33.1672 147.207C32.607 147.207 32.1679 147.33 31.8497 147.575C31.5315 147.82 31.3078 148.082 31.1785 148.361L30.0649 147.963C30.2638 147.499 30.5289 147.138 30.8604 146.879C31.1951 146.617 31.5597 146.435 31.9541 146.332C32.3518 146.226 32.7429 146.173 33.1274 146.173C33.3727 146.173 33.6544 146.203 33.9726 146.263C34.2941 146.319 34.604 146.437 34.9023 146.615C35.2039 146.794 35.4541 147.065 35.653 147.426C35.8518 147.787 35.9513 148.271 35.9513 148.878V153.909H34.778V152.875H34.7183C34.6388 153.04 34.5062 153.218 34.3206 153.407C34.135 153.596 33.8881 153.756 33.5798 153.889C33.2716 154.022 32.8954 154.088 32.4513 154.088ZM32.6302 153.034C33.0943 153.034 33.4854 152.943 33.8035 152.76C34.125 152.578 34.367 152.343 34.5294 152.054C34.6951 151.766 34.778 151.463 34.778 151.145V150.071C34.7283 150.13 34.6189 150.185 34.4499 150.235C34.2841 150.281 34.0919 150.323 33.8731 150.359C33.6577 150.392 33.4472 150.422 33.2418 150.449C33.0396 150.472 32.8755 150.492 32.7496 150.508C32.4446 150.548 32.1596 150.613 31.8945 150.702C31.6326 150.788 31.4205 150.919 31.2581 151.095C31.099 151.267 31.0195 151.503 31.0195 151.801C31.0195 152.209 31.1703 152.517 31.4719 152.726C31.7768 152.931 32.1629 153.034 32.6302 153.034ZM41.1951 154.068C40.4791 154.068 39.8627 153.899 39.3456 153.561C38.8286 153.223 38.4309 152.757 38.1524 152.164C37.874 151.571 37.7348 150.893 37.7348 150.13C37.7348 149.355 37.8773 148.67 38.1624 148.077C38.4507 147.481 38.8518 147.015 39.3655 146.68C39.8826 146.342 40.4858 146.173 41.1752 146.173C41.7121 146.173 42.196 146.272 42.6269 146.471C43.0577 146.67 43.4107 146.949 43.6858 147.307C43.9609 147.664 44.1316 148.082 44.1979 148.559H43.0246C42.9351 148.211 42.7363 147.903 42.428 147.635C42.1231 147.363 41.7121 147.227 41.1951 147.227C40.7377 147.227 40.3366 147.346 39.9919 147.585C39.6505 147.82 39.3837 148.153 39.1915 148.584C39.0026 149.012 38.9081 149.514 38.9081 150.091C38.9081 150.681 39.0009 151.194 39.1865 151.632C39.3755 152.069 39.6406 152.409 39.982 152.651C40.3267 152.893 40.731 153.014 41.1951 153.014C41.5 153.014 41.7767 152.961 42.0253 152.855C42.2739 152.749 42.4844 152.596 42.6567 152.397C42.8291 152.199 42.9517 151.96 43.0246 151.682H44.1979C44.1316 152.132 43.9675 152.538 43.7057 152.9C43.4472 153.258 43.1041 153.543 42.6766 153.755C42.2523 153.964 41.7585 154.068 41.1951 154.068ZM49.1148 154.068C48.379 154.068 47.7443 153.905 47.2107 153.581C46.6804 153.253 46.2711 152.795 45.9827 152.209C45.6977 151.619 45.5551 150.932 45.5551 150.15C45.5551 149.368 45.6977 148.679 45.9827 148.082C46.2711 147.482 46.6721 147.015 47.1858 146.68C47.7029 146.342 48.3061 146.173 48.9955 146.173C49.3932 146.173 49.786 146.239 50.1738 146.372C50.5615 146.504 50.9145 146.72 51.2327 147.018C51.5509 147.313 51.8044 147.704 51.9934 148.191C52.1823 148.679 52.2767 149.279 52.2767 149.991V150.488H46.3904V149.474H51.0836C51.0836 149.043 50.9974 148.659 50.825 148.321C50.656 147.983 50.414 147.716 50.0992 147.52C49.7876 147.325 49.4197 147.227 48.9955 147.227C48.5282 147.227 48.1238 147.343 47.7824 147.575C47.4443 147.804 47.1842 148.102 47.0019 148.47C46.8196 148.838 46.7284 149.232 46.7284 149.653V150.329C46.7284 150.906 46.8279 151.395 47.0267 151.796C47.2289 152.194 47.509 152.497 47.8669 152.706C48.2249 152.911 48.6408 153.014 49.1148 153.014C49.423 153.014 49.7014 152.971 49.95 152.885C50.2019 152.795 50.419 152.663 50.6013 152.487C50.7836 152.308 50.9245 152.086 51.0239 151.821L52.1574 152.139C52.0381 152.523 51.8376 152.861 51.5559 153.153C51.2741 153.441 50.9261 153.667 50.5118 153.829C50.0975 153.988 49.6318 154.068 49.1148 154.068ZM55.2348 149.315V153.909H54.0615V143.727H55.2348V147.466H55.3343C55.5132 147.071 55.7817 146.758 56.1397 146.526C56.5009 146.291 56.9815 146.173 57.5814 146.173C58.1018 146.173 58.5575 146.277 58.9486 146.486C59.3397 146.692 59.643 147.008 59.8584 147.436C60.0772 147.86 60.1865 148.4 60.1865 149.057V153.909H59.0132V149.136C59.0132 148.53 58.8558 148.061 58.5409 147.729C58.2294 147.394 57.7969 147.227 57.2434 147.227C56.8589 147.227 56.5142 147.308 56.2093 147.471C55.9077 147.633 55.669 147.87 55.4934 148.182C55.321 148.493 55.2348 148.871 55.2348 149.315ZM65.4353 154.068C64.7459 154.068 64.141 153.904 63.6207 153.576C63.1036 153.248 62.6993 152.789 62.4076 152.199C62.1192 151.609 61.9751 150.919 61.9751 150.13C61.9751 149.335 62.1192 148.641 62.4076 148.047C62.6993 147.454 63.1036 146.993 63.6207 146.665C64.141 146.337 64.7459 146.173 65.4353 146.173C66.1247 146.173 66.7279 146.337 67.245 146.665C67.7653 146.993 68.1697 147.454 68.458 148.047C68.7497 148.641 68.8955 149.335 68.8955 150.13C68.8955 150.919 68.7497 151.609 68.458 152.199C68.1697 152.789 67.7653 153.248 67.245 153.576C66.7279 153.904 66.1247 154.068 65.4353 154.068ZM65.4353 153.014C65.959 153.014 66.3898 152.88 66.7279 152.611C67.066 152.343 67.3162 151.99 67.4786 151.552C67.641 151.115 67.7222 150.641 67.7222 150.13C67.7222 149.62 67.641 149.144 67.4786 148.704C67.3162 148.263 67.066 147.906 66.7279 147.635C66.3898 147.363 65.959 147.227 65.4353 147.227C64.9116 147.227 64.4807 147.363 64.1427 147.635C63.8046 147.906 63.5544 148.263 63.392 148.704C63.2296 149.144 63.1484 149.62 63.1484 150.13C63.1484 150.641 63.2296 151.115 63.392 151.552C63.5544 151.99 63.8046 152.343 64.1427 152.611C64.4807 152.88 64.9116 153.014 65.4353 153.014ZM71.8598 143.727V153.909H70.6865V143.727H71.8598ZM76.8923 154.068C76.256 154.068 75.6942 153.907 75.207 153.586C74.7197 153.261 74.3386 152.803 74.0635 152.214C73.7884 151.62 73.6508 150.919 73.6508 150.111C73.6508 149.308 73.7884 148.612 74.0635 148.022C74.3386 147.432 74.7214 146.977 75.2119 146.655C75.7025 146.334 76.2692 146.173 76.9122 146.173C77.4094 146.173 77.8021 146.256 78.0905 146.422C78.3821 146.584 78.6042 146.77 78.7567 146.978C78.9124 147.184 79.0334 147.353 79.1196 147.486H79.219V143.727H80.3923V153.909H79.2588V152.736H79.1196C79.0334 152.875 78.9108 153.05 78.7517 153.263C78.5926 153.471 78.3656 153.659 78.0706 153.824C77.7756 153.987 77.3829 154.068 76.8923 154.068ZM77.0514 153.014C77.5221 153.014 77.9198 152.891 78.2446 152.646C78.5694 152.397 78.8163 152.054 78.9854 151.617C79.1544 151.176 79.2389 150.667 79.2389 150.091C79.2389 149.521 79.1561 149.022 78.9903 148.594C78.8246 148.163 78.5793 147.829 78.2545 147.59C77.9297 147.348 77.5287 147.227 77.0514 147.227C76.5543 147.227 76.14 147.355 75.8085 147.61C75.4804 147.862 75.2335 148.205 75.0677 148.639C74.9053 149.07 74.8241 149.554 74.8241 150.091C74.8241 150.634 74.907 151.128 75.0727 151.572C75.2418 152.013 75.4903 152.364 75.8185 152.626C76.1499 152.885 76.5609 153.014 77.0514 153.014ZM85.9058 154.068C85.17 154.068 84.5353 153.905 84.0017 153.581C83.4714 153.253 83.0621 152.795 82.7737 152.209C82.4887 151.619 82.3462 150.932 82.3462 150.15C82.3462 149.368 82.4887 148.679 82.7737 148.082C83.0621 147.482 83.4631 147.015 83.9768 146.68C84.4939 146.342 85.0971 146.173 85.7865 146.173C86.1842 146.173 86.577 146.239 86.9648 146.372C87.3526 146.504 87.7055 146.72 88.0237 147.018C88.3419 147.313 88.5954 147.704 88.7844 148.191C88.9733 148.679 89.0677 149.279 89.0677 149.991V150.488H83.1814V149.474H87.8746C87.8746 149.043 87.7884 148.659 87.616 148.321C87.447 147.983 87.2051 147.716 86.8902 147.52C86.5786 147.325 86.2107 147.227 85.7865 147.227C85.3192 147.227 84.9148 147.343 84.5734 147.575C84.2354 147.804 83.9752 148.102 83.7929 148.47C83.6106 148.838 83.5195 149.232 83.5195 149.653V150.329C83.5195 150.906 83.6189 151.395 83.8177 151.796C84.0199 152.194 84.3 152.497 84.6579 152.706C85.0159 152.911 85.4319 153.014 85.9058 153.014C86.2141 153.014 86.4925 152.971 86.741 152.885C86.9929 152.795 87.21 152.663 87.3923 152.487C87.5746 152.308 87.7155 152.086 87.8149 151.821L88.9484 152.139C88.8291 152.523 88.6286 152.861 88.3469 153.153C88.0651 153.441 87.7171 153.667 87.3028 153.829C86.8885 153.988 86.4229 154.068 85.9058 154.068ZM90.8526 153.909V146.272H91.9861V147.426H92.0656C92.2048 147.048 92.4567 146.741 92.8213 146.506C93.1859 146.271 93.5969 146.153 94.0543 146.153C94.1404 146.153 94.2481 146.155 94.3774 146.158C94.5067 146.161 94.6044 146.166 94.6707 146.173V147.366C94.631 147.356 94.5398 147.341 94.3973 147.321C94.2581 147.298 94.1106 147.287 93.9548 147.287C93.5836 147.287 93.2522 147.365 92.9605 147.52C92.6722 147.673 92.4435 147.885 92.2744 148.157C92.1087 148.425 92.0258 148.732 92.0258 149.076V153.909H90.8526Z" fill="#8F9098"/>
<path d="M5.77922 215.454C5.73661 215.094 5.56378 214.815 5.26075 214.616C4.95772 214.417 4.58604 214.318 4.1457 214.318C3.82373 214.318 3.542 214.37 3.30053 214.474C3.06142 214.578 2.87439 214.722 2.73945 214.904C2.60687 215.086 2.54058 215.293 2.54058 215.525C2.54058 215.719 2.58675 215.886 2.67908 216.026C2.77377 216.163 2.89451 216.278 3.04129 216.37C3.18807 216.46 3.34196 216.535 3.50294 216.594C3.66393 216.651 3.81189 216.697 3.94683 216.733L4.68547 216.932C4.87486 216.981 5.08556 217.05 5.31757 217.138C5.55195 217.225 5.77567 217.345 5.98874 217.496C6.20417 217.645 6.38173 217.837 6.52141 218.071C6.66109 218.306 6.73092 218.593 6.73092 218.934C6.73092 219.327 6.62794 219.682 6.42198 220C6.21838 220.317 5.92008 220.569 5.52709 220.756C5.13646 220.943 4.6618 221.037 4.10308 221.037C3.58225 221.037 3.13126 220.953 2.7501 220.785C2.37131 220.616 2.07302 220.382 1.85521 220.081C1.63978 219.781 1.51786 219.432 1.48945 219.034H2.39854C2.42221 219.308 2.51454 219.536 2.67553 219.716C2.83888 219.893 3.04484 220.026 3.29342 220.113C3.54437 220.199 3.81426 220.241 4.10308 220.241C4.43926 220.241 4.7411 220.187 5.00862 220.078C5.27614 219.967 5.48803 219.813 5.64428 219.616C5.80053 219.417 5.87865 219.185 5.87865 218.92C5.87865 218.679 5.81118 218.482 5.67624 218.331C5.54129 218.179 5.36374 218.056 5.14357 217.961C4.9234 217.867 4.68547 217.784 4.42979 217.713L3.5349 217.457C2.96672 217.294 2.51691 217.061 2.18547 216.758C1.85403 216.455 1.68831 216.058 1.68831 215.568C1.68831 215.161 1.7984 214.806 2.01857 214.503C2.2411 214.197 2.5394 213.96 2.91345 213.792C3.28987 213.622 3.71009 213.537 4.17411 213.537C4.64286 213.537 5.05952 213.621 5.42411 213.789C5.78869 213.955 6.07751 214.182 6.29058 214.471C6.50602 214.759 6.61966 215.087 6.63149 215.454H5.77922ZM11.6528 218.679V215.454H12.4908V220.909H11.6528V219.986H11.5959C11.4681 220.263 11.2692 220.498 10.9994 220.692C10.7295 220.884 10.3886 220.98 9.97663 220.98C9.63572 220.98 9.33269 220.905 9.06754 220.756C8.80238 220.605 8.59405 220.377 8.44254 220.074C8.29102 219.769 8.21526 219.384 8.21526 218.92V215.454H9.05333V218.863C9.05333 219.261 9.1646 219.578 9.38714 219.815C9.61204 220.052 9.8985 220.17 10.2465 220.17C10.4548 220.17 10.6667 220.117 10.8822 220.01C11.1 219.904 11.2823 219.74 11.429 219.52C11.5782 219.3 11.6528 219.02 11.6528 218.679ZM14.1758 222.954V215.454H14.9855V216.321H15.0849C15.1465 216.226 15.2317 216.105 15.3406 215.959C15.4519 215.809 15.6105 215.677 15.8164 215.561C16.0248 215.442 16.3065 215.383 16.6616 215.383C17.1209 215.383 17.5257 215.498 17.8761 215.728C18.2265 215.957 18.4999 216.283 18.6964 216.704C18.8929 217.126 18.9912 217.623 18.9912 218.196C18.9912 218.773 18.8929 219.274 18.6964 219.698C18.4999 220.119 18.2277 220.446 17.8796 220.678C17.5316 220.908 17.1304 221.022 16.6758 221.022C16.3254 221.022 16.0449 220.964 15.8342 220.848C15.6235 220.73 15.4613 220.596 15.3477 220.447C15.234 220.296 15.1465 220.17 15.0849 220.071H15.0139V222.954H14.1758ZM14.9997 218.182C14.9997 218.593 15.06 218.957 15.1808 219.272C15.3015 219.584 15.4779 219.829 15.7099 220.007C15.9419 220.182 16.226 220.27 16.5622 220.27C16.9126 220.27 17.2049 220.177 17.4393 219.993C17.676 219.806 17.8536 219.555 17.972 219.24C18.0927 218.923 18.1531 218.57 18.1531 218.182C18.1531 217.798 18.0939 217.452 17.9755 217.145C17.8595 216.834 17.6831 216.589 17.4464 216.41C17.212 216.227 16.9173 216.136 16.5622 216.136C16.2213 216.136 15.9348 216.222 15.7028 216.395C15.4708 216.566 15.2956 216.805 15.1772 217.113C15.0589 217.418 14.9997 217.774 14.9997 218.182ZM20.4196 222.954V215.454H21.2292V216.321H21.3287C21.3902 216.226 21.4754 216.105 21.5843 215.959C21.6956 215.809 21.8542 215.677 22.0602 215.561C22.2685 215.442 22.5502 215.383 22.9054 215.383C23.3646 215.383 23.7695 215.498 24.1198 215.728C24.4702 215.957 24.7437 216.283 24.9402 216.704C25.1367 217.126 25.2349 217.623 25.2349 218.196C25.2349 218.773 25.1367 219.274 24.9402 219.698C24.7437 220.119 24.4714 220.446 24.1234 220.678C23.7754 220.908 23.3741 221.022 22.9196 221.022C22.5692 221.022 22.2886 220.964 22.0779 220.848C21.8672 220.73 21.7051 220.596 21.5914 220.447C21.4778 220.296 21.3902 220.17 21.3287 220.071H21.2576V222.954H20.4196ZM21.2434 218.182C21.2434 218.593 21.3038 218.957 21.4245 219.272C21.5453 219.584 21.7216 219.829 21.9537 220.007C22.1857 220.182 22.4698 220.27 22.8059 220.27C23.1563 220.27 23.4487 220.177 23.6831 219.993C23.9198 219.806 24.0974 219.555 24.2157 219.24C24.3365 218.923 24.3968 218.57 24.3968 218.182C24.3968 217.798 24.3376 217.452 24.2193 217.145C24.1033 216.834 23.9269 216.589 23.6902 216.41C23.4558 216.227 23.161 216.136 22.8059 216.136C22.465 216.136 22.1786 216.222 21.9465 216.395C21.7145 216.566 21.5394 216.805 21.421 217.113C21.3026 217.418 21.2434 217.774 21.2434 218.182ZM28.8792 221.022C28.3868 221.022 27.9547 220.905 27.5831 220.671C27.2137 220.437 26.9249 220.109 26.7166 219.687C26.5106 219.266 26.4076 218.773 26.4076 218.21C26.4076 217.642 26.5106 217.146 26.7166 216.722C26.9249 216.298 27.2137 215.969 27.5831 215.735C27.9547 215.5 28.3868 215.383 28.8792 215.383C29.3716 215.383 29.8025 215.5 30.1718 215.735C30.5435 215.969 30.8323 216.298 31.0383 216.722C31.2466 217.146 31.3508 217.642 31.3508 218.21C31.3508 218.773 31.2466 219.266 31.0383 219.687C30.8323 220.109 30.5435 220.437 30.1718 220.671C29.8025 220.905 29.3716 221.022 28.8792 221.022ZM28.8792 220.27C29.2533 220.27 29.561 220.174 29.8025 219.982C30.044 219.79 30.2227 219.538 30.3387 219.226C30.4547 218.913 30.5127 218.575 30.5127 218.21C30.5127 217.845 30.4547 217.506 30.3387 217.191C30.2227 216.876 30.044 216.621 29.8025 216.427C29.561 216.233 29.2533 216.136 28.8792 216.136C28.5052 216.136 28.1974 216.233 27.9559 216.427C27.7144 216.621 27.5357 216.876 27.4197 217.191C27.3037 217.506 27.2457 217.845 27.2457 218.21C27.2457 218.575 27.3037 218.913 27.4197 219.226C27.5357 219.538 27.7144 219.79 27.9559 219.982C28.1974 220.174 28.5052 220.27 28.8792 220.27ZM32.7801 220.909V215.454H33.5898V216.278H33.6466C33.746 216.008 33.9259 215.789 34.1864 215.621C34.4468 215.453 34.7403 215.369 35.067 215.369C35.1286 215.369 35.2055 215.37 35.2979 215.373C35.3902 215.375 35.46 215.379 35.5074 215.383V216.236C35.479 216.228 35.4139 216.218 35.3121 216.204C35.2126 216.187 35.1073 216.179 34.996 216.179C34.7309 216.179 34.4941 216.234 34.2858 216.346C34.0798 216.455 33.9165 216.606 33.7957 216.8C33.6774 216.992 33.6182 217.211 33.6182 217.457V220.909H32.7801ZM39.3648 215.454V216.164H36.5381V215.454H39.3648ZM37.3619 214.147H38.2V219.346C38.2 219.583 38.2343 219.761 38.303 219.879C38.374 219.995 38.464 220.073 38.5729 220.113C38.6841 220.151 38.8013 220.17 38.9244 220.17C39.0168 220.17 39.0925 220.165 39.1517 220.156C39.2109 220.144 39.2582 220.135 39.2937 220.128L39.4642 220.88C39.4074 220.902 39.3281 220.923 39.2263 220.944C39.1245 220.968 38.9954 220.98 38.8392 220.98C38.6025 220.98 38.3704 220.929 38.1432 220.827C37.9183 220.725 37.7312 220.57 37.5821 220.362C37.4353 220.154 37.3619 219.891 37.3619 219.574V214.147ZM46.1101 215.454V216.164H43.2834V215.454H46.1101ZM44.1072 214.147H44.9453V219.346C44.9453 219.583 44.9796 219.761 45.0483 219.879C45.1193 219.995 45.2093 220.073 45.3182 220.113C45.4294 220.151 45.5466 220.17 45.6697 220.17C45.7621 220.17 45.8378 220.165 45.897 220.156C45.9562 220.144 46.0035 220.135 46.0391 220.128L46.2095 220.88C46.1527 220.902 46.0734 220.923 45.9716 220.944C45.8698 220.968 45.7408 220.98 45.5845 220.98C45.3478 220.98 45.1158 220.929 44.8885 220.827C44.6636 220.725 44.4766 220.57 44.3274 220.362C44.1806 220.154 44.1072 219.891 44.1072 219.574V214.147ZM49.7491 221.022C49.2235 221.022 48.7701 220.906 48.389 220.674C48.0102 220.44 47.7178 220.113 47.5119 219.694C47.3083 219.273 47.2065 218.783 47.2065 218.224C47.2065 217.665 47.3083 217.173 47.5119 216.747C47.7178 216.318 48.0043 215.985 48.3712 215.745C48.7405 215.504 49.1714 215.383 49.6638 215.383C49.9479 215.383 50.2285 215.431 50.5055 215.525C50.7824 215.62 51.0346 215.774 51.2619 215.987C51.4891 216.198 51.6702 216.477 51.8052 216.825C51.9401 217.173 52.0076 217.602 52.0076 218.111V218.466H47.803V217.741H51.1553C51.1553 217.433 51.0938 217.159 50.9707 216.917C50.8499 216.676 50.6771 216.485 50.4522 216.346C50.2297 216.206 49.9669 216.136 49.6638 216.136C49.33 216.136 49.0412 216.219 48.7974 216.385C48.5559 216.548 48.37 216.761 48.2398 217.024C48.1096 217.287 48.0445 217.568 48.0445 217.869V218.352C48.0445 218.764 48.1155 219.113 48.2576 219.4C48.402 219.684 48.6021 219.9 48.8577 220.049C49.1134 220.196 49.4105 220.27 49.7491 220.27C49.9692 220.27 50.1681 220.239 50.3457 220.177C50.5256 220.113 50.6807 220.019 50.8109 219.893C50.9411 219.765 51.0417 219.607 51.1127 219.417L51.9224 219.645C51.8371 219.919 51.6939 220.161 51.4927 220.369C51.2914 220.575 51.0429 220.736 50.7469 220.852C50.451 220.966 50.1184 221.022 49.7491 221.022ZM53.911 215.454L55.2178 217.684L56.5246 215.454H57.4905L55.7291 218.182L57.4905 220.909H56.5246L55.2178 218.792L53.911 220.909H52.9451L54.678 218.182L52.9451 215.454H53.911ZM61.2085 215.454V216.164H58.3818V215.454H61.2085ZM59.2057 214.147H60.0437V219.346C60.0437 219.583 60.0781 219.761 60.1467 219.879C60.2178 219.995 60.3077 220.073 60.4166 220.113C60.5279 220.151 60.6451 220.17 60.7682 220.17C60.8605 220.17 60.9363 220.165 60.9954 220.156C61.0546 220.144 61.102 220.135 61.1375 220.128L61.3079 220.88C61.2511 220.902 61.1718 220.923 61.07 220.944C60.9682 220.968 60.8392 220.98 60.6829 220.98C60.4462 220.98 60.2142 220.929 59.9869 220.827C59.762 220.725 59.575 220.57 59.4258 220.362C59.2791 220.154 59.2057 219.891 59.2057 219.574V214.147Z" fill="#8F9098"/>
<mask id="mask0_252_7543" style="mask-type:alpha" maskUnits="userSpaceOnUse" x="44" y="2" width="17" height="12">
<path d="M52.348 5.81838C51.7694 5.81838 51.2144 6.04825 50.8052 6.45742C50.3961 6.86659 50.1662 7.42155 50.1662 8.0002C50.1662 8.57885 50.3961 9.13381 50.8052 9.54298C51.2144 9.95215 51.7694 10.182 52.348 10.182C52.9267 10.182 53.4816 9.95215 53.8908 9.54298C54.3 9.13381 54.5298 8.57885 54.5298 8.0002C54.5298 7.42155 54.3 6.86659 53.8908 6.45742C53.4816 6.04825 52.9267 5.81838 52.348 5.81838ZM52.348 11.6366C51.3836 11.6366 50.4587 11.2534 49.7767 10.5715C49.0948 9.88955 48.7117 8.96462 48.7117 8.0002C48.7117 7.03578 49.0948 6.11085 49.7767 5.4289C50.4587 4.74695 51.3836 4.36384 52.348 4.36384C53.3124 4.36384 54.2374 4.74695 54.9193 5.4289C55.6013 6.11085 55.9844 7.03578 55.9844 8.0002C55.9844 8.96462 55.6013 9.88955 54.9193 10.5715C54.2374 11.2534 53.3124 11.6366 52.348 11.6366ZM52.348 2.54565C48.8135 2.54565 45.6426 4.72747 44.348 8.0002C46.0862 12.422 51.0753 14.5893 55.4971 12.8511C57.7153 11.9784 59.4753 10.2257 60.348 8.0002C59.0535 4.72747 55.8826 2.54565 52.348 2.54565Z" fill="#006FFD"/>
</mask>
<g mask="url(#mask0_252_7543)">
<rect x="44.348" width="16" height="16" fill="#8F9098"/>
</g>
<path d="M73.206 6.54545C73.1634 6.18561 72.9905 5.90625 72.6875 5.70739C72.3845 5.50852 72.0128 5.40909 71.5725 5.40909C71.2505 5.40909 70.9688 5.46117 70.7273 5.56534C70.4882 5.66951 70.3011 5.81274 70.1662 5.99503C70.0336 6.17732 69.9673 6.38447 69.9673 6.61648C69.9673 6.81061 70.0135 6.97751 70.1058 7.11719C70.2005 7.2545 70.3213 7.36932 70.4681 7.46165C70.6148 7.55161 70.7687 7.62618 70.9297 7.68537C71.0907 7.74219 71.2386 7.78835 71.3736 7.82386L72.1122 8.02273C72.3016 8.07244 72.5123 8.1411 72.7443 8.22869C72.9787 8.31629 73.2024 8.43584 73.4155 8.58736C73.6309 8.73651 73.8085 8.92827 73.9482 9.16264C74.0878 9.39702 74.1577 9.68466 74.1577 10.0256C74.1577 10.4186 74.0547 10.7737 73.8487 11.0909C73.6451 11.4081 73.3468 11.6603 72.9538 11.8473C72.5632 12.0343 72.0886 12.1278 71.5298 12.1278C71.009 12.1278 70.558 12.0438 70.1769 11.8757C69.7981 11.7076 69.4998 11.4732 69.282 11.1726C69.0665 10.8719 68.9446 10.5227 68.9162 10.125H69.8253C69.849 10.3996 69.9413 10.6269 70.1023 10.8068C70.2656 10.9844 70.4716 11.117 70.7202 11.2045C70.9711 11.2898 71.241 11.3324 71.5298 11.3324C71.866 11.3324 72.1679 11.2779 72.4354 11.169C72.7029 11.0578 72.9148 10.9039 73.071 10.7074C73.2273 10.5085 73.3054 10.2765 73.3054 10.0114C73.3054 9.76989 73.2379 9.57339 73.103 9.42188C72.9681 9.27036 72.7905 9.14725 72.5703 9.05256C72.3502 8.95786 72.1122 8.875 71.8565 8.80398L70.9617 8.5483C70.3935 8.38494 69.9437 8.15175 69.6122 7.84872C69.2808 7.54569 69.1151 7.14915 69.1151 6.65909C69.1151 6.25189 69.2252 5.89678 69.4453 5.59375C69.6679 5.28835 69.9662 5.05161 70.3402 4.88352C70.7166 4.71307 71.1368 4.62784 71.6009 4.62784C72.0696 4.62784 72.4863 4.71188 72.8509 4.87997C73.2154 5.04569 73.5043 5.27296 73.7173 5.56179C73.9328 5.85062 74.0464 6.1785 74.0582 6.54545H73.206ZM76.4801 8.71875V12H75.642V4.72727H76.4801V7.39773H76.5511C76.679 7.116 76.8707 6.89228 77.1264 6.72656C77.3844 6.55848 77.7277 6.47443 78.1562 6.47443C78.5279 6.47443 78.8534 6.54901 79.1328 6.69815C79.4121 6.84493 79.6288 7.07102 79.7826 7.37642C79.9389 7.67945 80.017 8.06534 80.017 8.53409V12H79.179V8.59091C79.179 8.15767 79.0665 7.82268 78.8416 7.58594C78.6191 7.34683 78.3101 7.22727 77.9147 7.22727C77.6401 7.22727 77.3939 7.28527 77.1761 7.40128C76.9607 7.51728 76.7902 7.68655 76.6647 7.90909C76.5416 8.13163 76.4801 8.40152 76.4801 8.71875ZM83.9161 12.1136C83.4237 12.1136 82.9917 11.9964 82.62 11.7621C82.2507 11.5277 81.9618 11.1998 81.7535 10.7784C81.5475 10.357 81.4445 9.86458 81.4445 9.30114C81.4445 8.73295 81.5475 8.23698 81.7535 7.81321C81.9618 7.38944 82.2507 7.06037 82.62 6.82599C82.9917 6.59162 83.4237 6.47443 83.9161 6.47443C84.4086 6.47443 84.8394 6.59162 85.2087 6.82599C85.5804 7.06037 85.8693 7.38944 86.0752 7.81321C86.2836 8.23698 86.3877 8.73295 86.3877 9.30114C86.3877 9.86458 86.2836 10.357 86.0752 10.7784C85.8693 11.1998 85.5804 11.5277 85.2087 11.7621C84.8394 11.9964 84.4086 12.1136 83.9161 12.1136ZM83.9161 11.3608C84.2902 11.3608 84.598 11.2649 84.8394 11.0732C85.0809 10.8814 85.2596 10.6293 85.3757 10.3168C85.4917 10.0043 85.5497 9.66572 85.5497 9.30114C85.5497 8.93655 85.4917 8.59683 85.3757 8.28196C85.2596 7.96709 85.0809 7.71259 84.8394 7.51847C84.598 7.32434 84.2902 7.22727 83.9161 7.22727C83.5421 7.22727 83.2343 7.32434 82.9928 7.51847C82.7514 7.71259 82.5726 7.96709 82.4566 8.28196C82.3406 8.59683 82.2826 8.93655 82.2826 9.30114C82.2826 9.66572 82.3406 10.0043 82.4566 10.3168C82.5726 10.6293 82.7514 10.8814 82.9928 11.0732C83.2343 11.2649 83.5421 11.3608 83.9161 11.3608ZM88.8673 12L87.2053 6.54545H88.086L89.265 10.7216H89.3218L90.4866 6.54545H91.3815L92.532 10.7074H92.5889L93.7678 6.54545H94.6485L92.9866 12H92.1627L90.9695 7.80966H90.8843L89.6911 12H88.8673ZM98.5849 5.50852V4.72727H104.039V5.50852H101.752V12H100.872V5.50852H98.5849ZM105.435 12V6.54545H106.273V12H105.435ZM105.861 5.63636C105.698 5.63636 105.557 5.58073 105.439 5.46946C105.323 5.35819 105.265 5.22443 105.265 5.06818C105.265 4.91193 105.323 4.77817 105.439 4.6669C105.557 4.55563 105.698 4.5 105.861 4.5C106.024 4.5 106.164 4.55563 106.28 4.6669C106.399 4.77817 106.458 4.91193 106.458 5.06818C106.458 5.22443 106.399 5.35819 106.28 5.46946C106.164 5.58073 106.024 5.63636 105.861 5.63636ZM110.33 6.54545V7.25568H107.503V6.54545H110.33ZM108.327 5.23864H109.165V10.4375C109.165 10.6742 109.2 10.8518 109.268 10.9702C109.339 11.0862 109.429 11.1643 109.538 11.2045C109.65 11.2424 109.767 11.2614 109.89 11.2614C109.982 11.2614 110.058 11.2566 110.117 11.2472C110.176 11.2353 110.224 11.2259 110.259 11.2188L110.43 11.9716C110.373 11.9929 110.293 12.0142 110.192 12.0355C110.09 12.0592 109.961 12.071 109.805 12.071C109.568 12.071 109.336 12.0201 109.109 11.9183C108.884 11.8165 108.697 11.6615 108.548 11.4531C108.401 11.2448 108.327 10.982 108.327 10.6648V5.23864ZM112.696 4.72727V12H111.858V4.72727H112.696ZM116.668 12.1136C116.142 12.1136 115.689 11.9976 115.308 11.7656C114.929 11.5312 114.637 11.2045 114.431 10.7855C114.227 10.3641 114.125 9.87405 114.125 9.31534C114.125 8.75663 114.227 8.2642 114.431 7.83807C114.637 7.40956 114.923 7.07576 115.29 6.83665C115.659 6.59517 116.09 6.47443 116.583 6.47443C116.867 6.47443 117.147 6.52178 117.424 6.61648C117.701 6.71117 117.954 6.86506 118.181 7.07812C118.408 7.28883 118.589 7.56818 118.724 7.91619C118.859 8.2642 118.927 8.69271 118.927 9.2017V9.55682H114.722V8.83239H118.074C118.074 8.52462 118.013 8.25 117.89 8.00852C117.769 7.76705 117.596 7.57647 117.371 7.43679C117.149 7.29711 116.886 7.22727 116.583 7.22727C116.249 7.22727 115.96 7.31013 115.716 7.47585C115.475 7.6392 115.289 7.85227 115.159 8.11506C115.029 8.37784 114.963 8.65956 114.963 8.96023V9.44318C114.963 9.85511 115.034 10.2043 115.177 10.4908C115.321 10.7749 115.521 10.9915 115.777 11.1406C116.032 11.2874 116.329 11.3608 116.668 11.3608C116.888 11.3608 117.087 11.33 117.265 11.2685C117.445 11.2045 117.6 11.1098 117.73 10.9844C117.86 10.8565 117.961 10.6979 118.032 10.5085L118.841 10.7358C118.756 11.0104 118.613 11.2519 118.412 11.4602C118.21 11.6662 117.962 11.8272 117.666 11.9432C117.37 12.0568 117.037 12.1136 116.668 12.1136Z" fill="#1F2024"/>
<mask id="mask1_252_7543" style="mask-type:alpha" maskUnits="userSpaceOnUse" x="45" y="25" width="15" height="14">
<path d="M58.8665 25.3334H45.8295C45.6134 25.3334 45.4061 25.416 45.2533 25.5631C45.1005 25.7102 45.0146 25.9097 45.0146 26.1177V28.4706C45.0146 28.6786 45.1005 28.8781 45.2533 29.0252C45.4061 29.1723 45.6134 29.2549 45.8295 29.2549C46.0456 29.2549 46.2528 29.1723 46.4056 29.0252C46.5584 28.8781 46.6443 28.6786 46.6443 28.4706V26.902H51.5332V37.0981H49.9035C49.6874 37.0981 49.4802 37.1807 49.3274 37.3278C49.1746 37.4749 49.0887 37.6744 49.0887 37.8824C49.0887 38.0904 49.1746 38.2899 49.3274 38.437C49.4802 38.5841 49.6874 38.6667 49.9035 38.6667H54.7924C55.0085 38.6667 55.2158 38.5841 55.3686 38.437C55.5214 38.2899 55.6072 38.0904 55.6072 37.8824C55.6072 37.6744 55.5214 37.4749 55.3686 37.3278C55.2158 37.1807 55.0085 37.0981 54.7924 37.0981H53.1628V26.902H58.0517V28.4706C58.0517 28.6786 58.1375 28.8781 58.2903 29.0252C58.4431 29.1723 58.6504 29.2549 58.8665 29.2549C59.0826 29.2549 59.2899 29.1723 59.4427 29.0252C59.5955 28.8781 59.6813 28.6786 59.6813 28.4706V26.1177C59.6813 25.9097 59.5955 25.7102 59.4427 25.5631C59.2899 25.416 59.0826 25.3334 58.8665 25.3334Z" fill="black"/>
</mask>
<g mask="url(#mask1_252_7543)">
<rect x="44.348" y="24" width="16" height="16" fill="#8F9098"/>
</g>
<path d="M68.831 29.5085V28.7273H74.2855V29.5085H71.9986V36H71.1179V29.5085H68.831ZM75.6811 36V30.5455H76.5192V36H75.6811ZM76.1072 29.6364C75.9439 29.6364 75.803 29.5807 75.6846 29.4695C75.5686 29.3582 75.5106 29.2244 75.5106 29.0682C75.5106 28.9119 75.5686 28.7782 75.6846 28.6669C75.803 28.5556 75.9439 28.5 76.1072 28.5C76.2706 28.5 76.4103 28.5556 76.5263 28.6669C76.6446 28.7782 76.7038 28.9119 76.7038 29.0682C76.7038 29.2244 76.6446 29.3582 76.5263 29.4695C76.4103 29.5807 76.2706 29.6364 76.1072 29.6364ZM80.5763 30.5455V31.2557H77.7496V30.5455H80.5763ZM78.5734 29.2386H79.4115V34.4375C79.4115 34.6742 79.4458 34.8518 79.5145 34.9702C79.5855 35.0862 79.6755 35.1643 79.7844 35.2045C79.8957 35.2424 80.0128 35.2614 80.1359 35.2614C80.2283 35.2614 80.304 35.2566 80.3632 35.2472C80.4224 35.2353 80.4698 35.2259 80.5053 35.2188L80.6757 35.9716C80.6189 35.9929 80.5396 36.0142 80.4378 36.0355C80.336 36.0592 80.207 36.071 80.0507 36.071C79.814 36.071 79.582 36.0201 79.3547 35.9183C79.1298 35.8165 78.9428 35.6615 78.7936 35.4531C78.6468 35.2448 78.5734 34.982 78.5734 34.6648V29.2386ZM82.9422 28.7273V36H82.1041V28.7273H82.9422ZM86.9141 36.1136C86.3885 36.1136 85.9352 35.9976 85.554 35.7656C85.1752 35.5312 84.8829 35.2045 84.6769 34.7855C84.4733 34.3641 84.3715 33.8741 84.3715 33.3153C84.3715 32.7566 84.4733 32.2642 84.6769 31.8381C84.8829 31.4096 85.1693 31.0758 85.5363 30.8366C85.9056 30.5952 86.3365 30.4744 86.8289 30.4744C87.113 30.4744 87.3935 30.5218 87.6705 30.6165C87.9475 30.7112 88.1996 30.8651 88.4269 31.0781C88.6542 31.2888 88.8353 31.5682 88.9702 31.9162C89.1052 32.2642 89.1726 32.6927 89.1726 33.2017V33.5568H84.9681V32.8324H88.3204C88.3204 32.5246 88.2588 32.25 88.1357 32.0085C88.015 31.767 87.8421 31.5765 87.6172 31.4368C87.3947 31.2971 87.1319 31.2273 86.8289 31.2273C86.4951 31.2273 86.2062 31.3101 85.9624 31.4759C85.7209 31.6392 85.5351 31.8523 85.4049 32.1151C85.2747 32.3778 85.2096 32.6596 85.2096 32.9602V33.4432C85.2096 33.8551 85.2806 34.2043 85.4226 34.4908C85.567 34.7749 85.7671 34.9915 86.0228 35.1406C86.2785 35.2874 86.5756 35.3608 86.9141 35.3608C87.1343 35.3608 87.3331 35.33 87.5107 35.2685C87.6906 35.2045 87.8457 35.1098 87.9759 34.9844C88.1061 34.8565 88.2067 34.6979 88.2777 34.5085L89.0874 34.7358C89.0022 35.0104 88.8589 35.2519 88.6577 35.4602C88.4565 35.6662 88.2079 35.8272 87.912 35.9432C87.6161 36.0568 87.2834 36.1136 86.9141 36.1136Z" fill="#1F2024"/>
<path d="M10.9213 94.7267V32.1311M36.8462 9.14648H18.9213C14.503 9.14648 10.9213 12.7282 10.9213 17.1465V32.1311M10.9213 32.1311H36.8462" stroke="#8F9098"/>
<mask id="mask2_252_7543" style="mask-type:alpha" maskUnits="userSpaceOnUse" x="105" y="57" width="17" height="12">
<path d="M113.635 60.5451C113.056 60.5451 112.501 60.7749 112.092 61.1841C111.683 61.5933 111.453 62.1482 111.453 62.7269C111.453 63.3055 111.683 63.8605 112.092 64.2697C112.501 64.6788 113.056 64.9087 113.635 64.9087C114.213 64.9087 114.768 64.6788 115.177 64.2697C115.587 63.8605 115.816 63.3055 115.816 62.7269C115.816 62.1482 115.587 61.5933 115.177 61.1841C114.768 60.7749 114.213 60.5451 113.635 60.5451ZM113.635 66.3632C112.67 66.3632 111.745 65.9801 111.063 65.2982C110.381 64.6162 109.998 63.6913 109.998 62.7269C109.998 61.7625 110.381 60.8375 111.063 60.1556C111.745 59.4736 112.67 59.0905 113.635 59.0905C114.599 59.0905 115.524 59.4736 116.206 60.1556C116.888 60.8375 117.271 61.7625 117.271 62.7269C117.271 63.6913 116.888 64.6162 116.206 65.2982C115.524 65.9801 114.599 66.3632 113.635 66.3632ZM113.635 57.2723C110.1 57.2723 106.929 59.4542 105.635 62.7269C107.373 67.1487 112.362 69.316 116.784 67.5778C119.002 66.7051 120.762 64.9523 121.635 62.7269C120.34 59.4542 117.169 57.2723 113.635 57.2723Z" fill="#006FFD"/>
</mask>
<g mask="url(#mask2_252_7543)">
<rect x="105.635" y="54.7267" width="16" height="16" fill="#8F9098"/>
</g>
<path d="M134.493 61.2721C134.45 60.9123 134.277 60.6329 133.974 60.4341C133.671 60.2352 133.299 60.1358 132.859 60.1358C132.537 60.1358 132.255 60.1879 132.014 60.292C131.775 60.3962 131.588 60.5394 131.453 60.7217C131.32 60.904 131.254 61.1112 131.254 61.3432C131.254 61.5373 131.3 61.7042 131.392 61.8439C131.487 61.9812 131.608 62.096 131.755 62.1883C131.901 62.2783 132.055 62.3529 132.216 62.4121C132.377 62.4689 132.525 62.515 132.66 62.5505L133.399 62.7494C133.588 62.7991 133.799 62.8678 134.031 62.9554C134.265 63.043 134.489 63.1625 134.702 63.314C134.918 63.4632 135.095 63.655 135.235 63.8893C135.374 64.1237 135.444 64.4113 135.444 64.7523C135.444 65.1452 135.341 65.5004 135.135 65.8176C134.932 66.1348 134.633 66.387 134.24 66.574C133.85 66.761 133.375 66.8545 132.816 66.8545C132.296 66.8545 131.845 66.7705 131.463 66.6024C131.085 66.4343 130.786 66.1999 130.569 65.8993C130.353 65.5986 130.231 65.2494 130.203 64.8517H131.112C131.136 65.1263 131.228 65.3536 131.389 65.5335C131.552 65.7111 131.758 65.8436 132.007 65.9312C132.258 66.0165 132.528 66.0591 132.816 66.0591C133.153 66.0591 133.454 66.0046 133.722 65.8957C133.99 65.7844 134.201 65.6306 134.358 65.4341C134.514 65.2352 134.592 65.0032 134.592 64.738C134.592 64.4966 134.525 64.3001 134.39 64.1486C134.255 63.997 134.077 63.8739 133.857 63.7792C133.637 63.6845 133.399 63.6017 133.143 63.5307L132.248 63.275C131.68 63.1116 131.23 62.8784 130.899 62.5754C130.567 62.2724 130.402 61.8758 130.402 61.3858C130.402 60.9786 130.512 60.6235 130.732 60.3204C130.954 60.015 131.253 59.7783 131.627 59.6102C132.003 59.4398 132.423 59.3545 132.887 59.3545C133.356 59.3545 133.773 59.4386 134.137 59.6067C134.502 59.7724 134.791 59.9996 135.004 60.2885C135.219 60.5773 135.333 60.9052 135.345 61.2721H134.493ZM137.767 63.4454V66.7267H136.929V59.454H137.767V62.1244H137.838C137.966 61.8427 138.157 61.619 138.413 61.4532C138.671 61.2852 139.014 61.2011 139.443 61.2011C139.815 61.2011 140.14 61.2757 140.419 61.4248C140.699 61.5716 140.915 61.7977 141.069 62.1031C141.226 62.4061 141.304 62.792 141.304 63.2608V66.7267H140.466V63.3176C140.466 62.8844 140.353 62.5494 140.128 62.3126C139.906 62.0735 139.597 61.954 139.201 61.954C138.927 61.954 138.681 62.012 138.463 62.128C138.247 62.244 138.077 62.4132 137.951 62.6358C137.828 62.8583 137.767 63.1282 137.767 63.4454ZM145.203 66.8403C144.71 66.8403 144.278 66.7231 143.907 66.4888C143.537 66.2544 143.248 65.9265 143.04 65.5051C142.834 65.0837 142.731 64.5913 142.731 64.0278C142.731 63.4596 142.834 62.9637 143.04 62.5399C143.248 62.1161 143.537 61.7871 143.907 61.5527C144.278 61.3183 144.71 61.2011 145.203 61.2011C145.695 61.2011 146.126 61.3183 146.495 61.5527C146.867 61.7871 147.156 62.1161 147.362 62.5399C147.57 62.9637 147.674 63.4596 147.674 64.0278C147.674 64.5913 147.57 65.0837 147.362 65.5051C147.156 65.9265 146.867 66.2544 146.495 66.4888C146.126 66.7231 145.695 66.8403 145.203 66.8403ZM145.203 66.0875C145.577 66.0875 145.885 65.9916 146.126 65.7998C146.368 65.6081 146.546 65.3559 146.662 65.0434C146.778 64.7309 146.836 64.3924 146.836 64.0278C146.836 63.6632 146.778 63.3235 146.662 63.0086C146.546 62.6938 146.368 62.4393 146.126 62.2452C145.885 62.051 145.577 61.954 145.203 61.954C144.829 61.954 144.521 62.051 144.279 62.2452C144.038 62.4393 143.859 62.6938 143.743 63.0086C143.627 63.3235 143.569 63.6632 143.569 64.0278C143.569 64.3924 143.627 64.7309 143.743 65.0434C143.859 65.3559 144.038 65.6081 144.279 65.7998C144.521 65.9916 144.829 66.0875 145.203 66.0875ZM150.154 66.7267L148.492 61.2721H149.373L150.552 65.4483H150.608L151.773 61.2721H152.668L153.819 65.4341H153.875L155.054 61.2721H155.935L154.273 66.7267H153.449L152.256 62.5363H152.171L150.978 66.7267H150.154ZM160.269 66.7267V59.454H162.727C163.297 59.454 163.764 59.5569 164.126 59.7629C164.49 59.9665 164.76 60.2423 164.935 60.5903C165.111 60.9383 165.198 61.3266 165.198 61.7551C165.198 62.1836 165.111 62.573 164.935 62.9234C164.763 63.2738 164.495 63.5532 164.133 63.7615C163.771 63.9675 163.307 64.0704 162.741 64.0704H160.979V63.2892H162.712C163.103 63.2892 163.417 63.2217 163.653 63.0868C163.89 62.9518 164.062 62.7695 164.168 62.5399C164.277 62.3079 164.332 62.0463 164.332 61.7551C164.332 61.4639 164.277 61.2035 164.168 60.9738C164.062 60.7442 163.889 60.5643 163.65 60.4341C163.411 60.3015 163.094 60.2352 162.698 60.2352H161.15V66.7267H160.269ZM167.491 59.454V66.7267H166.653V59.454H167.491ZM170.781 66.8545C170.436 66.8545 170.122 66.7894 169.84 66.6592C169.559 66.5266 169.335 66.3361 169.169 66.0875C169.003 65.8365 168.921 65.5335 168.921 65.1784C168.921 64.8659 168.982 64.6126 169.105 64.4184C169.228 64.2219 169.393 64.0681 169.599 63.9568C169.805 63.8455 170.032 63.7627 170.281 63.7082C170.532 63.6514 170.784 63.6064 171.037 63.5733C171.369 63.5307 171.637 63.4987 171.843 63.4774C172.052 63.4537 172.203 63.4147 172.298 63.3602C172.395 63.3058 172.443 63.2111 172.443 63.0761V63.0477C172.443 62.6973 172.347 62.4251 172.156 62.2309C171.966 62.0368 171.679 61.9398 171.293 61.9398C170.893 61.9398 170.579 62.0273 170.352 62.2025C170.124 62.3777 169.965 62.5648 169.872 62.7636L169.077 62.4795C169.219 62.1481 169.408 61.89 169.645 61.7054C169.884 61.5184 170.145 61.3881 170.426 61.3148C170.71 61.239 170.99 61.2011 171.264 61.2011C171.44 61.2011 171.641 61.2224 171.868 61.265C172.098 61.3053 172.319 61.3893 172.532 61.5172C172.748 61.645 172.926 61.838 173.068 62.096C173.21 62.3541 173.281 62.6997 173.281 63.1329V66.7267H172.443V65.988H172.401C172.344 66.1064 172.249 66.2331 172.117 66.368C171.984 66.503 171.808 66.6178 171.588 66.7125C171.367 66.8072 171.099 66.8545 170.781 66.8545ZM170.909 66.1017C171.241 66.1017 171.52 66.0366 171.747 65.9064C171.977 65.7762 172.15 65.6081 172.266 65.4021C172.384 65.1961 172.443 64.9795 172.443 64.7523V63.9852C172.408 64.0278 172.33 64.0669 172.209 64.1024C172.091 64.1355 171.953 64.1651 171.797 64.1912C171.643 64.2148 171.493 64.2362 171.346 64.2551C171.202 64.2717 171.084 64.2859 170.994 64.2977C170.777 64.3261 170.573 64.3723 170.384 64.4362C170.197 64.4978 170.045 64.5913 169.929 64.7167C169.816 64.8398 169.759 65.0079 169.759 65.221C169.759 65.5122 169.866 65.7324 170.082 65.8815C170.3 66.0283 170.575 66.1017 170.909 66.1017ZM177.177 66.8403C176.666 66.8403 176.225 66.7196 175.856 66.4781C175.487 66.2366 175.203 65.904 175.004 65.4802C174.805 65.0565 174.705 64.5723 174.705 64.0278C174.705 63.4738 174.807 62.985 175.011 62.5612C175.217 62.1351 175.503 61.8024 175.87 61.5633C176.239 61.3219 176.67 61.2011 177.163 61.2011C177.546 61.2011 177.892 61.2721 178.2 61.4142C178.507 61.5562 178.76 61.7551 178.956 62.0108C179.153 62.2665 179.275 62.5648 179.322 62.9057H178.484C178.42 62.6571 178.278 62.4369 178.058 62.2452C177.84 62.051 177.546 61.954 177.177 61.954C176.85 61.954 176.564 62.0392 176.318 62.2096C176.074 62.3777 175.883 62.6157 175.746 62.9234C175.611 63.2288 175.543 63.5875 175.543 63.9994C175.543 64.4208 175.61 64.7878 175.742 65.1003C175.877 65.4128 176.067 65.6554 176.31 65.8282C176.557 66.0011 176.846 66.0875 177.177 66.0875C177.395 66.0875 177.592 66.0496 177.77 65.9738C177.948 65.8981 178.098 65.7892 178.221 65.6471C178.344 65.5051 178.432 65.3346 178.484 65.1358H179.322C179.275 65.4577 179.157 65.7478 178.97 66.0058C178.786 66.2615 178.541 66.4651 178.235 66.6166C177.932 66.7657 177.579 66.8403 177.177 66.8403ZM182.984 66.8403C182.458 66.8403 182.005 66.7243 181.624 66.4923C181.245 66.2579 180.953 65.9312 180.747 65.5122C180.543 65.0908 180.441 64.6007 180.441 64.042C180.441 63.4833 180.543 62.9909 180.747 62.5648C180.953 62.1362 181.239 61.8024 181.606 61.5633C181.975 61.3219 182.406 61.2011 182.899 61.2011C183.183 61.2011 183.463 61.2485 183.74 61.3432C184.017 61.4379 184.269 61.5917 184.497 61.8048C184.724 62.0155 184.905 62.2949 185.04 62.6429C185.175 62.9909 185.242 63.4194 185.242 63.9284V64.2835H181.038V63.5591H184.39C184.39 63.2513 184.329 62.9767 184.206 62.7352C184.085 62.4937 183.912 62.3032 183.687 62.1635C183.465 62.0238 183.202 61.954 182.899 61.954C182.565 61.954 182.276 62.0368 182.032 62.2025C181.791 62.3659 181.605 62.579 181.475 62.8417C181.344 63.1045 181.279 63.3862 181.279 63.6869V64.1699C181.279 64.5818 181.35 64.931 181.492 65.2175C181.637 65.5015 181.837 65.7182 182.093 65.8673C182.348 66.0141 182.645 66.0875 182.984 66.0875C183.204 66.0875 183.403 66.0567 183.581 65.9952C183.76 65.9312 183.916 65.8365 184.046 65.7111C184.176 65.5832 184.277 65.4246 184.348 65.2352L185.157 65.4625C185.072 65.7371 184.929 65.9786 184.728 66.1869C184.526 66.3929 184.278 66.5539 183.982 66.6699C183.686 66.7835 183.353 66.8403 182.984 66.8403ZM187.505 63.4454V66.7267H186.667V59.454H187.505V62.1244H187.576C187.704 61.8427 187.896 61.619 188.152 61.4532C188.41 61.2852 188.753 61.2011 189.182 61.2011C189.553 61.2011 189.879 61.2757 190.158 61.4248C190.437 61.5716 190.654 61.7977 190.808 62.1031C190.964 62.4061 191.042 62.792 191.042 63.2608V66.7267H190.204V63.3176C190.204 62.8844 190.092 62.5494 189.867 62.3126C189.644 62.0735 189.335 61.954 188.94 61.954C188.665 61.954 188.419 62.012 188.201 62.128C187.986 62.244 187.816 62.4132 187.69 62.6358C187.567 62.8583 187.505 63.1282 187.505 63.4454ZM194.941 66.8403C194.449 66.8403 194.017 66.7231 193.645 66.4888C193.276 66.2544 192.987 65.9265 192.779 65.5051C192.573 65.0837 192.47 64.5913 192.47 64.0278C192.47 63.4596 192.573 62.9637 192.779 62.5399C192.987 62.1161 193.276 61.7871 193.645 61.5527C194.017 61.3183 194.449 61.2011 194.941 61.2011C195.434 61.2011 195.865 61.3183 196.234 61.5527C196.606 61.7871 196.895 62.1161 197.101 62.5399C197.309 62.9637 197.413 63.4596 197.413 64.0278C197.413 64.5913 197.309 65.0837 197.101 65.5051C196.895 65.9265 196.606 66.2544 196.234 66.4888C195.865 66.7231 195.434 66.8403 194.941 66.8403ZM194.941 66.0875C195.315 66.0875 195.623 65.9916 195.865 65.7998C196.106 65.6081 196.285 65.3559 196.401 65.0434C196.517 64.7309 196.575 64.3924 196.575 64.0278C196.575 63.6632 196.517 63.3235 196.401 63.0086C196.285 62.6938 196.106 62.4393 195.865 62.2452C195.623 62.051 195.315 61.954 194.941 61.954C194.567 61.954 194.26 62.051 194.018 62.2452C193.777 62.4393 193.598 62.6938 193.482 63.0086C193.366 63.3235 193.308 63.6632 193.308 64.0278C193.308 64.3924 193.366 64.7309 193.482 65.0434C193.598 65.3559 193.777 65.6081 194.018 65.7998C194.26 65.9916 194.567 66.0875 194.941 66.0875ZM199.68 59.454V66.7267H198.842V59.454H199.68ZM203.425 66.8403C202.97 66.8403 202.569 66.7255 202.221 66.4959C201.873 66.2639 201.601 65.9371 201.404 65.5157C201.208 65.092 201.11 64.5913 201.11 64.0136C201.11 63.4407 201.208 62.9435 201.404 62.5221C201.601 62.1007 201.874 61.7752 202.225 61.5456C202.575 61.3159 202.98 61.2011 203.439 61.2011C203.794 61.2011 204.075 61.2603 204.281 61.3787C204.489 61.4947 204.648 61.6273 204.757 61.7764C204.868 61.9232 204.954 62.0439 205.016 62.1386H205.087V59.454H205.925V66.7267H205.115V65.8886H205.016C204.954 65.988 204.867 66.1135 204.753 66.265C204.64 66.4142 204.477 66.5479 204.267 66.6663C204.056 66.7823 203.775 66.8403 203.425 66.8403ZM203.539 66.0875C203.875 66.0875 204.159 65.9999 204.391 65.8247C204.623 65.6471 204.799 65.4021 204.92 65.0896C205.041 64.7747 205.101 64.4113 205.101 63.9994C205.101 63.5922 205.042 63.2359 204.924 62.9305C204.805 62.6228 204.63 62.3836 204.398 62.2132C204.166 62.0404 203.88 61.954 203.539 61.954C203.184 61.954 202.888 62.0451 202.651 62.2274C202.416 62.4073 202.24 62.6523 202.122 62.9625C202.006 63.2702 201.948 63.6159 201.948 63.9994C201.948 64.3877 202.007 64.7404 202.125 65.0577C202.246 65.3725 202.424 65.6235 202.658 65.8105C202.895 65.9952 203.188 66.0875 203.539 66.0875ZM210.013 66.8403C209.488 66.8403 209.034 66.7243 208.653 66.4923C208.274 66.2579 207.982 65.9312 207.776 65.5122C207.572 65.0908 207.471 64.6007 207.471 64.042C207.471 63.4833 207.572 62.9909 207.776 62.5648C207.982 62.1362 208.268 61.8024 208.635 61.5633C209.005 61.3219 209.436 61.2011 209.928 61.2011C210.212 61.2011 210.493 61.2485 210.77 61.3432C211.047 61.4379 211.299 61.5917 211.526 61.8048C211.753 62.0155 211.934 62.2949 212.069 62.6429C212.204 62.9909 212.272 63.4194 212.272 63.9284V64.2835H208.067V63.5591H211.419C211.419 63.2513 211.358 62.9767 211.235 62.7352C211.114 62.4937 210.941 62.3032 210.716 62.1635C210.494 62.0238 210.231 61.954 209.928 61.954C209.594 61.954 209.305 62.0368 209.062 62.2025C208.82 62.3659 208.634 62.579 208.504 62.8417C208.374 63.1045 208.309 63.3862 208.309 63.6869V64.1699C208.309 64.5818 208.38 64.931 208.522 65.2175C208.666 65.5015 208.866 65.7182 209.122 65.8673C209.378 66.0141 209.675 66.0875 210.013 66.0875C210.233 66.0875 210.432 66.0567 210.61 65.9952C210.79 65.9312 210.945 65.8365 211.075 65.7111C211.205 65.5832 211.306 65.4246 211.377 65.2352L212.187 65.4625C212.101 65.7371 211.958 65.9786 211.757 66.1869C211.556 66.3929 211.307 66.5539 211.011 66.6699C210.715 66.7835 210.383 66.8403 210.013 66.8403ZM213.697 66.7267V61.2721H214.506V62.096H214.563C214.663 61.8261 214.842 61.6071 215.103 61.439C215.363 61.271 215.657 61.1869 215.984 61.1869C216.045 61.1869 216.122 61.1881 216.214 61.1905C216.307 61.1928 216.377 61.1964 216.424 61.2011V62.0534C216.395 62.0463 216.33 62.0356 216.229 62.0214C216.129 62.0049 216.024 61.9966 215.913 61.9966C215.647 61.9966 215.411 62.0522 215.202 62.1635C214.996 62.2724 214.833 62.4239 214.712 62.618C214.594 62.8098 214.535 63.0288 214.535 63.275V66.7267H213.697Z" fill="#1F2024"/>
<mask id="mask3_252_7543" style="mask-type:alpha" maskUnits="userSpaceOnUse" x="106" y="80" width="15" height="14">
<path d="M120.153 80.0601H107.116C106.9 80.0601 106.693 80.1427 106.54 80.2898C106.387 80.4369 106.301 80.6364 106.301 80.8444V83.1973C106.301 83.4053 106.387 83.6048 106.54 83.7519C106.693 83.899 106.9 83.9816 107.116 83.9816C107.332 83.9816 107.539 83.899 107.692 83.7519C107.845 83.6048 107.931 83.4053 107.931 83.1973V81.6287H112.82V91.8248H111.19C110.974 91.8248 110.767 91.9074 110.614 92.0545C110.461 92.2016 110.375 92.4011 110.375 92.6091C110.375 92.8171 110.461 93.0166 110.614 93.1637C110.767 93.3108 110.974 93.3934 111.19 93.3934H116.079C116.295 93.3934 116.502 93.3108 116.655 93.1637C116.808 93.0166 116.894 92.8171 116.894 92.6091C116.894 92.4011 116.808 92.2016 116.655 92.0545C116.502 91.9074 116.295 91.8248 116.079 91.8248H114.449V81.6287H119.338V83.1973C119.338 83.4053 119.424 83.6048 119.577 83.7519C119.73 83.899 119.937 83.9816 120.153 83.9816C120.369 83.9816 120.576 83.899 120.729 83.7519C120.882 83.6048 120.968 83.4053 120.968 83.1973V80.8444C120.968 80.6364 120.882 80.4369 120.729 80.2898C120.576 80.1427 120.369 80.0601 120.153 80.0601Z" fill="black"/>
</mask>
<g mask="url(#mask3_252_7543)">
<rect x="105.635" y="78.7267" width="16" height="16" fill="#8F9098"/>
</g>
<path d="M130.515 90.7267V83.454H132.973C133.543 83.454 134.01 83.5569 134.372 83.7629C134.736 83.9665 135.006 84.2423 135.182 84.5903C135.357 84.9383 135.444 85.3266 135.444 85.7551C135.444 86.1836 135.357 86.573 135.182 86.9234C135.009 87.2738 134.741 87.5532 134.379 87.7615C134.017 87.9675 133.553 88.0704 132.987 88.0704H131.226V87.2892H132.959C133.349 87.2892 133.663 87.2217 133.9 87.0868C134.136 86.9518 134.308 86.7695 134.414 86.5399C134.523 86.3079 134.578 86.0463 134.578 85.7551C134.578 85.4639 134.523 85.2035 134.414 84.9738C134.308 84.7442 134.135 84.5643 133.896 84.4341C133.657 84.3015 133.34 84.2352 132.944 84.2352H131.396V90.7267H130.515ZM137.737 83.454V90.7267H136.899V83.454H137.737ZM141.028 90.8545C140.682 90.8545 140.368 90.7894 140.086 90.6592C139.805 90.5266 139.581 90.3361 139.415 90.0875C139.25 89.8365 139.167 89.5335 139.167 89.1784C139.167 88.8659 139.228 88.6126 139.351 88.4184C139.474 88.2219 139.639 88.0681 139.845 87.9568C140.051 87.8455 140.278 87.7627 140.527 87.7082C140.778 87.6514 141.03 87.6064 141.283 87.5733C141.615 87.5307 141.883 87.4987 142.089 87.4774C142.298 87.4537 142.449 87.4147 142.544 87.3602C142.641 87.3058 142.689 87.2111 142.689 87.0761V87.0477C142.689 86.6973 142.594 86.4251 142.402 86.2309C142.212 86.0368 141.925 85.9398 141.539 85.9398C141.139 85.9398 140.825 86.0273 140.598 86.2025C140.371 86.3777 140.211 86.5648 140.118 86.7636L139.323 86.4795C139.465 86.1481 139.654 85.89 139.891 85.7054C140.13 85.5184 140.391 85.3881 140.672 85.3148C140.956 85.239 141.236 85.2011 141.51 85.2011C141.686 85.2011 141.887 85.2224 142.114 85.265C142.344 85.3053 142.565 85.3893 142.778 85.5172C142.994 85.645 143.172 85.838 143.314 86.096C143.456 86.3541 143.528 86.6997 143.528 87.1329V90.7267H142.689V89.988H142.647C142.59 90.1064 142.495 90.2331 142.363 90.368C142.23 90.503 142.054 90.6178 141.834 90.7125C141.613 90.8072 141.345 90.8545 141.028 90.8545ZM141.155 90.1017C141.487 90.1017 141.766 90.0366 141.993 89.9064C142.223 89.7762 142.396 89.6081 142.512 89.4021C142.63 89.1961 142.689 88.9795 142.689 88.7523V87.9852C142.654 88.0278 142.576 88.0669 142.455 88.1024C142.337 88.1355 142.199 88.1651 142.043 88.1912C141.889 88.2148 141.739 88.2362 141.592 88.2551C141.448 88.2717 141.331 88.2859 141.241 88.2977C141.023 88.3261 140.819 88.3723 140.63 88.4362C140.443 88.4978 140.291 88.5913 140.175 88.7167C140.062 88.8398 140.005 89.0079 140.005 89.221C140.005 89.5122 140.112 89.7324 140.328 89.8815C140.546 90.0283 140.822 90.1017 141.155 90.1017ZM147.423 90.8403C146.912 90.8403 146.471 90.7196 146.102 90.4781C145.733 90.2366 145.449 89.904 145.25 89.4802C145.051 89.0565 144.951 88.5723 144.951 88.0278C144.951 87.4738 145.053 86.985 145.257 86.5612C145.463 86.1351 145.749 85.8024 146.116 85.5633C146.486 85.3219 146.916 85.2011 147.409 85.2011C147.792 85.2011 148.138 85.2721 148.446 85.4142C148.754 85.5562 149.006 85.7551 149.202 86.0108C149.399 86.2665 149.521 86.5648 149.568 86.9057H148.73C148.666 86.6571 148.524 86.4369 148.304 86.2452C148.086 86.051 147.792 85.954 147.423 85.954C147.096 85.954 146.81 86.0392 146.564 86.2096C146.32 86.3777 146.129 86.6157 145.992 86.9234C145.857 87.2288 145.79 87.5875 145.79 87.9994C145.79 88.4208 145.856 88.7878 145.988 89.1003C146.123 89.4128 146.313 89.6554 146.557 89.8282C146.803 90.0011 147.092 90.0875 147.423 90.0875C147.641 90.0875 147.839 90.0496 148.016 89.9738C148.194 89.8981 148.344 89.7892 148.467 89.6471C148.59 89.5051 148.678 89.3346 148.73 89.1358H149.568C149.521 89.4577 149.403 89.7478 149.216 90.0058C149.032 90.2615 148.787 90.4651 148.481 90.6166C148.178 90.7657 147.826 90.8403 147.423 90.8403ZM153.23 90.8403C152.704 90.8403 152.251 90.7243 151.87 90.4923C151.491 90.2579 151.199 89.9312 150.993 89.5122C150.789 89.0908 150.687 88.6007 150.687 88.042C150.687 87.4833 150.789 86.9909 150.993 86.5648C151.199 86.1362 151.485 85.8024 151.852 85.5633C152.222 85.3219 152.652 85.2011 153.145 85.2011C153.429 85.2011 153.709 85.2485 153.986 85.3432C154.263 85.4379 154.516 85.5917 154.743 85.8048C154.97 86.0155 155.151 86.2949 155.286 86.6429C155.421 86.9909 155.489 87.4194 155.489 87.9284V88.2835H151.284V87.5591H154.636C154.636 87.2513 154.575 86.9767 154.452 86.7352C154.331 86.4937 154.158 86.3032 153.933 86.1635C153.711 86.0238 153.448 85.954 153.145 85.954C152.811 85.954 152.522 86.0368 152.278 86.2025C152.037 86.3659 151.851 86.579 151.721 86.8417C151.591 87.1045 151.525 87.3862 151.525 87.6869V88.1699C151.525 88.5818 151.597 88.931 151.739 89.2175C151.883 89.5015 152.083 89.7182 152.339 89.8673C152.594 90.0141 152.891 90.0875 153.23 90.0875C153.45 90.0875 153.649 90.0567 153.827 89.9952C154.007 89.9312 154.162 89.8365 154.292 89.7111C154.422 89.5832 154.523 89.4246 154.594 89.2352L155.403 89.4625C155.318 89.7371 155.175 89.9786 154.974 90.1869C154.772 90.3929 154.524 90.5539 154.228 90.6699C153.932 90.7835 153.599 90.8403 153.23 90.8403ZM157.751 87.4454V90.7267H156.913V83.454H157.751V86.1244H157.822C157.95 85.8427 158.142 85.619 158.398 85.4532C158.656 85.2852 158.999 85.2011 159.428 85.2011C159.799 85.2011 160.125 85.2757 160.404 85.4248C160.684 85.5716 160.9 85.7977 161.054 86.1031C161.21 86.4061 161.288 86.792 161.288 87.2608V90.7267H160.45V87.3176C160.45 86.8844 160.338 86.5494 160.113 86.3126C159.89 86.0735 159.581 85.954 159.186 85.954C158.912 85.954 158.665 86.012 158.447 86.128C158.232 86.244 158.062 86.4132 157.936 86.6358C157.813 86.8583 157.751 87.1282 157.751 87.4454ZM165.188 90.8403C164.695 90.8403 164.263 90.7231 163.891 90.4888C163.522 90.2544 163.233 89.9265 163.025 89.5051C162.819 89.0837 162.716 88.5913 162.716 88.0278C162.716 87.4596 162.819 86.9637 163.025 86.5399C163.233 86.1161 163.522 85.7871 163.891 85.5527C164.263 85.3183 164.695 85.2011 165.188 85.2011C165.68 85.2011 166.111 85.3183 166.48 85.5527C166.852 85.7871 167.141 86.1161 167.347 86.5399C167.555 86.9637 167.659 87.4596 167.659 88.0278C167.659 88.5913 167.555 89.0837 167.347 89.5051C167.141 89.9265 166.852 90.2544 166.48 90.4888C166.111 90.7231 165.68 90.8403 165.188 90.8403ZM165.188 90.0875C165.562 90.0875 165.869 89.9916 166.111 89.7998C166.352 89.6081 166.531 89.3559 166.647 89.0434C166.763 88.7309 166.821 88.3924 166.821 88.0278C166.821 87.6632 166.763 87.3235 166.647 87.0086C166.531 86.6938 166.352 86.4393 166.111 86.2452C165.869 86.051 165.562 85.954 165.188 85.954C164.813 85.954 164.506 86.051 164.264 86.2452C164.023 86.4393 163.844 86.6938 163.728 87.0086C163.612 87.3235 163.554 87.6632 163.554 88.0278C163.554 88.3924 163.612 88.7309 163.728 89.0434C163.844 89.3559 164.023 89.6081 164.264 89.7998C164.506 89.9916 164.813 90.0875 165.188 90.0875ZM169.926 83.454V90.7267H169.088V83.454H169.926ZM173.671 90.8403C173.217 90.8403 172.815 90.7255 172.467 90.4959C172.119 90.2639 171.847 89.9371 171.651 89.5157C171.454 89.092 171.356 88.5913 171.356 88.0136C171.356 87.4407 171.454 86.9435 171.651 86.5221C171.847 86.1007 172.12 85.7752 172.471 85.5456C172.821 85.3159 173.226 85.2011 173.685 85.2011C174.04 85.2011 174.321 85.2603 174.527 85.3787C174.735 85.4947 174.894 85.6273 175.003 85.7764C175.114 85.9232 175.2 86.0439 175.262 86.1386H175.333V83.454H176.171V90.7267H175.361V89.8886H175.262C175.2 89.988 175.113 90.1135 174.999 90.265C174.886 90.4142 174.723 90.5479 174.513 90.6663C174.302 90.7823 174.021 90.8403 173.671 90.8403ZM173.785 90.0875C174.121 90.0875 174.405 89.9999 174.637 89.8247C174.869 89.6471 175.045 89.4021 175.166 89.0896C175.287 88.7747 175.347 88.4113 175.347 87.9994C175.347 87.5922 175.288 87.2359 175.17 86.9305C175.051 86.6228 174.876 86.3836 174.644 86.2132C174.412 86.0404 174.126 85.954 173.785 85.954C173.43 85.954 173.134 86.0451 172.897 86.2274C172.663 86.4073 172.486 86.6523 172.368 86.9625C172.252 87.2702 172.194 87.6159 172.194 87.9994C172.194 88.3877 172.253 88.7404 172.371 89.0577C172.492 89.3725 172.67 89.6235 172.904 89.8105C173.141 89.9952 173.434 90.0875 173.785 90.0875ZM180.259 90.8403C179.734 90.8403 179.28 90.7243 178.899 90.4923C178.52 90.2579 178.228 89.9312 178.022 89.5122C177.819 89.0908 177.717 88.6007 177.717 88.042C177.717 87.4833 177.819 86.9909 178.022 86.5648C178.228 86.1362 178.515 85.8024 178.881 85.5633C179.251 85.3219 179.682 85.2011 180.174 85.2011C180.458 85.2011 180.739 85.2485 181.016 85.3432C181.293 85.4379 181.545 85.5917 181.772 85.8048C181.999 86.0155 182.18 86.2949 182.315 86.6429C182.45 86.9909 182.518 87.4194 182.518 87.9284V88.2835H178.313V87.5591H181.666C181.666 87.2513 181.604 86.9767 181.481 86.7352C181.36 86.4937 181.187 86.3032 180.962 86.1635C180.74 86.0238 180.477 85.954 180.174 85.954C179.84 85.954 179.551 86.0368 179.308 86.2025C179.066 86.3659 178.88 86.579 178.75 86.8417C178.62 87.1045 178.555 87.3862 178.555 87.6869V88.1699C178.555 88.5818 178.626 88.931 178.768 89.2175C178.912 89.5015 179.112 89.7182 179.368 89.8673C179.624 90.0141 179.921 90.0875 180.259 90.0875C180.479 90.0875 180.678 90.0567 180.856 89.9952C181.036 89.9312 181.191 89.8365 181.321 89.7111C181.451 89.5832 181.552 89.4246 181.623 89.2352L182.433 89.4625C182.347 89.7371 182.204 89.9786 182.003 90.1869C181.802 90.3929 181.553 90.5539 181.257 90.6699C180.961 90.7835 180.629 90.8403 180.259 90.8403ZM183.943 90.7267V85.2721H184.752V86.096H184.809C184.909 85.8261 185.089 85.6071 185.349 85.439C185.609 85.271 185.903 85.1869 186.23 85.1869C186.291 85.1869 186.368 85.1881 186.46 85.1905C186.553 85.1928 186.623 85.1964 186.67 85.2011V86.0534C186.642 86.0463 186.576 86.0356 186.475 86.0214C186.375 86.0049 186.27 85.9966 186.159 85.9966C185.893 85.9966 185.657 86.0522 185.448 86.1635C185.242 86.2724 185.079 86.4239 184.958 86.618C184.84 86.8098 184.781 87.0288 184.781 87.275V90.7267H183.943Z" fill="#1F2024"/>
<path d="M72.2079 136.909V86.858M98.1328 63.8734H80.2079C75.7896 63.8734 72.2079 67.4551 72.2079 71.8734V86.858M72.2079 86.858H98.1328" stroke="#8F9098"/>
<mask id="mask4_252_7543" style="mask-type:alpha" maskUnits="userSpaceOnUse" x="42" y="275" width="17" height="12">
<path d="M50.7047 278.398C50.1261 278.398 49.5711 278.628 49.1619 279.037C48.7528 279.447 48.5229 280.002 48.5229 280.58C48.5229 281.159 48.7528 281.714 49.1619 282.123C49.5711 282.532 50.1261 282.762 50.7047 282.762C51.2834 282.762 51.8383 282.532 52.2475 282.123C52.6567 281.714 52.8865 281.159 52.8865 280.58C52.8865 280.002 52.6567 279.447 52.2475 279.037C51.8383 278.628 51.2834 278.398 50.7047 278.398ZM50.7047 284.217C49.7403 284.217 48.8154 283.834 48.1334 283.152C47.4515 282.47 47.0683 281.545 47.0683 280.58C47.0683 279.616 47.4515 278.691 48.1334 278.009C48.8154 277.327 49.7403 276.944 50.7047 276.944C51.6691 276.944 52.5941 277.327 53.276 278.009C53.958 278.691 54.3411 279.616 54.3411 280.58C54.3411 281.545 53.958 282.47 53.276 283.152C52.5941 283.834 51.6691 284.217 50.7047 284.217ZM50.7047 275.126C47.1702 275.126 43.9993 277.308 42.7047 280.58C44.4429 285.002 49.432 287.169 53.8538 285.431C56.072 284.558 57.832 282.806 58.7047 280.58C57.4102 277.308 54.2393 275.126 50.7047 275.126Z" fill="#006FFD"/>
</mask>
<g mask="url(#mask4_252_7543)">
<rect x="42.7047" y="272.58" width="16" height="16" fill="#8F9098"/>
</g>
<path d="M71.5627 279.126C71.5201 278.766 71.3472 278.486 71.0442 278.287C70.7412 278.089 70.3695 277.989 69.9291 277.989C69.6072 277.989 69.3255 278.041 69.084 278.145C68.8449 278.25 68.6578 278.393 68.5229 278.575C68.3903 278.757 68.324 278.965 68.324 279.197C68.324 279.391 68.3702 279.558 68.4625 279.697C68.5572 279.835 68.678 279.949 68.8247 280.042C68.9715 280.132 69.1254 280.206 69.2864 280.265C69.4474 280.322 69.5953 280.368 69.7303 280.404L70.4689 280.603C70.6583 280.653 70.869 280.721 71.101 280.809C71.3354 280.896 71.5591 281.016 71.7722 281.167C71.9876 281.317 72.1652 281.508 72.3049 281.743C72.4445 281.977 72.5144 282.265 72.5144 282.606C72.5144 282.999 72.4114 283.354 72.2054 283.671C72.0018 283.988 71.7035 284.24 71.3105 284.427C70.9199 284.614 70.4452 284.708 69.8865 284.708C69.3657 284.708 68.9147 284.624 68.5335 284.456C68.1548 284.288 67.8565 284.053 67.6387 283.753C67.4232 283.452 67.3013 283.103 67.2729 282.705H68.182C68.2057 282.98 68.298 283.207 68.459 283.387C68.6223 283.564 68.8283 283.697 69.0769 283.785C69.3278 283.87 69.5977 283.912 69.8865 283.912C70.2227 283.912 70.5246 283.858 70.7921 283.749C71.0596 283.638 71.2715 283.484 71.4277 283.287C71.584 283.089 71.6621 282.857 71.6621 282.591C71.6621 282.35 71.5946 282.153 71.4597 282.002C71.3247 281.85 71.1472 281.727 70.927 281.633C70.7068 281.538 70.4689 281.455 70.2132 281.384L69.3183 281.128C68.7502 280.965 68.3004 280.732 67.9689 280.429C67.6375 280.126 67.4718 279.729 67.4718 279.239C67.4718 278.832 67.5818 278.477 67.802 278.174C68.0246 277.868 68.3228 277.632 68.6969 277.464C69.0733 277.293 69.4935 277.208 69.9576 277.208C70.4263 277.208 70.843 277.292 71.2076 277.46C71.5721 277.626 71.861 277.853 72.074 278.142C72.2895 278.431 72.4031 278.759 72.4149 279.126H71.5627ZM74.8368 281.299V284.58H73.9987V277.307H74.8368V279.978H74.9078C75.0356 279.696 75.2274 279.472 75.4831 279.307C75.7411 279.139 76.0844 279.055 76.5129 279.055C76.8846 279.055 77.2101 279.129 77.4895 279.278C77.7688 279.425 77.9855 279.651 78.1393 279.956C78.2956 280.26 78.3737 280.645 78.3737 281.114V284.58H77.5356V281.171C77.5356 280.738 77.4232 280.403 77.1983 280.166C76.9757 279.927 76.6668 279.807 76.2714 279.807C75.9968 279.807 75.7506 279.865 75.5328 279.981C75.3174 280.097 75.1469 280.267 75.0214 280.489C74.8983 280.712 74.8368 280.982 74.8368 281.299ZM82.2728 284.694C81.7804 284.694 81.3483 284.577 80.9767 284.342C80.6073 284.108 80.3185 283.78 80.1102 283.358C79.9042 282.937 79.8012 282.445 79.8012 281.881C79.8012 281.313 79.9042 280.817 80.1102 280.393C80.3185 279.97 80.6073 279.64 80.9767 279.406C81.3483 279.172 81.7804 279.055 82.2728 279.055C82.7652 279.055 83.1961 279.172 83.5654 279.406C83.9371 279.64 84.2259 279.97 84.4319 280.393C84.6402 280.817 84.7444 281.313 84.7444 281.881C84.7444 282.445 84.6402 282.937 84.4319 283.358C84.2259 283.78 83.9371 284.108 83.5654 284.342C83.1961 284.577 82.7652 284.694 82.2728 284.694ZM82.2728 283.941C82.6469 283.941 82.9546 283.845 83.1961 283.653C83.4376 283.461 83.6163 283.209 83.7323 282.897C83.8483 282.584 83.9063 282.246 83.9063 281.881C83.9063 281.517 83.8483 281.177 83.7323 280.862C83.6163 280.547 83.4376 280.293 83.1961 280.099C82.9546 279.904 82.6469 279.807 82.2728 279.807C81.8988 279.807 81.591 279.904 81.3495 280.099C81.1081 280.293 80.9293 280.547 80.8133 280.862C80.6973 281.177 80.6393 281.517 80.6393 281.881C80.6393 282.246 80.6973 282.584 80.8133 282.897C80.9293 283.209 81.1081 283.461 81.3495 283.653C81.591 283.845 81.8988 283.941 82.2728 283.941ZM87.224 284.58L85.562 279.126H86.4427L87.6217 283.302H87.6785L88.8433 279.126H89.7382L90.8887 283.287H90.9456L92.1245 279.126H93.0052L91.3433 284.58H90.5194L89.3262 280.39H89.241L88.0478 284.58H87.224ZM101.317 279.126C101.274 278.766 101.101 278.486 100.798 278.287C100.495 278.089 100.123 277.989 99.6831 277.989C99.3611 277.989 99.0794 278.041 98.8379 278.145C98.5988 278.25 98.4117 278.393 98.2768 278.575C98.1442 278.757 98.0779 278.965 98.0779 279.197C98.0779 279.391 98.1241 279.558 98.2164 279.697C98.3111 279.835 98.4319 279.949 98.5786 280.042C98.7254 280.132 98.8793 280.206 99.0403 280.265C99.2013 280.322 99.3492 280.368 99.4842 280.404L100.223 280.603C100.412 280.653 100.623 280.721 100.855 280.809C101.089 280.896 101.313 281.016 101.526 281.167C101.742 281.317 101.919 281.508 102.059 281.743C102.198 281.977 102.268 282.265 102.268 282.606C102.268 282.999 102.165 283.354 101.959 283.671C101.756 283.988 101.457 284.24 101.064 284.427C100.674 284.614 100.199 284.708 99.6404 284.708C99.1196 284.708 98.6686 284.624 98.2875 284.456C97.9087 284.288 97.6104 284.053 97.3926 283.753C97.1771 283.452 97.0552 283.103 97.0268 282.705H97.9359C97.9596 282.98 98.0519 283.207 98.2129 283.387C98.3762 283.564 98.5822 283.697 98.8308 283.785C99.0817 283.87 99.3516 283.912 99.6404 283.912C99.9766 283.912 100.278 283.858 100.546 283.749C100.813 283.638 101.025 283.484 101.182 283.287C101.338 283.089 101.416 282.857 101.416 282.591C101.416 282.35 101.349 282.153 101.214 282.002C101.079 281.85 100.901 281.727 100.681 281.633C100.461 281.538 100.223 281.455 99.9671 281.384L99.0723 281.128C98.5041 280.965 98.0543 280.732 97.7228 280.429C97.3914 280.126 97.2257 279.729 97.2257 279.239C97.2257 278.832 97.3357 278.477 97.5559 278.174C97.7785 277.868 98.0768 277.632 98.4508 277.464C98.8272 277.293 99.2474 277.208 99.7115 277.208C100.18 277.208 100.597 277.292 100.961 277.46C101.326 277.626 101.615 277.853 101.828 278.142C102.043 278.431 102.157 278.759 102.169 279.126H101.317ZM107.19 282.35V279.126H108.028V284.58H107.19V283.657H107.133C107.005 283.934 106.807 284.169 106.537 284.363C106.267 284.555 105.926 284.651 105.514 284.651C105.173 284.651 104.87 284.577 104.605 284.427C104.34 284.276 104.131 284.049 103.98 283.746C103.828 283.44 103.753 283.055 103.753 282.591V279.126H104.591V282.535C104.591 282.932 104.702 283.25 104.924 283.486C105.149 283.723 105.436 283.841 105.784 283.841C105.992 283.841 106.204 283.788 106.42 283.682C106.637 283.575 106.82 283.412 106.966 283.192C107.116 282.971 107.19 282.691 107.19 282.35ZM109.713 286.626V279.126H110.523V279.992H110.622C110.684 279.897 110.769 279.777 110.878 279.63C110.989 279.481 111.148 279.348 111.354 279.232C111.562 279.114 111.844 279.055 112.199 279.055C112.658 279.055 113.063 279.169 113.413 279.399C113.764 279.629 114.037 279.954 114.234 280.376C114.43 280.797 114.529 281.294 114.529 281.867C114.529 282.445 114.43 282.945 114.234 283.369C114.037 283.791 113.765 284.117 113.417 284.349C113.069 284.579 112.668 284.694 112.213 284.694C111.863 284.694 111.582 284.636 111.372 284.52C111.161 284.401 110.999 284.268 110.885 284.118C110.771 283.967 110.684 283.841 110.622 283.742H110.551V286.626H109.713ZM110.537 281.853C110.537 282.265 110.597 282.628 110.718 282.943C110.839 283.256 111.015 283.501 111.247 283.678C111.479 283.853 111.763 283.941 112.1 283.941C112.45 283.941 112.742 283.849 112.977 283.664C113.213 283.477 113.391 283.226 113.509 282.911C113.63 282.594 113.69 282.241 113.69 281.853C113.69 281.469 113.631 281.124 113.513 280.816C113.397 280.506 113.221 280.261 112.984 280.081C112.749 279.898 112.455 279.807 112.1 279.807C111.759 279.807 111.472 279.894 111.24 280.067C111.008 280.237 110.833 280.476 110.715 280.784C110.596 281.089 110.537 281.446 110.537 281.853ZM115.957 286.626V279.126H116.767V279.992H116.866C116.928 279.897 117.013 279.777 117.122 279.63C117.233 279.481 117.392 279.348 117.598 279.232C117.806 279.114 118.088 279.055 118.443 279.055C118.902 279.055 119.307 279.169 119.657 279.399C120.008 279.629 120.281 279.954 120.478 280.376C120.674 280.797 120.772 281.294 120.772 281.867C120.772 282.445 120.674 282.945 120.478 283.369C120.281 283.791 120.009 284.117 119.661 284.349C119.313 284.579 118.911 284.694 118.457 284.694C118.107 284.694 117.826 284.636 117.615 284.52C117.405 284.401 117.242 284.268 117.129 284.118C117.015 283.967 116.928 283.841 116.866 283.742H116.795V286.626H115.957ZM116.781 281.853C116.781 282.265 116.841 282.628 116.962 282.943C117.083 283.256 117.259 283.501 117.491 283.678C117.723 283.853 118.007 283.941 118.343 283.941C118.694 283.941 118.986 283.849 119.22 283.664C119.457 283.477 119.635 283.226 119.753 282.911C119.874 282.594 119.934 282.241 119.934 281.853C119.934 281.469 119.875 281.124 119.757 280.816C119.641 280.506 119.464 280.261 119.228 280.081C118.993 279.898 118.698 279.807 118.343 279.807C118.002 279.807 117.716 279.894 117.484 280.067C117.252 280.237 117.077 280.476 116.958 280.784C116.84 281.089 116.781 281.446 116.781 281.853ZM124.417 284.694C123.924 284.694 123.492 284.577 123.12 284.342C122.751 284.108 122.462 283.78 122.254 283.358C122.048 282.937 121.945 282.445 121.945 281.881C121.945 281.313 122.048 280.817 122.254 280.393C122.462 279.97 122.751 279.64 123.12 279.406C123.492 279.172 123.924 279.055 124.417 279.055C124.909 279.055 125.34 279.172 125.709 279.406C126.081 279.64 126.37 279.97 126.576 280.393C126.784 280.817 126.888 281.313 126.888 281.881C126.888 282.445 126.784 282.937 126.576 283.358C126.37 283.78 126.081 284.108 125.709 284.342C125.34 284.577 124.909 284.694 124.417 284.694ZM124.417 283.941C124.791 283.941 125.098 283.845 125.34 283.653C125.581 283.461 125.76 283.209 125.876 282.897C125.992 282.584 126.05 282.246 126.05 281.881C126.05 281.517 125.992 281.177 125.876 280.862C125.76 280.547 125.581 280.293 125.34 280.099C125.098 279.904 124.791 279.807 124.417 279.807C124.043 279.807 123.735 279.904 123.493 280.099C123.252 280.293 123.073 280.547 122.957 280.862C122.841 281.177 122.783 281.517 122.783 281.881C122.783 282.246 122.841 282.584 122.957 282.897C123.073 283.209 123.252 283.461 123.493 283.653C123.735 283.845 124.043 283.941 124.417 283.941ZM128.317 284.58V279.126H129.127V279.949H129.184C129.283 279.68 129.463 279.461 129.724 279.292C129.984 279.124 130.278 279.04 130.604 279.04C130.666 279.04 130.743 279.041 130.835 279.044C130.928 279.046 130.997 279.05 131.045 279.055V279.907C131.016 279.9 130.951 279.889 130.849 279.875C130.75 279.858 130.645 279.85 130.533 279.85C130.268 279.85 130.031 279.906 129.823 280.017C129.617 280.126 129.454 280.277 129.333 280.471C129.215 280.663 129.156 280.882 129.156 281.128V284.58H128.317ZM134.902 279.126V279.836H132.075V279.126H134.902ZM132.899 277.819H133.737V283.018C133.737 283.254 133.772 283.432 133.84 283.55C133.911 283.666 134.001 283.744 134.11 283.785C134.221 283.823 134.339 283.841 134.462 283.841C134.554 283.841 134.63 283.837 134.689 283.827C134.748 283.815 134.796 283.806 134.831 283.799L135.002 284.552C134.945 284.573 134.865 284.594 134.764 284.616C134.662 284.639 134.533 284.651 134.377 284.651C134.14 284.651 133.908 284.6 133.681 284.498C133.456 284.397 133.269 284.242 133.119 284.033C132.973 283.825 132.899 283.562 132.899 283.245V277.819ZM138.991 278.089V277.307H144.446V278.089H142.159V284.58H141.278V278.089H138.991ZM147.337 284.694C146.812 284.694 146.358 284.578 145.977 284.346C145.598 284.111 145.306 283.785 145.1 283.366C144.896 282.944 144.795 282.454 144.795 281.895C144.795 281.337 144.896 280.844 145.1 280.418C145.306 279.99 145.592 279.656 145.959 279.417C146.329 279.175 146.76 279.055 147.252 279.055C147.536 279.055 147.817 279.102 148.094 279.197C148.371 279.291 148.623 279.445 148.85 279.658C149.077 279.869 149.258 280.148 149.393 280.496C149.528 280.844 149.596 281.273 149.596 281.782V282.137H145.391V281.412H148.743C148.743 281.105 148.682 280.83 148.559 280.589C148.438 280.347 148.265 280.157 148.04 280.017C147.818 279.877 147.555 279.807 147.252 279.807C146.918 279.807 146.629 279.89 146.385 280.056C146.144 280.219 145.958 280.432 145.828 280.695C145.698 280.958 145.633 281.24 145.633 281.54V282.023C145.633 282.435 145.704 282.784 145.846 283.071C145.99 283.355 146.19 283.572 146.446 283.721C146.702 283.867 146.999 283.941 147.337 283.941C147.557 283.941 147.756 283.91 147.934 283.849C148.114 283.785 148.269 283.69 148.399 283.564C148.529 283.437 148.63 283.278 148.701 283.089L149.51 283.316C149.425 283.59 149.282 283.832 149.081 284.04C148.88 284.246 148.631 284.407 148.335 284.523C148.039 284.637 147.707 284.694 147.337 284.694ZM151.499 279.126L152.806 281.356L154.113 279.126H155.079L153.317 281.853L155.079 284.58H154.113L152.806 282.464L151.499 284.58H150.533L152.266 281.853L150.533 279.126H151.499ZM158.797 279.126V279.836H155.97V279.126H158.797ZM156.794 277.819H157.632V283.018C157.632 283.254 157.666 283.432 157.735 283.55C157.806 283.666 157.896 283.744 158.005 283.785C158.116 283.823 158.233 283.841 158.356 283.841C158.449 283.841 158.524 283.837 158.584 283.827C158.643 283.815 158.69 283.806 158.726 283.799L158.896 284.552C158.839 284.573 158.76 284.594 158.658 284.616C158.556 284.639 158.427 284.651 158.271 284.651C158.034 284.651 157.802 284.6 157.575 284.498C157.35 284.397 157.163 284.242 157.014 284.033C156.867 283.825 156.794 283.562 156.794 283.245V277.819Z" fill="#1F2024"/>
<mask id="mask5_252_7543" style="mask-type:alpha" maskUnits="userSpaceOnUse" x="43" y="297" width="16" height="15">
<path d="M57.2232 297.913H44.1862C43.9701 297.913 43.7628 297.996 43.61 298.143C43.4572 298.29 43.3713 298.49 43.3713 298.698V301.051C43.3713 301.259 43.4572 301.458 43.61 301.605C43.7628 301.752 43.9701 301.835 44.1862 301.835C44.4023 301.835 44.6095 301.752 44.7623 301.605C44.9151 301.458 45.001 301.259 45.001 301.051V299.482H49.8899V309.678H48.2602C48.0441 309.678 47.8369 309.761 47.6841 309.908C47.5313 310.055 47.4454 310.254 47.4454 310.462C47.4454 310.67 47.5313 310.87 47.6841 311.017C47.8369 311.164 48.0441 311.247 48.2602 311.247H53.1491C53.3652 311.247 53.5725 311.164 53.7253 311.017C53.8781 310.87 53.9639 310.67 53.9639 310.462C53.9639 310.254 53.8781 310.055 53.7253 309.908C53.5725 309.761 53.3652 309.678 53.1491 309.678H51.5195V299.482H56.4084V301.051C56.4084 301.259 56.4942 301.458 56.647 301.605C56.7998 301.752 57.0071 301.835 57.2232 301.835C57.4393 301.835 57.6465 301.752 57.7994 301.605C57.9522 301.458 58.038 301.259 58.038 301.051V298.698C58.038 298.49 57.9522 298.29 57.7994 298.143C57.6465 297.996 57.4393 297.913 57.2232 297.913Z" fill="black"/>
</mask>
<g mask="url(#mask5_252_7543)">
<rect x="42.7047" y="296.58" width="16" height="16" fill="#8F9098"/>
</g>
<path d="M71.5627 303.126C71.5201 302.766 71.3472 302.486 71.0442 302.287C70.7412 302.089 70.3695 301.989 69.9291 301.989C69.6072 301.989 69.3255 302.041 69.084 302.145C68.8449 302.25 68.6578 302.393 68.5229 302.575C68.3903 302.757 68.324 302.965 68.324 303.197C68.324 303.391 68.3702 303.558 68.4625 303.697C68.5572 303.835 68.678 303.949 68.8247 304.042C68.9715 304.132 69.1254 304.206 69.2864 304.265C69.4474 304.322 69.5953 304.368 69.7303 304.404L70.4689 304.603C70.6583 304.653 70.869 304.721 71.101 304.809C71.3354 304.896 71.5591 305.016 71.7722 305.167C71.9876 305.317 72.1652 305.508 72.3049 305.743C72.4445 305.977 72.5144 306.265 72.5144 306.606C72.5144 306.999 72.4114 307.354 72.2054 307.671C72.0018 307.988 71.7035 308.24 71.3105 308.427C70.9199 308.614 70.4452 308.708 69.8865 308.708C69.3657 308.708 68.9147 308.624 68.5335 308.456C68.1548 308.288 67.8565 308.053 67.6387 307.753C67.4232 307.452 67.3013 307.103 67.2729 306.705H68.182C68.2057 306.98 68.298 307.207 68.459 307.387C68.6223 307.564 68.8283 307.697 69.0769 307.785C69.3278 307.87 69.5977 307.912 69.8865 307.912C70.2227 307.912 70.5246 307.858 70.7921 307.749C71.0596 307.638 71.2715 307.484 71.4277 307.287C71.584 307.089 71.6621 306.857 71.6621 306.591C71.6621 306.35 71.5946 306.153 71.4597 306.002C71.3247 305.85 71.1472 305.727 70.927 305.633C70.7068 305.538 70.4689 305.455 70.2132 305.384L69.3183 305.128C68.7502 304.965 68.3004 304.732 67.9689 304.429C67.6375 304.126 67.4718 303.729 67.4718 303.239C67.4718 302.832 67.5818 302.477 67.802 302.174C68.0246 301.868 68.3228 301.632 68.6969 301.464C69.0733 301.293 69.4935 301.208 69.9576 301.208C70.4263 301.208 70.843 301.292 71.2076 301.46C71.5721 301.626 71.861 301.853 72.074 302.142C72.2895 302.431 72.4031 302.759 72.4149 303.126H71.5627ZM77.4362 306.35V303.126H78.2743V308.58H77.4362V307.657H77.3794C77.2516 307.934 77.0527 308.169 76.7828 308.363C76.5129 308.555 76.172 308.651 75.7601 308.651C75.4192 308.651 75.1161 308.577 74.851 308.427C74.5858 308.276 74.3775 308.049 74.226 307.746C74.0745 307.44 73.9987 307.055 73.9987 306.591V303.126H74.8368V306.535C74.8368 306.932 74.948 307.25 75.1706 307.486C75.3955 307.723 75.6819 307.841 76.03 307.841C76.2383 307.841 76.4502 307.788 76.6656 307.682C76.8834 307.575 77.0657 307.412 77.2125 307.192C77.3616 306.971 77.4362 306.691 77.4362 306.35ZM79.9593 310.626V303.126H80.7689V303.992H80.8683C80.9299 303.897 81.0151 303.777 81.124 303.63C81.2353 303.481 81.3939 303.348 81.5999 303.232C81.8082 303.114 82.0899 303.055 82.4451 303.055C82.9043 303.055 83.3092 303.169 83.6595 303.399C84.0099 303.629 84.2834 303.954 84.4799 304.376C84.6764 304.797 84.7746 305.294 84.7746 305.867C84.7746 306.445 84.6764 306.945 84.4799 307.369C84.2834 307.791 84.0111 308.117 83.6631 308.349C83.3151 308.579 82.9138 308.694 82.4593 308.694C82.1089 308.694 81.8283 308.636 81.6176 308.52C81.4069 308.401 81.2448 308.268 81.1311 308.118C81.0175 307.967 80.9299 307.841 80.8683 307.742H80.7973V310.626H79.9593ZM80.7831 305.853C80.7831 306.265 80.8435 306.628 80.9642 306.943C81.085 307.256 81.2613 307.501 81.4933 307.678C81.7254 307.853 82.0094 307.941 82.3456 307.941C82.696 307.941 82.9884 307.849 83.2228 307.664C83.4595 307.477 83.6371 307.226 83.7554 306.911C83.8762 306.594 83.9365 306.241 83.9365 305.853C83.9365 305.469 83.8773 305.124 83.759 304.816C83.643 304.506 83.4666 304.261 83.2299 304.081C82.9955 303.898 82.7007 303.807 82.3456 303.807C82.0047 303.807 81.7183 303.894 81.4862 304.067C81.2542 304.237 81.079 304.476 80.9607 304.784C80.8423 305.089 80.7831 305.446 80.7831 305.853ZM86.203 310.626V303.126H87.0127V303.992H87.1121C87.1737 303.897 87.2589 303.777 87.3678 303.63C87.479 303.481 87.6377 303.348 87.8436 303.232C88.052 303.114 88.3337 303.055 88.6888 303.055C89.1481 303.055 89.5529 303.169 89.9033 303.399C90.2537 303.629 90.5271 303.954 90.7236 304.376C90.9201 304.797 91.0183 305.294 91.0183 305.867C91.0183 306.445 90.9201 306.945 90.7236 307.369C90.5271 307.791 90.2549 308.117 89.9068 308.349C89.5588 308.579 89.1576 308.694 88.703 308.694C88.3526 308.694 88.0721 308.636 87.8614 308.52C87.6507 308.401 87.4885 308.268 87.3749 308.118C87.2612 307.967 87.1737 307.841 87.1121 307.742H87.0411V310.626H86.203ZM87.0269 305.853C87.0269 306.265 87.0872 306.628 87.208 306.943C87.3287 307.256 87.5051 307.501 87.7371 307.678C87.9691 307.853 88.2532 307.941 88.5894 307.941C88.9398 307.941 89.2321 307.849 89.4665 307.664C89.7032 307.477 89.8808 307.226 89.9992 306.911C90.1199 306.594 90.1803 306.241 90.1803 305.853C90.1803 305.469 90.1211 305.124 90.0027 304.816C89.8867 304.506 89.7103 304.261 89.4736 304.081C89.2392 303.898 88.9445 303.807 88.5894 303.807C88.2485 303.807 87.962 303.894 87.73 304.067C87.498 304.237 87.3228 304.476 87.2044 304.784C87.0861 305.089 87.0269 305.446 87.0269 305.853ZM94.6627 308.694C94.1702 308.694 93.7382 308.577 93.3665 308.342C92.9972 308.108 92.7084 307.78 92.5 307.358C92.2941 306.937 92.1911 306.445 92.1911 305.881C92.1911 305.313 92.2941 304.817 92.5 304.393C92.7084 303.97 92.9972 303.64 93.3665 303.406C93.7382 303.172 94.1702 303.055 94.6627 303.055C95.1551 303.055 95.586 303.172 95.9553 303.406C96.327 303.64 96.6158 303.97 96.8218 304.393C97.0301 304.817 97.1343 305.313 97.1343 305.881C97.1343 306.445 97.0301 306.937 96.8218 307.358C96.6158 307.78 96.327 308.108 95.9553 308.342C95.586 308.577 95.1551 308.694 94.6627 308.694ZM94.6627 307.941C95.0367 307.941 95.3445 307.845 95.586 307.653C95.8274 307.461 96.0062 307.209 96.1222 306.897C96.2382 306.584 96.2962 306.246 96.2962 305.881C96.2962 305.517 96.2382 305.177 96.1222 304.862C96.0062 304.547 95.8274 304.293 95.586 304.099C95.3445 303.904 95.0367 303.807 94.6627 303.807C94.2886 303.807 93.9808 303.904 93.7394 304.099C93.4979 304.293 93.3192 304.547 93.2031 304.862C93.0871 305.177 93.0291 305.517 93.0291 305.881C93.0291 306.246 93.0871 306.584 93.2031 306.897C93.3192 307.209 93.4979 307.461 93.7394 307.653C93.9808 307.845 94.2886 307.941 94.6627 307.941ZM98.5636 308.58V303.126H99.3732V303.949H99.43C99.5295 303.68 99.7094 303.461 99.9698 303.292C100.23 303.124 100.524 303.04 100.85 303.04C100.912 303.04 100.989 303.041 101.081 303.044C101.174 303.046 101.243 303.05 101.291 303.055V303.907C101.262 303.9 101.197 303.889 101.096 303.875C100.996 303.858 100.891 303.85 100.779 303.85C100.514 303.85 100.278 303.906 100.069 304.017C99.8633 304.126 99.6999 304.277 99.5792 304.471C99.4608 304.663 99.4016 304.882 99.4016 305.128V308.58H98.5636ZM105.148 303.126V303.836H102.322V303.126H105.148ZM103.145 301.819H103.983V307.018C103.983 307.254 104.018 307.432 104.086 307.55C104.157 307.666 104.247 307.744 104.356 307.785C104.468 307.823 104.585 307.841 104.708 307.841C104.8 307.841 104.876 307.837 104.935 307.827C104.994 307.815 105.042 307.806 105.077 307.799L105.248 308.552C105.191 308.573 105.112 308.594 105.01 308.616C104.908 308.639 104.779 308.651 104.623 308.651C104.386 308.651 104.154 308.6 103.927 308.498C103.702 308.397 103.515 308.242 103.366 308.033C103.219 307.825 103.145 307.562 103.145 307.245V301.819ZM109.237 302.089V301.307H114.692V302.089H112.405V308.58H111.524V302.089H109.237ZM117.583 308.694C117.058 308.694 116.604 308.578 116.223 308.346C115.844 308.111 115.552 307.785 115.346 307.366C115.142 306.944 115.041 306.454 115.041 305.895C115.041 305.337 115.142 304.844 115.346 304.418C115.552 303.99 115.839 303.656 116.205 303.417C116.575 303.175 117.006 303.055 117.498 303.055C117.782 303.055 118.063 303.102 118.34 303.197C118.617 303.291 118.869 303.445 119.096 303.658C119.323 303.869 119.504 304.148 119.639 304.496C119.774 304.844 119.842 305.273 119.842 305.782V306.137H115.637V305.412H118.99C118.99 305.105 118.928 304.83 118.805 304.589C118.684 304.347 118.511 304.157 118.286 304.017C118.064 303.877 117.801 303.807 117.498 303.807C117.164 303.807 116.875 303.89 116.632 304.056C116.39 304.219 116.204 304.432 116.074 304.695C115.944 304.958 115.879 305.24 115.879 305.54V306.023C115.879 306.435 115.95 306.784 116.092 307.071C116.236 307.355 116.436 307.572 116.692 307.721C116.948 307.867 117.245 307.941 117.583 307.941C117.803 307.941 118.002 307.91 118.18 307.849C118.36 307.785 118.515 307.69 118.645 307.564C118.775 307.437 118.876 307.278 118.947 307.089L119.757 307.316C119.671 307.59 119.528 307.832 119.327 308.04C119.126 308.246 118.877 308.407 118.581 308.523C118.285 308.637 117.953 308.694 117.583 308.694ZM121.745 303.126L123.052 305.356L124.359 303.126H125.325L123.563 305.853L125.325 308.58H124.359L123.052 306.464L121.745 308.58H120.779L122.512 305.853L120.779 303.126H121.745ZM129.043 303.126V303.836H126.216V303.126H129.043ZM127.04 301.819H127.878V307.018C127.878 307.254 127.912 307.432 127.981 307.55C128.052 307.666 128.142 307.744 128.251 307.785C128.362 307.823 128.479 307.841 128.602 307.841C128.695 307.841 128.77 307.837 128.83 307.827C128.889 307.815 128.936 307.806 128.972 307.799L129.142 308.552C129.085 308.573 129.006 308.594 128.904 308.616C128.802 308.639 128.673 308.651 128.517 308.651C128.28 308.651 128.048 308.6 127.821 308.498C127.596 308.397 127.409 308.242 127.26 308.033C127.113 307.825 127.04 307.562 127.04 307.245V301.819Z" fill="#1F2024"/>
<path d="M10.9213 231.909V280.951M36.8462 303.472H18.9213C14.503 303.472 10.9213 299.89 10.9213 295.472V280.951M10.9213 280.951H36.8462" stroke="#8F9098"/>
</svg>
