<svg width="296" height="276" viewBox="0 0 296 276" fill="none" xmlns="http://www.w3.org/2000/svg">
<path d="M1.3474 104.94V103.418H8.51501V104.94H5.84314V112.146H4.01928V104.94H1.3474ZM9.66132 112.146V105.6H11.4767V112.146H9.66132ZM10.5733 104.757C10.3034 104.757 10.0718 104.667 9.87865 104.488C9.68831 104.306 9.59314 104.089 9.59314 103.836C9.59314 103.586 9.68831 103.372 9.87865 103.193C10.0718 103.011 10.3034 102.92 10.5733 102.92C10.8431 102.92 11.0733 103.011 11.2636 103.193C11.4568 103.372 11.5534 103.586 11.5534 103.836C11.5534 104.089 11.4568 104.306 11.2636 104.488C11.0733 104.667 10.8431 104.757 10.5733 104.757ZM16.4124 105.6V106.964H12.4706V105.6H16.4124ZM13.3655 104.032H15.1809V110.134C15.1809 110.302 15.2064 110.433 15.2576 110.526C15.3087 110.617 15.3797 110.681 15.4706 110.718C15.5644 110.755 15.6723 110.774 15.7945 110.774C15.8797 110.774 15.9649 110.766 16.0502 110.752C16.1354 110.735 16.2007 110.722 16.2462 110.714L16.5317 112.065C16.4408 112.093 16.313 112.126 16.1482 112.163C15.9834 112.203 15.7831 112.227 15.5473 112.235C15.1098 112.252 14.7263 112.194 14.3968 112.061C14.0701 111.927 13.8158 111.72 13.634 111.438C13.4522 111.157 13.3627 110.802 13.3655 110.373V104.032ZM19.5509 103.418V112.146H17.7355V103.418H19.5509ZM23.988 112.274C23.3147 112.274 22.7352 112.137 22.2494 111.865C21.7664 111.589 21.3943 111.2 21.1329 110.697C20.8715 110.191 20.7409 109.593 20.7409 108.903C20.7409 108.23 20.8715 107.639 21.1329 107.13C21.3943 106.622 21.7622 106.225 22.2366 105.941C22.7139 105.657 23.2735 105.515 23.9156 105.515C24.3474 105.515 24.7494 105.585 25.1215 105.724C25.4965 105.86 25.8233 106.066 26.1017 106.342C26.3829 106.617 26.6017 106.964 26.7579 107.382C26.9142 107.796 26.9923 108.282 26.9923 108.839V109.338H21.4653V108.213H25.2835C25.2835 107.951 25.2267 107.72 25.113 107.518C24.9994 107.316 24.8417 107.159 24.64 107.045C24.4412 106.928 24.2096 106.87 23.9454 106.87C23.6698 106.87 23.4255 106.934 23.2125 107.062C23.0022 107.187 22.8375 107.356 22.7181 107.569C22.5988 107.779 22.5377 108.014 22.5349 108.272V109.342C22.5349 109.666 22.5946 109.945 22.7139 110.181C22.836 110.417 23.0079 110.599 23.2295 110.727C23.4511 110.855 23.7139 110.918 24.0179 110.918C24.2196 110.918 24.4042 110.89 24.5718 110.833C24.7394 110.776 24.8829 110.691 25.0022 110.578C25.1215 110.464 25.2125 110.325 25.275 110.16L26.9539 110.271C26.8687 110.674 26.694 111.026 26.4298 111.328C26.1684 111.626 25.8304 111.859 25.4156 112.026C25.0037 112.191 24.5278 112.274 23.988 112.274Z" fill="#2F3036"/>
<rect x="1.42126" y="123.646" width="294" height="47" rx="11.5" stroke="#C5C6CC"/>
<path d="M18.1542 152.146V141.964H21.5946C22.3933 141.964 23.0463 142.108 23.5534 142.396C24.0638 142.681 24.4416 143.068 24.6869 143.555C24.9322 144.042 25.0548 144.586 25.0548 145.186C25.0548 145.785 24.9322 146.331 24.6869 146.821C24.4449 147.312 24.0704 147.703 23.5633 147.994C23.0562 148.283 22.4066 148.427 21.6144 148.427H19.1485V147.333H21.5747C22.1215 147.333 22.5607 147.239 22.8921 147.05C23.2236 146.861 23.4639 146.606 23.613 146.284C23.7655 145.959 23.8417 145.593 23.8417 145.186C23.8417 144.778 23.7655 144.413 23.613 144.092C23.4639 143.77 23.2219 143.518 22.8872 143.336C22.5524 143.15 22.1083 143.058 21.5548 143.058H19.3872V152.146H18.1542ZM28.0551 141.964V152.146H26.8818V141.964H28.0551ZM32.4513 152.325C31.9674 152.325 31.5282 152.234 31.1338 152.051C30.7394 151.866 30.4262 151.599 30.1942 151.251C29.9622 150.9 29.8462 150.475 29.8462 149.978C29.8462 149.541 29.9323 149.186 30.1047 148.914C30.277 148.639 30.5074 148.424 30.7957 148.268C31.0841 148.112 31.4023 147.996 31.7503 147.92C32.1016 147.84 32.4546 147.777 32.8092 147.731C33.2732 147.671 33.6494 147.627 33.9378 147.597C34.2294 147.564 34.4416 147.509 34.5741 147.433C34.71 147.356 34.778 147.224 34.778 147.035V146.995C34.778 146.505 34.6437 146.123 34.3753 145.852C34.1101 145.58 33.7074 145.444 33.1672 145.444C32.607 145.444 32.1679 145.567 31.8497 145.812C31.5315 146.057 31.3078 146.319 31.1785 146.597L30.0649 146.2C30.2638 145.736 30.5289 145.374 30.8604 145.116C31.1951 144.854 31.5597 144.672 31.9541 144.569C32.3518 144.463 32.7429 144.41 33.1274 144.41C33.3727 144.41 33.6544 144.44 33.9726 144.499C34.2941 144.556 34.604 144.673 34.9023 144.852C35.2039 145.031 35.4541 145.302 35.653 145.663C35.8518 146.024 35.9513 146.508 35.9513 147.115V152.146H34.778V151.112H34.7183C34.6388 151.277 34.5062 151.455 34.3206 151.644C34.135 151.833 33.8881 151.993 33.5798 152.126C33.2716 152.258 32.8954 152.325 32.4513 152.325ZM32.6302 151.271C33.0943 151.271 33.4854 151.18 33.8035 150.997C34.125 150.815 34.367 150.58 34.5294 150.291C34.6951 150.003 34.778 149.7 34.778 149.382V148.308C34.7283 148.367 34.6189 148.422 34.4499 148.472C34.2841 148.518 34.0919 148.56 33.8731 148.596C33.6577 148.629 33.4472 148.659 33.2418 148.686C33.0396 148.709 32.8755 148.729 32.7496 148.745C32.4446 148.785 32.1596 148.85 31.8945 148.939C31.6326 149.025 31.4205 149.156 31.2581 149.332C31.099 149.504 31.0195 149.74 31.0195 150.038C31.0195 150.445 31.1703 150.754 31.4719 150.963C31.7768 151.168 32.1629 151.271 32.6302 151.271ZM41.1951 152.305C40.4791 152.305 39.8627 152.136 39.3456 151.798C38.8286 151.46 38.4309 150.994 38.1524 150.401C37.874 149.807 37.7348 149.13 37.7348 148.367C37.7348 147.592 37.8773 146.907 38.1624 146.314C38.4507 145.717 38.8518 145.252 39.3655 144.917C39.8826 144.579 40.4858 144.41 41.1752 144.41C41.7121 144.41 42.196 144.509 42.6269 144.708C43.0577 144.907 43.4107 145.186 43.6858 145.543C43.9609 145.901 44.1316 146.319 44.1979 146.796H43.0246C42.9351 146.448 42.7363 146.14 42.428 145.872C42.1231 145.6 41.7121 145.464 41.1951 145.464C40.7377 145.464 40.3366 145.583 39.9919 145.822C39.6505 146.057 39.3837 146.39 39.1915 146.821C39.0026 147.249 38.9081 147.751 38.9081 148.328C38.9081 148.918 39.0009 149.431 39.1865 149.869C39.3755 150.306 39.6406 150.646 39.982 150.888C40.3267 151.13 40.731 151.251 41.1951 151.251C41.5 151.251 41.7767 151.198 42.0253 151.092C42.2739 150.986 42.4844 150.833 42.6567 150.634C42.8291 150.436 42.9517 150.197 43.0246 149.918H44.1979C44.1316 150.369 43.9675 150.775 43.7057 151.137C43.4472 151.494 43.1041 151.78 42.6766 151.992C42.2523 152.2 41.7585 152.305 41.1951 152.305ZM49.1148 152.305C48.379 152.305 47.7443 152.142 47.2107 151.818C46.6804 151.49 46.2711 151.032 45.9827 150.445C45.6977 149.856 45.5551 149.169 45.5551 148.387C45.5551 147.605 45.6977 146.916 45.9827 146.319C46.2711 145.719 46.6721 145.252 47.1858 144.917C47.7029 144.579 48.3061 144.41 48.9955 144.41C49.3932 144.41 49.786 144.476 50.1738 144.609C50.5615 144.741 50.9145 144.957 51.2327 145.255C51.5509 145.55 51.8044 145.941 51.9934 146.428C52.1823 146.916 52.2767 147.516 52.2767 148.228V148.725H46.3904V147.711H51.0836C51.0836 147.28 50.9974 146.896 50.825 146.558C50.656 146.22 50.414 145.953 50.0992 145.757C49.7876 145.562 49.4197 145.464 48.9955 145.464C48.5282 145.464 48.1238 145.58 47.7824 145.812C47.4443 146.041 47.1842 146.339 47.0019 146.707C46.8196 147.075 46.7284 147.469 46.7284 147.89V148.566C46.7284 149.143 46.8279 149.632 47.0267 150.033C47.2289 150.431 47.509 150.734 47.8669 150.943C48.2249 151.148 48.6408 151.251 49.1148 151.251C49.423 151.251 49.7014 151.208 49.95 151.122C50.2019 151.032 50.419 150.9 50.6013 150.724C50.7836 150.545 50.9245 150.323 51.0239 150.058L52.1574 150.376C52.0381 150.76 51.8376 151.098 51.5559 151.39C51.2741 151.678 50.9261 151.904 50.5118 152.066C50.0975 152.225 49.6318 152.305 49.1148 152.305ZM55.2348 147.552V152.146H54.0615V141.964H55.2348V145.703H55.3343C55.5132 145.308 55.7817 144.995 56.1397 144.763C56.5009 144.528 56.9815 144.41 57.5814 144.41C58.1018 144.41 58.5575 144.514 58.9486 144.723C59.3397 144.929 59.643 145.245 59.8584 145.673C60.0772 146.097 60.1865 146.637 60.1865 147.293V152.146H59.0132V147.373C59.0132 146.766 58.8558 146.298 58.5409 145.966C58.2294 145.631 57.7969 145.464 57.2434 145.464C56.8589 145.464 56.5142 145.545 56.2093 145.708C55.9077 145.87 55.669 146.107 55.4934 146.418C55.321 146.73 55.2348 147.108 55.2348 147.552ZM65.4353 152.305C64.7459 152.305 64.141 152.141 63.6207 151.813C63.1036 151.485 62.6993 151.025 62.4076 150.436C62.1192 149.846 61.9751 149.156 61.9751 148.367C61.9751 147.572 62.1192 146.878 62.4076 146.284C62.6993 145.691 63.1036 145.23 63.6207 144.902C64.141 144.574 64.7459 144.41 65.4353 144.41C66.1247 144.41 66.7279 144.574 67.245 144.902C67.7653 145.23 68.1697 145.691 68.458 146.284C68.7497 146.878 68.8955 147.572 68.8955 148.367C68.8955 149.156 68.7497 149.846 68.458 150.436C68.1697 151.025 67.7653 151.485 67.245 151.813C66.7279 152.141 66.1247 152.305 65.4353 152.305ZM65.4353 151.251C65.959 151.251 66.3898 151.117 66.7279 150.848C67.066 150.58 67.3162 150.227 67.4786 149.789C67.641 149.352 67.7222 148.878 67.7222 148.367C67.7222 147.857 67.641 147.381 67.4786 146.94C67.3162 146.5 67.066 146.143 66.7279 145.872C66.3898 145.6 65.959 145.464 65.4353 145.464C64.9116 145.464 64.4807 145.6 64.1427 145.872C63.8046 146.143 63.5544 146.5 63.392 146.94C63.2296 147.381 63.1484 147.857 63.1484 148.367C63.1484 148.878 63.2296 149.352 63.392 149.789C63.5544 150.227 63.8046 150.58 64.1427 150.848C64.4807 151.117 64.9116 151.251 65.4353 151.251ZM71.8598 141.964V152.146H70.6865V141.964H71.8598ZM76.8923 152.305C76.256 152.305 75.6942 152.144 75.207 151.823C74.7197 151.498 74.3386 151.04 74.0635 150.45C73.7884 149.857 73.6508 149.156 73.6508 148.347C73.6508 147.545 73.7884 146.849 74.0635 146.259C74.3386 145.669 74.7214 145.214 75.2119 144.892C75.7025 144.571 76.2692 144.41 76.9122 144.41C77.4094 144.41 77.8021 144.493 78.0905 144.659C78.3821 144.821 78.6042 145.007 78.7567 145.215C78.9124 145.421 79.0334 145.59 79.1196 145.722H79.219V141.964H80.3923V152.146H79.2588V150.972H79.1196C79.0334 151.112 78.9108 151.287 78.7517 151.499C78.5926 151.708 78.3656 151.896 78.0706 152.061C77.7756 152.224 77.3829 152.305 76.8923 152.305ZM77.0514 151.251C77.5221 151.251 77.9198 151.128 78.2446 150.883C78.5694 150.634 78.8163 150.291 78.9854 149.854C79.1544 149.413 79.2389 148.904 79.2389 148.328C79.2389 147.757 79.1561 147.259 78.9903 146.831C78.8246 146.4 78.5793 146.065 78.2545 145.827C77.9297 145.585 77.5287 145.464 77.0514 145.464C76.5543 145.464 76.14 145.592 75.8085 145.847C75.4804 146.099 75.2335 146.442 75.0677 146.876C74.9053 147.307 74.8241 147.791 74.8241 148.328C74.8241 148.871 74.907 149.365 75.0727 149.809C75.2418 150.25 75.4903 150.601 75.8185 150.863C76.1499 151.122 76.5609 151.251 77.0514 151.251ZM85.9058 152.305C85.17 152.305 84.5353 152.142 84.0017 151.818C83.4714 151.49 83.0621 151.032 82.7737 150.445C82.4887 149.856 82.3462 149.169 82.3462 148.387C82.3462 147.605 82.4887 146.916 82.7737 146.319C83.0621 145.719 83.4631 145.252 83.9768 144.917C84.4939 144.579 85.0971 144.41 85.7865 144.41C86.1842 144.41 86.577 144.476 86.9648 144.609C87.3526 144.741 87.7055 144.957 88.0237 145.255C88.3419 145.55 88.5954 145.941 88.7844 146.428C88.9733 146.916 89.0677 147.516 89.0677 148.228V148.725H83.1814V147.711H87.8746C87.8746 147.28 87.7884 146.896 87.616 146.558C87.447 146.22 87.2051 145.953 86.8902 145.757C86.5786 145.562 86.2107 145.464 85.7865 145.464C85.3192 145.464 84.9148 145.58 84.5734 145.812C84.2354 146.041 83.9752 146.339 83.7929 146.707C83.6106 147.075 83.5195 147.469 83.5195 147.89V148.566C83.5195 149.143 83.6189 149.632 83.8177 150.033C84.0199 150.431 84.3 150.734 84.6579 150.943C85.0159 151.148 85.4319 151.251 85.9058 151.251C86.2141 151.251 86.4925 151.208 86.741 151.122C86.9929 151.032 87.21 150.9 87.3923 150.724C87.5746 150.545 87.7155 150.323 87.8149 150.058L88.9484 150.376C88.8291 150.76 88.6286 151.098 88.3469 151.39C88.0651 151.678 87.7171 151.904 87.3028 152.066C86.8885 152.225 86.4229 152.305 85.9058 152.305ZM90.8526 152.146V144.509H91.9861V145.663H92.0656C92.2048 145.285 92.4567 144.978 92.8213 144.743C93.1859 144.508 93.5969 144.39 94.0543 144.39C94.1404 144.39 94.2481 144.392 94.3774 144.395C94.5067 144.398 94.6044 144.403 94.6707 144.41V145.603C94.631 145.593 94.5398 145.578 94.3973 145.558C94.2581 145.535 94.1106 145.524 93.9548 145.524C93.5836 145.524 93.2522 145.601 92.9605 145.757C92.6722 145.91 92.4435 146.122 92.2744 146.394C92.1087 146.662 92.0258 146.969 92.0258 147.313V152.146H90.8526Z" fill="#8F9098"/>
<mask id="mask0_252_7234" style="mask-type:alpha" maskUnits="userSpaceOnUse" x="263" y="140" width="17" height="14">
<path fill-rule="evenodd" clip-rule="evenodd" d="M279.068 141.733C279.393 141.408 279.393 140.88 279.068 140.555C278.742 140.229 278.214 140.229 277.889 140.555L265.889 152.555C265.564 152.88 265.564 153.408 265.889 153.733C266.215 154.059 266.742 154.059 267.068 153.733L268.794 152.007C270.741 152.767 272.97 152.823 275.07 151.997C277.289 151.124 279.049 149.371 279.921 147.146C279.351 145.705 278.418 144.476 277.25 143.551L279.068 141.733ZM275.209 145.592L274.064 146.737C274.09 146.871 274.103 147.008 274.103 147.146C274.103 147.725 273.873 148.28 273.464 148.689C273.055 149.098 272.5 149.328 271.921 149.328C271.783 149.328 271.646 149.315 271.512 149.289L270.367 150.434C270.849 150.661 271.379 150.782 271.921 150.782C272.886 150.782 273.811 150.399 274.493 149.717C275.175 149.035 275.558 148.11 275.558 147.146C275.558 146.603 275.436 146.073 275.209 145.592ZM271.921 141.691C272.848 141.691 273.75 141.841 274.6 142.122L273.037 143.685C272.68 143.57 272.304 143.51 271.921 143.51C270.957 143.51 270.032 143.893 269.35 144.575C268.668 145.257 268.285 146.181 268.285 147.146C268.285 147.528 268.345 147.904 268.46 148.262L266.255 150.467C265.254 149.592 264.442 148.47 263.921 147.146C265.216 143.873 268.387 141.691 271.921 141.691ZM270.378 145.603C270.747 145.234 271.235 145.011 271.751 144.971L269.746 146.976C269.786 146.459 270.01 145.972 270.378 145.603Z" fill="#006FFD"/>
</mask>
<g mask="url(#mask0_252_7234)">
<rect x="263.921" y="139.146" width="16" height="16" fill="#8F9098"/>
</g>
<path d="M5.77922 184.691C5.73661 184.331 5.56378 184.052 5.26075 183.853C4.95772 183.654 4.58604 183.555 4.1457 183.555C3.82373 183.555 3.542 183.607 3.30053 183.711C3.06142 183.815 2.87439 183.958 2.73945 184.141C2.60687 184.323 2.54058 184.53 2.54058 184.762C2.54058 184.956 2.58675 185.123 2.67908 185.263C2.77377 185.4 2.89451 185.515 3.04129 185.607C3.18807 185.697 3.34196 185.772 3.50294 185.831C3.66393 185.888 3.81189 185.934 3.94683 185.97L4.68547 186.168C4.87486 186.218 5.08556 186.287 5.31757 186.374C5.55195 186.462 5.77567 186.582 5.98874 186.733C6.20417 186.882 6.38173 187.074 6.52141 187.308C6.66109 187.543 6.73092 187.83 6.73092 188.171C6.73092 188.564 6.62794 188.919 6.42198 189.237C6.21838 189.554 5.92008 189.806 5.52709 189.993C5.13646 190.18 4.6618 190.274 4.10308 190.274C3.58225 190.274 3.13126 190.19 2.7501 190.021C2.37131 189.853 2.07302 189.619 1.85521 189.318C1.63978 189.018 1.51786 188.668 1.48945 188.271H2.39854C2.42221 188.545 2.51454 188.773 2.67553 188.953C2.83888 189.13 3.04484 189.263 3.29342 189.35C3.54437 189.436 3.81426 189.478 4.10308 189.478C4.43926 189.478 4.7411 189.424 5.00862 189.315C5.27614 189.204 5.48803 189.05 5.64428 188.853C5.80053 188.654 5.87865 188.422 5.87865 188.157C5.87865 187.916 5.81118 187.719 5.67624 187.568C5.54129 187.416 5.36374 187.293 5.14357 187.198C4.9234 187.104 4.68547 187.021 4.42979 186.95L3.5349 186.694C2.96672 186.531 2.51691 186.298 2.18547 185.994C1.85403 185.691 1.68831 185.295 1.68831 184.805C1.68831 184.398 1.7984 184.043 2.01857 183.74C2.2411 183.434 2.5394 183.197 2.91345 183.029C3.28987 182.859 3.71009 182.774 4.17411 182.774C4.64286 182.774 5.05952 182.858 5.42411 183.026C5.78869 183.191 6.07751 183.419 6.29058 183.708C6.50602 183.996 6.61966 184.324 6.63149 184.691H5.77922ZM11.6528 187.916V184.691H12.4908V190.146H11.6528V189.222H11.5959C11.4681 189.499 11.2692 189.735 10.9994 189.929C10.7295 190.121 10.3886 190.217 9.97663 190.217C9.63572 190.217 9.33269 190.142 9.06754 189.993C8.80238 189.842 8.59405 189.614 8.44254 189.311C8.29102 189.006 8.21526 188.621 8.21526 188.157V184.691H9.05333V188.1C9.05333 188.498 9.1646 188.815 9.38714 189.052C9.61204 189.289 9.8985 189.407 10.2465 189.407C10.4548 189.407 10.6667 189.354 10.8822 189.247C11.1 189.141 11.2823 188.977 11.429 188.757C11.5782 188.537 11.6528 188.257 11.6528 187.916ZM14.1758 192.191V184.691H14.9855V185.558H15.0849C15.1465 185.463 15.2317 185.342 15.3406 185.195C15.4519 185.046 15.6105 184.914 15.8164 184.798C16.0248 184.679 16.3065 184.62 16.6616 184.62C17.1209 184.62 17.5257 184.735 17.8761 184.965C18.2265 185.194 18.4999 185.52 18.6964 185.941C18.8929 186.363 18.9912 186.86 18.9912 187.433C18.9912 188.01 18.8929 188.511 18.6964 188.935C18.4999 189.356 18.2277 189.683 17.8796 189.915C17.5316 190.145 17.1304 190.259 16.6758 190.259C16.3254 190.259 16.0449 190.201 15.8342 190.085C15.6235 189.967 15.4613 189.833 15.3477 189.684C15.234 189.533 15.1465 189.407 15.0849 189.308H15.0139V192.191H14.1758ZM14.9997 187.418C14.9997 187.83 15.06 188.194 15.1808 188.509C15.3015 188.821 15.4779 189.066 15.7099 189.244C15.9419 189.419 16.226 189.507 16.5622 189.507C16.9126 189.507 17.2049 189.414 17.4393 189.23C17.676 189.043 17.8536 188.792 17.972 188.477C18.0927 188.159 18.1531 187.807 18.1531 187.418C18.1531 187.035 18.0939 186.689 17.9755 186.382C17.8595 186.071 17.6831 185.826 17.4464 185.646C17.212 185.464 16.9173 185.373 16.5622 185.373C16.2213 185.373 15.9348 185.459 15.7028 185.632C15.4708 185.803 15.2956 186.042 15.1772 186.35C15.0589 186.655 14.9997 187.011 14.9997 187.418ZM20.4196 192.191V184.691H21.2292V185.558H21.3287C21.3902 185.463 21.4754 185.342 21.5843 185.195C21.6956 185.046 21.8542 184.914 22.0602 184.798C22.2685 184.679 22.5502 184.62 22.9054 184.62C23.3646 184.62 23.7695 184.735 24.1198 184.965C24.4702 185.194 24.7437 185.52 24.9402 185.941C25.1367 186.363 25.2349 186.86 25.2349 187.433C25.2349 188.01 25.1367 188.511 24.9402 188.935C24.7437 189.356 24.4714 189.683 24.1234 189.915C23.7754 190.145 23.3741 190.259 22.9196 190.259C22.5692 190.259 22.2886 190.201 22.0779 190.085C21.8672 189.967 21.7051 189.833 21.5914 189.684C21.4778 189.533 21.3902 189.407 21.3287 189.308H21.2576V192.191H20.4196ZM21.2434 187.418C21.2434 187.83 21.3038 188.194 21.4245 188.509C21.5453 188.821 21.7216 189.066 21.9537 189.244C22.1857 189.419 22.4698 189.507 22.8059 189.507C23.1563 189.507 23.4487 189.414 23.6831 189.23C23.9198 189.043 24.0974 188.792 24.2157 188.477C24.3365 188.159 24.3968 187.807 24.3968 187.418C24.3968 187.035 24.3376 186.689 24.2193 186.382C24.1033 186.071 23.9269 185.826 23.6902 185.646C23.4558 185.464 23.161 185.373 22.8059 185.373C22.465 185.373 22.1786 185.459 21.9465 185.632C21.7145 185.803 21.5394 186.042 21.421 186.35C21.3026 186.655 21.2434 187.011 21.2434 187.418ZM28.8792 190.259C28.3868 190.259 27.9547 190.142 27.5831 189.908C27.2137 189.673 26.9249 189.346 26.7166 188.924C26.5106 188.503 26.4076 188.01 26.4076 187.447C26.4076 186.879 26.5106 186.383 26.7166 185.959C26.9249 185.535 27.2137 185.206 27.5831 184.972C27.9547 184.737 28.3868 184.62 28.8792 184.62C29.3716 184.62 29.8025 184.737 30.1718 184.972C30.5435 185.206 30.8323 185.535 31.0383 185.959C31.2466 186.383 31.3508 186.879 31.3508 187.447C31.3508 188.01 31.2466 188.503 31.0383 188.924C30.8323 189.346 30.5435 189.673 30.1718 189.908C29.8025 190.142 29.3716 190.259 28.8792 190.259ZM28.8792 189.507C29.2533 189.507 29.561 189.411 29.8025 189.219C30.044 189.027 30.2227 188.775 30.3387 188.463C30.4547 188.15 30.5127 187.811 30.5127 187.447C30.5127 187.082 30.4547 186.743 30.3387 186.428C30.2227 186.113 30.044 185.858 29.8025 185.664C29.561 185.47 29.2533 185.373 28.8792 185.373C28.5052 185.373 28.1974 185.47 27.9559 185.664C27.7144 185.858 27.5357 186.113 27.4197 186.428C27.3037 186.743 27.2457 187.082 27.2457 187.447C27.2457 187.811 27.3037 188.15 27.4197 188.463C27.5357 188.775 27.7144 189.027 27.9559 189.219C28.1974 189.411 28.5052 189.507 28.8792 189.507ZM32.7801 190.146V184.691H33.5898V185.515H33.6466C33.746 185.245 33.9259 185.026 34.1864 184.858C34.4468 184.69 34.7403 184.606 35.067 184.606C35.1286 184.606 35.2055 184.607 35.2979 184.61C35.3902 184.612 35.46 184.615 35.5074 184.62V185.472C35.479 185.465 35.4139 185.455 35.3121 185.44C35.2126 185.424 35.1073 185.416 34.996 185.416C34.7309 185.416 34.4941 185.471 34.2858 185.583C34.0798 185.691 33.9165 185.843 33.7957 186.037C33.6774 186.229 33.6182 186.448 33.6182 186.694V190.146H32.7801ZM39.3648 184.691V185.401H36.5381V184.691H39.3648ZM37.3619 183.384H38.2V188.583C38.2 188.82 38.2343 188.998 38.303 189.116C38.374 189.232 38.464 189.31 38.5729 189.35C38.6841 189.388 38.8013 189.407 38.9244 189.407C39.0168 189.407 39.0925 189.402 39.1517 189.393C39.2109 189.381 39.2582 189.372 39.2937 189.365L39.4642 190.117C39.4074 190.139 39.3281 190.16 39.2263 190.181C39.1245 190.205 38.9954 190.217 38.8392 190.217C38.6025 190.217 38.3704 190.166 38.1432 190.064C37.9183 189.962 37.7312 189.807 37.5821 189.599C37.4353 189.391 37.3619 189.128 37.3619 188.811V183.384ZM46.1101 184.691V185.401H43.2834V184.691H46.1101ZM44.1072 183.384H44.9453V188.583C44.9453 188.82 44.9796 188.998 45.0483 189.116C45.1193 189.232 45.2093 189.31 45.3182 189.35C45.4294 189.388 45.5466 189.407 45.6697 189.407C45.7621 189.407 45.8378 189.402 45.897 189.393C45.9562 189.381 46.0035 189.372 46.0391 189.365L46.2095 190.117C46.1527 190.139 46.0734 190.16 45.9716 190.181C45.8698 190.205 45.7408 190.217 45.5845 190.217C45.3478 190.217 45.1158 190.166 44.8885 190.064C44.6636 189.962 44.4766 189.807 44.3274 189.599C44.1806 189.391 44.1072 189.128 44.1072 188.811V183.384ZM49.7491 190.259C49.2235 190.259 48.7701 190.143 48.389 189.911C48.0102 189.677 47.7178 189.35 47.5119 188.931C47.3083 188.51 47.2065 188.02 47.2065 187.461C47.2065 186.902 47.3083 186.41 47.5119 185.984C47.7178 185.555 48.0043 185.222 48.3712 184.982C48.7405 184.741 49.1714 184.62 49.6638 184.62C49.9479 184.62 50.2285 184.668 50.5055 184.762C50.7824 184.857 51.0346 185.011 51.2619 185.224C51.4891 185.435 51.6702 185.714 51.8052 186.062C51.9401 186.41 52.0076 186.838 52.0076 187.347V187.703H47.803V186.978H51.1553C51.1553 186.67 51.0938 186.396 50.9707 186.154C50.8499 185.913 50.6771 185.722 50.4522 185.583C50.2297 185.443 49.9669 185.373 49.6638 185.373C49.33 185.373 49.0412 185.456 48.7974 185.622C48.5559 185.785 48.37 185.998 48.2398 186.261C48.1096 186.524 48.0445 186.805 48.0445 187.106V187.589C48.0445 188.001 48.1155 188.35 48.2576 188.637C48.402 188.921 48.6021 189.137 48.8577 189.286C49.1134 189.433 49.4105 189.507 49.7491 189.507C49.9692 189.507 50.1681 189.476 50.3457 189.414C50.5256 189.35 50.6807 189.256 50.8109 189.13C50.9411 189.002 51.0417 188.844 51.1127 188.654L51.9224 188.882C51.8371 189.156 51.6939 189.398 51.4927 189.606C51.2914 189.812 51.0429 189.973 50.7469 190.089C50.451 190.203 50.1184 190.259 49.7491 190.259ZM53.911 184.691L55.2178 186.921L56.5246 184.691H57.4905L55.7291 187.418L57.4905 190.146H56.5246L55.2178 188.029L53.911 190.146H52.9451L54.678 187.418L52.9451 184.691H53.911ZM61.2085 184.691V185.401H58.3818V184.691H61.2085ZM59.2057 183.384H60.0437V188.583C60.0437 188.82 60.0781 188.998 60.1467 189.116C60.2178 189.232 60.3077 189.31 60.4166 189.35C60.5279 189.388 60.6451 189.407 60.7682 189.407C60.8605 189.407 60.9363 189.402 60.9954 189.393C61.0546 189.381 61.102 189.372 61.1375 189.365L61.3079 190.117C61.2511 190.139 61.1718 190.16 61.07 190.181C60.9682 190.205 60.8392 190.217 60.6829 190.217C60.4462 190.217 60.2142 190.166 59.9869 190.064C59.762 189.962 59.575 189.807 59.4258 189.599C59.2791 189.391 59.2057 189.128 59.2057 188.811V183.384Z" fill="#8F9098"/>
<mask id="mask1_252_7234" style="mask-type:alpha" maskUnits="userSpaceOnUse" x="166" y="200" width="17" height="12">
<path d="M174.896 204.054C174.317 204.054 173.762 204.284 173.353 204.694C172.944 205.103 172.714 205.658 172.714 206.236C172.714 206.815 172.944 207.37 173.353 207.779C173.762 208.188 174.317 208.418 174.896 208.418C175.474 208.418 176.029 208.188 176.438 207.779C176.848 207.37 177.077 206.815 177.077 206.236C177.077 205.658 176.848 205.103 176.438 204.694C176.029 204.284 175.474 204.054 174.896 204.054ZM174.896 209.873C173.931 209.873 173.006 209.49 172.324 208.808C171.642 208.126 171.259 207.201 171.259 206.236C171.259 205.272 171.642 204.347 172.324 203.665C173.006 202.983 173.931 202.6 174.896 202.6C175.86 202.6 176.785 202.983 177.467 203.665C178.149 204.347 178.532 205.272 178.532 206.236C178.532 207.201 178.149 208.126 177.467 208.808C176.785 209.49 175.86 209.873 174.896 209.873ZM174.896 200.782C171.361 200.782 168.19 202.964 166.896 206.236C168.634 210.658 173.623 212.825 178.045 211.087C180.263 210.214 182.023 208.462 182.896 206.236C181.601 202.964 178.43 200.782 174.896 200.782Z" fill="#006FFD"/>
</mask>
<g mask="url(#mask1_252_7234)">
<rect x="166.896" y="198.236" width="16" height="16" fill="#8F9098"/>
</g>
<path d="M195.754 204.782C195.711 204.422 195.538 204.142 195.235 203.943C194.932 203.745 194.56 203.645 194.12 203.645C193.798 203.645 193.516 203.697 193.275 203.801C193.036 203.906 192.849 204.049 192.714 204.231C192.581 204.413 192.515 204.621 192.515 204.853C192.515 205.047 192.561 205.214 192.653 205.353C192.748 205.491 192.869 205.605 193.016 205.698C193.162 205.788 193.316 205.862 193.477 205.921C193.638 205.978 193.786 206.024 193.921 206.06L194.66 206.259C194.849 206.309 195.06 206.377 195.292 206.465C195.526 206.552 195.75 206.672 195.963 206.823C196.179 206.973 196.356 207.164 196.496 207.399C196.635 207.633 196.705 207.921 196.705 208.262C196.705 208.655 196.602 209.01 196.396 209.327C196.193 209.644 195.894 209.896 195.501 210.083C195.111 210.27 194.636 210.364 194.077 210.364C193.557 210.364 193.106 210.28 192.724 210.112C192.346 209.944 192.047 209.709 191.83 209.409C191.614 209.108 191.492 208.759 191.464 208.361H192.373C192.397 208.636 192.489 208.863 192.65 209.043C192.813 209.22 193.019 209.353 193.268 209.441C193.519 209.526 193.789 209.568 194.077 209.568C194.414 209.568 194.715 209.514 194.983 209.405C195.251 209.294 195.462 209.14 195.619 208.943C195.775 208.745 195.853 208.513 195.853 208.247C195.853 208.006 195.786 207.809 195.651 207.658C195.516 207.506 195.338 207.383 195.118 207.289C194.898 207.194 194.66 207.111 194.404 207.04L193.509 206.784C192.941 206.621 192.491 206.388 192.16 206.085C191.828 205.782 191.663 205.385 191.663 204.895C191.663 204.488 191.773 204.133 191.993 203.83C192.215 203.524 192.514 203.288 192.888 203.12C193.264 202.949 193.684 202.864 194.148 202.864C194.617 202.864 195.034 202.948 195.398 203.116C195.763 203.282 196.052 203.509 196.265 203.798C196.48 204.087 196.594 204.415 196.606 204.782H195.754ZM199.028 206.955V210.236H198.19V202.963H199.028V205.634H199.099C199.227 205.352 199.418 205.128 199.674 204.963C199.932 204.795 200.275 204.711 200.704 204.711C201.076 204.711 201.401 204.785 201.68 204.934C201.96 205.081 202.176 205.307 202.33 205.613C202.487 205.916 202.565 206.301 202.565 206.77V210.236H201.727V206.827C201.727 206.394 201.614 206.059 201.389 205.822C201.167 205.583 200.858 205.463 200.462 205.463C200.188 205.463 199.942 205.521 199.724 205.637C199.508 205.753 199.338 205.923 199.212 206.145C199.089 206.368 199.028 206.638 199.028 206.955ZM206.464 210.35C205.971 210.35 205.539 210.233 205.168 209.998C204.798 209.764 204.509 209.436 204.301 209.014C204.095 208.593 203.992 208.101 203.992 207.537C203.992 206.969 204.095 206.473 204.301 206.049C204.509 205.626 204.798 205.296 205.168 205.062C205.539 204.828 205.971 204.711 206.464 204.711C206.956 204.711 207.387 204.828 207.756 205.062C208.128 205.296 208.417 205.626 208.623 206.049C208.831 206.473 208.935 206.969 208.935 207.537C208.935 208.101 208.831 208.593 208.623 209.014C208.417 209.436 208.128 209.764 207.756 209.998C207.387 210.233 206.956 210.35 206.464 210.35ZM206.464 209.597C206.838 209.597 207.146 209.501 207.387 209.309C207.629 209.117 207.807 208.865 207.923 208.553C208.039 208.24 208.097 207.902 208.097 207.537C208.097 207.173 208.039 206.833 207.923 206.518C207.807 206.203 207.629 205.949 207.387 205.755C207.146 205.56 206.838 205.463 206.464 205.463C206.09 205.463 205.782 205.56 205.54 205.755C205.299 205.949 205.12 206.203 205.004 206.518C204.888 206.833 204.83 207.173 204.83 207.537C204.83 207.902 204.888 208.24 205.004 208.553C205.12 208.865 205.299 209.117 205.54 209.309C205.782 209.501 206.09 209.597 206.464 209.597ZM211.415 210.236L209.753 204.782H210.634L211.813 208.958H211.869L213.034 204.782H213.929L215.08 208.943H215.136L216.315 204.782H217.196L215.534 210.236H214.71L213.517 206.046H213.432L212.239 210.236H211.415ZM222.411 202.963V210.236H221.53V202.963H222.411ZM226.429 210.35C225.918 210.35 225.477 210.229 225.108 209.988C224.739 209.746 224.455 209.413 224.256 208.99C224.057 208.566 223.957 208.082 223.957 207.537C223.957 206.983 224.059 206.494 224.263 206.071C224.469 205.644 224.755 205.312 225.122 205.073C225.491 204.831 225.922 204.711 226.415 204.711C226.798 204.711 227.144 204.782 227.452 204.924C227.759 205.066 228.012 205.264 228.208 205.52C228.405 205.776 228.527 206.074 228.574 206.415H227.736C227.672 206.166 227.53 205.946 227.31 205.755C227.092 205.56 226.798 205.463 226.429 205.463C226.102 205.463 225.816 205.549 225.57 205.719C225.326 205.887 225.135 206.125 224.998 206.433C224.863 206.738 224.795 207.097 224.795 207.509C224.795 207.93 224.862 208.297 224.994 208.61C225.129 208.922 225.319 209.165 225.562 209.338C225.809 209.51 226.098 209.597 226.429 209.597C226.647 209.597 226.844 209.559 227.022 209.483C227.2 209.407 227.35 209.299 227.473 209.157C227.596 209.014 227.684 208.844 227.736 208.645H228.574C228.527 208.967 228.409 209.257 228.222 209.515C228.038 209.771 227.793 209.974 227.487 210.126C227.184 210.275 226.831 210.35 226.429 210.35ZM232.165 210.35C231.672 210.35 231.24 210.233 230.869 209.998C230.499 209.764 230.211 209.436 230.002 209.014C229.796 208.593 229.693 208.101 229.693 207.537C229.693 206.969 229.796 206.473 230.002 206.049C230.211 205.626 230.499 205.296 230.869 205.062C231.24 204.828 231.672 204.711 232.165 204.711C232.657 204.711 233.088 204.828 233.458 205.062C233.829 205.296 234.118 205.626 234.324 206.049C234.532 206.473 234.637 206.969 234.637 207.537C234.637 208.101 234.532 208.593 234.324 209.014C234.118 209.436 233.829 209.764 233.458 209.998C233.088 210.233 232.657 210.35 232.165 210.35ZM232.165 209.597C232.539 209.597 232.847 209.501 233.088 209.309C233.33 209.117 233.508 208.865 233.624 208.553C233.74 208.24 233.798 207.902 233.798 207.537C233.798 207.173 233.74 206.833 233.624 206.518C233.508 206.203 233.33 205.949 233.088 205.755C232.847 205.56 232.539 205.463 232.165 205.463C231.791 205.463 231.483 205.56 231.242 205.755C231 205.949 230.821 206.203 230.705 206.518C230.589 206.833 230.531 207.173 230.531 207.537C230.531 207.902 230.589 208.24 230.705 208.553C230.821 208.865 231 209.117 231.242 209.309C231.483 209.501 231.791 209.597 232.165 209.597ZM236.904 206.955V210.236H236.066V204.782H236.875V205.634H236.946C237.074 205.357 237.268 205.134 237.529 204.966C237.789 204.796 238.125 204.711 238.537 204.711C238.907 204.711 239.23 204.786 239.507 204.938C239.784 205.087 239.999 205.314 240.153 205.62C240.307 205.923 240.384 206.306 240.384 206.77V210.236H239.546V206.827C239.546 206.398 239.435 206.065 239.212 205.826C238.99 205.584 238.684 205.463 238.296 205.463C238.028 205.463 237.789 205.521 237.579 205.637C237.37 205.753 237.206 205.923 237.085 206.145C236.964 206.368 236.904 206.638 236.904 206.955Z" fill="#1F2024"/>
<mask id="mask2_252_7234" style="mask-type:alpha" maskUnits="userSpaceOnUse" x="42" y="237" width="17" height="12">
<path d="M50.8906 241.054C50.312 241.054 49.757 241.284 49.3478 241.694C48.9387 242.103 48.7088 242.658 48.7088 243.236C48.7088 243.815 48.9387 244.37 49.3478 244.779C49.757 245.188 50.312 245.418 50.8906 245.418C51.4693 245.418 52.0242 245.188 52.4334 244.779C52.8426 244.37 53.0724 243.815 53.0724 243.236C53.0724 242.658 52.8426 242.103 52.4334 241.694C52.0242 241.284 51.4693 241.054 50.8906 241.054ZM50.8906 246.873C49.9262 246.873 49.0013 246.49 48.3193 245.808C47.6374 245.126 47.2543 244.201 47.2543 243.236C47.2543 242.272 47.6374 241.347 48.3193 240.665C49.0013 239.983 49.9262 239.6 50.8906 239.6C51.855 239.6 52.78 239.983 53.4619 240.665C54.1439 241.347 54.527 242.272 54.527 243.236C54.527 244.201 54.1439 245.126 53.4619 245.808C52.78 246.49 51.855 246.873 50.8906 246.873ZM50.8906 237.782C47.3561 237.782 44.1852 239.964 42.8906 243.236C44.6288 247.658 49.6179 249.825 54.0397 248.087C56.2579 247.214 58.0179 245.462 58.8906 243.236C57.5961 239.964 54.4252 237.782 50.8906 237.782Z" fill="#006FFD"/>
</mask>
<g mask="url(#mask2_252_7234)">
<rect x="42.8906" y="235.236" width="16" height="16" fill="#8F9098"/>
</g>
<path d="M71.7486 241.782C71.706 241.422 71.5331 241.142 71.2301 240.943C70.9271 240.745 70.5554 240.645 70.1151 240.645C69.7931 240.645 69.5114 240.697 69.2699 240.801C69.0308 240.906 68.8438 241.049 68.7088 241.231C68.5762 241.413 68.5099 241.621 68.5099 241.853C68.5099 242.047 68.5561 242.214 68.6484 242.353C68.7431 242.491 68.8639 242.605 69.0107 242.698C69.1574 242.788 69.3113 242.862 69.4723 242.921C69.6333 242.978 69.7812 243.024 69.9162 243.06L70.6548 243.259C70.8442 243.309 71.0549 243.377 71.2869 243.465C71.5213 243.552 71.745 243.672 71.9581 243.823C72.1735 243.973 72.3511 244.164 72.4908 244.399C72.6304 244.633 72.7003 244.921 72.7003 245.262C72.7003 245.655 72.5973 246.01 72.3913 246.327C72.1877 246.644 71.8894 246.896 71.4964 247.083C71.1058 247.27 70.6312 247.364 70.0724 247.364C69.5516 247.364 69.1006 247.28 68.7195 247.112C68.3407 246.944 68.0424 246.709 67.8246 246.409C67.6091 246.108 67.4872 245.759 67.4588 245.361H68.3679C68.3916 245.636 68.4839 245.863 68.6449 246.043C68.8082 246.22 69.0142 246.353 69.2628 246.441C69.5137 246.526 69.7836 246.568 70.0724 246.568C70.4086 246.568 70.7105 246.514 70.978 246.405C71.2455 246.294 71.4574 246.14 71.6136 245.943C71.7699 245.745 71.848 245.513 71.848 245.247C71.848 245.006 71.7805 244.809 71.6456 244.658C71.5107 244.506 71.3331 244.383 71.1129 244.289C70.8928 244.194 70.6548 244.111 70.3991 244.04L69.5043 243.784C68.9361 243.621 68.4863 243.388 68.1548 243.085C67.8234 242.782 67.6577 242.385 67.6577 241.895C67.6577 241.488 67.7678 241.133 67.9879 240.83C68.2105 240.524 68.5088 240.288 68.8828 240.12C69.2592 239.949 69.6795 239.864 70.1435 239.864C70.6122 239.864 71.0289 239.948 71.3935 240.116C71.758 240.282 72.0469 240.509 72.2599 240.798C72.4754 241.087 72.589 241.415 72.6009 241.782H71.7486ZM75.0227 243.955V247.236H74.1846V239.963H75.0227V242.634H75.0937C75.2216 242.352 75.4133 242.128 75.669 241.963C75.927 241.795 76.2703 241.711 76.6988 241.711C77.0705 241.711 77.396 241.785 77.6754 241.934C77.9547 242.081 78.1714 242.307 78.3252 242.613C78.4815 242.916 78.5596 243.301 78.5596 243.77V247.236H77.7216V243.827C77.7216 243.394 77.6091 243.059 77.3842 242.822C77.1617 242.583 76.8527 242.463 76.4574 242.463C76.1827 242.463 75.9365 242.521 75.7187 242.637C75.5033 242.753 75.3328 242.923 75.2074 243.145C75.0842 243.368 75.0227 243.638 75.0227 243.955ZM82.4587 247.35C81.9663 247.35 81.5343 247.233 81.1626 246.998C80.7933 246.764 80.5044 246.436 80.2961 246.014C80.0901 245.593 79.9871 245.101 79.9871 244.537C79.9871 243.969 80.0901 243.473 80.2961 243.049C80.5044 242.626 80.7933 242.296 81.1626 242.062C81.5343 241.828 81.9663 241.711 82.4587 241.711C82.9512 241.711 83.382 241.828 83.7513 242.062C84.123 242.296 84.4119 242.626 84.6178 243.049C84.8262 243.473 84.9303 243.969 84.9303 244.537C84.9303 245.101 84.8262 245.593 84.6178 246.014C84.4119 246.436 84.123 246.764 83.7513 246.998C83.382 247.233 82.9512 247.35 82.4587 247.35ZM82.4587 246.597C82.8328 246.597 83.1406 246.501 83.382 246.309C83.6235 246.117 83.8022 245.865 83.9183 245.553C84.0343 245.24 84.0923 244.902 84.0923 244.537C84.0923 244.173 84.0343 243.833 83.9183 243.518C83.8022 243.203 83.6235 242.949 83.382 242.755C83.1406 242.56 82.8328 242.463 82.4587 242.463C82.0847 242.463 81.7769 242.56 81.5354 242.755C81.294 242.949 81.1152 243.203 80.9992 243.518C80.8832 243.833 80.8252 244.173 80.8252 244.537C80.8252 244.902 80.8832 245.24 80.9992 245.553C81.1152 245.865 81.294 246.117 81.5354 246.309C81.7769 246.501 82.0847 246.597 82.4587 246.597ZM87.4099 247.236L85.7479 241.782H86.6286L87.8076 245.958H87.8644L89.0292 241.782H89.9241L91.0746 245.943H91.1315L92.3104 241.782H93.1911L91.5292 247.236H90.7053L89.5121 243.046H89.4269L88.2337 247.236H87.4099ZM101.502 241.782C101.46 241.422 101.287 241.142 100.984 240.943C100.681 240.745 100.309 240.645 99.869 240.645C99.547 240.645 99.2653 240.697 99.0238 240.801C98.7847 240.906 98.5977 241.049 98.4627 241.231C98.3301 241.413 98.2638 241.621 98.2638 241.853C98.2638 242.047 98.31 242.214 98.4023 242.353C98.497 242.491 98.6178 242.605 98.7646 242.698C98.9113 242.788 99.0652 242.862 99.2262 242.921C99.3872 242.978 99.5352 243.024 99.6701 243.06L100.409 243.259C100.598 243.309 100.809 243.377 101.041 243.465C101.275 243.552 101.499 243.672 101.712 243.823C101.927 243.973 102.105 244.164 102.245 244.399C102.384 244.633 102.454 244.921 102.454 245.262C102.454 245.655 102.351 246.01 102.145 246.327C101.942 246.644 101.643 246.896 101.25 247.083C100.86 247.27 100.385 247.364 99.8263 247.364C99.3055 247.364 98.8545 247.28 98.4734 247.112C98.0946 246.944 97.7963 246.709 97.5785 246.409C97.363 246.108 97.2411 245.759 97.2127 245.361H98.1218C98.1455 245.636 98.2378 245.863 98.3988 246.043C98.5621 246.22 98.7681 246.353 99.0167 246.441C99.2676 246.526 99.5375 246.568 99.8263 246.568C100.163 246.568 100.464 246.514 100.732 246.405C100.999 246.294 101.211 246.14 101.368 245.943C101.524 245.745 101.602 245.513 101.602 245.247C101.602 245.006 101.534 244.809 101.4 244.658C101.265 244.506 101.087 244.383 100.867 244.289C100.647 244.194 100.409 244.111 100.153 244.04L99.2582 243.784C98.69 243.621 98.2402 243.388 97.9087 243.085C97.5773 242.782 97.4116 242.385 97.4116 241.895C97.4116 241.488 97.5217 241.133 97.7418 240.83C97.9644 240.524 98.2627 240.288 98.6367 240.12C99.0131 239.949 99.4334 239.864 99.8974 239.864C100.366 239.864 100.783 239.948 101.147 240.116C101.512 240.282 101.801 240.509 102.014 240.798C102.229 241.087 102.343 241.415 102.355 241.782H101.502ZM107.376 245.006V241.782H108.214V247.236H107.376V246.313H107.319C107.191 246.59 106.993 246.825 106.723 247.019C106.453 247.211 106.112 247.307 105.7 247.307C105.359 247.307 105.056 247.233 104.791 247.083C104.526 246.932 104.317 246.705 104.166 246.402C104.014 246.096 103.939 245.711 103.939 245.247V241.782H104.777V245.191C104.777 245.588 104.888 245.906 105.11 246.142C105.335 246.379 105.622 246.497 105.97 246.497C106.178 246.497 106.39 246.444 106.605 246.338C106.823 246.231 107.006 246.068 107.152 245.848C107.301 245.627 107.376 245.347 107.376 245.006ZM109.899 249.282V241.782H110.709V242.648H110.808C110.87 242.553 110.955 242.433 111.064 242.286C111.175 242.137 111.334 242.004 111.54 241.888C111.748 241.77 112.03 241.711 112.385 241.711C112.844 241.711 113.249 241.825 113.599 242.055C113.95 242.285 114.223 242.61 114.42 243.032C114.616 243.453 114.714 243.95 114.714 244.523C114.714 245.101 114.616 245.601 114.42 246.025C114.223 246.447 113.951 246.773 113.603 247.005C113.255 247.235 112.854 247.35 112.399 247.35C112.049 247.35 111.768 247.292 111.557 247.176C111.347 247.057 111.185 246.924 111.071 246.774C110.957 246.623 110.87 246.497 110.808 246.398H110.737V249.282H109.899ZM110.723 244.509C110.723 244.921 110.783 245.284 110.904 245.599C111.025 245.912 111.201 246.157 111.433 246.334C111.665 246.509 111.949 246.597 112.285 246.597C112.636 246.597 112.928 246.505 113.163 246.32C113.399 246.133 113.577 245.882 113.695 245.567C113.816 245.25 113.876 244.897 113.876 244.509C113.876 244.125 113.817 243.78 113.699 243.472C113.583 243.162 113.406 242.917 113.17 242.737C112.935 242.555 112.641 242.463 112.285 242.463C111.945 242.463 111.658 242.55 111.426 242.723C111.194 242.893 111.019 243.132 110.9 243.44C110.782 243.745 110.723 244.102 110.723 244.509ZM116.143 249.282V241.782H116.952V242.648H117.052C117.113 242.553 117.199 242.433 117.308 242.286C117.419 242.137 117.577 242.004 117.783 241.888C117.992 241.77 118.274 241.711 118.629 241.711C119.088 241.711 119.493 241.825 119.843 242.055C120.193 242.285 120.467 242.61 120.663 243.032C120.86 243.453 120.958 243.95 120.958 244.523C120.958 245.101 120.86 245.601 120.663 246.025C120.467 246.447 120.195 246.773 119.847 247.005C119.499 247.235 119.097 247.35 118.643 247.35C118.292 247.35 118.012 247.292 117.801 247.176C117.591 247.057 117.428 246.924 117.315 246.774C117.201 246.623 117.113 246.497 117.052 246.398H116.981V249.282H116.143ZM116.967 244.509C116.967 244.921 117.027 245.284 117.148 245.599C117.269 245.912 117.445 246.157 117.677 246.334C117.909 246.509 118.193 246.597 118.529 246.597C118.88 246.597 119.172 246.505 119.406 246.32C119.643 246.133 119.821 245.882 119.939 245.567C120.06 245.25 120.12 244.897 120.12 244.509C120.12 244.125 120.061 243.78 119.943 243.472C119.827 243.162 119.65 242.917 119.413 242.737C119.179 242.555 118.884 242.463 118.529 242.463C118.188 242.463 117.902 242.55 117.67 242.723C117.438 242.893 117.263 243.132 117.144 243.44C117.026 243.745 116.967 244.102 116.967 244.509ZM124.602 247.35C124.11 247.35 123.678 247.233 123.306 246.998C122.937 246.764 122.648 246.436 122.44 246.014C122.234 245.593 122.131 245.101 122.131 244.537C122.131 243.969 122.234 243.473 122.44 243.049C122.648 242.626 122.937 242.296 123.306 242.062C123.678 241.828 124.11 241.711 124.602 241.711C125.095 241.711 125.526 241.828 125.895 242.062C126.267 242.296 126.556 242.626 126.762 243.049C126.97 243.473 127.074 243.969 127.074 244.537C127.074 245.101 126.97 245.593 126.762 246.014C126.556 246.436 126.267 246.764 125.895 246.998C125.526 247.233 125.095 247.35 124.602 247.35ZM124.602 246.597C124.977 246.597 125.284 246.501 125.526 246.309C125.767 246.117 125.946 245.865 126.062 245.553C126.178 245.24 126.236 244.902 126.236 244.537C126.236 244.173 126.178 243.833 126.062 243.518C125.946 243.203 125.767 242.949 125.526 242.755C125.284 242.56 124.977 242.463 124.602 242.463C124.228 242.463 123.921 242.56 123.679 242.755C123.438 242.949 123.259 243.203 123.143 243.518C123.027 243.833 122.969 244.173 122.969 244.537C122.969 244.902 123.027 245.24 123.143 245.553C123.259 245.865 123.438 246.117 123.679 246.309C123.921 246.501 124.228 246.597 124.602 246.597ZM128.503 247.236V241.782H129.313V242.605H129.37C129.469 242.336 129.649 242.117 129.91 241.948C130.17 241.78 130.464 241.696 130.79 241.696C130.852 241.696 130.929 241.697 131.021 241.7C131.113 241.702 131.183 241.706 131.231 241.711V242.563C131.202 242.556 131.137 242.545 131.035 242.531C130.936 242.514 130.831 242.506 130.719 242.506C130.454 242.506 130.217 242.562 130.009 242.673C129.803 242.782 129.64 242.933 129.519 243.127C129.401 243.319 129.341 243.538 129.341 243.784V247.236H128.503ZM135.088 241.782V242.492H132.261V241.782H135.088ZM133.085 240.475H133.923V245.674C133.923 245.91 133.958 246.088 134.026 246.206C134.097 246.322 134.187 246.4 134.296 246.441C134.407 246.479 134.525 246.497 134.648 246.497C134.74 246.497 134.816 246.493 134.875 246.483C134.934 246.471 134.982 246.462 135.017 246.455L135.187 247.208C135.131 247.229 135.051 247.25 134.95 247.272C134.848 247.295 134.719 247.307 134.562 247.307C134.326 247.307 134.094 247.256 133.866 247.154C133.642 247.053 133.455 246.898 133.305 246.689C133.159 246.481 133.085 246.218 133.085 245.901V240.475ZM139.177 240.745V239.963H144.632V240.745H142.345V247.236H141.464V240.745H139.177ZM147.523 247.35C146.998 247.35 146.544 247.234 146.163 247.002C145.784 246.767 145.492 246.441 145.286 246.022C145.082 245.6 144.981 245.11 144.981 244.551C144.981 243.993 145.082 243.5 145.286 243.074C145.492 242.646 145.778 242.312 146.145 242.073C146.515 241.831 146.945 241.711 147.438 241.711C147.722 241.711 148.003 241.758 148.28 241.853C148.556 241.947 148.809 242.101 149.036 242.314C149.263 242.525 149.444 242.804 149.579 243.152C149.714 243.5 149.782 243.929 149.782 244.438V244.793H145.577V244.068H148.929C148.929 243.761 148.868 243.486 148.745 243.245C148.624 243.003 148.451 242.813 148.226 242.673C148.004 242.533 147.741 242.463 147.438 242.463C147.104 242.463 146.815 242.546 146.571 242.712C146.33 242.875 146.144 243.088 146.014 243.351C145.884 243.614 145.819 243.896 145.819 244.196V244.679C145.819 245.091 145.89 245.44 146.032 245.727C146.176 246.011 146.376 246.228 146.632 246.377C146.887 246.523 147.185 246.597 147.523 246.597C147.743 246.597 147.942 246.566 148.12 246.505C148.3 246.441 148.455 246.346 148.585 246.22C148.715 246.093 148.816 245.934 148.887 245.745L149.696 245.972C149.611 246.247 149.468 246.488 149.267 246.696C149.065 246.902 148.817 247.063 148.521 247.179C148.225 247.293 147.892 247.35 147.523 247.35ZM151.685 241.782L152.992 244.012L154.299 241.782H155.265L153.503 244.509L155.265 247.236H154.299L152.992 245.12L151.685 247.236H150.719L152.452 244.509L150.719 241.782H151.685ZM158.983 241.782V242.492H156.156V241.782H158.983ZM156.98 240.475H157.818V245.674C157.818 245.91 157.852 246.088 157.921 246.206C157.992 246.322 158.082 246.4 158.191 246.441C158.302 246.479 158.419 246.497 158.542 246.497C158.635 246.497 158.71 246.493 158.769 246.483C158.829 246.471 158.876 246.462 158.912 246.455L159.082 247.208C159.025 247.229 158.946 247.25 158.844 247.272C158.742 247.295 158.613 247.307 158.457 247.307C158.22 247.307 157.988 247.256 157.761 247.154C157.536 247.053 157.349 246.898 157.2 246.689C157.053 246.481 156.98 246.218 156.98 245.901V240.475Z" fill="#1F2024"/>
<mask id="mask3_252_7234" style="mask-type:alpha" maskUnits="userSpaceOnUse" x="109" y="52" width="17" height="12">
<path d="M117.135 55.7188C116.556 55.7188 116.001 55.9486 115.592 56.3578C115.183 56.767 114.953 57.3219 114.953 57.9006C114.953 58.4792 115.183 59.0342 115.592 59.4434C116.001 59.8525 116.556 60.0824 117.135 60.0824C117.713 60.0824 118.268 59.8525 118.677 59.4434C119.087 59.0342 119.316 58.4792 119.316 57.9006C119.316 57.3219 119.087 56.767 118.677 56.3578C118.268 55.9486 117.713 55.7188 117.135 55.7188ZM117.135 61.537C116.17 61.537 115.245 61.1538 114.563 60.4719C113.881 59.7899 113.498 58.865 113.498 57.9006C113.498 56.9362 113.881 56.0112 114.563 55.3293C115.245 54.6473 116.17 54.2642 117.135 54.2642C118.099 54.2642 119.024 54.6473 119.706 55.3293C120.388 56.0112 120.771 56.9362 120.771 57.9006C120.771 58.865 120.388 59.7899 119.706 60.4719C119.024 61.1538 118.099 61.537 117.135 61.537ZM117.135 52.446C113.6 52.446 110.429 54.6279 109.135 57.9006C110.873 62.3224 115.862 64.4897 120.284 62.7515C122.502 61.8788 124.262 60.126 125.135 57.9006C123.84 54.6279 120.669 52.446 117.135 52.446Z" fill="#006FFD"/>
</mask>
<g mask="url(#mask3_252_7234)">
<rect x="109.135" y="49.9004" width="16" height="16" fill="#8F9098"/>
</g>
<path d="M137.993 56.4458C137.95 56.086 137.777 55.8066 137.474 55.6078C137.171 55.4089 136.799 55.3095 136.359 55.3095C136.037 55.3095 135.755 55.3616 135.514 55.4657C135.275 55.5699 135.088 55.7131 134.953 55.8954C134.82 56.0777 134.754 56.2849 134.754 56.5169C134.754 56.711 134.8 56.8779 134.892 57.0176C134.987 57.1549 135.108 57.2697 135.255 57.362C135.401 57.452 135.555 57.5266 135.716 57.5858C135.877 57.6426 136.025 57.6887 136.16 57.7243L136.899 57.9231C137.088 57.9728 137.299 58.0415 137.531 58.1291C137.765 58.2167 137.989 58.3362 138.202 58.4877C138.418 58.6369 138.595 58.8287 138.735 59.063C138.874 59.2974 138.944 59.585 138.944 59.926C138.944 60.319 138.841 60.6741 138.635 60.9913C138.432 61.3085 138.133 61.5607 137.74 61.7477C137.35 61.9347 136.875 62.0282 136.316 62.0282C135.796 62.0282 135.345 61.9442 134.963 61.7761C134.585 61.608 134.286 61.3736 134.069 61.073C133.853 60.7723 133.731 60.4231 133.703 60.0254H134.612C134.636 60.3 134.728 60.5273 134.889 60.7072C135.052 60.8848 135.258 61.0173 135.507 61.1049C135.758 61.1902 136.028 61.2328 136.316 61.2328C136.653 61.2328 136.954 61.1783 137.222 61.0694C137.49 60.9582 137.701 60.8043 137.858 60.6078C138.014 60.4089 138.092 60.1769 138.092 59.9118C138.092 59.6703 138.025 59.4738 137.89 59.3223C137.755 59.1708 137.577 59.0476 137.357 58.9529C137.137 58.8583 136.899 58.7754 136.643 58.7044L135.748 58.4487C135.18 58.2853 134.73 58.0521 134.399 57.7491C134.067 57.4461 133.902 57.0495 133.902 56.5595C133.902 56.1523 134.012 55.7972 134.232 55.4941C134.454 55.1887 134.753 54.952 135.127 54.7839C135.503 54.6135 135.923 54.5282 136.387 54.5282C136.856 54.5282 137.273 54.6123 137.637 54.7804C138.002 54.9461 138.291 55.1734 138.504 55.4622C138.719 55.751 138.833 56.0789 138.845 56.4458H137.993ZM141.267 58.6191V61.9004H140.429V54.6277H141.267V57.2981H141.338C141.466 57.0164 141.657 56.7927 141.913 56.627C142.171 56.4589 142.514 56.3748 142.943 56.3748C143.315 56.3748 143.64 56.4494 143.919 56.5985C144.199 56.7453 144.415 56.9714 144.569 57.2768C144.726 57.5798 144.804 57.9657 144.804 58.4345V61.9004H143.966V58.4913C143.966 58.0581 143.853 57.7231 143.628 57.4863C143.406 57.2472 143.097 57.1277 142.701 57.1277C142.427 57.1277 142.181 57.1857 141.963 57.3017C141.747 57.4177 141.577 57.5869 141.451 57.8095C141.328 58.032 141.267 58.3019 141.267 58.6191ZM148.703 62.014C148.21 62.014 147.778 61.8968 147.407 61.6625C147.037 61.4281 146.748 61.1002 146.54 60.6788C146.334 60.2574 146.231 59.765 146.231 59.2015C146.231 58.6333 146.334 58.1374 146.54 57.7136C146.748 57.2898 147.037 56.9608 147.407 56.7264C147.778 56.492 148.21 56.3748 148.703 56.3748C149.195 56.3748 149.626 56.492 149.995 56.7264C150.367 56.9608 150.656 57.2898 150.862 57.7136C151.07 58.1374 151.174 58.6333 151.174 59.2015C151.174 59.765 151.07 60.2574 150.862 60.6788C150.656 61.1002 150.367 61.4281 149.995 61.6625C149.626 61.8968 149.195 62.014 148.703 62.014ZM148.703 61.2612C149.077 61.2612 149.385 61.1653 149.626 60.9735C149.868 60.7818 150.046 60.5297 150.162 60.2172C150.278 59.9047 150.336 59.5661 150.336 59.2015C150.336 58.8369 150.278 58.4972 150.162 58.1824C150.046 57.8675 149.868 57.613 149.626 57.4189C149.385 57.2247 149.077 57.1277 148.703 57.1277C148.329 57.1277 148.021 57.2247 147.779 57.4189C147.538 57.613 147.359 57.8675 147.243 58.1824C147.127 58.4972 147.069 58.8369 147.069 59.2015C147.069 59.5661 147.127 59.9047 147.243 60.2172C147.359 60.5297 147.538 60.7818 147.779 60.9735C148.021 61.1653 148.329 61.2612 148.703 61.2612ZM153.654 61.9004L151.992 56.4458H152.873L154.052 60.622H154.108L155.273 56.4458H156.168L157.319 60.6078H157.375L158.554 56.4458H159.435L157.773 61.9004H156.949L155.756 57.71H155.671L154.478 61.9004H153.654ZM163.769 61.9004V54.6277H166.227C166.797 54.6277 167.264 54.7306 167.626 54.9366C167.99 55.1402 168.26 55.416 168.435 55.764C168.611 56.112 168.698 56.5003 168.698 56.9288C168.698 57.3573 168.611 57.7467 168.435 58.0971C168.263 58.4475 167.995 58.7269 167.633 58.9352C167.271 59.1412 166.807 59.2441 166.241 59.2441H164.479V58.4629H166.212C166.603 58.4629 166.917 58.3954 167.153 58.2605C167.39 58.1255 167.562 57.9432 167.668 57.7136C167.777 57.4816 167.832 57.22 167.832 56.9288C167.832 56.6376 167.777 56.3772 167.668 56.1475C167.562 55.9179 167.389 55.738 167.15 55.6078C166.911 55.4752 166.594 55.4089 166.198 55.4089H164.65V61.9004H163.769ZM170.991 54.6277V61.9004H170.153V54.6277H170.991ZM174.281 62.0282C173.936 62.0282 173.622 61.9631 173.34 61.8329C173.059 61.7003 172.835 61.5098 172.669 61.2612C172.503 61.0102 172.421 60.7072 172.421 60.3521C172.421 60.0396 172.482 59.7863 172.605 59.5922C172.728 59.3957 172.893 59.2418 173.099 59.1305C173.305 59.0192 173.532 58.9364 173.781 58.8819C174.032 58.8251 174.284 58.7801 174.537 58.747C174.869 58.7044 175.137 58.6724 175.343 58.6511C175.552 58.6274 175.703 58.5884 175.798 58.5339C175.895 58.4795 175.943 58.3848 175.943 58.2498V58.2214C175.943 57.871 175.847 57.5988 175.656 57.4047C175.466 57.2105 175.179 57.1135 174.793 57.1135C174.393 57.1135 174.079 57.2011 173.852 57.3762C173.624 57.5514 173.465 57.7385 173.372 57.9373L172.577 57.6532C172.719 57.3218 172.908 57.0637 173.145 56.8791C173.384 56.6921 173.645 56.5618 173.926 56.4885C174.21 56.4127 174.49 56.3748 174.764 56.3748C174.94 56.3748 175.141 56.3961 175.368 56.4387C175.598 56.479 175.819 56.563 176.032 56.6909C176.248 56.8187 176.426 57.0117 176.568 57.2697C176.71 57.5278 176.781 57.8734 176.781 58.3066V61.9004H175.943V61.1618H175.901C175.844 61.2801 175.749 61.4068 175.617 61.5417C175.484 61.6767 175.308 61.7915 175.088 61.8862C174.867 61.9809 174.599 62.0282 174.281 62.0282ZM174.409 61.2754C174.741 61.2754 175.02 61.2103 175.247 61.0801C175.477 60.9499 175.65 60.7818 175.766 60.5758C175.884 60.3699 175.943 60.1532 175.943 59.926V59.1589C175.908 59.2015 175.83 59.2406 175.709 59.2761C175.591 59.3092 175.453 59.3388 175.297 59.3649C175.143 59.3886 174.993 59.4099 174.846 59.4288C174.702 59.4454 174.584 59.4596 174.494 59.4714C174.277 59.4998 174.073 59.546 173.884 59.6099C173.697 59.6715 173.545 59.765 173.429 59.8904C173.316 60.0136 173.259 60.1816 173.259 60.3947C173.259 60.6859 173.366 60.9061 173.582 61.0552C173.8 61.202 174.075 61.2754 174.409 61.2754ZM180.677 62.014C180.166 62.014 179.725 61.8933 179.356 61.6518C178.987 61.4103 178.703 61.0777 178.504 60.6539C178.305 60.2302 178.205 59.746 178.205 59.2015C178.205 58.6475 178.307 58.1587 178.511 57.7349C178.717 57.3088 179.003 56.9761 179.37 56.737C179.739 56.4956 180.17 56.3748 180.663 56.3748C181.046 56.3748 181.392 56.4458 181.7 56.5879C182.007 56.7299 182.26 56.9288 182.456 57.1845C182.653 57.4402 182.775 57.7385 182.822 58.0794H181.984C181.92 57.8308 181.778 57.6106 181.558 57.4189C181.34 57.2247 181.046 57.1277 180.677 57.1277C180.35 57.1277 180.064 57.2129 179.818 57.3833C179.574 57.5514 179.383 57.7894 179.246 58.0971C179.111 58.4025 179.043 58.7612 179.043 59.1731C179.043 59.5945 179.11 59.9615 179.242 60.274C179.377 60.5865 179.567 60.8291 179.81 61.002C180.057 61.1748 180.346 61.2612 180.677 61.2612C180.895 61.2612 181.092 61.2233 181.27 61.1475C181.448 61.0718 181.598 60.9629 181.721 60.8208C181.844 60.6788 181.932 60.5083 181.984 60.3095H182.822C182.775 60.6315 182.657 60.9215 182.47 61.1795C182.286 61.4352 182.041 61.6388 181.735 61.7903C181.432 61.9395 181.079 62.014 180.677 62.014ZM186.484 62.014C185.958 62.014 185.505 61.898 185.124 61.666C184.745 61.4316 184.453 61.1049 184.247 60.6859C184.043 60.2645 183.941 59.7744 183.941 59.2157C183.941 58.657 184.043 58.1646 184.247 57.7385C184.453 57.31 184.739 56.9761 185.106 56.737C185.475 56.4956 185.906 56.3748 186.399 56.3748C186.683 56.3748 186.963 56.4222 187.24 56.5169C187.517 56.6116 187.769 56.7654 187.997 56.9785C188.224 57.1892 188.405 57.4686 188.54 57.8166C188.675 58.1646 188.742 58.5931 188.742 59.1021V59.4572H184.538V58.7328H187.89C187.89 58.425 187.829 58.1504 187.706 57.9089C187.585 57.6674 187.412 57.4769 187.187 57.3372C186.965 57.1975 186.702 57.1277 186.399 57.1277C186.065 57.1277 185.776 57.2105 185.532 57.3762C185.291 57.5396 185.105 57.7527 184.975 58.0154C184.844 58.2782 184.779 58.56 184.779 58.8606V59.3436C184.779 59.7555 184.85 60.1047 184.992 60.3912C185.137 60.6752 185.337 60.8919 185.593 61.041C185.848 61.1878 186.145 61.2612 186.484 61.2612C186.704 61.2612 186.903 61.2304 187.081 61.1689C187.26 61.1049 187.416 61.0102 187.546 60.8848C187.676 60.7569 187.777 60.5983 187.848 60.4089L188.657 60.6362C188.572 60.9108 188.429 61.1523 188.228 61.3606C188.026 61.5666 187.778 61.7276 187.482 61.8436C187.186 61.9572 186.853 62.014 186.484 62.014ZM191.005 58.6191V61.9004H190.167V54.6277H191.005V57.2981H191.076C191.204 57.0164 191.396 56.7927 191.652 56.627C191.91 56.4589 192.253 56.3748 192.682 56.3748C193.053 56.3748 193.379 56.4494 193.658 56.5985C193.937 56.7453 194.154 56.9714 194.308 57.2768C194.464 57.5798 194.542 57.9657 194.542 58.4345V61.9004H193.704V58.4913C193.704 58.0581 193.592 57.7231 193.367 57.4863C193.144 57.2472 192.835 57.1277 192.44 57.1277C192.165 57.1277 191.919 57.1857 191.701 57.3017C191.486 57.4177 191.316 57.5869 191.19 57.8095C191.067 58.032 191.005 58.3019 191.005 58.6191ZM198.441 62.014C197.949 62.014 197.517 61.8968 197.145 61.6625C196.776 61.4281 196.487 61.1002 196.279 60.6788C196.073 60.2574 195.97 59.765 195.97 59.2015C195.97 58.6333 196.073 58.1374 196.279 57.7136C196.487 57.2898 196.776 56.9608 197.145 56.7264C197.517 56.492 197.949 56.3748 198.441 56.3748C198.934 56.3748 199.365 56.492 199.734 56.7264C200.106 56.9608 200.395 57.2898 200.601 57.7136C200.809 58.1374 200.913 58.6333 200.913 59.2015C200.913 59.765 200.809 60.2574 200.601 60.6788C200.395 61.1002 200.106 61.4281 199.734 61.6625C199.365 61.8968 198.934 62.014 198.441 62.014ZM198.441 61.2612C198.815 61.2612 199.123 61.1653 199.365 60.9735C199.606 60.7818 199.785 60.5297 199.901 60.2172C200.017 59.9047 200.075 59.5661 200.075 59.2015C200.075 58.8369 200.017 58.4972 199.901 58.1824C199.785 57.8675 199.606 57.613 199.365 57.4189C199.123 57.2247 198.815 57.1277 198.441 57.1277C198.067 57.1277 197.76 57.2247 197.518 57.4189C197.277 57.613 197.098 57.8675 196.982 58.1824C196.866 58.4972 196.808 58.8369 196.808 59.2015C196.808 59.5661 196.866 59.9047 196.982 60.2172C197.098 60.5297 197.277 60.7818 197.518 60.9735C197.76 61.1653 198.067 61.2612 198.441 61.2612ZM203.18 54.6277V61.9004H202.342V54.6277H203.18ZM206.925 62.014C206.47 62.014 206.069 61.8992 205.721 61.6696C205.373 61.4376 205.101 61.1109 204.904 60.6895C204.708 60.2657 204.61 59.765 204.61 59.1873C204.61 58.6144 204.708 58.1172 204.904 57.6958C205.101 57.2744 205.374 56.9489 205.725 56.7193C206.075 56.4896 206.48 56.3748 206.939 56.3748C207.294 56.3748 207.575 56.434 207.781 56.5524C207.989 56.6684 208.148 56.801 208.257 56.9501C208.368 57.0969 208.454 57.2176 208.516 57.3123H208.587V54.6277H209.425V61.9004H208.615V61.0623H208.516C208.454 61.1618 208.367 61.2872 208.253 61.4387C208.14 61.5879 207.977 61.7217 207.767 61.84C207.556 61.956 207.275 62.014 206.925 62.014ZM207.039 61.2612C207.375 61.2612 207.659 61.1736 207.891 60.9984C208.123 60.8208 208.299 60.5758 208.42 60.2633C208.541 59.9484 208.601 59.585 208.601 59.1731C208.601 58.7659 208.542 58.4096 208.424 58.1042C208.305 57.7965 208.13 57.5574 207.898 57.3869C207.666 57.2141 207.38 57.1277 207.039 57.1277C206.684 57.1277 206.388 57.2188 206.151 57.4011C205.916 57.581 205.74 57.8261 205.622 58.1362C205.506 58.444 205.448 58.7896 205.448 59.1731C205.448 59.5614 205.507 59.9141 205.625 60.2314C205.746 60.5462 205.924 60.7972 206.158 60.9842C206.395 61.1689 206.688 61.2612 207.039 61.2612ZM213.513 62.014C212.988 62.014 212.534 61.898 212.153 61.666C211.774 61.4316 211.482 61.1049 211.276 60.6859C211.072 60.2645 210.971 59.7744 210.971 59.2157C210.971 58.657 211.072 58.1646 211.276 57.7385C211.482 57.31 211.768 56.9761 212.135 56.737C212.505 56.4956 212.936 56.3748 213.428 56.3748C213.712 56.3748 213.993 56.4222 214.27 56.5169C214.547 56.6116 214.799 56.7654 215.026 56.9785C215.253 57.1892 215.434 57.4686 215.569 57.8166C215.704 58.1646 215.772 58.5931 215.772 59.1021V59.4572H211.567V58.7328H214.919C214.919 58.425 214.858 58.1504 214.735 57.9089C214.614 57.6674 214.441 57.4769 214.216 57.3372C213.994 57.1975 213.731 57.1277 213.428 57.1277C213.094 57.1277 212.805 57.2105 212.562 57.3762C212.32 57.5396 212.134 57.7527 212.004 58.0154C211.874 58.2782 211.809 58.56 211.809 58.8606V59.3436C211.809 59.7555 211.88 60.1047 212.022 60.3912C212.166 60.6752 212.366 60.8919 212.622 61.041C212.878 61.1878 213.175 61.2612 213.513 61.2612C213.733 61.2612 213.932 61.2304 214.11 61.1689C214.29 61.1049 214.445 61.0102 214.575 60.8848C214.705 60.7569 214.806 60.5983 214.877 60.4089L215.687 60.6362C215.601 60.9108 215.458 61.1523 215.257 61.3606C215.056 61.5666 214.807 61.7276 214.511 61.8436C214.215 61.9572 213.883 62.014 213.513 62.014ZM217.197 61.9004V56.4458H218.006V57.2697H218.063C218.163 56.9998 218.342 56.7808 218.603 56.6127C218.863 56.4447 219.157 56.3606 219.484 56.3606C219.545 56.3606 219.622 56.3618 219.714 56.3642C219.807 56.3665 219.877 56.3701 219.924 56.3748V57.2271C219.895 57.22 219.83 57.2093 219.729 57.1951C219.629 57.1786 219.524 57.1703 219.413 57.1703C219.147 57.1703 218.911 57.2259 218.702 57.3372C218.496 57.4461 218.333 57.5976 218.212 57.7917C218.094 57.9835 218.035 58.2025 218.035 58.4487V61.9004H217.197Z" fill="#1F2024"/>
<mask id="mask4_252_7234" style="mask-type:alpha" maskUnits="userSpaceOnUse" x="43" y="2" width="17" height="12">
<path d="M51.9213 5.81838C51.3426 5.81838 50.7877 6.04825 50.3785 6.45742C49.9693 6.86659 49.7394 7.42155 49.7394 8.0002C49.7394 8.57885 49.9693 9.13381 50.3785 9.54298C50.7877 9.95215 51.3426 10.182 51.9213 10.182C52.4999 10.182 53.0549 9.95215 53.464 9.54298C53.8732 9.13381 54.1031 8.57885 54.1031 8.0002C54.1031 7.42155 53.8732 6.86659 53.464 6.45742C53.0549 6.04825 52.4999 5.81838 51.9213 5.81838ZM51.9213 11.6366C50.9568 11.6366 50.0319 11.2534 49.35 10.5715C48.668 9.88955 48.2849 8.96462 48.2849 8.0002C48.2849 7.03578 48.668 6.11085 49.35 5.4289C50.0319 4.74695 50.9568 4.36384 51.9213 4.36384C52.8857 4.36384 53.8106 4.74695 54.4926 5.4289C55.1745 6.11085 55.5576 7.03578 55.5576 8.0002C55.5576 8.96462 55.1745 9.88955 54.4926 10.5715C53.8106 11.2534 52.8857 11.6366 51.9213 11.6366ZM51.9213 2.54565C48.3867 2.54565 45.2158 4.72747 43.9213 8.0002C45.6594 12.422 50.6485 14.5893 55.0704 12.8511C57.2885 11.9784 59.0485 10.2257 59.9213 8.0002C58.6267 4.72747 55.4558 2.54565 51.9213 2.54565Z" fill="#006FFD"/>
</mask>
<g mask="url(#mask4_252_7234)">
<rect x="43.9213" width="16" height="16" fill="#8F9098"/>
</g>
<path d="M72.7792 6.54545C72.7366 6.18561 72.5638 5.90625 72.2608 5.70739C71.9577 5.50852 71.586 5.40909 71.1457 5.40909C70.8237 5.40909 70.542 5.46117 70.3005 5.56534C70.0614 5.66951 69.8744 5.81274 69.7394 5.99503C69.6069 6.17732 69.5406 6.38447 69.5406 6.61648C69.5406 6.81061 69.5867 6.97751 69.6791 7.11719C69.7738 7.2545 69.8945 7.36932 70.0413 7.46165C70.1881 7.55161 70.342 7.62618 70.5029 7.68537C70.6639 7.74219 70.8119 7.78835 70.9468 7.82386L71.6855 8.02273C71.8749 8.07244 72.0856 8.1411 72.3176 8.22869C72.5519 8.31629 72.7757 8.43584 72.9887 8.58736C73.2042 8.73651 73.3817 8.92827 73.5214 9.16264C73.6611 9.39702 73.7309 9.68466 73.7309 10.0256C73.7309 10.4186 73.6279 10.7737 73.422 11.0909C73.2184 11.4081 72.9201 11.6603 72.5271 11.8473C72.1365 12.0343 71.6618 12.1278 71.1031 12.1278C70.5822 12.1278 70.1313 12.0438 69.7501 11.8757C69.3713 11.7076 69.073 11.4732 68.8552 11.1726C68.6398 10.8719 68.5179 10.5227 68.4894 10.125H69.3985C69.4222 10.3996 69.5145 10.6269 69.6755 10.8068C69.8389 10.9844 70.0448 11.117 70.2934 11.2045C70.5444 11.2898 70.8143 11.3324 71.1031 11.3324C71.4393 11.3324 71.7411 11.2779 72.0086 11.169C72.2761 11.0578 72.488 10.9039 72.6443 10.7074C72.8005 10.5085 72.8787 10.2765 72.8787 10.0114C72.8787 9.76989 72.8112 9.57339 72.6762 9.42188C72.5413 9.27036 72.3637 9.14725 72.1436 9.05256C71.9234 8.95786 71.6855 8.875 71.4298 8.80398L70.5349 8.5483C69.9667 8.38494 69.5169 8.15175 69.1855 7.84872C68.854 7.54569 68.6883 7.14915 68.6883 6.65909C68.6883 6.25189 68.7984 5.89678 69.0186 5.59375C69.2411 5.28835 69.5394 5.05161 69.9135 4.88352C70.2899 4.71307 70.7101 4.62784 71.1741 4.62784C71.6429 4.62784 72.0595 4.71188 72.4241 4.87997C72.7887 5.04569 73.0775 5.27296 73.2906 5.56179C73.506 5.85062 73.6197 6.1785 73.6315 6.54545H72.7792ZM76.0533 8.71875V12H75.2153V4.72727H76.0533V7.39773H76.1244C76.2522 7.116 76.444 6.89228 76.6996 6.72656C76.9577 6.55848 77.301 6.47443 77.7295 6.47443C78.1012 6.47443 78.4267 6.54901 78.706 6.69815C78.9854 6.84493 79.202 7.07102 79.3559 7.37642C79.5121 7.67945 79.5903 8.06534 79.5903 8.53409V12H78.7522V8.59091C78.7522 8.15767 78.6397 7.82268 78.4148 7.58594C78.1923 7.34683 77.8834 7.22727 77.488 7.22727C77.2134 7.22727 76.9672 7.28527 76.7494 7.40128C76.5339 7.51728 76.3635 7.68655 76.238 7.90909C76.1149 8.13163 76.0533 8.40152 76.0533 8.71875ZM83.4894 12.1136C82.997 12.1136 82.5649 11.9964 82.1932 11.7621C81.8239 11.5277 81.5351 11.1998 81.3267 10.7784C81.1208 10.357 81.0178 9.86458 81.0178 9.30114C81.0178 8.73295 81.1208 8.23698 81.3267 7.81321C81.5351 7.38944 81.8239 7.06037 82.1932 6.82599C82.5649 6.59162 82.997 6.47443 83.4894 6.47443C83.9818 6.47443 84.4127 6.59162 84.782 6.82599C85.1537 7.06037 85.4425 7.38944 85.6485 7.81321C85.8568 8.23698 85.961 8.73295 85.961 9.30114C85.961 9.86458 85.8568 10.357 85.6485 10.7784C85.4425 11.1998 85.1537 11.5277 84.782 11.7621C84.4127 11.9964 83.9818 12.1136 83.4894 12.1136ZM83.4894 11.3608C83.8634 11.3608 84.1712 11.2649 84.4127 11.0732C84.6541 10.8814 84.8329 10.6293 84.9489 10.3168C85.0649 10.0043 85.1229 9.66572 85.1229 9.30114C85.1229 8.93655 85.0649 8.59683 84.9489 8.28196C84.8329 7.96709 84.6541 7.71259 84.4127 7.51847C84.1712 7.32434 83.8634 7.22727 83.4894 7.22727C83.1153 7.22727 82.8076 7.32434 82.5661 7.51847C82.3246 7.71259 82.1459 7.96709 82.0299 8.28196C81.9139 8.59683 81.8559 8.93655 81.8559 9.30114C81.8559 9.66572 81.9139 10.0043 82.0299 10.3168C82.1459 10.6293 82.3246 10.8814 82.5661 11.0732C82.8076 11.2649 83.1153 11.3608 83.4894 11.3608ZM88.4405 12L86.7786 6.54545H87.6593L88.8382 10.7216H88.8951L90.0598 6.54545H90.9547L92.1053 10.7074H92.1621L93.3411 6.54545H94.2218L92.5598 12H91.736L90.5428 7.80966H90.4576L89.2644 12H88.4405ZM98.1581 5.50852V4.72727H103.613V5.50852H101.326V12H100.445V5.50852H98.1581ZM105.008 12V6.54545H105.846V12H105.008ZM105.434 5.63636C105.271 5.63636 105.13 5.58073 105.012 5.46946C104.896 5.35819 104.838 5.22443 104.838 5.06818C104.838 4.91193 104.896 4.77817 105.012 4.6669C105.13 4.55563 105.271 4.5 105.434 4.5C105.598 4.5 105.737 4.55563 105.853 4.6669C105.972 4.77817 106.031 4.91193 106.031 5.06818C106.031 5.22443 105.972 5.35819 105.853 5.46946C105.737 5.58073 105.598 5.63636 105.434 5.63636ZM109.903 6.54545V7.25568H107.077V6.54545H109.903ZM107.901 5.23864H108.739V10.4375C108.739 10.6742 108.773 10.8518 108.842 10.9702C108.913 11.0862 109.003 11.1643 109.112 11.2045C109.223 11.2424 109.34 11.2614 109.463 11.2614C109.555 11.2614 109.631 11.2566 109.69 11.2472C109.75 11.2353 109.797 11.2259 109.832 11.2188L110.003 11.9716C109.946 11.9929 109.867 12.0142 109.765 12.0355C109.663 12.0592 109.534 12.071 109.378 12.071C109.141 12.071 108.909 12.0201 108.682 11.9183C108.457 11.8165 108.27 11.6615 108.121 11.4531C107.974 11.2448 107.901 10.982 107.901 10.6648V5.23864ZM112.269 4.72727V12H111.431V4.72727H112.269ZM116.241 12.1136C115.716 12.1136 115.262 11.9976 114.881 11.7656C114.502 11.5312 114.21 11.2045 114.004 10.7855C113.8 10.3641 113.699 9.87405 113.699 9.31534C113.699 8.75663 113.8 8.2642 114.004 7.83807C114.21 7.40956 114.496 7.07576 114.863 6.83665C115.233 6.59517 115.664 6.47443 116.156 6.47443C116.44 6.47443 116.721 6.52178 116.998 6.61648C117.275 6.71117 117.527 6.86506 117.754 7.07812C117.981 7.28883 118.162 7.56818 118.297 7.91619C118.432 8.2642 118.5 8.69271 118.5 9.2017V9.55682H114.295V8.83239H117.648C117.648 8.52462 117.586 8.25 117.463 8.00852C117.342 7.76705 117.169 7.57647 116.944 7.43679C116.722 7.29711 116.459 7.22727 116.156 7.22727C115.822 7.22727 115.533 7.31013 115.29 7.47585C115.048 7.6392 114.862 7.85227 114.732 8.11506C114.602 8.37784 114.537 8.65956 114.537 8.96023V9.44318C114.537 9.85511 114.608 10.2043 114.75 10.4908C114.894 10.7749 115.094 10.9915 115.35 11.1406C115.606 11.2874 115.903 11.3608 116.241 11.3608C116.461 11.3608 116.66 11.33 116.838 11.2685C117.018 11.2045 117.173 11.1098 117.303 10.9844C117.433 10.8565 117.534 10.6979 117.605 10.5085L118.415 10.7358C118.329 11.0104 118.186 11.2519 117.985 11.4602C117.784 11.6662 117.535 11.8272 117.239 11.9432C116.943 12.0568 116.611 12.1136 116.241 12.1136Z" fill="#1F2024"/>
<mask id="mask5_252_7234" style="mask-type:alpha" maskUnits="userSpaceOnUse" x="197" y="222" width="16" height="16">
<path fill-rule="evenodd" clip-rule="evenodd" d="M211.231 230.236L204.896 223.901L198.56 230.236L204.896 236.572L211.231 230.236ZM205.797 222.999C205.299 222.502 204.492 222.502 203.994 222.999L197.659 229.335C197.161 229.833 197.161 230.64 197.659 231.137L203.994 237.473C204.492 237.97 205.299 237.97 205.797 237.473L212.132 231.137C212.63 230.64 212.63 229.833 212.132 229.335L205.797 222.999Z" fill="#006FFD"/>
</mask>
<g mask="url(#mask5_252_7234)">
<rect x="196.896" y="222.236" width="16" height="16" fill="#8F9098"/>
</g>
<path d="M222.657 226.963V234.236H221.776V226.963H222.657ZM226.675 234.35C226.164 234.35 225.723 234.229 225.354 233.988C224.985 233.746 224.701 233.413 224.502 232.99C224.303 232.566 224.203 232.082 224.203 231.537C224.203 230.983 224.305 230.494 224.509 230.071C224.715 229.644 225.001 229.312 225.368 229.073C225.738 228.831 226.168 228.711 226.661 228.711C227.044 228.711 227.39 228.782 227.698 228.924C228.006 229.066 228.258 229.264 228.454 229.52C228.651 229.776 228.773 230.074 228.82 230.415H227.982C227.918 230.166 227.776 229.946 227.556 229.755C227.338 229.56 227.044 229.463 226.675 229.463C226.348 229.463 226.062 229.549 225.816 229.719C225.572 229.887 225.381 230.125 225.244 230.433C225.109 230.738 225.042 231.097 225.042 231.509C225.042 231.93 225.108 232.297 225.24 232.61C225.375 232.922 225.565 233.165 225.809 233.338C226.055 233.51 226.344 233.597 226.675 233.597C226.893 233.597 227.091 233.559 227.268 233.483C227.446 233.407 227.596 233.299 227.719 233.157C227.842 233.014 227.93 232.844 227.982 232.645H228.82C228.773 232.967 228.655 233.257 228.468 233.515C228.284 233.771 228.039 233.974 227.733 234.126C227.43 234.275 227.078 234.35 226.675 234.35ZM232.411 234.35C231.919 234.35 231.487 234.233 231.115 233.998C230.746 233.764 230.457 233.436 230.248 233.014C230.042 232.593 229.939 232.101 229.939 231.537C229.939 230.969 230.042 230.473 230.248 230.049C230.457 229.626 230.746 229.296 231.115 229.062C231.487 228.828 231.919 228.711 232.411 228.711C232.903 228.711 233.334 228.828 233.704 229.062C234.075 229.296 234.364 229.626 234.57 230.049C234.778 230.473 234.883 230.969 234.883 231.537C234.883 232.101 234.778 232.593 234.57 233.014C234.364 233.436 234.075 233.764 233.704 233.998C233.334 234.233 232.903 234.35 232.411 234.35ZM232.411 233.597C232.785 233.597 233.093 233.501 233.334 233.309C233.576 233.117 233.755 232.865 233.871 232.553C233.987 232.24 234.045 231.902 234.045 231.537C234.045 231.173 233.987 230.833 233.871 230.518C233.755 230.203 233.576 229.949 233.334 229.755C233.093 229.56 232.785 229.463 232.411 229.463C232.037 229.463 231.729 229.56 231.488 229.755C231.246 229.949 231.067 230.203 230.951 230.518C230.835 230.833 230.777 231.173 230.777 231.537C230.777 231.902 230.835 232.24 230.951 232.553C231.067 232.865 231.246 233.117 231.488 233.309C231.729 233.501 232.037 233.597 232.411 233.597ZM237.15 230.955V234.236H236.312V228.782H237.122V229.634H237.193C237.32 229.357 237.515 229.134 237.775 228.966C238.035 228.796 238.372 228.711 238.783 228.711C239.153 228.711 239.476 228.786 239.753 228.938C240.03 229.087 240.245 229.314 240.399 229.62C240.553 229.923 240.63 230.306 240.63 230.77V234.236H239.792V230.827C239.792 230.398 239.681 230.065 239.458 229.826C239.236 229.584 238.93 229.463 238.542 229.463C238.274 229.463 238.035 229.521 237.825 229.637C237.616 229.753 237.452 229.923 237.331 230.145C237.21 230.368 237.15 230.638 237.15 230.955Z" fill="#1F2024"/>
<mask id="mask6_252_7234" style="mask-type:alpha" maskUnits="userSpaceOnUse" x="43" y="260" width="16" height="14">
<path d="M57.4091 260.569H44.3721C44.156 260.569 43.9487 260.652 43.7959 260.799C43.6431 260.946 43.5573 261.146 43.5573 261.354V263.707C43.5573 263.915 43.6431 264.114 43.7959 264.261C43.9487 264.408 44.156 264.491 44.3721 264.491C44.5882 264.491 44.7954 264.408 44.9482 264.261C45.101 264.114 45.1869 263.915 45.1869 263.707V262.138H50.0758V272.334H48.4461C48.23 272.334 48.0228 272.417 47.87 272.564C47.7172 272.711 47.6313 272.91 47.6313 273.118C47.6313 273.326 47.7172 273.526 47.87 273.673C48.0228 273.82 48.23 273.903 48.4461 273.903H53.335C53.5511 273.903 53.7584 273.82 53.9112 273.673C54.064 273.526 54.1498 273.326 54.1498 273.118C54.1498 272.91 54.064 272.711 53.9112 272.564C53.7584 272.417 53.5511 272.334 53.335 272.334H51.7054V262.138H56.5943V263.707C56.5943 263.915 56.6801 264.114 56.8329 264.261C56.9857 264.408 57.193 264.491 57.4091 264.491C57.6252 264.491 57.8325 264.408 57.9853 264.261C58.1381 264.114 58.2239 263.915 58.2239 263.707V261.354C58.2239 261.146 58.1381 260.946 57.9853 260.799C57.8325 260.652 57.6252 260.569 57.4091 260.569Z" fill="black"/>
</mask>
<g mask="url(#mask6_252_7234)">
<rect x="42.8906" y="259.236" width="16" height="16" fill="#8F9098"/>
</g>
<path d="M71.7486 265.782C71.706 265.422 71.5331 265.142 71.2301 264.943C70.9271 264.745 70.5554 264.645 70.1151 264.645C69.7931 264.645 69.5114 264.697 69.2699 264.801C69.0308 264.906 68.8438 265.049 68.7088 265.231C68.5762 265.413 68.5099 265.621 68.5099 265.853C68.5099 266.047 68.5561 266.214 68.6484 266.353C68.7431 266.491 68.8639 266.605 69.0107 266.698C69.1574 266.788 69.3113 266.862 69.4723 266.921C69.6333 266.978 69.7812 267.024 69.9162 267.06L70.6548 267.259C70.8442 267.309 71.0549 267.377 71.2869 267.465C71.5213 267.552 71.745 267.672 71.9581 267.823C72.1735 267.973 72.3511 268.164 72.4908 268.399C72.6304 268.633 72.7003 268.921 72.7003 269.262C72.7003 269.655 72.5973 270.01 72.3913 270.327C72.1877 270.644 71.8894 270.896 71.4964 271.083C71.1058 271.27 70.6312 271.364 70.0724 271.364C69.5516 271.364 69.1006 271.28 68.7195 271.112C68.3407 270.944 68.0424 270.709 67.8246 270.409C67.6091 270.108 67.4872 269.759 67.4588 269.361H68.3679C68.3916 269.636 68.4839 269.863 68.6449 270.043C68.8082 270.22 69.0142 270.353 69.2628 270.441C69.5137 270.526 69.7836 270.568 70.0724 270.568C70.4086 270.568 70.7105 270.514 70.978 270.405C71.2455 270.294 71.4574 270.14 71.6136 269.943C71.7699 269.745 71.848 269.513 71.848 269.247C71.848 269.006 71.7805 268.809 71.6456 268.658C71.5107 268.506 71.3331 268.383 71.1129 268.289C70.8928 268.194 70.6548 268.111 70.3991 268.04L69.5043 267.784C68.9361 267.621 68.4863 267.388 68.1548 267.085C67.8234 266.782 67.6577 266.385 67.6577 265.895C67.6577 265.488 67.7678 265.133 67.9879 264.83C68.2105 264.524 68.5088 264.288 68.8828 264.12C69.2592 263.949 69.6795 263.864 70.1435 263.864C70.6122 263.864 71.0289 263.948 71.3935 264.116C71.758 264.282 72.0469 264.509 72.2599 264.798C72.4754 265.087 72.589 265.415 72.6009 265.782H71.7486ZM77.6221 269.006V265.782H78.4602V271.236H77.6221V270.313H77.5653C77.4375 270.59 77.2386 270.825 76.9687 271.019C76.6988 271.211 76.3579 271.307 75.946 271.307C75.6051 271.307 75.302 271.233 75.0369 271.083C74.7717 270.932 74.5634 270.705 74.4119 270.402C74.2604 270.096 74.1846 269.711 74.1846 269.247V265.782H75.0227V269.191C75.0227 269.588 75.134 269.906 75.3565 270.142C75.5814 270.379 75.8679 270.497 76.2159 270.497C76.4242 270.497 76.6361 270.444 76.8515 270.338C77.0693 270.231 77.2516 270.068 77.3984 269.848C77.5475 269.627 77.6221 269.347 77.6221 269.006ZM80.1452 273.282V265.782H80.9548V266.648H81.0543C81.1158 266.553 81.201 266.433 81.3099 266.286C81.4212 266.137 81.5798 266.004 81.7858 265.888C81.9941 265.77 82.2759 265.711 82.631 265.711C83.0902 265.711 83.4951 265.825 83.8455 266.055C84.1958 266.285 84.4693 266.61 84.6658 267.032C84.8623 267.453 84.9605 267.95 84.9605 268.523C84.9605 269.101 84.8623 269.601 84.6658 270.025C84.4693 270.447 84.197 270.773 83.849 271.005C83.501 271.235 83.0997 271.35 82.6452 271.35C82.2948 271.35 82.0143 271.292 81.8036 271.176C81.5929 271.057 81.4307 270.924 81.317 270.774C81.2034 270.623 81.1158 270.497 81.0543 270.398H80.9832V273.282H80.1452ZM80.969 268.509C80.969 268.921 81.0294 269.284 81.1501 269.599C81.2709 269.912 81.4473 270.157 81.6793 270.334C81.9113 270.509 82.1954 270.597 82.5315 270.597C82.8819 270.597 83.1743 270.505 83.4087 270.32C83.6454 270.133 83.823 269.882 83.9413 269.567C84.0621 269.25 84.1224 268.897 84.1224 268.509C84.1224 268.125 84.0633 267.78 83.9449 267.472C83.8289 267.162 83.6525 266.917 83.4158 266.737C83.1814 266.555 82.8866 266.463 82.5315 266.463C82.1906 266.463 81.9042 266.55 81.6722 266.723C81.4402 266.893 81.265 267.132 81.1466 267.44C81.0282 267.745 80.969 268.102 80.969 268.509ZM86.3889 273.282V265.782H87.1986V266.648H87.298C87.3596 266.553 87.4448 266.433 87.5537 266.286C87.665 266.137 87.8236 266.004 88.0295 265.888C88.2379 265.77 88.5196 265.711 88.8747 265.711C89.334 265.711 89.7388 265.825 90.0892 266.055C90.4396 266.285 90.713 266.61 90.9095 267.032C91.106 267.453 91.2043 267.95 91.2043 268.523C91.2043 269.101 91.106 269.601 90.9095 270.025C90.713 270.447 90.4408 270.773 90.0928 271.005C89.7447 271.235 89.3435 271.35 88.8889 271.35C88.5385 271.35 88.258 271.292 88.0473 271.176C87.8366 271.057 87.6744 270.924 87.5608 270.774C87.4472 270.623 87.3596 270.497 87.298 270.398H87.227V273.282H86.3889ZM87.2128 268.509C87.2128 268.921 87.2732 269.284 87.3939 269.599C87.5146 269.912 87.691 270.157 87.923 270.334C88.155 270.509 88.4391 270.597 88.7753 270.597C89.1257 270.597 89.418 270.505 89.6524 270.32C89.8892 270.133 90.0667 269.882 90.1851 269.567C90.3058 269.25 90.3662 268.897 90.3662 268.509C90.3662 268.125 90.307 267.78 90.1886 267.472C90.0726 267.162 89.8963 266.917 89.6595 266.737C89.4251 266.555 89.1304 266.463 88.7753 266.463C88.4344 266.463 88.1479 266.55 87.9159 266.723C87.6839 266.893 87.5087 267.132 87.3903 267.44C87.272 267.745 87.2128 268.102 87.2128 268.509ZM94.8486 271.35C94.3562 271.35 93.9241 271.233 93.5524 270.998C93.1831 270.764 92.8943 270.436 92.6859 270.014C92.48 269.593 92.377 269.101 92.377 268.537C92.377 267.969 92.48 267.473 92.6859 267.049C92.8943 266.626 93.1831 266.296 93.5524 266.062C93.9241 265.828 94.3562 265.711 94.8486 265.711C95.341 265.711 95.7719 265.828 96.1412 266.062C96.5129 266.296 96.8017 266.626 97.0077 267.049C97.216 267.473 97.3202 267.969 97.3202 268.537C97.3202 269.101 97.216 269.593 97.0077 270.014C96.8017 270.436 96.5129 270.764 96.1412 270.998C95.7719 271.233 95.341 271.35 94.8486 271.35ZM94.8486 270.597C95.2226 270.597 95.5304 270.501 95.7719 270.309C96.0134 270.117 96.1921 269.865 96.3081 269.553C96.4241 269.24 96.4821 268.902 96.4821 268.537C96.4821 268.173 96.4241 267.833 96.3081 267.518C96.1921 267.203 96.0134 266.949 95.7719 266.755C95.5304 266.56 95.2226 266.463 94.8486 266.463C94.4745 266.463 94.1668 266.56 93.9253 266.755C93.6838 266.949 93.5051 267.203 93.3891 267.518C93.2731 267.833 93.2151 268.173 93.2151 268.537C93.2151 268.902 93.2731 269.24 93.3891 269.553C93.5051 269.865 93.6838 270.117 93.9253 270.309C94.1668 270.501 94.4745 270.597 94.8486 270.597ZM98.7495 271.236V265.782H99.5591V266.605H99.6159C99.7154 266.336 99.8953 266.117 100.156 265.948C100.416 265.78 100.71 265.696 101.036 265.696C101.098 265.696 101.175 265.697 101.267 265.7C101.36 265.702 101.429 265.706 101.477 265.711V266.563C101.448 266.556 101.383 266.545 101.281 266.531C101.182 266.514 101.077 266.506 100.965 266.506C100.7 266.506 100.463 266.562 100.255 266.673C100.049 266.782 99.8858 266.933 99.7651 267.127C99.6467 267.319 99.5875 267.538 99.5875 267.784V271.236H98.7495ZM105.334 265.782V266.492H102.507V265.782H105.334ZM103.331 264.475H104.169V269.674C104.169 269.91 104.204 270.088 104.272 270.206C104.343 270.322 104.433 270.4 104.542 270.441C104.653 270.479 104.771 270.497 104.894 270.497C104.986 270.497 105.062 270.493 105.121 270.483C105.18 270.471 105.228 270.462 105.263 270.455L105.434 271.208C105.377 271.229 105.297 271.25 105.196 271.272C105.094 271.295 104.965 271.307 104.809 271.307C104.572 271.307 104.34 271.256 104.113 271.154C103.888 271.053 103.701 270.898 103.551 270.689C103.405 270.481 103.331 270.218 103.331 269.901V264.475ZM109.423 264.745V263.963H114.878V264.745H112.591V271.236H111.71V264.745H109.423ZM117.769 271.35C117.244 271.35 116.79 271.234 116.409 271.002C116.03 270.767 115.738 270.441 115.532 270.022C115.328 269.6 115.227 269.11 115.227 268.551C115.227 267.993 115.328 267.5 115.532 267.074C115.738 266.646 116.024 266.312 116.391 266.073C116.761 265.831 117.192 265.711 117.684 265.711C117.968 265.711 118.249 265.758 118.526 265.853C118.803 265.947 119.055 266.101 119.282 266.314C119.509 266.525 119.69 266.804 119.825 267.152C119.96 267.5 120.028 267.929 120.028 268.438V268.793H115.823V268.068H119.175C119.175 267.761 119.114 267.486 118.991 267.245C118.87 267.003 118.697 266.813 118.472 266.673C118.25 266.533 117.987 266.463 117.684 266.463C117.35 266.463 117.061 266.546 116.818 266.712C116.576 266.875 116.39 267.088 116.26 267.351C116.13 267.614 116.065 267.896 116.065 268.196V268.679C116.065 269.091 116.136 269.44 116.278 269.727C116.422 270.011 116.622 270.228 116.878 270.377C117.134 270.523 117.431 270.597 117.769 270.597C117.989 270.597 118.188 270.566 118.366 270.505C118.546 270.441 118.701 270.346 118.831 270.22C118.961 270.093 119.062 269.934 119.133 269.745L119.943 269.972C119.857 270.247 119.714 270.488 119.513 270.696C119.312 270.902 119.063 271.063 118.767 271.179C118.471 271.293 118.139 271.35 117.769 271.35ZM121.931 265.782L123.238 268.012L124.545 265.782H125.511L123.749 268.509L125.511 271.236H124.545L123.238 269.12L121.931 271.236H120.965L122.698 268.509L120.965 265.782H121.931ZM129.229 265.782V266.492H126.402V265.782H129.229ZM127.226 264.475H128.064V269.674C128.064 269.91 128.098 270.088 128.167 270.206C128.238 270.322 128.328 270.4 128.437 270.441C128.548 270.479 128.665 270.497 128.788 270.497C128.881 270.497 128.956 270.493 129.016 270.483C129.075 270.471 129.122 270.462 129.158 270.455L129.328 271.208C129.271 271.229 129.192 271.25 129.09 271.272C128.988 271.295 128.859 271.307 128.703 271.307C128.466 271.307 128.234 271.256 128.007 271.154C127.782 271.053 127.595 270.898 127.446 270.689C127.299 270.481 127.226 270.218 127.226 269.901V264.475Z" fill="#1F2024"/>
<mask id="mask7_252_7234" style="mask-type:alpha" maskUnits="userSpaceOnUse" x="109" y="75" width="16" height="14">
<path d="M123.653 75.2338H110.616C110.4 75.2338 110.193 75.3164 110.04 75.4635C109.887 75.6106 109.801 75.8101 109.801 76.0181V78.371C109.801 78.579 109.887 78.7785 110.04 78.9256C110.193 79.0727 110.4 79.1553 110.616 79.1553C110.832 79.1553 111.039 79.0727 111.192 78.9256C111.345 78.7785 111.431 78.579 111.431 78.371V76.8024H116.32V86.9985H114.69C114.474 86.9985 114.267 87.0811 114.114 87.2282C113.961 87.3753 113.875 87.5748 113.875 87.7828C113.875 87.9908 113.961 88.1903 114.114 88.3374C114.267 88.4845 114.474 88.5671 114.69 88.5671H119.579C119.795 88.5671 120.002 88.4845 120.155 88.3374C120.308 88.1903 120.394 87.9908 120.394 87.7828C120.394 87.5748 120.308 87.3753 120.155 87.2282C120.002 87.0811 119.795 86.9985 119.579 86.9985H117.949V76.8024H122.838V78.371C122.838 78.579 122.924 78.7785 123.077 78.9256C123.23 79.0727 123.437 79.1553 123.653 79.1553C123.869 79.1553 124.076 79.0727 124.229 78.9256C124.382 78.7785 124.468 78.579 124.468 78.371V76.0181C124.468 75.8101 124.382 75.6106 124.229 75.4635C124.076 75.3164 123.869 75.2338 123.653 75.2338Z" fill="black"/>
</mask>
<g mask="url(#mask7_252_7234)">
<rect x="109.135" y="73.9004" width="16" height="16" fill="#8F9098"/>
</g>
<path d="M134.015 85.9004V78.6277H136.473C137.043 78.6277 137.51 78.7306 137.872 78.9366C138.236 79.1402 138.506 79.416 138.682 79.764C138.857 80.112 138.944 80.5003 138.944 80.9288C138.944 81.3573 138.857 81.7467 138.682 82.0971C138.509 82.4475 138.241 82.7269 137.879 82.9352C137.517 83.1412 137.053 83.2441 136.487 83.2441H134.726V82.4629H136.459C136.849 82.4629 137.163 82.3954 137.4 82.2605C137.636 82.1255 137.808 81.9432 137.914 81.7136C138.023 81.4816 138.078 81.22 138.078 80.9288C138.078 80.6376 138.023 80.3772 137.914 80.1475C137.808 79.9179 137.635 79.738 137.396 79.6078C137.157 79.4752 136.84 79.4089 136.444 79.4089H134.896V85.9004H134.015ZM141.237 78.6277V85.9004H140.399V78.6277H141.237ZM144.528 86.0282C144.182 86.0282 143.868 85.9631 143.586 85.8329C143.305 85.7003 143.081 85.5098 142.915 85.2612C142.75 85.0102 142.667 84.7072 142.667 84.3521C142.667 84.0396 142.728 83.7863 142.851 83.5922C142.974 83.3957 143.139 83.2418 143.345 83.1305C143.551 83.0192 143.778 82.9364 144.027 82.8819C144.278 82.8251 144.53 82.7801 144.783 82.747C145.115 82.7044 145.383 82.6724 145.589 82.6511C145.798 82.6274 145.949 82.5884 146.044 82.5339C146.141 82.4795 146.189 82.3848 146.189 82.2498V82.2214C146.189 81.871 146.094 81.5988 145.902 81.4047C145.712 81.2105 145.425 81.1135 145.039 81.1135C144.639 81.1135 144.325 81.2011 144.098 81.3762C143.871 81.5514 143.711 81.7385 143.618 81.9373L142.823 81.6532C142.965 81.3218 143.154 81.0637 143.391 80.8791C143.63 80.6921 143.891 80.5618 144.172 80.4885C144.456 80.4127 144.736 80.3748 145.01 80.3748C145.186 80.3748 145.387 80.3961 145.614 80.4387C145.844 80.479 146.065 80.563 146.278 80.6909C146.494 80.8187 146.672 81.0117 146.814 81.2697C146.956 81.5278 147.028 81.8734 147.028 82.3066V85.9004H146.189V85.1618H146.147C146.09 85.2801 145.995 85.4068 145.863 85.5417C145.73 85.6767 145.554 85.7915 145.334 85.8862C145.113 85.9809 144.845 86.0282 144.528 86.0282ZM144.655 85.2754C144.987 85.2754 145.266 85.2103 145.493 85.0801C145.723 84.9499 145.896 84.7818 146.012 84.5758C146.13 84.3699 146.189 84.1532 146.189 83.926V83.1589C146.154 83.2015 146.076 83.2406 145.955 83.2761C145.837 83.3092 145.699 83.3388 145.543 83.3649C145.389 83.3886 145.239 83.4099 145.092 83.4288C144.948 83.4454 144.831 83.4596 144.741 83.4714C144.523 83.4998 144.319 83.546 144.13 83.6099C143.943 83.6715 143.791 83.765 143.675 83.8904C143.562 84.0136 143.505 84.1816 143.505 84.3947C143.505 84.6859 143.612 84.9061 143.828 85.0552C144.046 85.202 144.322 85.2754 144.655 85.2754ZM150.923 86.014C150.412 86.014 149.971 85.8933 149.602 85.6518C149.233 85.4103 148.949 85.0777 148.75 84.6539C148.551 84.2302 148.451 83.746 148.451 83.2015C148.451 82.6475 148.553 82.1587 148.757 81.7349C148.963 81.3088 149.249 80.9761 149.616 80.737C149.986 80.4956 150.416 80.3748 150.909 80.3748C151.292 80.3748 151.638 80.4458 151.946 80.5879C152.254 80.7299 152.506 80.9288 152.702 81.1845C152.899 81.4402 153.021 81.7385 153.068 82.0794H152.23C152.166 81.8308 152.024 81.6106 151.804 81.4189C151.586 81.2247 151.292 81.1277 150.923 81.1277C150.596 81.1277 150.31 81.2129 150.064 81.3833C149.82 81.5514 149.629 81.7894 149.492 82.0971C149.357 82.4025 149.29 82.7612 149.29 83.1731C149.29 83.5945 149.356 83.9615 149.488 84.274C149.623 84.5865 149.813 84.8291 150.057 85.002C150.303 85.1748 150.592 85.2612 150.923 85.2612C151.141 85.2612 151.339 85.2233 151.516 85.1475C151.694 85.0718 151.844 84.9629 151.967 84.8208C152.09 84.6788 152.178 84.5083 152.23 84.3095H153.068C153.021 84.6315 152.903 84.9215 152.716 85.1795C152.532 85.4352 152.287 85.6388 151.981 85.7903C151.678 85.9395 151.326 86.014 150.923 86.014ZM156.73 86.014C156.204 86.014 155.751 85.898 155.37 85.666C154.991 85.4316 154.699 85.1049 154.493 84.6859C154.289 84.2645 154.187 83.7744 154.187 83.2157C154.187 82.657 154.289 82.1646 154.493 81.7385C154.699 81.31 154.985 80.9761 155.352 80.737C155.722 80.4956 156.152 80.3748 156.645 80.3748C156.929 80.3748 157.209 80.4222 157.486 80.5169C157.763 80.6116 158.016 80.7654 158.243 80.9785C158.47 81.1892 158.651 81.4686 158.786 81.8166C158.921 82.1646 158.989 82.5931 158.989 83.1021V83.4572H154.784V82.7328H158.136C158.136 82.425 158.075 82.1504 157.952 81.9089C157.831 81.6674 157.658 81.4769 157.433 81.3372C157.211 81.1975 156.948 81.1277 156.645 81.1277C156.311 81.1277 156.022 81.2105 155.778 81.3762C155.537 81.5396 155.351 81.7527 155.221 82.0154C155.091 82.2782 155.025 82.56 155.025 82.8606V83.3436C155.025 83.7555 155.097 84.1047 155.239 84.3912C155.383 84.6752 155.583 84.8919 155.839 85.041C156.094 85.1878 156.391 85.2612 156.73 85.2612C156.95 85.2612 157.149 85.2304 157.327 85.1689C157.507 85.1049 157.662 85.0102 157.792 84.8848C157.922 84.7569 158.023 84.5983 158.094 84.4089L158.903 84.6362C158.818 84.9108 158.675 85.1523 158.474 85.3606C158.272 85.5666 158.024 85.7276 157.728 85.8436C157.432 85.9572 157.099 86.014 156.73 86.014ZM161.251 82.6191V85.9004H160.413V78.6277H161.251V81.2981H161.322C161.45 81.0164 161.642 80.7927 161.898 80.627C162.156 80.4589 162.499 80.3748 162.928 80.3748C163.299 80.3748 163.625 80.4494 163.904 80.5985C164.184 80.7453 164.4 80.9714 164.554 81.2768C164.71 81.5798 164.788 81.9657 164.788 82.4345V85.9004H163.95V82.4913C163.95 82.0581 163.838 81.7231 163.613 81.4863C163.39 81.2472 163.081 81.1277 162.686 81.1277C162.412 81.1277 162.165 81.1857 161.947 81.3017C161.732 81.4177 161.562 81.5869 161.436 81.8095C161.313 82.032 161.251 82.3019 161.251 82.6191ZM168.688 86.014C168.195 86.014 167.763 85.8968 167.391 85.6625C167.022 85.4281 166.733 85.1002 166.525 84.6788C166.319 84.2574 166.216 83.765 166.216 83.2015C166.216 82.6333 166.319 82.1374 166.525 81.7136C166.733 81.2898 167.022 80.9608 167.391 80.7264C167.763 80.492 168.195 80.3748 168.688 80.3748C169.18 80.3748 169.611 80.492 169.98 80.7264C170.352 80.9608 170.641 81.2898 170.847 81.7136C171.055 82.1374 171.159 82.6333 171.159 83.2015C171.159 83.765 171.055 84.2574 170.847 84.6788C170.641 85.1002 170.352 85.4281 169.98 85.6625C169.611 85.8968 169.18 86.014 168.688 86.014ZM168.688 85.2612C169.062 85.2612 169.369 85.1653 169.611 84.9735C169.852 84.7818 170.031 84.5297 170.147 84.2172C170.263 83.9047 170.321 83.5661 170.321 83.2015C170.321 82.8369 170.263 82.4972 170.147 82.1824C170.031 81.8675 169.852 81.613 169.611 81.4189C169.369 81.2247 169.062 81.1277 168.688 81.1277C168.313 81.1277 168.006 81.2247 167.764 81.4189C167.523 81.613 167.344 81.8675 167.228 82.1824C167.112 82.4972 167.054 82.8369 167.054 83.2015C167.054 83.5661 167.112 83.9047 167.228 84.2172C167.344 84.5297 167.523 84.7818 167.764 84.9735C168.006 85.1653 168.313 85.2612 168.688 85.2612ZM173.426 78.6277V85.9004H172.588V78.6277H173.426ZM177.171 86.014C176.717 86.014 176.315 85.8992 175.967 85.6696C175.619 85.4376 175.347 85.1109 175.151 84.6895C174.954 84.2657 174.856 83.765 174.856 83.1873C174.856 82.6144 174.954 82.1172 175.151 81.6958C175.347 81.2744 175.62 80.9489 175.971 80.7193C176.321 80.4896 176.726 80.3748 177.185 80.3748C177.54 80.3748 177.821 80.434 178.027 80.5524C178.235 80.6684 178.394 80.801 178.503 80.9501C178.614 81.0969 178.7 81.2176 178.762 81.3123H178.833V78.6277H179.671V85.9004H178.861V85.0623H178.762C178.7 85.1618 178.613 85.2872 178.499 85.4387C178.386 85.5879 178.223 85.7217 178.013 85.84C177.802 85.956 177.521 86.014 177.171 86.014ZM177.285 85.2612C177.621 85.2612 177.905 85.1736 178.137 84.9984C178.369 84.8208 178.545 84.5758 178.666 84.2633C178.787 83.9484 178.847 83.585 178.847 83.1731C178.847 82.7659 178.788 82.4096 178.67 82.1042C178.551 81.7965 178.376 81.5574 178.144 81.3869C177.912 81.2141 177.626 81.1277 177.285 81.1277C176.93 81.1277 176.634 81.2188 176.397 81.4011C176.163 81.581 175.986 81.8261 175.868 82.1362C175.752 82.444 175.694 82.7896 175.694 83.1731C175.694 83.5614 175.753 83.9141 175.871 84.2314C175.992 84.5462 176.17 84.7972 176.404 84.9842C176.641 85.1689 176.934 85.2612 177.285 85.2612ZM183.759 86.014C183.234 86.014 182.78 85.898 182.399 85.666C182.02 85.4316 181.728 85.1049 181.522 84.6859C181.319 84.2645 181.217 83.7744 181.217 83.2157C181.217 82.657 181.319 82.1646 181.522 81.7385C181.728 81.31 182.015 80.9761 182.381 80.737C182.751 80.4956 183.182 80.3748 183.674 80.3748C183.958 80.3748 184.239 80.4222 184.516 80.5169C184.793 80.6116 185.045 80.7654 185.272 80.9785C185.499 81.1892 185.68 81.4686 185.815 81.8166C185.95 82.1646 186.018 82.5931 186.018 83.1021V83.4572H181.813V82.7328H185.166C185.166 82.425 185.104 82.1504 184.981 81.9089C184.86 81.6674 184.687 81.4769 184.462 81.3372C184.24 81.1975 183.977 81.1277 183.674 81.1277C183.34 81.1277 183.051 81.2105 182.808 81.3762C182.566 81.5396 182.38 81.7527 182.25 82.0154C182.12 82.2782 182.055 82.56 182.055 82.8606V83.3436C182.055 83.7555 182.126 84.1047 182.268 84.3912C182.412 84.6752 182.612 84.8919 182.868 85.041C183.124 85.1878 183.421 85.2612 183.759 85.2612C183.979 85.2612 184.178 85.2304 184.356 85.1689C184.536 85.1049 184.691 85.0102 184.821 84.8848C184.951 84.7569 185.052 84.5983 185.123 84.4089L185.933 84.6362C185.847 84.9108 185.704 85.1523 185.503 85.3606C185.302 85.5666 185.053 85.7276 184.757 85.8436C184.461 85.9572 184.129 86.014 183.759 86.014ZM187.443 85.9004V80.4458H188.252V81.2697H188.309C188.409 80.9998 188.589 80.7808 188.849 80.6127C189.109 80.4447 189.403 80.3606 189.73 80.3606C189.791 80.3606 189.868 80.3618 189.96 80.3642C190.053 80.3665 190.123 80.3701 190.17 80.3748V81.2271C190.142 81.22 190.076 81.2093 189.975 81.1951C189.875 81.1786 189.77 81.1703 189.659 81.1703C189.393 81.1703 189.157 81.2259 188.948 81.3372C188.742 81.4461 188.579 81.5976 188.458 81.7917C188.34 81.9835 188.281 82.2025 188.281 82.4487V85.9004H187.443Z" fill="#1F2024"/>
<mask id="mask8_252_7234" style="mask-type:alpha" maskUnits="userSpaceOnUse" x="44" y="25" width="16" height="14">
<path d="M58.4397 25.3334H45.4027C45.1866 25.3334 44.9794 25.416 44.8265 25.5631C44.6737 25.7102 44.5879 25.9097 44.5879 26.1177V28.4706C44.5879 28.6786 44.6737 28.8781 44.8265 29.0252C44.9794 29.1723 45.1866 29.2549 45.4027 29.2549C45.6188 29.2549 45.8261 29.1723 45.9789 29.0252C46.1317 28.8781 46.2175 28.6786 46.2175 28.4706V26.902H51.1064V37.0981H49.4768C49.2607 37.0981 49.0534 37.1807 48.9006 37.3278C48.7478 37.4749 48.662 37.6744 48.662 37.8824C48.662 38.0904 48.7478 38.2899 48.9006 38.437C49.0534 38.5841 49.2607 38.6667 49.4768 38.6667H54.3657C54.5818 38.6667 54.789 38.5841 54.9418 38.437C55.0946 38.2899 55.1805 38.0904 55.1805 37.8824C55.1805 37.6744 55.0946 37.4749 54.9418 37.3278C54.789 37.1807 54.5818 37.0981 54.3657 37.0981H52.736V26.902H57.6249V28.4706C57.6249 28.6786 57.7108 28.8781 57.8636 29.0252C58.0164 29.1723 58.2236 29.2549 58.4397 29.2549C58.6558 29.2549 58.8631 29.1723 59.0159 29.0252C59.1687 28.8781 59.2546 28.6786 59.2546 28.4706V26.1177C59.2546 25.9097 59.1687 25.7102 59.0159 25.5631C58.8631 25.416 58.6558 25.3334 58.4397 25.3334Z" fill="black"/>
</mask>
<g mask="url(#mask8_252_7234)">
<rect x="43.9213" y="24" width="16" height="16" fill="#8F9098"/>
</g>
<path d="M68.4042 29.5085V28.7273H73.8588V29.5085H71.5718V36H70.6912V29.5085H68.4042ZM75.2543 36V30.5455H76.0924V36H75.2543ZM75.6805 29.6364C75.5171 29.6364 75.3762 29.5807 75.2579 29.4695C75.1419 29.3582 75.0839 29.2244 75.0839 29.0682C75.0839 28.9119 75.1419 28.7782 75.2579 28.6669C75.3762 28.5556 75.5171 28.5 75.6805 28.5C75.8438 28.5 75.9835 28.5556 76.0995 28.6669C76.2179 28.7782 76.2771 28.9119 76.2771 29.0682C76.2771 29.2244 76.2179 29.3582 76.0995 29.4695C75.9835 29.5807 75.8438 29.6364 75.6805 29.6364ZM80.1495 30.5455V31.2557H77.3228V30.5455H80.1495ZM78.1467 29.2386H78.9848V34.4375C78.9848 34.6742 79.0191 34.8518 79.0877 34.9702C79.1588 35.0862 79.2487 35.1643 79.3576 35.2045C79.4689 35.2424 79.5861 35.2614 79.7092 35.2614C79.8015 35.2614 79.8773 35.2566 79.9365 35.2472C79.9956 35.2353 80.043 35.2259 80.0785 35.2188L80.249 35.9716C80.1921 35.9929 80.1128 36.0142 80.011 36.0355C79.9092 36.0592 79.7802 36.071 79.624 36.071C79.3872 36.071 79.1552 36.0201 78.9279 35.9183C78.703 35.8165 78.516 35.6615 78.3669 35.4531C78.2201 35.2448 78.1467 34.982 78.1467 34.6648V29.2386ZM82.5154 28.7273V36H81.6774V28.7273H82.5154ZM86.4874 36.1136C85.9618 36.1136 85.5084 35.9976 85.1273 35.7656C84.7485 35.5312 84.4561 35.2045 84.2501 34.7855C84.0465 34.3641 83.9447 33.8741 83.9447 33.3153C83.9447 32.7566 84.0465 32.2642 84.2501 31.8381C84.4561 31.4096 84.7426 31.0758 85.1095 30.8366C85.4788 30.5952 85.9097 30.4744 86.4021 30.4744C86.6862 30.4744 86.9668 30.5218 87.2437 30.6165C87.5207 30.7112 87.7729 30.8651 88.0001 31.0781C88.2274 31.2888 88.4085 31.5682 88.5435 31.9162C88.6784 32.2642 88.7459 32.6927 88.7459 33.2017V33.5568H84.5413V32.8324H87.8936C87.8936 32.5246 87.832 32.25 87.7089 32.0085C87.5882 31.767 87.4154 31.5765 87.1905 31.4368C86.9679 31.2971 86.7052 31.2273 86.4021 31.2273C86.0683 31.2273 85.7795 31.3101 85.5356 31.4759C85.2942 31.6392 85.1083 31.8523 84.9781 32.1151C84.8479 32.3778 84.7828 32.6596 84.7828 32.9602V33.4432C84.7828 33.8551 84.8538 34.2043 84.9959 34.4908C85.1403 34.7749 85.3403 34.9915 85.596 35.1406C85.8517 35.2874 86.1488 35.3608 86.4874 35.3608C86.7075 35.3608 86.9064 35.33 87.0839 35.2685C87.2639 35.2045 87.4189 35.1098 87.5491 34.9844C87.6793 34.8565 87.78 34.6979 87.851 34.5085L88.6606 34.7358C88.5754 35.0104 88.4322 35.2519 88.231 35.4602C88.0297 35.6662 87.7811 35.8272 87.4852 35.9432C87.1893 36.0568 86.8567 36.1136 86.4874 36.1136Z" fill="#1F2024"/>
<path d="M274.826 160.666V207.127M248.901 228.463H266.826C271.244 228.463 274.826 224.881 274.826 220.463V207.127M274.826 207.127H248.901" stroke="#8F9098"/>
<path d="M11.1072 194.565V243.607M37.0321 266.128H19.1072C14.6889 266.128 11.1072 262.546 11.1072 258.128V243.607M11.1072 243.607H37.0321" stroke="#8F9098"/>
<path d="M75.7079 132.082V82.0316M101.633 59.047H83.7079C79.2896 59.047 75.7079 62.6287 75.7079 67.047V82.0316M75.7079 82.0316H101.633" stroke="#8F9098"/>
<path d="M10.4944 94.7267V32.1311M36.4193 9.14648H18.4944C14.0761 9.14648 10.4944 12.7282 10.4944 17.1465V32.1311M10.4944 32.1311H36.4193" stroke="#8F9098"/>
</svg>
