<svg width="304" height="214" viewBox="0 0 304 214" fill="none" xmlns="http://www.w3.org/2000/svg">
<mask id="mask0_263_4233" style="mask-type:alpha" maskUnits="userSpaceOnUse" x="51" y="2" width="17" height="12">
<path d="M59.4343 5.81838C58.8557 5.81838 58.3007 6.04825 57.8915 6.45742C57.4824 6.86659 57.2525 7.42155 57.2525 8.0002C57.2525 8.57885 57.4824 9.13381 57.8915 9.54298C58.3007 9.95215 58.8557 10.182 59.4343 10.182C60.013 10.182 60.5679 9.95215 60.9771 9.54298C61.3863 9.13381 61.6161 8.57885 61.6161 8.0002C61.6161 7.42155 61.3863 6.86659 60.9771 6.45742C60.5679 6.04825 60.013 5.81838 59.4343 5.81838ZM59.4343 11.6366C58.4699 11.6366 57.545 11.2534 56.863 10.5715C56.1811 9.88955 55.798 8.96462 55.798 8.0002C55.798 7.03578 56.1811 6.11085 56.863 5.4289C57.545 4.74695 58.4699 4.36384 59.4343 4.36384C60.3988 4.36384 61.3237 4.74695 62.0056 5.4289C62.6876 6.11085 63.0707 7.03578 63.0707 8.0002C63.0707 8.96462 62.6876 9.88955 62.0056 10.5715C61.3237 11.2534 60.3988 11.6366 59.4343 11.6366ZM59.4343 2.54565C55.8998 2.54565 52.7289 4.72747 51.4343 8.0002C53.1725 12.422 58.1616 14.5893 62.5834 12.8511C64.8016 11.9784 66.5616 10.2257 67.4343 8.0002C66.1398 4.72747 62.9689 2.54565 59.4343 2.54565Z" fill="#006FFD"/>
</mask>
<g mask="url(#mask0_263_4233)">
<rect x="51.4343" width="16" height="16" fill="#8F9098"/>
</g>
<path d="M80.2923 6.54545C80.2497 6.18561 80.0768 5.90625 79.7738 5.70739C79.4708 5.50852 79.0991 5.40909 78.6588 5.40909C78.3368 5.40909 78.0551 5.46117 77.8136 5.56534C77.5745 5.66951 77.3875 5.81274 77.2525 5.99503C77.1199 6.17732 77.0536 6.38447 77.0536 6.61648C77.0536 6.81061 77.0998 6.97751 77.1921 7.11719C77.2868 7.2545 77.4076 7.36932 77.5544 7.46165C77.7011 7.55161 77.855 7.62618 78.016 7.68537C78.177 7.74219 78.325 7.78835 78.4599 7.82386L79.1985 8.02273C79.3879 8.07244 79.5986 8.1411 79.8306 8.22869C80.065 8.31629 80.2887 8.43584 80.5018 8.58736C80.7172 8.73651 80.8948 8.92827 81.0345 9.16264C81.1741 9.39702 81.244 9.68466 81.244 10.0256C81.244 10.4186 81.141 10.7737 80.935 11.0909C80.7314 11.4081 80.4331 11.6603 80.0402 11.8473C79.6495 12.0343 79.1749 12.1278 78.6161 12.1278C78.0953 12.1278 77.6443 12.0438 77.2632 11.8757C76.8844 11.7076 76.5861 11.4732 76.3683 11.1726C76.1528 10.8719 76.0309 10.5227 76.0025 10.125H76.9116C76.9353 10.3996 77.0276 10.6269 77.1886 10.8068C77.3519 10.9844 77.5579 11.117 77.8065 11.2045C78.0574 11.2898 78.3273 11.3324 78.6161 11.3324C78.9523 11.3324 79.2542 11.2779 79.5217 11.169C79.7892 11.0578 80.0011 10.9039 80.1573 10.7074C80.3136 10.5085 80.3917 10.2765 80.3917 10.0114C80.3917 9.76989 80.3242 9.57339 80.1893 9.42188C80.0544 9.27036 79.8768 9.14725 79.6566 9.05256C79.4365 8.95786 79.1985 8.875 78.9428 8.80398L78.048 8.5483C77.4798 8.38494 77.03 8.15175 76.6985 7.84872C76.3671 7.54569 76.2014 7.14915 76.2014 6.65909C76.2014 6.25189 76.3115 5.89678 76.5316 5.59375C76.7542 5.28835 77.0525 5.05161 77.4265 4.88352C77.8029 4.71307 78.2232 4.62784 78.6872 4.62784C79.1559 4.62784 79.5726 4.71188 79.9372 4.87997C80.3018 5.04569 80.5906 5.27296 80.8036 5.56179C81.0191 5.85062 81.1327 6.1785 81.1446 6.54545H80.2923ZM83.5664 8.71875V12H82.7283V4.72727H83.5664V7.39773H83.6374C83.7653 7.116 83.957 6.89228 84.2127 6.72656C84.4707 6.55848 84.814 6.47443 85.2425 6.47443C85.6142 6.47443 85.9397 6.54901 86.2191 6.69815C86.4984 6.84493 86.7151 7.07102 86.869 7.37642C87.0252 7.67945 87.1033 8.06534 87.1033 8.53409V12H86.2653V8.59091C86.2653 8.15767 86.1528 7.82268 85.9279 7.58594C85.7054 7.34683 85.3964 7.22727 85.0011 7.22727C84.7264 7.22727 84.4802 7.28527 84.2624 7.40128C84.047 7.51728 83.8765 7.68655 83.7511 7.90909C83.6279 8.13163 83.5664 8.40152 83.5664 8.71875ZM91.0024 12.1136C90.51 12.1136 90.078 11.9964 89.7063 11.7621C89.337 11.5277 89.0481 11.1998 88.8398 10.7784C88.6338 10.357 88.5308 9.86458 88.5308 9.30114C88.5308 8.73295 88.6338 8.23698 88.8398 7.81321C89.0481 7.38944 89.337 7.06037 89.7063 6.82599C90.078 6.59162 90.51 6.47443 91.0024 6.47443C91.4949 6.47443 91.9257 6.59162 92.2951 6.82599C92.6667 7.06037 92.9556 7.38944 93.1615 7.81321C93.3699 8.23698 93.474 8.73295 93.474 9.30114C93.474 9.86458 93.3699 10.357 93.1615 10.7784C92.9556 11.1998 92.6667 11.5277 92.2951 11.7621C91.9257 11.9964 91.4949 12.1136 91.0024 12.1136ZM91.0024 11.3608C91.3765 11.3608 91.6843 11.2649 91.9257 11.0732C92.1672 10.8814 92.346 10.6293 92.462 10.3168C92.578 10.0043 92.636 9.66572 92.636 9.30114C92.636 8.93655 92.578 8.59683 92.462 8.28196C92.346 7.96709 92.1672 7.71259 91.9257 7.51847C91.6843 7.32434 91.3765 7.22727 91.0024 7.22727C90.6284 7.22727 90.3206 7.32434 90.0791 7.51847C89.8377 7.71259 89.6589 7.96709 89.5429 8.28196C89.4269 8.59683 89.3689 8.93655 89.3689 9.30114C89.3689 9.66572 89.4269 10.0043 89.5429 10.3168C89.6589 10.6293 89.8377 10.8814 90.0791 11.0732C90.3206 11.2649 90.6284 11.3608 91.0024 11.3608ZM95.9536 12L94.2916 6.54545H95.1723L96.3513 10.7216H96.4081L97.5729 6.54545H98.4678L99.6183 10.7074H99.6752L100.854 6.54545H101.735L100.073 12H99.249L98.0558 7.80966H97.9706L96.7774 12H95.9536ZM105.671 5.50852V4.72727H111.126V5.50852H108.839V12H107.958V5.50852H105.671ZM112.521 12V6.54545H113.359V12H112.521ZM112.947 5.63636C112.784 5.63636 112.643 5.58073 112.525 5.46946C112.409 5.35819 112.351 5.22443 112.351 5.06818C112.351 4.91193 112.409 4.77817 112.525 4.6669C112.643 4.55563 112.784 4.5 112.947 4.5C113.111 4.5 113.25 4.55563 113.366 4.6669C113.485 4.77817 113.544 4.91193 113.544 5.06818C113.544 5.22443 113.485 5.35819 113.366 5.46946C113.25 5.58073 113.111 5.63636 112.947 5.63636ZM117.416 6.54545V7.25568H114.59V6.54545H117.416ZM115.414 5.23864H116.252V10.4375C116.252 10.6742 116.286 10.8518 116.355 10.9702C116.426 11.0862 116.516 11.1643 116.625 11.2045C116.736 11.2424 116.853 11.2614 116.976 11.2614C117.068 11.2614 117.144 11.2566 117.203 11.2472C117.263 11.2353 117.31 11.2259 117.345 11.2188L117.516 11.9716C117.459 11.9929 117.38 12.0142 117.278 12.0355C117.176 12.0592 117.047 12.071 116.891 12.071C116.654 12.071 116.422 12.0201 116.195 11.9183C115.97 11.8165 115.783 11.6615 115.634 11.4531C115.487 11.2448 115.414 10.982 115.414 10.6648V5.23864ZM119.782 4.72727V12H118.944V4.72727H119.782ZM123.754 12.1136C123.229 12.1136 122.775 11.9976 122.394 11.7656C122.015 11.5312 121.723 11.2045 121.517 10.7855C121.314 10.3641 121.212 9.87405 121.212 9.31534C121.212 8.75663 121.314 8.2642 121.517 7.83807C121.723 7.40956 122.01 7.07576 122.376 6.83665C122.746 6.59517 123.177 6.47443 123.669 6.47443C123.953 6.47443 124.234 6.52178 124.511 6.61648C124.788 6.71117 125.04 6.86506 125.267 7.07812C125.494 7.28883 125.675 7.56818 125.81 7.91619C125.945 8.2642 126.013 8.69271 126.013 9.2017V9.55682H121.808V8.83239H125.161C125.161 8.52462 125.099 8.25 124.976 8.00852C124.855 7.76705 124.682 7.57647 124.457 7.43679C124.235 7.29711 123.972 7.22727 123.669 7.22727C123.335 7.22727 123.046 7.31013 122.803 7.47585C122.561 7.6392 122.375 7.85227 122.245 8.11506C122.115 8.37784 122.05 8.65956 122.05 8.96023V9.44318C122.05 9.85511 122.121 10.2043 122.263 10.4908C122.407 10.7749 122.607 10.9915 122.863 11.1406C123.119 11.2874 123.416 11.3608 123.754 11.3608C123.974 11.3608 124.173 11.33 124.351 11.2685C124.531 11.2045 124.686 11.1098 124.816 10.9844C124.946 10.8565 125.047 10.6979 125.118 10.5085L125.928 10.7358C125.842 11.0104 125.699 11.2519 125.498 11.4602C125.297 11.6662 125.048 11.8272 124.752 11.9432C124.456 12.0568 124.124 12.1136 123.754 12.1136Z" fill="#1F2024"/>
<mask id="mask1_263_4233" style="mask-type:alpha" maskUnits="userSpaceOnUse" x="54" y="176" width="17" height="12">
<path d="M62.9214 179.383C62.3427 179.383 61.7878 179.612 61.3786 180.022C60.9694 180.431 60.7396 180.986 60.7396 181.564C60.7396 182.143 60.9694 182.698 61.3786 183.107C61.7878 183.516 62.3427 183.746 62.9214 183.746C63.5 183.746 64.055 183.516 64.4642 183.107C64.8733 182.698 65.1032 182.143 65.1032 181.564C65.1032 180.986 64.8733 180.431 64.4642 180.022C64.055 179.612 63.5 179.383 62.9214 179.383ZM62.9214 185.201C61.957 185.201 61.032 184.818 60.3501 184.136C59.6681 183.454 59.285 182.529 59.285 181.564C59.285 180.6 59.6681 179.675 60.3501 178.993C61.032 178.311 61.957 177.928 62.9214 177.928C63.8858 177.928 64.8107 178.311 65.4927 178.993C66.1746 179.675 66.5578 180.6 66.5578 181.564C66.5578 182.529 66.1746 183.454 65.4927 184.136C64.8107 184.818 63.8858 185.201 62.9214 185.201ZM62.9214 176.11C59.3868 176.11 56.2159 178.292 54.9214 181.564C56.6596 185.986 61.6487 188.153 66.0705 186.415C68.2887 185.543 70.0487 183.79 70.9214 181.564C69.6268 178.292 66.4559 176.11 62.9214 176.11Z" fill="#006FFD"/>
</mask>
<g mask="url(#mask1_263_4233)">
<rect x="54.9214" y="173.564" width="16" height="16" fill="#8F9098"/>
</g>
<path d="M83.7793 180.11C83.7367 179.75 83.5639 179.47 83.2609 179.272C82.9578 179.073 82.5862 178.973 82.1458 178.973C81.8238 178.973 81.5421 179.025 81.3006 179.13C81.0615 179.234 80.8745 179.377 80.7396 179.559C80.607 179.742 80.5407 179.949 80.5407 180.181C80.5407 180.375 80.5869 180.542 80.6792 180.681C80.7739 180.819 80.8946 180.934 81.0414 181.026C81.1882 181.116 81.3421 181.19 81.5031 181.25C81.664 181.306 81.812 181.353 81.947 181.388L82.6856 181.587C82.875 181.637 83.0857 181.705 83.3177 181.793C83.5521 181.88 83.7758 182 83.9889 182.152C84.2043 182.301 84.3819 182.492 84.5215 182.727C84.6612 182.961 84.731 183.249 84.731 183.59C84.731 183.983 84.6281 184.338 84.4221 184.655C84.2185 184.972 83.9202 185.224 83.5272 185.412C83.1366 185.599 82.6619 185.692 82.1032 185.692C81.5824 185.692 81.1314 185.608 80.7502 185.44C80.3714 185.272 80.0731 185.037 79.8553 184.737C79.6399 184.436 79.518 184.087 79.4896 183.689H80.3987C80.4223 183.964 80.5147 184.191 80.6756 184.371C80.839 184.549 81.045 184.681 81.2935 184.769C81.5445 184.854 81.8144 184.897 82.1032 184.897C82.4394 184.897 82.7412 184.842 83.0087 184.733C83.2763 184.622 83.4881 184.468 83.6444 184.272C83.8006 184.073 83.8788 183.841 83.8788 183.576C83.8788 183.334 83.8113 183.138 83.6764 182.986C83.5414 182.835 83.3639 182.711 83.1437 182.617C82.9235 182.522 82.6856 182.439 82.4299 182.368L81.535 182.113C80.9668 181.949 80.517 181.716 80.1856 181.413C79.8542 181.11 79.6884 180.713 79.6884 180.223C79.6884 179.816 79.7985 179.461 80.0187 179.158C80.2412 178.853 80.5395 178.616 80.9136 178.448C81.29 178.277 81.7102 178.192 82.1742 178.192C82.643 178.192 83.0596 178.276 83.4242 178.444C83.7888 178.61 84.0776 178.837 84.2907 179.126C84.5061 179.415 84.6198 179.743 84.6316 180.11H83.7793ZM87.0535 182.283V185.564H86.2154V178.291H87.0535V180.962H87.1245C87.2523 180.68 87.4441 180.456 87.6998 180.291C87.9578 180.123 88.3011 180.039 88.7296 180.039C89.1013 180.039 89.4268 180.113 89.7062 180.262C89.9855 180.409 90.2021 180.635 90.356 180.941C90.5123 181.244 90.5904 181.63 90.5904 182.098V185.564H89.7523V182.155C89.7523 181.722 89.6399 181.387 89.415 181.15C89.1924 180.911 88.8835 180.791 88.4881 180.791C88.2135 180.791 87.9673 180.849 87.7495 180.965C87.534 181.081 87.3636 181.251 87.2381 181.473C87.115 181.696 87.0535 181.966 87.0535 182.283ZM94.4895 185.678C93.9971 185.678 93.565 185.561 93.1933 185.326C92.824 185.092 92.5352 184.764 92.3269 184.343C92.1209 183.921 92.0179 183.429 92.0179 182.865C92.0179 182.297 92.1209 181.801 92.3269 181.377C92.5352 180.954 92.824 180.625 93.1933 180.39C93.565 180.156 93.9971 180.039 94.4895 180.039C94.9819 180.039 95.4128 180.156 95.7821 180.39C96.1538 180.625 96.4426 180.954 96.6486 181.377C96.8569 181.801 96.9611 182.297 96.9611 182.865C96.9611 183.429 96.8569 183.921 96.6486 184.343C96.4426 184.764 96.1538 185.092 95.7821 185.326C95.4128 185.561 94.9819 185.678 94.4895 185.678ZM94.4895 184.925C94.8636 184.925 95.1713 184.829 95.4128 184.637C95.6543 184.446 95.833 184.193 95.949 183.881C96.065 183.568 96.123 183.23 96.123 182.865C96.123 182.501 96.065 182.161 95.949 181.846C95.833 181.531 95.6543 181.277 95.4128 181.083C95.1713 180.889 94.8636 180.791 94.4895 180.791C94.1154 180.791 93.8077 180.889 93.5662 181.083C93.3247 181.277 93.146 181.531 93.03 181.846C92.914 182.161 92.856 182.501 92.856 182.865C92.856 183.23 92.914 183.568 93.03 183.881C93.146 184.193 93.3247 184.446 93.5662 184.637C93.8077 184.829 94.1154 184.925 94.4895 184.925ZM99.4406 185.564L97.7787 180.11H98.6594L99.8384 184.286H99.8952L101.06 180.11H101.955L103.105 184.272H103.162L104.341 180.11H105.222L103.56 185.564H102.736L101.543 181.374H101.458L100.264 185.564H99.4406ZM113.533 180.11C113.491 179.75 113.318 179.47 113.015 179.272C112.712 179.073 112.34 178.973 111.9 178.973C111.578 178.973 111.296 179.025 111.055 179.13C110.815 179.234 110.628 179.377 110.493 179.559C110.361 179.742 110.295 179.949 110.295 180.181C110.295 180.375 110.341 180.542 110.433 180.681C110.528 180.819 110.649 180.934 110.795 181.026C110.942 181.116 111.096 181.19 111.257 181.25C111.418 181.306 111.566 181.353 111.701 181.388L112.439 181.587C112.629 181.637 112.84 181.705 113.072 181.793C113.306 181.88 113.53 182 113.743 182.152C113.958 182.301 114.136 182.492 114.275 182.727C114.415 182.961 114.485 183.249 114.485 183.59C114.485 183.983 114.382 184.338 114.176 184.655C113.972 184.972 113.674 185.224 113.281 185.412C112.89 185.599 112.416 185.692 111.857 185.692C111.336 185.692 110.885 185.608 110.504 185.44C110.125 185.272 109.827 185.037 109.609 184.737C109.394 184.436 109.272 184.087 109.243 183.689H110.153C110.176 183.964 110.269 184.191 110.43 184.371C110.593 184.549 110.799 184.681 111.047 184.769C111.298 184.854 111.568 184.897 111.857 184.897C112.193 184.897 112.495 184.842 112.763 184.733C113.03 184.622 113.242 184.468 113.398 184.272C113.555 184.073 113.633 183.841 113.633 183.576C113.633 183.334 113.565 183.138 113.43 182.986C113.295 182.835 113.118 182.711 112.898 182.617C112.677 182.522 112.439 182.439 112.184 182.368L111.289 182.113C110.721 181.949 110.271 181.716 109.939 181.413C109.608 181.11 109.442 180.713 109.442 180.223C109.442 179.816 109.552 179.461 109.773 179.158C109.995 178.853 110.293 178.616 110.667 178.448C111.044 178.277 111.464 178.192 111.928 178.192C112.397 178.192 112.814 178.276 113.178 178.444C113.543 178.61 113.832 178.837 114.045 179.126C114.26 179.415 114.374 179.743 114.386 180.11H113.533ZM119.407 183.334V180.11H120.245V185.564H119.407V184.641H119.35C119.222 184.918 119.023 185.153 118.753 185.348C118.483 185.539 118.143 185.635 117.731 185.635C117.39 185.635 117.087 185.561 116.822 185.412C116.556 185.26 116.348 185.033 116.197 184.73C116.045 184.424 115.969 184.04 115.969 183.576V180.11H116.807V183.519C116.807 183.916 116.919 184.234 117.141 184.47C117.366 184.707 117.653 184.826 118.001 184.826C118.209 184.826 118.421 184.772 118.636 184.666C118.854 184.559 119.036 184.396 119.183 184.176C119.332 183.956 119.407 183.675 119.407 183.334ZM121.93 187.61V180.11H122.739V180.976H122.839C122.9 180.881 122.986 180.761 123.095 180.614C123.206 180.465 123.364 180.332 123.57 180.216C123.779 180.098 124.061 180.039 124.416 180.039C124.875 180.039 125.28 180.153 125.63 180.383C125.981 180.613 126.254 180.938 126.45 181.36C126.647 181.781 126.745 182.278 126.745 182.851C126.745 183.429 126.647 183.93 126.45 184.353C126.254 184.775 125.982 185.101 125.634 185.333C125.286 185.563 124.884 185.678 124.43 185.678C124.079 185.678 123.799 185.62 123.588 185.504C123.378 185.385 123.215 185.252 123.102 185.103C122.988 184.951 122.9 184.826 122.839 184.726H122.768V187.61H121.93ZM122.754 182.837C122.754 183.249 122.814 183.612 122.935 183.927C123.056 184.24 123.232 184.485 123.464 184.662C123.696 184.837 123.98 184.925 124.316 184.925C124.667 184.925 124.959 184.833 125.193 184.648C125.43 184.461 125.608 184.21 125.726 183.895C125.847 183.578 125.907 183.225 125.907 182.837C125.907 182.453 125.848 182.108 125.73 181.8C125.614 181.49 125.437 181.245 125.2 181.065C124.966 180.883 124.671 180.791 124.316 180.791C123.975 180.791 123.689 180.878 123.457 181.051C123.225 181.221 123.05 181.46 122.931 181.768C122.813 182.073 122.754 182.43 122.754 182.837ZM128.174 187.61V180.11H128.983V180.976H129.083C129.144 180.881 129.229 180.761 129.338 180.614C129.45 180.465 129.608 180.332 129.814 180.216C130.023 180.098 130.304 180.039 130.659 180.039C131.119 180.039 131.523 180.153 131.874 180.383C132.224 180.613 132.498 180.938 132.694 181.36C132.891 181.781 132.989 182.278 132.989 182.851C132.989 183.429 132.891 183.93 132.694 184.353C132.498 184.775 132.225 185.101 131.877 185.333C131.529 185.563 131.128 185.678 130.674 185.678C130.323 185.678 130.043 185.62 129.832 185.504C129.621 185.385 129.459 185.252 129.345 185.103C129.232 184.951 129.144 184.826 129.083 184.726H129.012V187.61H128.174ZM128.997 182.837C128.997 183.249 129.058 183.612 129.179 183.927C129.299 184.24 129.476 184.485 129.708 184.662C129.94 184.837 130.224 184.925 130.56 184.925C130.91 184.925 131.203 184.833 131.437 184.648C131.674 184.461 131.851 184.21 131.97 183.895C132.09 183.578 132.151 183.225 132.151 182.837C132.151 182.453 132.092 182.108 131.973 181.8C131.857 181.49 131.681 181.245 131.444 181.065C131.21 180.883 130.915 180.791 130.56 180.791C130.219 180.791 129.933 180.878 129.701 181.051C129.469 181.221 129.293 181.46 129.175 181.768C129.057 182.073 128.997 182.43 128.997 182.837ZM136.633 185.678C136.141 185.678 135.709 185.561 135.337 185.326C134.968 185.092 134.679 184.764 134.471 184.343C134.265 183.921 134.162 183.429 134.162 182.865C134.162 182.297 134.265 181.801 134.471 181.377C134.679 180.954 134.968 180.625 135.337 180.39C135.709 180.156 136.141 180.039 136.633 180.039C137.126 180.039 137.557 180.156 137.926 180.39C138.298 180.625 138.586 180.954 138.792 181.377C139.001 181.801 139.105 182.297 139.105 182.865C139.105 183.429 139.001 183.921 138.792 184.343C138.586 184.764 138.298 185.092 137.926 185.326C137.557 185.561 137.126 185.678 136.633 185.678ZM136.633 184.925C137.007 184.925 137.315 184.829 137.557 184.637C137.798 184.446 137.977 184.193 138.093 183.881C138.209 183.568 138.267 183.23 138.267 182.865C138.267 182.501 138.209 182.161 138.093 181.846C137.977 181.531 137.798 181.277 137.557 181.083C137.315 180.889 137.007 180.791 136.633 180.791C136.259 180.791 135.951 180.889 135.71 181.083C135.468 181.277 135.29 181.531 135.174 181.846C135.058 182.161 135 182.501 135 182.865C135 183.23 135.058 183.568 135.174 183.881C135.29 184.193 135.468 184.446 135.71 184.637C135.951 184.829 136.259 184.925 136.633 184.925ZM140.534 185.564V180.11H141.344V180.934H141.401C141.5 180.664 141.68 180.445 141.94 180.277C142.201 180.108 142.494 180.024 142.821 180.024C142.883 180.024 142.96 180.026 143.052 180.028C143.144 180.03 143.214 180.034 143.261 180.039V180.891C143.233 180.884 143.168 180.873 143.066 180.859C142.967 180.842 142.861 180.834 142.75 180.834C142.485 180.834 142.248 180.89 142.04 181.001C141.834 181.11 141.67 181.261 141.55 181.456C141.431 181.647 141.372 181.866 141.372 182.113V185.564H140.534ZM147.119 180.11V180.82H144.292V180.11H147.119ZM145.116 178.803H145.954V184.002C145.954 184.238 145.988 184.416 146.057 184.534C146.128 184.65 146.218 184.729 146.327 184.769C146.438 184.807 146.555 184.826 146.678 184.826C146.771 184.826 146.847 184.821 146.906 184.811C146.965 184.8 147.012 184.79 147.048 184.783L147.218 185.536C147.161 185.557 147.082 185.578 146.98 185.6C146.879 185.623 146.749 185.635 146.593 185.635C146.356 185.635 146.124 185.584 145.897 185.483C145.672 185.381 145.485 185.226 145.336 185.017C145.189 184.809 145.116 184.546 145.116 184.229V178.803ZM151.208 179.073V178.291H156.662V179.073H154.375V185.564H153.495V179.073H151.208ZM159.554 185.678C159.028 185.678 158.575 185.562 158.194 185.33C157.815 185.095 157.523 184.769 157.317 184.35C157.113 183.928 157.011 183.438 157.011 182.88C157.011 182.321 157.113 181.828 157.317 181.402C157.523 180.974 157.809 180.64 158.176 180.401C158.545 180.159 158.976 180.039 159.469 180.039C159.753 180.039 160.033 180.086 160.31 180.181C160.587 180.275 160.839 180.429 161.067 180.642C161.294 180.853 161.475 181.132 161.61 181.48C161.745 181.828 161.812 182.257 161.812 182.766V183.121H157.608V182.397H160.96C160.96 182.089 160.899 181.814 160.775 181.573C160.655 181.331 160.482 181.141 160.257 181.001C160.034 180.861 159.772 180.791 159.469 180.791C159.135 180.791 158.846 180.874 158.602 181.04C158.361 181.203 158.175 181.416 158.045 181.679C157.914 181.942 157.849 182.224 157.849 182.524V183.007C157.849 183.419 157.92 183.769 158.062 184.055C158.207 184.339 158.407 184.556 158.663 184.705C158.918 184.852 159.215 184.925 159.554 184.925C159.774 184.925 159.973 184.894 160.15 184.833C160.33 184.769 160.485 184.674 160.616 184.549C160.746 184.421 160.846 184.262 160.918 184.073L161.727 184.3C161.642 184.575 161.499 184.816 161.297 185.024C161.096 185.23 160.848 185.391 160.552 185.507C160.256 185.621 159.923 185.678 159.554 185.678ZM163.716 180.11L165.023 182.34L166.329 180.11H167.295L165.534 182.837L167.295 185.564H166.329L165.023 183.448L163.716 185.564H162.75L164.483 182.837L162.75 180.11H163.716ZM171.013 180.11V180.82H168.187V180.11H171.013ZM169.01 178.803H169.849V184.002C169.849 184.238 169.883 184.416 169.952 184.534C170.023 184.65 170.113 184.729 170.221 184.769C170.333 184.807 170.45 184.826 170.573 184.826C170.665 184.826 170.741 184.821 170.8 184.811C170.859 184.8 170.907 184.79 170.942 184.783L171.113 185.536C171.056 185.557 170.977 185.578 170.875 185.6C170.773 185.623 170.644 185.635 170.488 185.635C170.251 185.635 170.019 185.584 169.792 185.483C169.567 185.381 169.38 185.226 169.231 185.017C169.084 184.809 169.01 184.546 169.01 184.229V178.803Z" fill="#1F2024"/>
<g clip-path="url(#clip0_263_4233)">
<mask id="mask2_263_4233" style="mask-type:alpha" maskUnits="userSpaceOnUse" x="179" y="24" width="17" height="17">
<path d="M187.315 24.251C187.65 23.9163 188.193 23.9163 188.527 24.251L190.904 26.628C191.239 26.9627 191.239 27.5053 190.904 27.8399L188.527 30.2169C188.193 30.5516 187.65 30.5516 187.315 30.2169L184.938 27.8399C184.604 27.5053 184.604 26.9627 184.938 26.628L187.315 24.251Z" fill="#1F2024"/>
<path d="M195.67 31.3941C196.005 31.7288 196.005 32.2713 195.67 32.606L193.293 34.983C192.959 35.3177 192.416 35.3177 192.082 34.983L189.704 32.606C189.37 32.2713 189.37 31.7288 189.704 31.3941L192.082 29.0171C192.416 28.6824 192.959 28.6824 193.293 29.0171L195.67 31.3941Z" fill="#1F2024"/>
<path d="M187.315 33.7831C187.65 33.4485 188.193 33.4485 188.527 33.7831L190.904 36.1602C191.239 36.4948 191.239 37.0374 190.904 37.3721L188.527 39.7491C188.193 40.0838 187.65 40.0838 187.315 39.7491L184.938 37.3721C184.604 37.0374 184.604 36.4948 184.938 36.1602L187.315 33.7831Z" fill="#1F2024"/>
<path d="M186.138 31.3941C186.473 31.7288 186.473 32.2713 186.138 32.606L183.761 34.983C183.427 35.3177 182.884 35.3177 182.549 34.983L180.172 32.606C179.838 32.2713 179.838 31.7288 180.172 31.3941L182.549 29.0171C182.884 28.6824 183.427 28.6824 183.761 29.0171L186.138 31.3941Z" fill="#1F2024"/>
</mask>
<g mask="url(#mask2_263_4233)">
<rect x="179.921" y="24" width="16" height="16" fill="#8F9098"/>
</g>
</g>
<path d="M208.779 30.5455C208.737 30.1856 208.564 29.9062 208.261 29.7074C207.958 29.5085 207.586 29.4091 207.146 29.4091C206.824 29.4091 206.542 29.4612 206.301 29.5653C206.062 29.6695 205.875 29.8127 205.74 29.995C205.607 30.1773 205.541 30.3845 205.541 30.6165C205.541 30.8106 205.587 30.9775 205.679 31.1172C205.774 31.2545 205.895 31.3693 206.041 31.4616C206.188 31.5516 206.342 31.6262 206.503 31.6854C206.664 31.7422 206.812 31.7884 206.947 31.8239L207.686 32.0227C207.875 32.0724 208.086 32.1411 208.318 32.2287C208.552 32.3163 208.776 32.4358 208.989 32.5874C209.204 32.7365 209.382 32.9283 209.522 33.1626C209.661 33.397 209.731 33.6847 209.731 34.0256C209.731 34.4186 209.628 34.7737 209.422 35.0909C209.218 35.4081 208.92 35.6603 208.527 35.8473C208.137 36.0343 207.662 36.1278 207.103 36.1278C206.582 36.1278 206.131 36.0438 205.75 35.8757C205.371 35.7076 205.073 35.4732 204.855 35.1726C204.64 34.8719 204.518 34.5227 204.49 34.125H205.399C205.422 34.3996 205.515 34.6269 205.676 34.8068C205.839 34.9844 206.045 35.117 206.294 35.2045C206.544 35.2898 206.814 35.3324 207.103 35.3324C207.439 35.3324 207.741 35.2779 208.009 35.169C208.276 35.0578 208.488 34.9039 208.644 34.7074C208.801 34.5085 208.879 34.2765 208.879 34.0114C208.879 33.7699 208.811 33.5734 208.676 33.4219C208.541 33.2704 208.364 33.1473 208.144 33.0526C207.924 32.9579 207.686 32.875 207.43 32.804L206.535 32.5483C205.967 32.3849 205.517 32.1518 205.186 31.8487C204.854 31.5457 204.688 31.1491 204.688 30.6591C204.688 30.2519 204.799 29.8968 205.019 29.5938C205.241 29.2884 205.54 29.0516 205.914 28.8835C206.29 28.7131 206.71 28.6278 207.174 28.6278C207.643 28.6278 208.06 28.7119 208.424 28.88C208.789 29.0457 209.078 29.273 209.291 29.5618C209.506 29.8506 209.62 30.1785 209.632 30.5455H208.779ZM213.588 30.5455V31.2557H210.761V30.5455H213.588ZM211.585 29.2386H212.423V34.4375C212.423 34.6742 212.457 34.8518 212.526 34.9702C212.597 35.0862 212.687 35.1643 212.796 35.2045C212.907 35.2424 213.024 35.2614 213.147 35.2614C213.24 35.2614 213.315 35.2566 213.374 35.2472C213.434 35.2353 213.481 35.2259 213.517 35.2188L213.687 35.9716C213.63 35.9929 213.551 36.0142 213.449 36.0355C213.347 36.0592 213.218 36.071 213.062 36.071C212.825 36.071 212.593 36.0201 212.366 35.9183C212.141 35.8165 211.954 35.6615 211.805 35.4531C211.658 35.2448 211.585 34.982 211.585 34.6648V29.2386ZM215.538 38.0455C215.396 38.0455 215.269 38.0336 215.158 38.0099C215.047 37.9886 214.97 37.9673 214.927 37.946L215.14 37.2074C215.344 37.2595 215.524 37.2784 215.68 37.2642C215.836 37.25 215.975 37.1802 216.095 37.0547C216.219 36.9316 216.331 36.7315 216.433 36.4545L216.589 36.0284L214.572 30.5455H215.481L216.987 34.892H217.044L218.549 30.5455H219.458L217.143 36.7955C217.039 37.0772 216.91 37.3104 216.756 37.495C216.602 37.6821 216.423 37.8205 216.22 37.9105C216.019 38.0005 215.791 38.0455 215.538 38.0455ZM221.553 28.7273V36H220.715V28.7273H221.553ZM225.525 36.1136C224.999 36.1136 224.546 35.9976 224.164 35.7656C223.786 35.5312 223.493 35.2045 223.287 34.7855C223.084 34.3641 222.982 33.8741 222.982 33.3153C222.982 32.7566 223.084 32.2642 223.287 31.8381C223.493 31.4096 223.78 31.0758 224.147 30.8366C224.516 30.5952 224.947 30.4744 225.439 30.4744C225.723 30.4744 226.004 30.5218 226.281 30.6165C226.558 30.7112 226.81 30.8651 227.037 31.0781C227.265 31.2888 227.446 31.5682 227.581 31.9162C227.716 32.2642 227.783 32.6927 227.783 33.2017V33.5568H223.579V32.8324H226.931C226.931 32.5246 226.869 32.25 226.746 32.0085C226.625 31.767 226.453 31.5765 226.228 31.4368C226.005 31.2971 225.742 31.2273 225.439 31.2273C225.106 31.2273 224.817 31.3101 224.573 31.4759C224.331 31.6392 224.146 31.8523 224.015 32.1151C223.885 32.3778 223.82 32.6596 223.82 32.9602V33.4432C223.82 33.8551 223.891 34.2043 224.033 34.4908C224.178 34.7749 224.378 34.9915 224.633 35.1406C224.889 35.2874 225.186 35.3608 225.525 35.3608C225.745 35.3608 225.944 35.33 226.121 35.2685C226.301 35.2045 226.456 35.1098 226.586 34.9844C226.717 34.8565 226.817 34.6979 226.888 34.5085L227.698 34.7358C227.613 35.0104 227.469 35.2519 227.268 35.4602C227.067 35.6662 226.818 35.8272 226.522 35.9432C226.227 36.0568 225.894 36.1136 225.525 36.1136Z" fill="#1F2024"/>
<mask id="mask3_263_4233" style="mask-type:alpha" maskUnits="userSpaceOnUse" x="178" y="144" width="16" height="14">
<path d="M192.44 144.116H179.403C179.187 144.116 178.98 144.198 178.827 144.345C178.674 144.492 178.588 144.692 178.588 144.9V147.253C178.588 147.461 178.674 147.66 178.827 147.807C178.98 147.955 179.187 148.037 179.403 148.037C179.619 148.037 179.826 147.955 179.979 147.807C180.132 147.66 180.218 147.461 180.218 147.253V145.684H185.107V155.88H183.477C183.261 155.88 183.054 155.963 182.901 156.11C182.748 156.257 182.662 156.457 182.662 156.665C182.662 156.873 182.748 157.072 182.901 157.219C183.054 157.366 183.261 157.449 183.477 157.449H188.366C188.582 157.449 188.789 157.366 188.942 157.219C189.095 157.072 189.181 156.873 189.181 156.665C189.181 156.457 189.095 156.257 188.942 156.11C188.789 155.963 188.582 155.88 188.366 155.88H186.736V145.684H191.625V147.253C191.625 147.461 191.711 147.66 191.864 147.807C192.017 147.955 192.224 148.037 192.44 148.037C192.656 148.037 192.863 147.955 193.016 147.807C193.169 147.66 193.255 147.461 193.255 147.253V144.9C193.255 144.692 193.169 144.492 193.016 144.345C192.863 144.198 192.656 144.116 192.44 144.116Z" fill="black"/>
</mask>
<g mask="url(#mask3_263_4233)">
<rect x="177.921" y="142.782" width="16" height="16" fill="#8F9098"/>
</g>
<path d="M203.1 147.509L205.259 153.632H205.345L207.504 147.509H208.427L205.757 154.782H204.848L202.177 147.509H203.1ZM210.694 154.91C210.348 154.91 210.034 154.845 209.752 154.715C209.471 154.582 209.247 154.392 209.081 154.143C208.916 153.892 208.833 153.589 208.833 153.234C208.833 152.921 208.894 152.668 209.017 152.474C209.141 152.277 209.305 152.124 209.511 152.012C209.717 151.901 209.944 151.818 210.193 151.764C210.444 151.707 210.696 151.662 210.949 151.629C211.281 151.586 211.549 151.554 211.755 151.533C211.964 151.509 212.115 151.47 212.21 151.416C212.307 151.361 212.355 151.267 212.355 151.132V151.103C212.355 150.753 212.26 150.481 212.068 150.286C211.878 150.092 211.591 149.995 211.205 149.995C210.805 149.995 210.491 150.083 210.264 150.258C210.037 150.433 209.877 150.62 209.784 150.819L208.989 150.535C209.131 150.204 209.32 149.946 209.557 149.761C209.796 149.574 210.057 149.444 210.338 149.37C210.623 149.295 210.902 149.257 211.177 149.257C211.352 149.257 211.553 149.278 211.78 149.321C212.01 149.361 212.231 149.445 212.444 149.573C212.66 149.701 212.838 149.893 212.98 150.152C213.123 150.41 213.194 150.755 213.194 151.188V154.782H212.355V154.044H212.313C212.256 154.162 212.161 154.289 212.029 154.424C211.896 154.559 211.72 154.673 211.5 154.768C211.279 154.863 211.011 154.91 210.694 154.91ZM210.821 154.157C211.153 154.157 211.432 154.092 211.659 153.962C211.889 153.832 212.062 153.664 212.178 153.458C212.296 153.252 212.355 153.035 212.355 152.808V152.041C212.32 152.083 212.242 152.122 212.121 152.158C212.003 152.191 211.865 152.221 211.709 152.247C211.555 152.27 211.405 152.292 211.258 152.311C211.114 152.327 210.997 152.341 210.907 152.353C210.689 152.382 210.485 152.428 210.296 152.492C210.109 152.553 209.957 152.647 209.841 152.772C209.728 152.895 209.671 153.063 209.671 153.277C209.671 153.568 209.779 153.788 209.994 153.937C210.212 154.084 210.488 154.157 210.821 154.157ZM215.711 147.509V154.782H214.873V147.509H215.711ZM220.834 152.552V149.328H221.672V154.782H220.834V153.859H220.777C220.649 154.136 220.45 154.371 220.18 154.566C219.91 154.757 219.57 154.853 219.158 154.853C218.817 154.853 218.514 154.779 218.249 154.63C217.983 154.478 217.775 154.251 217.624 153.948C217.472 153.642 217.396 153.258 217.396 152.794V149.328H218.234V152.737C218.234 153.134 218.346 153.452 218.568 153.688C218.793 153.925 219.079 154.044 219.427 154.044C219.636 154.044 219.848 153.99 220.063 153.884C220.281 153.777 220.463 153.614 220.61 153.394C220.759 153.174 220.834 152.893 220.834 152.552ZM225.644 154.896C225.118 154.896 224.665 154.78 224.284 154.548C223.905 154.313 223.612 153.987 223.407 153.568C223.203 153.146 223.101 152.656 223.101 152.098C223.101 151.539 223.203 151.046 223.407 150.62C223.612 150.192 223.899 149.858 224.266 149.619C224.635 149.377 225.066 149.257 225.558 149.257C225.843 149.257 226.123 149.304 226.4 149.399C226.677 149.493 226.929 149.647 227.157 149.86C227.384 150.071 227.565 150.35 227.7 150.698C227.835 151.046 227.902 151.475 227.902 151.984V152.339H223.698V151.615H227.05C227.05 151.307 226.988 151.032 226.865 150.791C226.745 150.549 226.572 150.359 226.347 150.219C226.124 150.079 225.862 150.009 225.558 150.009C225.225 150.009 224.936 150.092 224.692 150.258C224.451 150.421 224.265 150.634 224.134 150.897C224.004 151.16 223.939 151.442 223.939 151.742V152.225C223.939 152.637 224.01 152.987 224.152 153.273C224.297 153.557 224.497 153.774 224.752 153.923C225.008 154.07 225.305 154.143 225.644 154.143C225.864 154.143 226.063 154.112 226.24 154.051C226.42 153.987 226.575 153.892 226.706 153.767C226.836 153.639 226.936 153.48 227.007 153.291L227.817 153.518C227.732 153.793 227.589 154.034 227.387 154.242C227.186 154.448 226.938 154.609 226.642 154.725C226.346 154.839 226.013 154.896 225.644 154.896Z" fill="#1F2024"/>
<mask id="mask4_263_4233" style="mask-type:alpha" maskUnits="userSpaceOnUse" x="52" y="25" width="15" height="14">
<path d="M65.9529 25.3334H52.9159C52.6998 25.3334 52.4925 25.416 52.3397 25.5631C52.1869 25.7102 52.1011 25.9097 52.1011 26.1177V28.4706C52.1011 28.6786 52.1869 28.8781 52.3397 29.0252C52.4925 29.1723 52.6998 29.2549 52.9159 29.2549C53.132 29.2549 53.3392 29.1723 53.492 29.0252C53.6449 28.8781 53.7307 28.6786 53.7307 28.4706V26.902H58.6196V37.0981H56.99C56.7739 37.0981 56.5666 37.1807 56.4138 37.3278C56.261 37.4749 56.1751 37.6744 56.1751 37.8824C56.1751 38.0904 56.261 38.2899 56.4138 38.437C56.5666 38.5841 56.7739 38.6667 56.99 38.6667H61.8789C62.095 38.6667 62.3022 38.5841 62.455 38.437C62.6078 38.2899 62.6937 38.0904 62.6937 37.8824C62.6937 37.6744 62.6078 37.4749 62.455 37.3278C62.3022 37.1807 62.095 37.0981 61.8789 37.0981H60.2492V26.902H65.1381V28.4706C65.1381 28.6786 65.224 28.8781 65.3768 29.0252C65.5296 29.1723 65.7368 29.2549 65.9529 29.2549C66.169 29.2549 66.3763 29.1723 66.5291 29.0252C66.6819 28.8781 66.7677 28.6786 66.7677 28.4706V26.1177C66.7677 25.9097 66.6819 25.7102 66.5291 25.5631C66.3763 25.416 66.169 25.3334 65.9529 25.3334Z" fill="black"/>
</mask>
<g mask="url(#mask4_263_4233)">
<rect x="51.4343" y="24" width="16" height="16" fill="#8F9098"/>
</g>
<path d="M75.9173 29.5085V28.7273H81.3718V29.5085H79.0849V36H78.2042V29.5085H75.9173ZM82.7674 36V30.5455H83.6055V36H82.7674ZM83.1935 29.6364C83.0302 29.6364 82.8893 29.5807 82.7709 29.4695C82.6549 29.3582 82.5969 29.2244 82.5969 29.0682C82.5969 28.9119 82.6549 28.7782 82.7709 28.6669C82.8893 28.5556 83.0302 28.5 83.1935 28.5C83.3569 28.5 83.4966 28.5556 83.6126 28.6669C83.7309 28.7782 83.7901 28.9119 83.7901 29.0682C83.7901 29.2244 83.7309 29.3582 83.6126 29.4695C83.4966 29.5807 83.3569 29.6364 83.1935 29.6364ZM87.6626 30.5455V31.2557H84.8359V30.5455H87.6626ZM85.6598 29.2386H86.4978V34.4375C86.4978 34.6742 86.5321 34.8518 86.6008 34.9702C86.6718 35.0862 86.7618 35.1643 86.8707 35.2045C86.982 35.2424 87.0991 35.2614 87.2223 35.2614C87.3146 35.2614 87.3903 35.2566 87.4495 35.2472C87.5087 35.2353 87.5561 35.2259 87.5916 35.2188L87.762 35.9716C87.7052 35.9929 87.6259 36.0142 87.5241 36.0355C87.4223 36.0592 87.2933 36.071 87.137 36.071C86.9003 36.071 86.6683 36.0201 86.441 35.9183C86.2161 35.8165 86.0291 35.6615 85.8799 35.4531C85.7331 35.2448 85.6598 34.982 85.6598 34.6648V29.2386ZM90.0285 28.7273V36H89.1904V28.7273H90.0285ZM94.0004 36.1136C93.4748 36.1136 93.0215 35.9976 92.6403 35.7656C92.2615 35.5312 91.9692 35.2045 91.7632 34.7855C91.5596 34.3641 91.4578 33.8741 91.4578 33.3153C91.4578 32.7566 91.5596 32.2642 91.7632 31.8381C91.9692 31.4096 92.2556 31.0758 92.6226 30.8366C92.9919 30.5952 93.4228 30.4744 93.9152 30.4744C94.1993 30.4744 94.4798 30.5218 94.7568 30.6165C95.0338 30.7112 95.2859 30.8651 95.5132 31.0781C95.7405 31.2888 95.9216 31.5682 96.0565 31.9162C96.1915 32.2642 96.2589 32.6927 96.2589 33.2017V33.5568H92.0544V32.8324H95.4067C95.4067 32.5246 95.3451 32.25 95.222 32.0085C95.1013 31.767 94.9284 31.5765 94.7035 31.4368C94.481 31.2971 94.2182 31.2273 93.9152 31.2273C93.5814 31.2273 93.2926 31.3101 93.0487 31.4759C92.8072 31.6392 92.6214 31.8523 92.4912 32.1151C92.361 32.3778 92.2959 32.6596 92.2959 32.9602V33.4432C92.2959 33.8551 92.3669 34.2043 92.5089 34.4908C92.6533 34.7749 92.8534 34.9915 93.1091 35.1406C93.3648 35.2874 93.6619 35.3608 94.0004 35.3608C94.2206 35.3608 94.4194 35.33 94.597 35.2685C94.7769 35.2045 94.932 35.1098 95.0622 34.9844C95.1924 34.8565 95.293 34.6979 95.364 34.5085L96.1737 34.7358C96.0885 35.0104 95.9453 35.2519 95.744 35.4602C95.5428 35.6662 95.2942 35.8272 94.9983 35.9432C94.7024 36.0568 94.3697 36.1136 94.0004 36.1136Z" fill="#1F2024"/>
<mask id="mask5_263_4233" style="mask-type:alpha" maskUnits="userSpaceOnUse" x="55" y="198" width="16" height="15">
<path d="M69.44 198.898H56.4029C56.1868 198.898 55.9796 198.98 55.8268 199.127C55.674 199.274 55.5881 199.474 55.5881 199.682V202.035C55.5881 202.243 55.674 202.442 55.8268 202.589C55.9796 202.737 56.1868 202.819 56.4029 202.819C56.6191 202.819 56.8263 202.737 56.9791 202.589C57.1319 202.442 57.2178 202.243 57.2178 202.035V200.466H62.1067V210.662H60.477C60.2609 210.662 60.0537 210.745 59.9009 210.892C59.7481 211.039 59.6622 211.239 59.6622 211.447C59.6622 211.655 59.7481 211.854 59.9009 212.001C60.0537 212.148 60.2609 212.231 60.477 212.231H65.3659C65.582 212.231 65.7893 212.148 65.9421 212.001C66.0949 211.854 66.1807 211.655 66.1807 211.447C66.1807 211.239 66.0949 211.039 65.9421 210.892C65.7893 210.745 65.582 210.662 65.3659 210.662H63.7363V200.466H68.6252V202.035C68.6252 202.243 68.711 202.442 68.8638 202.589C69.0166 202.737 69.2239 202.819 69.44 202.819C69.6561 202.819 69.8633 202.737 70.0161 202.589C70.169 202.442 70.2548 202.243 70.2548 202.035V199.682C70.2548 199.474 70.169 199.274 70.0161 199.127C69.8633 198.98 69.6561 198.898 69.44 198.898Z" fill="black"/>
</mask>
<g mask="url(#mask5_263_4233)">
<rect x="54.9214" y="197.564" width="16" height="16" fill="#8F9098"/>
</g>
<path d="M83.7793 204.11C83.7367 203.75 83.5639 203.47 83.2609 203.272C82.9578 203.073 82.5862 202.973 82.1458 202.973C81.8238 202.973 81.5421 203.025 81.3006 203.13C81.0615 203.234 80.8745 203.377 80.7396 203.559C80.607 203.742 80.5407 203.949 80.5407 204.181C80.5407 204.375 80.5869 204.542 80.6792 204.681C80.7739 204.819 80.8946 204.934 81.0414 205.026C81.1882 205.116 81.3421 205.19 81.5031 205.25C81.664 205.306 81.812 205.353 81.947 205.388L82.6856 205.587C82.875 205.637 83.0857 205.705 83.3177 205.793C83.5521 205.88 83.7758 206 83.9889 206.152C84.2043 206.301 84.3819 206.492 84.5215 206.727C84.6612 206.961 84.731 207.249 84.731 207.59C84.731 207.983 84.6281 208.338 84.4221 208.655C84.2185 208.972 83.9202 209.224 83.5272 209.412C83.1366 209.599 82.6619 209.692 82.1032 209.692C81.5824 209.692 81.1314 209.608 80.7502 209.44C80.3714 209.272 80.0731 209.037 79.8553 208.737C79.6399 208.436 79.518 208.087 79.4896 207.689H80.3987C80.4223 207.964 80.5147 208.191 80.6756 208.371C80.839 208.549 81.045 208.681 81.2935 208.769C81.5445 208.854 81.8144 208.897 82.1032 208.897C82.4394 208.897 82.7412 208.842 83.0087 208.733C83.2763 208.622 83.4881 208.468 83.6444 208.272C83.8006 208.073 83.8788 207.841 83.8788 207.576C83.8788 207.334 83.8113 207.138 83.6764 206.986C83.5414 206.835 83.3639 206.711 83.1437 206.617C82.9235 206.522 82.6856 206.439 82.4299 206.368L81.535 206.113C80.9668 205.949 80.517 205.716 80.1856 205.413C79.8542 205.11 79.6884 204.713 79.6884 204.223C79.6884 203.816 79.7985 203.461 80.0187 203.158C80.2412 202.853 80.5395 202.616 80.9136 202.448C81.29 202.277 81.7102 202.192 82.1742 202.192C82.643 202.192 83.0596 202.276 83.4242 202.444C83.7888 202.61 84.0776 202.837 84.2907 203.126C84.5061 203.415 84.6198 203.743 84.6316 204.11H83.7793ZM89.6529 207.334V204.11H90.491V209.564H89.6529V208.641H89.5961C89.4682 208.918 89.2694 209.153 88.9995 209.348C88.7296 209.539 88.3887 209.635 87.9767 209.635C87.6358 209.635 87.3328 209.561 87.0677 209.412C86.8025 209.26 86.5942 209.033 86.4427 208.73C86.2911 208.424 86.2154 208.04 86.2154 207.576V204.11H87.0535V207.519C87.0535 207.916 87.1647 208.234 87.3873 208.47C87.6122 208.707 87.8986 208.826 88.2466 208.826C88.455 208.826 88.6669 208.772 88.8823 208.666C89.1001 208.559 89.2824 208.396 89.4292 208.176C89.5783 207.956 89.6529 207.675 89.6529 207.334ZM92.1759 211.61V204.11H92.9856V204.976H93.085C93.1466 204.881 93.2318 204.761 93.3407 204.614C93.452 204.465 93.6106 204.332 93.8166 204.216C94.0249 204.098 94.3066 204.039 94.6617 204.039C95.121 204.039 95.5258 204.153 95.8762 204.383C96.2266 204.613 96.5 204.938 96.6965 205.36C96.893 205.781 96.9913 206.278 96.9913 206.851C96.9913 207.429 96.893 207.93 96.6965 208.353C96.5 208.775 96.2278 209.101 95.8798 209.333C95.5318 209.563 95.1305 209.678 94.6759 209.678C94.3256 209.678 94.045 209.62 93.8343 209.504C93.6236 209.385 93.4614 209.252 93.3478 209.103C93.2342 208.951 93.1466 208.826 93.085 208.726H93.014V211.61H92.1759ZM92.9998 206.837C92.9998 207.249 93.0602 207.612 93.1809 207.927C93.3016 208.24 93.478 208.485 93.71 208.662C93.942 208.837 94.2261 208.925 94.5623 208.925C94.9127 208.925 95.2051 208.833 95.4394 208.648C95.6762 208.461 95.8537 208.21 95.9721 207.895C96.0928 207.578 96.1532 207.225 96.1532 206.837C96.1532 206.453 96.094 206.108 95.9756 205.8C95.8596 205.49 95.6833 205.245 95.4465 205.065C95.2122 204.883 94.9174 204.791 94.5623 204.791C94.2214 204.791 93.9349 204.878 93.7029 205.051C93.4709 205.221 93.2957 205.46 93.1774 205.768C93.059 206.073 92.9998 206.43 92.9998 206.837ZM98.4197 211.61V204.11H99.2293V204.976H99.3288C99.3903 204.881 99.4756 204.761 99.5845 204.614C99.6957 204.465 99.8543 204.332 100.06 204.216C100.269 204.098 100.55 204.039 100.905 204.039C101.365 204.039 101.77 204.153 102.12 204.383C102.47 204.613 102.744 204.938 102.94 205.36C103.137 205.781 103.235 206.278 103.235 206.851C103.235 207.429 103.137 207.93 102.94 208.353C102.744 208.775 102.472 209.101 102.124 209.333C101.776 209.563 101.374 209.678 100.92 209.678C100.569 209.678 100.289 209.62 100.078 209.504C99.8674 209.385 99.7052 209.252 99.5916 209.103C99.4779 208.951 99.3903 208.826 99.3288 208.726H99.2578V211.61H98.4197ZM99.2435 206.837C99.2435 207.249 99.3039 207.612 99.4247 207.927C99.5454 208.24 99.7218 208.485 99.9538 208.662C100.186 208.837 100.47 208.925 100.806 208.925C101.156 208.925 101.449 208.833 101.683 208.648C101.92 208.461 102.097 208.21 102.216 207.895C102.337 207.578 102.397 207.225 102.397 206.837C102.397 206.453 102.338 206.108 102.219 205.8C102.103 205.49 101.927 205.245 101.69 205.065C101.456 204.883 101.161 204.791 100.806 204.791C100.465 204.791 100.179 204.878 99.9467 205.051C99.7147 205.221 99.5395 205.46 99.4211 205.768C99.3027 206.073 99.2435 206.43 99.2435 206.837ZM106.879 209.678C106.387 209.678 105.955 209.561 105.583 209.326C105.214 209.092 104.925 208.764 104.717 208.343C104.511 207.921 104.408 207.429 104.408 206.865C104.408 206.297 104.511 205.801 104.717 205.377C104.925 204.954 105.214 204.625 105.583 204.39C105.955 204.156 106.387 204.039 106.879 204.039C107.372 204.039 107.803 204.156 108.172 204.39C108.544 204.625 108.832 204.954 109.038 205.377C109.247 205.801 109.351 206.297 109.351 206.865C109.351 207.429 109.247 207.921 109.038 208.343C108.832 208.764 108.544 209.092 108.172 209.326C107.803 209.561 107.372 209.678 106.879 209.678ZM106.879 208.925C107.253 208.925 107.561 208.829 107.803 208.637C108.044 208.446 108.223 208.193 108.339 207.881C108.455 207.568 108.513 207.23 108.513 206.865C108.513 206.501 108.455 206.161 108.339 205.846C108.223 205.531 108.044 205.277 107.803 205.083C107.561 204.889 107.253 204.791 106.879 204.791C106.505 204.791 106.198 204.889 105.956 205.083C105.715 205.277 105.536 205.531 105.42 205.846C105.304 206.161 105.246 206.501 105.246 206.865C105.246 207.23 105.304 207.568 105.42 207.881C105.536 208.193 105.715 208.446 105.956 208.637C106.198 208.829 106.505 208.925 106.879 208.925ZM110.78 209.564V204.11H111.59V204.934H111.647C111.746 204.664 111.926 204.445 112.186 204.277C112.447 204.108 112.74 204.024 113.067 204.024C113.129 204.024 113.206 204.026 113.298 204.028C113.39 204.03 113.46 204.034 113.508 204.039V204.891C113.479 204.884 113.414 204.873 113.312 204.859C113.213 204.842 113.107 204.834 112.996 204.834C112.731 204.834 112.494 204.89 112.286 205.001C112.08 205.11 111.917 205.261 111.796 205.456C111.677 205.647 111.618 205.866 111.618 206.113V209.564H110.78ZM117.365 204.11V204.82H114.538V204.11H117.365ZM115.362 202.803H116.2V208.002C116.2 208.238 116.234 208.416 116.303 208.534C116.374 208.65 116.464 208.729 116.573 208.769C116.684 208.807 116.801 208.826 116.925 208.826C117.017 208.826 117.093 208.821 117.152 208.811C117.211 208.8 117.258 208.79 117.294 208.783L117.464 209.536C117.408 209.557 117.328 209.578 117.226 209.6C117.125 209.623 116.996 209.635 116.839 209.635C116.603 209.635 116.371 209.584 116.143 209.483C115.918 209.381 115.731 209.226 115.582 209.017C115.435 208.809 115.362 208.546 115.362 208.229V202.803ZM121.454 203.073V202.291H126.908V203.073H124.622V209.564H123.741V203.073H121.454ZM129.8 209.678C129.274 209.678 128.821 209.562 128.44 209.33C128.061 209.095 127.769 208.769 127.563 208.35C127.359 207.928 127.257 207.438 127.257 206.88C127.257 206.321 127.359 205.828 127.563 205.402C127.769 204.974 128.055 204.64 128.422 204.401C128.791 204.159 129.222 204.039 129.715 204.039C129.999 204.039 130.279 204.086 130.556 204.181C130.833 204.275 131.085 204.429 131.313 204.642C131.54 204.853 131.721 205.132 131.856 205.48C131.991 205.828 132.058 206.257 132.058 206.766V207.121H127.854V206.397H131.206C131.206 206.089 131.145 205.814 131.022 205.573C130.901 205.331 130.728 205.141 130.503 205.001C130.281 204.861 130.018 204.791 129.715 204.791C129.381 204.791 129.092 204.874 128.848 205.04C128.607 205.203 128.421 205.416 128.291 205.679C128.161 205.942 128.095 206.224 128.095 206.524V207.007C128.095 207.419 128.166 207.769 128.308 208.055C128.453 208.339 128.653 208.556 128.909 208.705C129.164 208.852 129.461 208.925 129.8 208.925C130.02 208.925 130.219 208.894 130.397 208.833C130.576 208.769 130.732 208.674 130.862 208.549C130.992 208.421 131.093 208.262 131.164 208.073L131.973 208.3C131.888 208.575 131.745 208.816 131.544 209.024C131.342 209.23 131.094 209.391 130.798 209.507C130.502 209.621 130.169 209.678 129.8 209.678ZM133.962 204.11L135.269 206.34L136.576 204.11H137.541L135.78 206.837L137.541 209.564H136.576L135.269 207.448L133.962 209.564H132.996L134.729 206.837L132.996 204.11H133.962ZM141.259 204.11V204.82H138.433V204.11H141.259ZM139.257 202.803H140.095V208.002C140.095 208.238 140.129 208.416 140.198 208.534C140.269 208.65 140.359 208.729 140.468 208.769C140.579 208.807 140.696 208.826 140.819 208.826C140.911 208.826 140.987 208.821 141.046 208.811C141.106 208.8 141.153 208.79 141.188 208.783L141.359 209.536C141.302 209.557 141.223 209.578 141.121 209.6C141.019 209.623 140.89 209.635 140.734 209.635C140.497 209.635 140.265 209.584 140.038 209.483C139.813 209.381 139.626 209.226 139.477 209.017C139.33 208.809 139.257 208.546 139.257 208.229V202.803Z" fill="#1F2024"/>
<path d="M15.4084 61.3612V31.7473M44.5987 10.4114H23.4084C18.9902 10.4114 15.4084 13.9931 15.4084 18.4114V31.7473M15.4084 31.7473H44.5987" stroke="#8F9098"/>
<path d="M14.9214 122.216V184.228M44.1117 205.564H22.9214C18.5031 205.564 14.9214 201.982 14.9214 197.564V184.228M14.9214 184.228H44.1117" stroke="#8F9098"/>
<path d="M257.921 77.7822V40.5155C257.921 36.0972 254.34 32.5155 249.921 32.5155H237.449" stroke="#8F9098"/>
<path d="M257.921 107.816V145.082C257.921 149.501 254.34 153.082 249.921 153.082H237.449" stroke="#8F9098"/>
<path d="M1.34752 82.5763V81.055H8.51514V82.5763H5.84326V89.7822H4.0194V82.5763H1.34752ZM9.66144 89.7822V83.2368H11.4768V89.7822H9.66144ZM10.5734 82.393C10.3035 82.393 10.072 82.3035 9.87877 82.1246C9.68843 81.9427 9.59326 81.7254 9.59326 81.4726C9.59326 81.2226 9.68843 81.0081 9.87877 80.8291C10.072 80.6473 10.3035 80.5564 10.5734 80.5564C10.8433 80.5564 11.0734 80.6473 11.2637 80.8291C11.4569 81.0081 11.5535 81.2226 11.5535 81.4726C11.5535 81.7254 11.4569 81.9427 11.2637 82.1246C11.0734 82.3035 10.8433 82.393 10.5734 82.393ZM16.4125 83.2368V84.6004H12.4707V83.2368H16.4125ZM13.3656 81.6686H15.181V87.7709C15.181 87.9385 15.2065 88.0692 15.2577 88.1629C15.3088 88.2538 15.3798 88.3177 15.4707 88.3547C15.5645 88.3916 15.6725 88.4101 15.7946 88.4101C15.8798 88.4101 15.9651 88.403 16.0503 88.3888C16.1355 88.3717 16.2009 88.3589 16.2463 88.3504L16.5318 89.7013C16.4409 89.7297 16.3131 89.7623 16.1483 89.7993C15.9835 89.839 15.7832 89.8632 15.5475 89.8717C15.11 89.8888 14.7264 89.8305 14.3969 89.697C14.0702 89.5635 13.8159 89.3561 13.6341 89.0748C13.4523 88.7936 13.3628 88.4385 13.3656 88.0095V81.6686ZM19.551 81.055V89.7822H17.7357V81.055H19.551ZM23.9881 89.9101C23.3149 89.9101 22.7353 89.7737 22.2495 89.501C21.7666 89.2254 21.3944 88.8362 21.133 88.3334C20.8717 87.8277 20.741 87.2297 20.741 86.5393C20.741 85.866 20.8717 85.2751 21.133 84.7666C21.3944 84.2581 21.7623 83.8618 22.2367 83.5777C22.714 83.2936 23.2737 83.1515 23.9157 83.1515C24.3475 83.1515 24.7495 83.2211 25.1217 83.3604C25.4967 83.4967 25.8234 83.7027 26.1018 83.9782C26.383 84.2538 26.6018 84.6004 26.758 85.018C26.9143 85.4328 26.9924 85.9186 26.9924 86.4754V86.974H21.4654V85.849H25.2836C25.2836 85.5876 25.2268 85.3561 25.1131 85.1544C24.9995 84.9527 24.8418 84.795 24.6401 84.6814C24.4413 84.5649 24.2097 84.5067 23.9455 84.5067C23.67 84.5067 23.4256 84.5706 23.2126 84.6984C23.0024 84.8234 22.8376 84.9925 22.7183 85.2055C22.5989 85.4157 22.5379 85.6501 22.535 85.9086V86.9782C22.535 87.3021 22.5947 87.5819 22.714 87.8177C22.8362 88.0535 23.008 88.2354 23.2296 88.3632C23.4512 88.491 23.714 88.555 24.018 88.555C24.2197 88.555 24.4043 88.5265 24.572 88.4697C24.7396 88.4129 24.883 88.3277 25.0024 88.214C25.1217 88.1004 25.2126 87.9612 25.2751 87.7964L26.9541 87.9072C26.8688 88.3106 26.6941 88.6629 26.4299 88.964C26.1685 89.2623 25.8305 89.4953 25.4157 89.6629C25.0038 89.8277 24.5279 89.9101 23.9881 89.9101Z" fill="#2F3036"/>
<path d="M5.77934 102.328C5.73673 101.968 5.56391 101.688 5.26088 101.49C4.95785 101.291 4.58616 101.191 4.14582 101.191C3.82385 101.191 3.54213 101.243 3.30065 101.348C3.06154 101.452 2.87451 101.595 2.73957 101.777C2.60699 101.96 2.5407 102.167 2.5407 102.399C2.5407 102.593 2.58687 102.76 2.6792 102.899C2.7739 103.037 2.89463 103.152 3.04142 103.244C3.1882 103.334 3.34208 103.408 3.50306 103.468C3.66405 103.524 3.81201 103.571 3.94695 103.606L4.68559 103.805C4.87499 103.855 5.08569 103.923 5.31769 104.011C5.55207 104.099 5.77579 104.218 5.98886 104.37C6.20429 104.519 6.38185 104.71 6.52153 104.945C6.66121 105.179 6.73105 105.467 6.73105 105.808C6.73105 106.201 6.62806 106.556 6.4221 106.873C6.2185 107.19 5.9202 107.443 5.52721 107.63C5.13659 107.817 4.66192 107.91 4.1032 107.91C3.58237 107.91 3.13138 107.826 2.75022 107.658C2.37143 107.49 2.07314 107.255 1.85534 106.955C1.6399 106.654 1.51798 106.305 1.48957 105.907H2.39866C2.42233 106.182 2.51466 106.409 2.67565 106.589C2.839 106.767 3.04497 106.899 3.29355 106.987C3.54449 107.072 3.81438 107.115 4.1032 107.115C4.43938 107.115 4.74123 107.06 5.00874 106.951C5.27626 106.84 5.48815 106.686 5.6444 106.49C5.80065 106.291 5.87877 106.059 5.87877 105.794C5.87877 105.552 5.8113 105.356 5.67636 105.204C5.54142 105.053 5.36386 104.929 5.14369 104.835C4.92352 104.74 4.68559 104.657 4.42991 104.586L3.53502 104.331C2.96684 104.167 2.51703 103.934 2.18559 103.631C1.85415 103.328 1.68843 102.931 1.68843 102.441C1.68843 102.034 1.79852 101.679 2.01869 101.376C2.24123 101.071 2.53952 100.834 2.91357 100.666C3.28999 100.495 3.71021 100.41 4.17423 100.41C4.64298 100.41 5.05964 100.494 5.42423 100.662C5.78881 100.828 6.07764 101.055 6.2907 101.344C6.50614 101.633 6.61978 101.961 6.63161 102.328H5.77934ZM11.6529 105.552V102.328H12.491V107.782H11.6529V106.859H11.5961C11.4682 107.136 11.2694 107.371 10.9995 107.566C10.7296 107.757 10.3887 107.853 9.97675 107.853C9.63584 107.853 9.33281 107.779 9.06766 107.63C8.80251 107.478 8.59417 107.251 8.44266 106.948C8.29114 106.642 8.21539 106.258 8.21539 105.794V102.328H9.05345V105.737C9.05345 106.134 9.16472 106.452 9.38726 106.688C9.61217 106.925 9.89862 107.044 10.2466 107.044C10.455 107.044 10.6669 106.99 10.8823 106.884C11.1001 106.777 11.2824 106.614 11.4292 106.394C11.5783 106.174 11.6529 105.893 11.6529 105.552ZM14.1759 109.828V102.328H14.9856V103.194H15.085C15.1466 103.099 15.2318 102.979 15.3407 102.832C15.452 102.683 15.6106 102.55 15.8166 102.434C16.0249 102.316 16.3066 102.257 16.6617 102.257C17.121 102.257 17.5258 102.371 17.8762 102.601C18.2266 102.831 18.5 103.156 18.6965 103.578C18.893 103.999 18.9913 104.496 18.9913 105.069C18.9913 105.647 18.893 106.148 18.6965 106.571C18.5 106.993 18.2278 107.319 17.8798 107.551C17.5318 107.781 17.1305 107.896 16.6759 107.896C16.3256 107.896 16.045 107.838 15.8343 107.722C15.6236 107.603 15.4614 107.47 15.3478 107.321C15.2342 107.169 15.1466 107.044 15.085 106.944H15.014V109.828H14.1759ZM14.9998 105.055C14.9998 105.467 15.0602 105.83 15.1809 106.145C15.3016 106.458 15.478 106.703 15.71 106.88C15.942 107.055 16.2261 107.143 16.5623 107.143C16.9127 107.143 17.2051 107.051 17.4394 106.866C17.6762 106.679 17.8537 106.428 17.9721 106.113C18.0928 105.796 18.1532 105.443 18.1532 105.055C18.1532 104.671 18.094 104.326 17.9756 104.018C17.8596 103.708 17.6833 103.463 17.4465 103.283C17.2122 103.101 16.9174 103.009 16.5623 103.009C16.2214 103.009 15.9349 103.096 15.7029 103.269C15.4709 103.439 15.2957 103.678 15.1774 103.986C15.059 104.291 14.9998 104.648 14.9998 105.055ZM20.4197 109.828V102.328H21.2293V103.194H21.3288C21.3903 103.099 21.4756 102.979 21.5845 102.832C21.6957 102.683 21.8543 102.55 22.0603 102.434C22.2686 102.316 22.5504 102.257 22.9055 102.257C23.3648 102.257 23.7696 102.371 24.12 102.601C24.4703 102.831 24.7438 103.156 24.9403 103.578C25.1368 103.999 25.235 104.496 25.235 105.069C25.235 105.647 25.1368 106.148 24.9403 106.571C24.7438 106.993 24.4715 107.319 24.1235 107.551C23.7755 107.781 23.3742 107.896 22.9197 107.896C22.5693 107.896 22.2888 107.838 22.0781 107.722C21.8674 107.603 21.7052 107.47 21.5916 107.321C21.4779 107.169 21.3903 107.044 21.3288 106.944H21.2578V109.828H20.4197ZM21.2435 105.055C21.2435 105.467 21.3039 105.83 21.4247 106.145C21.5454 106.458 21.7218 106.703 21.9538 106.88C22.1858 107.055 22.4699 107.143 22.806 107.143C23.1564 107.143 23.4488 107.051 23.6832 106.866C23.9199 106.679 24.0975 106.428 24.2158 106.113C24.3366 105.796 24.397 105.443 24.397 105.055C24.397 104.671 24.3378 104.326 24.2194 104.018C24.1034 103.708 23.927 103.463 23.6903 103.283C23.4559 103.101 23.1612 103.009 22.806 103.009C22.4651 103.009 22.1787 103.096 21.9467 103.269C21.7147 103.439 21.5395 103.678 21.4211 103.986C21.3027 104.291 21.2435 104.648 21.2435 105.055ZM28.8793 107.896C28.3869 107.896 27.9549 107.779 27.5832 107.544C27.2139 107.31 26.925 106.982 26.7167 106.561C26.5107 106.139 26.4078 105.647 26.4078 105.083C26.4078 104.515 26.5107 104.019 26.7167 103.595C26.925 103.172 27.2139 102.843 27.5832 102.608C27.9549 102.374 28.3869 102.257 28.8793 102.257C29.3718 102.257 29.8026 102.374 30.172 102.608C30.5436 102.843 30.8325 103.172 31.0384 103.595C31.2468 104.019 31.3509 104.515 31.3509 105.083C31.3509 105.647 31.2468 106.139 31.0384 106.561C30.8325 106.982 30.5436 107.31 30.172 107.544C29.8026 107.779 29.3718 107.896 28.8793 107.896ZM28.8793 107.143C29.2534 107.143 29.5612 107.047 29.8026 106.855C30.0441 106.664 30.2229 106.411 30.3389 106.099C30.4549 105.786 30.5129 105.448 30.5129 105.083C30.5129 104.719 30.4549 104.379 30.3389 104.064C30.2229 103.749 30.0441 103.495 29.8026 103.301C29.5612 103.107 29.2534 103.009 28.8793 103.009C28.5053 103.009 28.1975 103.107 27.956 103.301C27.7146 103.495 27.5358 103.749 27.4198 104.064C27.3038 104.379 27.2458 104.719 27.2458 105.083C27.2458 105.448 27.3038 105.786 27.4198 106.099C27.5358 106.411 27.7146 106.664 27.956 106.855C28.1975 107.047 28.5053 107.143 28.8793 107.143ZM32.7802 107.782V102.328H33.5899V103.152H33.6467C33.7461 102.882 33.9261 102.663 34.1865 102.495C34.4469 102.326 34.7405 102.242 35.0672 102.242C35.1287 102.242 35.2057 102.244 35.298 102.246C35.3903 102.248 35.4602 102.252 35.5075 102.257V103.109C35.4791 103.102 35.414 103.091 35.3122 103.077C35.2128 103.06 35.1074 103.052 34.9961 103.052C34.731 103.052 34.4942 103.108 34.2859 103.219C34.0799 103.328 33.9166 103.479 33.7959 103.674C33.6775 103.865 33.6183 104.084 33.6183 104.331V107.782H32.7802ZM39.3649 102.328V103.038H36.5382V102.328H39.3649ZM37.362 101.021H38.2001V106.22C38.2001 106.456 38.2344 106.634 38.3031 106.752C38.3741 106.868 38.4641 106.947 38.573 106.987C38.6843 107.025 38.8014 107.044 38.9245 107.044C39.0169 107.044 39.0926 107.039 39.1518 107.029C39.211 107.018 39.2584 107.008 39.2939 107.001L39.4643 107.754C39.4075 107.775 39.3282 107.796 39.2264 107.818C39.1246 107.841 38.9956 107.853 38.8393 107.853C38.6026 107.853 38.3706 107.802 38.1433 107.701C37.9184 107.599 37.7314 107.444 37.5822 107.235C37.4354 107.027 37.362 106.764 37.362 106.447V101.021ZM46.1102 102.328V103.038H43.2835V102.328H46.1102ZM44.1074 101.021H44.9454V106.22C44.9454 106.456 44.9798 106.634 45.0484 106.752C45.1194 106.868 45.2094 106.947 45.3183 106.987C45.4296 107.025 45.5468 107.044 45.6699 107.044C45.7622 107.044 45.8379 107.039 45.8971 107.029C45.9563 107.018 46.0037 107.008 46.0392 107.001L46.2096 107.754C46.1528 107.775 46.0735 107.796 45.9717 107.818C45.8699 107.841 45.7409 107.853 45.5846 107.853C45.3479 107.853 45.1159 107.802 44.8886 107.701C44.6637 107.599 44.4767 107.444 44.3275 107.235C44.1808 107.027 44.1074 106.764 44.1074 106.447V101.021ZM49.7492 107.896C49.2236 107.896 48.7703 107.78 48.3891 107.548C48.0103 107.313 47.7179 106.987 47.512 106.568C47.3084 106.146 47.2066 105.656 47.2066 105.098C47.2066 104.539 47.3084 104.046 47.512 103.62C47.7179 103.192 48.0044 102.858 48.3713 102.619C48.7407 102.377 49.1715 102.257 49.664 102.257C49.9481 102.257 50.2286 102.304 50.5056 102.399C50.7826 102.493 51.0347 102.647 51.262 102.86C51.4892 103.071 51.6704 103.35 51.8053 103.698C51.9402 104.046 52.0077 104.475 52.0077 104.984V105.339H47.8032V104.615H51.1554C51.1554 104.307 51.0939 104.032 50.9708 103.791C50.85 103.549 50.6772 103.359 50.4523 103.219C50.2298 103.079 49.967 103.009 49.664 103.009C49.3302 103.009 49.0413 103.092 48.7975 103.258C48.556 103.421 48.3702 103.634 48.24 103.897C48.1097 104.16 48.0446 104.442 48.0446 104.742V105.225C48.0446 105.637 48.1157 105.987 48.2577 106.273C48.4021 106.557 48.6022 106.774 48.8579 106.923C49.1135 107.07 49.4106 107.143 49.7492 107.143C49.9694 107.143 50.1682 107.112 50.3458 107.051C50.5257 106.987 50.6808 106.892 50.811 106.767C50.9412 106.639 51.0418 106.48 51.1128 106.291L51.9225 106.518C51.8373 106.793 51.694 107.034 51.4928 107.242C51.2916 107.448 51.043 107.609 50.7471 107.725C50.4511 107.839 50.1185 107.896 49.7492 107.896ZM53.9111 102.328L55.2179 104.558L56.5247 102.328H57.4906L55.7293 105.055L57.4906 107.782H56.5247L55.2179 105.666L53.9111 107.782H52.9452L54.6781 105.055L52.9452 102.328H53.9111ZM61.2086 102.328V103.038H58.3819V102.328H61.2086ZM59.2058 101.021H60.0439V106.22C60.0439 106.456 60.0782 106.634 60.1468 106.752C60.2179 106.868 60.3078 106.947 60.4167 106.987C60.528 107.025 60.6452 107.044 60.7683 107.044C60.8606 107.044 60.9364 107.039 60.9956 107.029C61.0548 107.018 61.1021 107.008 61.1376 107.001L61.3081 107.754C61.2513 107.775 61.1719 107.796 61.0701 107.818C60.9683 107.841 60.8393 107.853 60.6831 107.853C60.4463 107.853 60.2143 107.802 59.987 107.701C59.7621 107.599 59.5751 107.444 59.426 107.235C59.2792 107.027 59.2058 106.764 59.2058 106.447V101.021Z" fill="#ED3241"/>
<rect x="211.921" y="82.7822" width="24" height="24" rx="12" fill="#EAF2FF"/>
<mask id="mask6_263_4233" style="mask-type:alpha" maskUnits="userSpaceOnUse" x="219" y="94" width="9" height="2">
<path fill-rule="evenodd" clip-rule="evenodd" d="M227.88 94.7705C227.88 95.1157 227.6 95.3955 227.255 95.3955H220.588C220.243 95.3955 219.963 95.1157 219.963 94.7705C219.963 94.4253 220.243 94.1455 220.588 94.1455H227.255C227.6 94.1455 227.88 94.4253 227.88 94.7705Z" fill="#006FFD"/>
</mask>
<g mask="url(#mask6_263_4233)">
<rect x="218.921" y="89.7822" width="10" height="10" fill="#006FFD"/>
</g>
<path d="M250.606 89.6004V99.7822H249.373V90.893H249.313L246.827 92.5436V91.2907L249.373 89.6004H250.606ZM253.534 99.7822V98.8873L256.895 95.2084C257.289 94.7775 257.614 94.403 257.869 94.0848C258.124 93.7633 258.313 93.4617 258.436 93.18C258.562 92.8949 258.625 92.5966 258.625 92.2851C258.625 91.9271 258.539 91.6172 258.366 91.3554C258.197 91.0935 257.965 90.8914 257.67 90.7488C257.375 90.6063 257.044 90.5351 256.676 90.5351C256.285 90.5351 255.944 90.6163 255.652 90.7787C255.364 90.9378 255.14 91.1615 254.981 91.4498C254.825 91.7382 254.747 92.0763 254.747 92.464H253.574C253.574 91.8675 253.711 91.3438 253.986 90.893C254.261 90.4423 254.636 90.0909 255.11 89.839C255.587 89.5872 256.122 89.4612 256.716 89.4612C257.312 89.4612 257.841 89.5872 258.302 89.839C258.762 90.0909 259.124 90.4307 259.386 90.8582C259.647 91.2858 259.778 91.7614 259.778 92.2851C259.778 92.6596 259.71 93.0258 259.574 93.3838C259.442 93.7384 259.21 94.1345 258.878 94.572C258.55 95.0062 258.095 95.5365 257.511 96.1629L255.224 98.6089V98.6885H259.957V99.7822H253.534ZM265.451 99.9214C264.795 99.9214 264.21 99.8087 263.696 99.5834C263.185 99.358 262.779 99.0448 262.478 98.6437C262.18 98.2394 262.017 97.7704 261.991 97.2368H263.243C263.27 97.5649 263.383 97.8483 263.582 98.0869C263.78 98.3222 264.041 98.5045 264.362 98.6338C264.684 98.7631 265.04 98.8277 265.431 98.8277C265.868 98.8277 266.256 98.7515 266.594 98.599C266.932 98.4465 267.198 98.2344 267.39 97.9626C267.582 97.6908 267.678 97.376 267.678 97.018C267.678 96.6435 267.585 96.3137 267.4 96.0287C267.214 95.7403 266.942 95.5149 266.584 95.3525C266.226 95.1901 265.789 95.1089 265.272 95.1089H264.457V94.0152H265.272C265.676 94.0152 266.031 93.9423 266.336 93.7964C266.644 93.6506 266.884 93.4451 267.057 93.18C267.232 92.9148 267.32 92.6032 267.32 92.2453C267.32 91.9006 267.244 91.6006 267.091 91.3454C266.939 91.0902 266.724 90.8914 266.445 90.7488C266.17 90.6063 265.845 90.5351 265.471 90.5351C265.119 90.5351 264.788 90.5997 264.476 90.729C264.168 90.8549 263.916 91.0389 263.721 91.2808C263.525 91.5194 263.419 91.8078 263.403 92.1459H262.209C262.229 91.6122 262.39 91.1449 262.692 90.7439C262.993 90.3395 263.388 90.0247 263.875 89.7993C264.365 89.5739 264.904 89.4612 265.491 89.4612C266.12 89.4612 266.661 89.5888 267.111 89.844C267.562 90.0959 267.908 90.429 268.15 90.8433C268.392 91.2576 268.513 91.705 268.513 92.1856C268.513 92.759 268.363 93.2479 268.061 93.6523C267.763 94.0566 267.357 94.3367 266.843 94.4925V94.572C267.486 94.6781 267.988 94.9515 268.349 95.3923C268.711 95.8298 268.891 96.3717 268.891 97.018C268.891 97.5715 268.74 98.0687 268.439 98.5095C268.14 98.947 267.733 99.2917 267.216 99.5436C266.699 99.7955 266.11 99.9214 265.451 99.9214Z" fill="#ED3241"/>
<rect x="279.921" y="82.7822" width="24" height="24" rx="12" fill="#EAF2FF"/>
<mask id="mask7_263_4233" style="mask-type:alpha" maskUnits="userSpaceOnUse" x="287" y="89" width="10" height="11">
<path d="M292.546 90.6156C292.546 90.2704 292.267 89.9906 291.921 89.9906C291.576 89.9906 291.296 90.2704 291.296 90.6156V94.1573H287.755C287.41 94.1573 287.13 94.4371 287.13 94.7823C287.13 95.1274 287.41 95.4073 287.755 95.4073H291.296V98.9489C291.296 99.2941 291.576 99.5739 291.921 99.5739C292.267 99.5739 292.546 99.2941 292.546 98.9489V95.4073H296.088C296.433 95.4073 296.713 95.1274 296.713 94.7823C296.713 94.4371 296.433 94.1573 296.088 94.1573H292.546V90.6156Z" fill="#006FFD"/>
</mask>
<g mask="url(#mask7_263_4233)">
<rect x="286.921" y="89.7822" width="10" height="10" fill="#006FFD"/>
</g>
<defs>
<clipPath id="clip0_263_4233">
<rect width="16" height="16" fill="white" transform="translate(179.921 24)"/>
</clipPath>
</defs>
</svg>
