<svg width="268" height="162" viewBox="0 0 268 162" fill="none" xmlns="http://www.w3.org/2000/svg">
<rect x="0.5" y="55.4525" width="111" height="40" rx="12" fill="#006FFD"/>
<mask id="mask0_248_4309" style="mask-type:alpha" maskUnits="userSpaceOnUse" x="17" y="69" width="11" height="12">
<path fill-rule="evenodd" clip-rule="evenodd" d="M22.5 80.9525C25.5376 80.9525 28 78.4901 28 75.4525C28 72.4149 25.5376 69.9525 22.5 69.9525C19.4624 69.9525 17 72.4149 17 75.4525C17 78.4901 19.4624 80.9525 22.5 80.9525Z" fill="white"/>
</mask>
<g mask="url(#mask0_248_4309)">
<rect x="16.5" y="69.4525" width="12" height="12" fill="white"/>
</g>
<path d="M37.3608 79.9525V71.2252H40.7017C41.3324 71.2252 41.8565 71.3247 42.2741 71.5235C42.6946 71.7196 43.0085 71.988 43.2159 72.3289C43.4261 72.6698 43.5312 73.0562 43.5312 73.488C43.5312 73.8431 43.4631 74.1471 43.3267 74.4C43.1903 74.65 43.0071 74.8531 42.777 75.0093C42.5469 75.1656 42.2898 75.2778 42.0057 75.346V75.4312C42.3153 75.4483 42.6122 75.5434 42.8963 75.7167C43.1832 75.8872 43.4176 76.1287 43.5994 76.4412C43.7813 76.7537 43.8722 77.1315 43.8722 77.5747C43.8722 78.0264 43.7628 78.4326 43.544 78.7934C43.3253 79.1514 42.9957 79.434 42.5554 79.6414C42.1151 79.8488 41.5611 79.9525 40.8935 79.9525H37.3608ZM38.9418 78.6315H40.642C41.2159 78.6315 41.6293 78.5221 41.8821 78.3034C42.1378 78.0818 42.2656 77.7977 42.2656 77.4511C42.2656 77.1926 42.2017 76.9596 42.0739 76.7522C41.946 76.542 41.7642 76.3772 41.5284 76.2579C41.2926 76.1358 41.0114 76.0747 40.6847 76.0747H38.9418V78.6315ZM38.9418 74.9369H40.5057C40.7784 74.9369 41.0241 74.8872 41.2429 74.7877C41.4616 74.6855 41.6335 74.542 41.7585 74.3573C41.8864 74.1698 41.9503 73.9483 41.9503 73.6926C41.9503 73.3545 41.831 73.0761 41.5923 72.8573C41.3565 72.6386 41.0057 72.5292 40.5398 72.5292H38.9418V74.9369ZM49.3512 77.1997V73.4071H50.8938V79.9525H49.3981V78.7892H49.3299C49.1822 79.1556 48.9393 79.4554 48.6012 79.6883C48.266 79.9213 47.8526 80.0377 47.3612 80.0377C46.9322 80.0377 46.5529 79.9426 46.2234 79.7522C45.8967 79.559 45.641 79.2792 45.4563 78.9127C45.2717 78.5434 45.1793 78.0974 45.1793 77.5747V73.4071H46.7219V77.336C46.7219 77.7508 46.8356 78.0804 47.0629 78.3247C47.2901 78.569 47.5884 78.6912 47.9577 78.6912C48.185 78.6912 48.4052 78.6358 48.6183 78.525C48.8313 78.4142 49.006 78.2494 49.1424 78.0306C49.2816 77.809 49.3512 77.5321 49.3512 77.1997ZM55.7486 73.4071V74.6002H51.9858V73.4071H55.7486ZM52.9148 71.8389H54.4574V77.9838C54.4574 78.1912 54.4886 78.3502 54.5511 78.461C54.6165 78.569 54.7017 78.6429 54.8068 78.6826C54.9119 78.7224 55.0284 78.7423 55.1562 78.7423C55.2528 78.7423 55.3409 78.7352 55.4205 78.721C55.5028 78.7068 55.5653 78.694 55.608 78.6826L55.8679 79.8886C55.7855 79.917 55.6676 79.9483 55.5142 79.9823C55.3636 80.0164 55.179 80.0363 54.9602 80.042C54.5739 80.0534 54.2259 79.9951 53.9162 79.8673C53.6065 79.7366 53.3608 79.5349 53.179 79.2622C53 78.9894 52.9119 78.6485 52.9148 78.2394V71.8389ZM60.3072 73.4071V74.6002H56.5444V73.4071H60.3072ZM57.4734 71.8389H59.016V77.9838C59.016 78.1912 59.0472 78.3502 59.1097 78.461C59.1751 78.569 59.2603 78.6429 59.3654 78.6826C59.4705 78.7224 59.587 78.7423 59.7148 78.7423C59.8114 78.7423 59.8995 78.7352 59.979 78.721C60.0614 78.7068 60.1239 78.694 60.1665 78.6826L60.4265 79.8886C60.3441 79.917 60.2262 79.9483 60.0728 79.9823C59.9222 80.0164 59.7376 80.0363 59.5188 80.042C59.1325 80.0534 58.7844 79.9951 58.4748 79.8673C58.1651 79.7366 57.9194 79.5349 57.7376 79.2622C57.5586 78.9894 57.4705 78.6485 57.4734 78.2394V71.8389ZM64.3821 80.0804C63.7429 80.0804 63.1889 79.9397 62.7202 79.6585C62.2514 79.3772 61.8878 78.9838 61.6293 78.4781C61.3736 77.9724 61.2457 77.3815 61.2457 76.7054C61.2457 76.0292 61.3736 75.4369 61.6293 74.9284C61.8878 74.4198 62.2514 74.025 62.7202 73.7437C63.1889 73.4625 63.7429 73.3218 64.3821 73.3218C65.0213 73.3218 65.5753 73.4625 66.044 73.7437C66.5128 74.025 66.875 74.4198 67.1307 74.9284C67.3892 75.4369 67.5185 76.0292 67.5185 76.7054C67.5185 77.3815 67.3892 77.9724 67.1307 78.4781C66.875 78.9838 66.5128 79.3772 66.044 79.6585C65.5753 79.9397 65.0213 80.0804 64.3821 80.0804ZM64.3906 78.8446C64.7372 78.8446 65.027 78.7494 65.2599 78.559C65.4929 78.3659 65.6662 78.1073 65.7798 77.7835C65.8963 77.4596 65.9545 77.0988 65.9545 76.7011C65.9545 76.3005 65.8963 75.9383 65.7798 75.6144C65.6662 75.2877 65.4929 75.0278 65.2599 74.8346C65.027 74.6414 64.7372 74.5448 64.3906 74.5448C64.0355 74.5448 63.7401 74.6414 63.5043 74.8346C63.2713 75.0278 63.0966 75.2877 62.9801 75.6144C62.8665 75.9383 62.8097 76.3005 62.8097 76.7011C62.8097 77.0988 62.8665 77.4596 62.9801 77.7835C63.0966 78.1073 63.2713 78.3659 63.5043 78.559C63.7401 78.7494 64.0355 78.8446 64.3906 78.8446ZM70.3704 76.1173V79.9525H68.8278V73.4071H70.3022V74.5193H70.3789C70.5295 74.1528 70.7695 73.8616 71.0991 73.6457C71.4315 73.4298 71.842 73.3218 72.3306 73.3218C72.7823 73.3218 73.1758 73.4184 73.511 73.6116C73.8491 73.8048 74.1104 74.0846 74.2951 74.4511C74.4826 74.8176 74.5749 75.2622 74.5721 75.7849V79.9525H73.0295V76.0235C73.0295 75.586 72.9158 75.2437 72.6886 74.9965C72.4641 74.7494 72.1531 74.6258 71.7553 74.6258C71.4854 74.6258 71.2454 74.6855 71.0352 74.8048C70.8278 74.9213 70.6644 75.0903 70.5451 75.3119C70.4286 75.5335 70.3704 75.8019 70.3704 76.1173Z" fill="white"/>
<mask id="mask1_248_4309" style="mask-type:alpha" maskUnits="userSpaceOnUse" x="84" y="69" width="11" height="12">
<path fill-rule="evenodd" clip-rule="evenodd" d="M89.5 80.9525C92.5376 80.9525 95 78.4901 95 75.4525C95 72.4149 92.5376 69.9525 89.5 69.9525C86.4624 69.9525 84 72.4149 84 75.4525C84 78.4901 86.4624 80.9525 89.5 80.9525Z" fill="white"/>
</mask>
<g mask="url(#mask1_248_4309)">
<rect x="83.5" y="69.4525" width="12" height="12" fill="white"/>
</g>
<mask id="mask2_248_4309" style="mask-type:alpha" maskUnits="userSpaceOnUse" x="92" y="2" width="17" height="12">
<path d="M100.013 5.81832C99.434 5.81832 98.8791 6.04819 98.4699 6.45736C98.0607 6.86653 97.8309 7.42148 97.8309 8.00014C97.8309 8.57879 98.0607 9.13375 98.4699 9.54292C98.8791 9.95209 99.434 10.182 100.013 10.182C100.591 10.182 101.146 9.95209 101.555 9.54292C101.965 9.13375 102.195 8.57879 102.195 8.00014C102.195 7.42148 101.965 6.86653 101.555 6.45736C101.146 6.04819 100.591 5.81832 100.013 5.81832ZM100.013 11.6365C99.0483 11.6365 98.1233 11.2534 97.4414 10.5714C96.7594 9.88949 96.3763 8.96456 96.3763 8.00014C96.3763 7.03572 96.7594 6.11079 97.4414 5.42884C98.1233 4.74689 99.0483 4.36378 100.013 4.36378C100.977 4.36378 101.902 4.74689 102.584 5.42884C103.266 6.11079 103.649 7.03572 103.649 8.00014C103.649 8.96456 103.266 9.88949 102.584 10.5714C101.902 11.2534 100.977 11.6365 100.013 11.6365ZM100.013 2.54559C96.4781 2.54559 93.3072 4.72741 92.0127 8.00014C93.7509 12.422 98.74 14.5892 103.162 12.851C105.38 11.9783 107.14 10.2256 108.013 8.00014C106.718 4.72741 103.547 2.54559 100.013 2.54559Z" fill="#006FFD"/>
</mask>
<g mask="url(#mask2_248_4309)">
<rect x="92.0127" width="16" height="16" fill="#8F9098"/>
</g>
<path d="M120.871 6.54545C120.828 6.18561 120.655 5.90625 120.352 5.70739C120.049 5.50852 119.677 5.40909 119.237 5.40909C118.915 5.40909 118.633 5.46117 118.392 5.56534C118.153 5.66951 117.966 5.81274 117.831 5.99503C117.698 6.17732 117.632 6.38447 117.632 6.61648C117.632 6.81061 117.678 6.97751 117.771 7.11719C117.865 7.2545 117.986 7.36932 118.133 7.46165C118.28 7.55161 118.433 7.62618 118.594 7.68537C118.755 7.74219 118.903 7.78835 119.038 7.82386L119.777 8.02273C119.966 8.07244 120.177 8.1411 120.409 8.22869C120.643 8.31629 120.867 8.43584 121.08 8.58736C121.296 8.73651 121.473 8.92827 121.613 9.16264C121.753 9.39702 121.822 9.68466 121.822 10.0256C121.822 10.4186 121.719 10.7737 121.513 11.0909C121.31 11.4081 121.012 11.6603 120.619 11.8473C120.228 12.0343 119.753 12.1278 119.195 12.1278C118.674 12.1278 118.223 12.0438 117.842 11.8757C117.463 11.7076 117.164 11.4732 116.947 11.1726C116.731 10.8719 116.609 10.5227 116.581 10.125H117.49C117.514 10.3996 117.606 10.6269 117.767 10.8068C117.93 10.9844 118.136 11.117 118.385 11.2045C118.636 11.2898 118.906 11.3324 119.195 11.3324C119.531 11.3324 119.833 11.2779 120.1 11.169C120.368 11.0578 120.579 10.9039 120.736 10.7074C120.892 10.5085 120.97 10.2765 120.97 10.0114C120.97 9.76989 120.903 9.57339 120.768 9.42188C120.633 9.27036 120.455 9.14725 120.235 9.05256C120.015 8.95786 119.777 8.875 119.521 8.80398L118.626 8.5483C118.058 8.38494 117.608 8.15175 117.277 7.84872C116.945 7.54569 116.78 7.14915 116.78 6.65909C116.78 6.25189 116.89 5.89678 117.11 5.59375C117.333 5.28835 117.631 5.05161 118.005 4.88352C118.381 4.71307 118.802 4.62784 119.266 4.62784C119.734 4.62784 120.151 4.71188 120.516 4.87997C120.88 5.04569 121.169 5.27296 121.382 5.56179C121.597 5.85062 121.711 6.1785 121.723 6.54545H120.871ZM124.145 8.71875V12H123.307V4.72727H124.145V7.39773H124.216C124.344 7.116 124.535 6.89228 124.791 6.72656C125.049 6.55848 125.392 6.47443 125.821 6.47443C126.193 6.47443 126.518 6.54901 126.797 6.69815C127.077 6.84493 127.293 7.07102 127.447 7.37642C127.604 7.67945 127.682 8.06534 127.682 8.53409V12H126.844V8.59091C126.844 8.15767 126.731 7.82268 126.506 7.58594C126.284 7.34683 125.975 7.22727 125.579 7.22727C125.305 7.22727 125.059 7.28527 124.841 7.40128C124.625 7.51728 124.455 7.68655 124.329 7.90909C124.206 8.13163 124.145 8.40152 124.145 8.71875ZM131.581 12.1136C131.088 12.1136 130.656 11.9964 130.285 11.7621C129.915 11.5277 129.626 11.1998 129.418 10.7784C129.212 10.357 129.109 9.86458 129.109 9.30114C129.109 8.73295 129.212 8.23698 129.418 7.81321C129.626 7.38944 129.915 7.06037 130.285 6.82599C130.656 6.59162 131.088 6.47443 131.581 6.47443C132.073 6.47443 132.504 6.59162 132.873 6.82599C133.245 7.06037 133.534 7.38944 133.74 7.81321C133.948 8.23698 134.052 8.73295 134.052 9.30114C134.052 9.86458 133.948 10.357 133.74 10.7784C133.534 11.1998 133.245 11.5277 132.873 11.7621C132.504 11.9964 132.073 12.1136 131.581 12.1136ZM131.581 11.3608C131.955 11.3608 132.263 11.2649 132.504 11.0732C132.746 10.8814 132.924 10.6293 133.04 10.3168C133.156 10.0043 133.214 9.66572 133.214 9.30114C133.214 8.93655 133.156 8.59683 133.04 8.28196C132.924 7.96709 132.746 7.71259 132.504 7.51847C132.263 7.32434 131.955 7.22727 131.581 7.22727C131.207 7.22727 130.899 7.32434 130.658 7.51847C130.416 7.71259 130.237 7.96709 130.121 8.28196C130.005 8.59683 129.947 8.93655 129.947 9.30114C129.947 9.66572 130.005 10.0043 130.121 10.3168C130.237 10.6293 130.416 10.8814 130.658 11.0732C130.899 11.2649 131.207 11.3608 131.581 11.3608ZM136.532 12L134.87 6.54545H135.751L136.93 10.7216H136.986L138.151 6.54545H139.046L140.197 10.7074H140.254L141.433 6.54545H142.313L140.651 12H139.827L138.634 7.80966H138.549L137.356 12H136.532ZM146.25 5.50852V4.72727H151.704V5.50852H149.417V12H148.536V5.50852H146.25ZM154.596 12.1136C154.07 12.1136 153.617 11.9976 153.235 11.7656C152.857 11.5312 152.564 11.2045 152.358 10.7855C152.155 10.3641 152.053 9.87405 152.053 9.31534C152.053 8.75663 152.155 8.2642 152.358 7.83807C152.564 7.40956 152.851 7.07576 153.218 6.83665C153.587 6.59517 154.018 6.47443 154.51 6.47443C154.794 6.47443 155.075 6.52178 155.352 6.61648C155.629 6.71117 155.881 6.86506 156.108 7.07812C156.336 7.28883 156.517 7.56818 156.652 7.91619C156.787 8.2642 156.854 8.69271 156.854 9.2017V9.55682H152.65V8.83239H156.002C156.002 8.52462 155.94 8.25 155.817 8.00852C155.696 7.76705 155.524 7.57647 155.299 7.43679C155.076 7.29711 154.813 7.22727 154.51 7.22727C154.177 7.22727 153.888 7.31013 153.644 7.47585C153.402 7.6392 153.217 7.85227 153.086 8.11506C152.956 8.37784 152.891 8.65956 152.891 8.96023V9.44318C152.891 9.85511 152.962 10.2043 153.104 10.4908C153.249 10.7749 153.449 10.9915 153.704 11.1406C153.96 11.2874 154.257 11.3608 154.596 11.3608C154.816 11.3608 155.015 11.33 155.192 11.2685C155.372 11.2045 155.527 11.1098 155.657 10.9844C155.788 10.8565 155.888 10.6979 155.959 10.5085L156.769 10.7358C156.684 11.0104 156.54 11.2519 156.339 11.4602C156.138 11.6662 155.889 11.8272 155.593 11.9432C155.298 12.0568 154.965 12.1136 154.596 12.1136ZM158.757 6.54545L160.064 8.77557L161.371 6.54545H162.337L160.576 9.27273L162.337 12H161.371L160.064 9.88352L158.757 12H157.792L159.525 9.27273L157.792 6.54545H158.757ZM166.055 6.54545V7.25568H163.228V6.54545H166.055ZM164.052 5.23864H164.89V10.4375C164.89 10.6742 164.925 10.8518 164.993 10.9702C165.064 11.0862 165.154 11.1643 165.263 11.2045C165.374 11.2424 165.492 11.2614 165.615 11.2614C165.707 11.2614 165.783 11.2566 165.842 11.2472C165.901 11.2353 165.948 11.2259 165.984 11.2188L166.154 11.9716C166.098 11.9929 166.018 12.0142 165.917 12.0355C165.815 12.0592 165.686 12.071 165.529 12.071C165.293 12.071 165.061 12.0201 164.833 11.9183C164.609 11.8165 164.422 11.6615 164.272 11.4531C164.126 11.2448 164.052 10.982 164.052 10.6648V5.23864Z" fill="#1F2024"/>
<mask id="mask3_248_4309" style="mask-type:alpha" maskUnits="userSpaceOnUse" x="164" y="58" width="17" height="11">
<path d="M172.098 61.2727C171.519 61.2727 170.965 61.5026 170.555 61.9118C170.146 62.3209 169.916 62.8759 169.916 63.4545C169.916 64.0332 170.146 64.5882 170.555 64.9973C170.965 65.4065 171.519 65.6364 172.098 65.6364C172.677 65.6364 173.232 65.4065 173.641 64.9973C174.05 64.5882 174.28 64.0332 174.28 63.4545C174.28 62.8759 174.05 62.3209 173.641 61.9118C173.232 61.5026 172.677 61.2727 172.098 61.2727ZM172.098 67.0909C171.134 67.0909 170.209 66.7078 169.527 66.0258C168.845 65.3439 168.462 64.419 168.462 63.4545C168.462 62.4901 168.845 61.5652 169.527 60.8832C170.209 60.2013 171.134 59.8182 172.098 59.8182C173.063 59.8182 173.987 60.2013 174.669 60.8832C175.351 61.5652 175.735 62.4901 175.735 63.4545C175.735 64.419 175.351 65.3439 174.669 66.0258C173.987 66.7078 173.063 67.0909 172.098 67.0909ZM172.098 58C168.564 58 165.393 60.1818 164.098 63.4545C165.836 67.8764 170.825 70.0436 175.247 68.3055C177.465 67.4327 179.225 65.68 180.098 63.4545C178.804 60.1818 175.633 58 172.098 58Z" fill="#006FFD"/>
</mask>
<g mask="url(#mask3_248_4309)">
<rect x="164.098" y="55.4543" width="16" height="16" fill="#8F9098"/>
</g>
<path d="M192.956 61.9998C192.913 61.64 192.741 61.3606 192.438 61.1617C192.135 60.9629 191.763 60.8634 191.323 60.8634C191.001 60.8634 190.719 60.9155 190.477 61.0197C190.238 61.1239 190.051 61.2671 189.916 61.4494C189.784 61.6317 189.717 61.8388 189.717 62.0708C189.717 62.265 189.764 62.4319 189.856 62.5715C189.951 62.7088 190.071 62.8237 190.218 62.916C190.365 63.006 190.519 63.0805 190.68 63.1397C190.841 63.1965 190.989 63.2427 191.124 63.2782L191.862 63.4771C192.052 63.5268 192.262 63.5954 192.494 63.683C192.729 63.7706 192.953 63.8902 193.166 64.0417C193.381 64.1909 193.559 64.3826 193.698 64.617C193.838 64.8514 193.908 65.139 193.908 65.4799C193.908 65.8729 193.805 66.228 193.599 66.5453C193.395 66.8625 193.097 67.1146 192.704 67.3016C192.313 67.4887 191.839 67.5822 191.28 67.5822C190.759 67.5822 190.308 67.4981 189.927 67.3301C189.548 67.162 189.25 66.9276 189.032 66.6269C188.817 66.3263 188.695 65.9771 188.666 65.5793H189.575C189.599 65.854 189.691 66.0812 189.852 66.2612C190.016 66.4387 190.222 66.5713 190.47 66.6589C190.721 66.7441 190.991 66.7867 191.28 66.7867C191.616 66.7867 191.918 66.7323 192.186 66.6234C192.453 66.5121 192.665 66.3582 192.821 66.1617C192.977 65.9629 193.056 65.7309 193.056 65.4657C193.056 65.2242 192.988 65.0277 192.853 64.8762C192.718 64.7247 192.541 64.6016 192.32 64.5069C192.1 64.4122 191.862 64.3293 191.607 64.2583L190.712 64.0026C190.144 63.8393 189.694 63.6061 189.362 63.3031C189.031 63 188.865 62.6035 188.865 62.1134C188.865 61.7062 188.975 61.3511 189.195 61.0481C189.418 60.7427 189.716 60.506 190.09 60.3379C190.467 60.1674 190.887 60.0822 191.351 60.0822C191.82 60.0822 192.236 60.1662 192.601 60.3343C192.966 60.5 193.254 60.7273 193.467 61.0161C193.683 61.305 193.797 61.6328 193.808 61.9998H192.956ZM196.23 64.1731V67.4543H195.392V60.1816H196.23V62.8521H196.301C196.429 62.5703 196.621 62.3466 196.877 62.1809C197.135 62.0128 197.478 61.9288 197.906 61.9288C198.278 61.9288 198.604 62.0034 198.883 62.1525C199.162 62.2993 199.379 62.5254 199.533 62.8308C199.689 63.1338 199.767 63.5197 199.767 63.9884V67.4543H198.929V64.0453C198.929 63.612 198.817 63.277 198.592 63.0403C198.369 62.8012 198.06 62.6816 197.665 62.6816C197.39 62.6816 197.144 62.7396 196.926 62.8556C196.711 62.9716 196.54 63.1409 196.415 63.3634C196.292 63.586 196.23 63.8559 196.23 64.1731ZM203.666 67.568C203.174 67.568 202.742 67.4508 202.37 67.2164C202.001 66.982 201.712 66.6542 201.504 66.2328C201.298 65.8114 201.195 65.3189 201.195 64.7555C201.195 64.1873 201.298 63.6913 201.504 63.2676C201.712 62.8438 202.001 62.5147 202.37 62.2803C202.742 62.046 203.174 61.9288 203.666 61.9288C204.159 61.9288 204.59 62.046 204.959 62.2803C205.331 62.5147 205.619 62.8438 205.825 63.2676C206.034 63.6913 206.138 64.1873 206.138 64.7555C206.138 65.3189 206.034 65.8114 205.825 66.2328C205.619 66.6542 205.331 66.982 204.959 67.2164C204.59 67.4508 204.159 67.568 203.666 67.568ZM203.666 66.8151C204.04 66.8151 204.348 66.7193 204.59 66.5275C204.831 66.3357 205.01 66.0836 205.126 65.7711C205.242 65.4586 205.3 65.1201 205.3 64.7555C205.3 64.3909 205.242 64.0512 205.126 63.7363C205.01 63.4214 204.831 63.1669 204.59 62.9728C204.348 62.7787 204.04 62.6816 203.666 62.6816C203.292 62.6816 202.984 62.7787 202.743 62.9728C202.501 63.1669 202.323 63.4214 202.207 63.7363C202.091 64.0512 202.033 64.3909 202.033 64.7555C202.033 65.1201 202.091 65.4586 202.207 65.7711C202.323 66.0836 202.501 66.3357 202.743 66.5275C202.984 66.7193 203.292 66.8151 203.666 66.8151ZM208.617 67.4543L206.955 61.9998H207.836L209.015 66.1759H209.072L210.237 61.9998H211.132L212.282 66.1617H212.339L213.518 61.9998H214.399L212.737 67.4543H211.913L210.72 63.264H210.634L209.441 67.4543H208.617ZM218.733 67.4543V60.1816H221.19C221.758 60.1816 222.225 60.2787 222.589 60.4728C222.954 60.6646 223.224 60.9285 223.399 61.2647C223.574 61.6009 223.662 61.9832 223.662 62.4117C223.662 62.8402 223.574 63.2202 223.399 63.5516C223.224 63.8831 222.955 64.1435 222.593 64.3329C222.231 64.5199 221.768 64.6134 221.204 64.6134H219.216V63.818H221.176C221.564 63.818 221.877 63.7612 222.113 63.6475C222.353 63.5339 222.525 63.3729 222.632 63.1646C222.741 62.9539 222.795 62.7029 222.795 62.4117C222.795 62.1205 222.741 61.866 222.632 61.6482C222.523 61.4304 222.349 61.2623 222.11 61.144C221.871 61.0232 221.555 60.9629 221.162 60.9629H219.613V67.4543H218.733ZM222.156 64.1873L223.946 67.4543H222.923L221.162 64.1873H222.156ZM225.166 67.4543V61.9998H226.004V67.4543H225.166ZM225.592 61.0907C225.428 61.0907 225.288 61.0351 225.169 60.9238C225.053 60.8125 224.995 60.6788 224.995 60.5225C224.995 60.3663 225.053 60.2325 225.169 60.1212C225.288 60.01 225.428 59.9543 225.592 59.9543C225.755 59.9543 225.895 60.01 226.011 60.1212C226.129 60.2325 226.188 60.3663 226.188 60.5225C226.188 60.6788 226.129 60.8125 226.011 60.9238C225.895 61.0351 225.755 61.0907 225.592 61.0907ZM229.89 69.6134C229.486 69.6134 229.137 69.5614 228.846 69.4572C228.555 69.3554 228.312 69.2204 228.118 69.0524C227.927 68.8866 227.774 68.7091 227.66 68.5197L228.328 68.0509C228.404 68.1504 228.499 68.264 228.615 68.3918C228.731 68.5221 228.89 68.6345 229.091 68.7292C229.295 68.8263 229.561 68.8748 229.89 68.8748C230.331 68.8748 230.694 68.7683 230.981 68.5552C231.267 68.3421 231.41 68.0083 231.41 67.5538V66.4458H231.339C231.278 66.5453 231.19 66.6684 231.076 66.8151C230.965 66.9596 230.804 67.0886 230.593 67.2022C230.385 67.3135 230.103 67.3691 229.748 67.3691C229.308 67.3691 228.913 67.265 228.562 67.0566C228.214 66.8483 227.938 66.5453 227.735 66.1475C227.534 65.7498 227.433 65.2668 227.433 64.6987C227.433 64.14 227.531 63.6534 227.728 63.2391C227.924 62.8225 228.198 62.5005 228.548 62.2732C228.898 62.0436 229.303 61.9288 229.762 61.9288C230.118 61.9288 230.399 61.988 230.608 62.1063C230.818 62.2223 230.979 62.3549 231.091 62.5041C231.204 62.6508 231.292 62.7716 231.353 62.8663H231.439V61.9998H232.248V67.6106C232.248 68.0793 232.142 68.4605 231.929 68.7541C231.718 69.05 231.434 69.2666 231.076 69.4039C230.721 69.5436 230.326 69.6134 229.89 69.6134ZM229.862 66.6163C230.198 66.6163 230.482 66.5393 230.714 66.3855C230.946 66.2316 231.123 66.0102 231.243 65.7214C231.364 65.4326 231.424 65.0869 231.424 64.6845C231.424 64.2915 231.365 63.9446 231.247 63.644C231.128 63.3433 230.953 63.1078 230.721 62.9373C230.489 62.7668 230.203 62.6816 229.862 62.6816C229.507 62.6816 229.211 62.7716 228.974 62.9515C228.74 63.1314 228.563 63.3729 228.445 63.6759C228.329 63.979 228.271 64.3151 228.271 64.6845C228.271 65.0632 228.33 65.3982 228.449 65.6894C228.569 65.9783 228.747 66.2055 228.981 66.3712C229.218 66.5346 229.512 66.6163 229.862 66.6163ZM234.77 64.1731V67.4543H233.932V60.1816H234.77V62.8521H234.841C234.969 62.5703 235.161 62.3466 235.417 62.1809C235.675 62.0128 236.018 61.9288 236.447 61.9288C236.818 61.9288 237.144 62.0034 237.423 62.1525C237.703 62.2993 237.919 62.5254 238.073 62.8308C238.229 63.1338 238.307 63.5197 238.307 63.9884V67.4543H237.469V64.0453C237.469 63.612 237.357 63.277 237.132 63.0403C236.909 62.8012 236.6 62.6816 236.205 62.6816C235.93 62.6816 235.684 62.7396 235.466 62.8556C235.251 62.9716 235.081 63.1409 234.955 63.3634C234.832 63.586 234.77 63.8559 234.77 64.1731ZM242.363 61.9998V62.71H239.536V61.9998H242.363ZM240.36 60.693H241.198V65.8918C241.198 66.1286 241.232 66.3061 241.301 66.4245C241.372 66.5405 241.462 66.6186 241.571 66.6589C241.682 66.6968 241.799 66.7157 241.922 66.7157C242.015 66.7157 242.09 66.711 242.15 66.7015C242.209 66.6897 242.256 66.6802 242.292 66.6731L242.462 67.4259C242.405 67.4472 242.326 67.4686 242.224 67.4899C242.122 67.5135 241.993 67.5254 241.837 67.5254C241.6 67.5254 241.368 67.4745 241.141 67.3727C240.916 67.2709 240.729 67.1158 240.58 66.9075C240.433 66.6991 240.36 66.4364 240.36 66.1191V60.693ZM247.73 60.1816V67.4543H246.85V60.1816H247.73ZM251.748 67.568C251.237 67.568 250.797 67.4472 250.427 67.2058C250.058 66.9643 249.774 66.6317 249.575 66.2079C249.376 65.7841 249.277 65.3 249.277 64.7555C249.277 64.2015 249.378 63.7126 249.582 63.2889C249.788 62.8627 250.075 62.5301 250.441 62.291C250.811 62.0495 251.242 61.9288 251.734 61.9288C252.118 61.9288 252.463 61.9998 252.771 62.1418C253.079 62.2839 253.331 62.4828 253.527 62.7384C253.724 62.9941 253.846 63.2924 253.893 63.6333H253.055C252.991 63.3847 252.849 63.1646 252.629 62.9728C252.411 62.7787 252.118 62.6816 251.748 62.6816C251.422 62.6816 251.135 62.7668 250.889 62.9373C250.645 63.1054 250.454 63.3433 250.317 63.6511C250.182 63.9565 250.115 64.3151 250.115 64.7271C250.115 65.1485 250.181 65.5154 250.314 65.8279C250.449 66.1404 250.638 66.3831 250.882 66.5559C251.128 66.7287 251.417 66.8151 251.748 66.8151C251.966 66.8151 252.164 66.7773 252.341 66.7015C252.519 66.6257 252.669 66.5168 252.792 66.3748C252.915 66.2328 253.003 66.0623 253.055 65.8634H253.893C253.846 66.1854 253.729 66.4754 253.542 66.7335C253.357 66.9891 253.112 67.1927 252.807 67.3443C252.503 67.4934 252.151 67.568 251.748 67.568ZM257.484 67.568C256.992 67.568 256.56 67.4508 256.188 67.2164C255.819 66.982 255.53 66.6542 255.322 66.2328C255.116 65.8114 255.013 65.3189 255.013 64.7555C255.013 64.1873 255.116 63.6913 255.322 63.2676C255.53 62.8438 255.819 62.5147 256.188 62.2803C256.56 62.046 256.992 61.9288 257.484 61.9288C257.977 61.9288 258.408 62.046 258.777 62.2803C259.149 62.5147 259.437 62.8438 259.643 63.2676C259.852 63.6913 259.956 64.1873 259.956 64.7555C259.956 65.3189 259.852 65.8114 259.643 66.2328C259.437 66.6542 259.149 66.982 258.777 67.2164C258.408 67.4508 257.977 67.568 257.484 67.568ZM257.484 66.8151C257.858 66.8151 258.166 66.7193 258.408 66.5275C258.649 66.3357 258.828 66.0836 258.944 65.7711C259.06 65.4586 259.118 65.1201 259.118 64.7555C259.118 64.3909 259.06 64.0512 258.944 63.7363C258.828 63.4214 258.649 63.1669 258.408 62.9728C258.166 62.7787 257.858 62.6816 257.484 62.6816C257.11 62.6816 256.802 62.7787 256.561 62.9728C256.319 63.1669 256.141 63.4214 256.025 63.7363C255.909 64.0512 255.851 64.3909 255.851 64.7555C255.851 65.1201 255.909 65.4586 256.025 65.7711C256.141 66.0836 256.319 66.3357 256.561 66.5275C256.802 66.7193 257.11 66.8151 257.484 66.8151ZM262.223 64.1731V67.4543H261.385V61.9998H262.195V62.8521H262.266C262.394 62.5751 262.588 62.3525 262.848 62.1845C263.109 62.014 263.445 61.9288 263.857 61.9288C264.226 61.9288 264.549 62.0045 264.826 62.1561C265.103 62.3052 265.319 62.5325 265.472 62.8379C265.626 63.1409 265.703 63.5244 265.703 63.9884V67.4543H264.865V64.0453C264.865 63.6168 264.754 63.2829 264.531 63.0438C264.309 62.8024 264.003 62.6816 263.615 62.6816C263.348 62.6816 263.109 62.7396 262.898 62.8556C262.69 62.9716 262.525 63.1409 262.404 63.3634C262.284 63.586 262.223 63.8559 262.223 64.1731Z" fill="#1F2024"/>
<mask id="mask4_248_4309" style="mask-type:alpha" maskUnits="userSpaceOnUse" x="62" y="124" width="17" height="11">
<path d="M70.5 127.339C69.9213 127.339 69.3664 127.569 68.9572 127.978C68.5481 128.387 68.3182 128.942 68.3182 129.52C68.3182 130.099 68.5481 130.654 68.9572 131.063C69.3664 131.472 69.9213 131.702 70.5 131.702C71.0787 131.702 71.6336 131.472 72.0428 131.063C72.4519 130.654 72.6818 130.099 72.6818 129.52C72.6818 128.942 72.4519 128.387 72.0428 127.978C71.6336 127.569 71.0787 127.339 70.5 127.339ZM70.5 133.157C69.5356 133.157 68.6107 132.774 67.9287 132.092C67.2468 131.41 66.8636 130.485 66.8636 129.52C66.8636 128.556 67.2468 127.631 67.9287 126.949C68.6107 126.267 69.5356 125.884 70.5 125.884C71.4644 125.884 72.3893 126.267 73.0713 126.949C73.7532 127.631 74.1364 128.556 74.1364 129.52C74.1364 130.485 73.7532 131.41 73.0713 132.092C72.3893 132.774 71.4644 133.157 70.5 133.157ZM70.5 124.066C66.9655 124.066 63.7945 126.248 62.5 129.52C64.2382 133.942 69.2273 136.11 73.6491 134.371C75.8673 133.499 77.6273 131.746 78.5 129.52C77.2055 126.248 74.0345 124.066 70.5 124.066Z" fill="#006FFD"/>
</mask>
<g mask="url(#mask4_248_4309)">
<rect x="62.5" y="121.52" width="16" height="16" fill="#8F9098"/>
</g>
<path d="M91.358 128.066C91.3153 127.706 91.1425 127.427 90.8395 127.228C90.5365 127.029 90.1648 126.929 89.7244 126.929C89.4025 126.929 89.1207 126.981 88.8793 127.086C88.6402 127.19 88.4531 127.333 88.3182 127.515C88.1856 127.698 88.1193 127.905 88.1193 128.137C88.1193 128.331 88.1655 128.498 88.2578 128.637C88.3525 128.775 88.4732 128.89 88.62 128.982C88.7668 129.072 88.9207 129.146 89.0817 129.206C89.2427 129.262 89.3906 129.309 89.5256 129.344L90.2642 129.543C90.4536 129.593 90.6643 129.661 90.8963 129.749C91.1307 129.837 91.3544 129.956 91.5675 130.108C91.7829 130.257 91.9605 130.449 92.1001 130.683C92.2398 130.917 92.3097 131.205 92.3097 131.546C92.3097 131.939 92.2067 132.294 92.0007 132.611C91.7971 132.928 91.4988 133.181 91.1058 133.368C90.7152 133.555 90.2405 133.648 89.6818 133.648C89.161 133.648 88.71 133.564 88.3288 133.396C87.95 133.228 87.6518 132.994 87.4339 132.693C87.2185 132.392 87.0966 132.043 87.0682 131.645H87.9773C88.0009 131.92 88.0933 132.147 88.2543 132.327C88.4176 132.505 88.6236 132.637 88.8722 132.725C89.1231 132.81 89.393 132.853 89.6818 132.853C90.018 132.853 90.3198 132.798 90.5874 132.689C90.8549 132.578 91.0668 132.424 91.223 132.228C91.3793 132.029 91.4574 131.797 91.4574 131.532C91.4574 131.29 91.3899 131.094 91.255 130.942C91.12 130.791 90.9425 130.668 90.7223 130.573C90.5021 130.478 90.2642 130.395 90.0085 130.324L89.1136 130.069C88.5455 129.905 88.0956 129.672 87.7642 129.369C87.4328 129.066 87.267 128.669 87.267 128.179C87.267 127.772 87.3771 127.417 87.5973 127.114C87.8198 126.809 88.1181 126.572 88.4922 126.404C88.8686 126.233 89.2888 126.148 89.7528 126.148C90.2216 126.148 90.6383 126.232 91.0028 126.4C91.3674 126.566 91.6563 126.793 91.8693 127.082C92.0848 127.371 92.1984 127.699 92.2102 128.066H91.358ZM94.6321 130.239V133.52H93.794V126.248H94.6321V128.918H94.7031C94.8309 128.636 95.0227 128.413 95.2784 128.247C95.5364 128.079 95.8797 127.995 96.3082 127.995C96.6799 127.995 97.0054 128.069 97.2848 128.218C97.5641 128.365 97.7807 128.591 97.9346 128.897C98.0909 129.2 98.169 129.586 98.169 130.054V133.52H97.3309V130.111C97.3309 129.678 97.2185 129.343 96.9936 129.106C96.771 128.867 96.4621 128.748 96.0667 128.748C95.7921 128.748 95.5459 128.806 95.3281 128.922C95.1127 129.038 94.9422 129.207 94.8167 129.429C94.6936 129.652 94.6321 129.922 94.6321 130.239ZM102.068 133.634C101.576 133.634 101.144 133.517 100.772 133.282C100.403 133.048 100.114 132.72 99.9055 132.299C99.6995 131.877 99.5965 131.385 99.5965 130.821C99.5965 130.253 99.6995 129.757 99.9055 129.333C100.114 128.91 100.403 128.581 100.772 128.346C101.144 128.112 101.576 127.995 102.068 127.995C102.561 127.995 102.991 128.112 103.361 128.346C103.732 128.581 104.021 128.91 104.227 129.333C104.436 129.757 104.54 130.253 104.54 130.821C104.54 131.385 104.436 131.877 104.227 132.299C104.021 132.72 103.732 133.048 103.361 133.282C102.991 133.517 102.561 133.634 102.068 133.634ZM102.068 132.881C102.442 132.881 102.75 132.785 102.991 132.593C103.233 132.402 103.412 132.15 103.528 131.837C103.644 131.525 103.702 131.186 103.702 130.821C103.702 130.457 103.644 130.117 103.528 129.802C103.412 129.487 103.233 129.233 102.991 129.039C102.75 128.845 102.442 128.748 102.068 128.748C101.694 128.748 101.386 128.845 101.145 129.039C100.903 129.233 100.725 129.487 100.609 129.802C100.493 130.117 100.435 130.457 100.435 130.821C100.435 131.186 100.493 131.525 100.609 131.837C100.725 132.15 100.903 132.402 101.145 132.593C101.386 132.785 101.694 132.881 102.068 132.881ZM107.019 133.52L105.357 128.066H106.238L107.417 132.242H107.474L108.639 128.066H109.533L110.684 132.228H110.741L111.92 128.066H112.8L111.139 133.52H110.315L109.122 129.33H109.036L107.843 133.52H107.019ZM117.135 133.52V126.248H118.015V132.739H121.396V133.52H117.135ZM125.083 133.634C124.557 133.634 124.104 133.518 123.723 133.286C123.344 133.052 123.052 132.725 122.846 132.306C122.642 131.884 122.54 131.394 122.54 130.836C122.54 130.277 122.642 129.784 122.846 129.358C123.052 128.93 123.338 128.596 123.705 128.357C124.074 128.115 124.505 127.995 124.998 127.995C125.282 127.995 125.562 128.042 125.839 128.137C126.116 128.231 126.368 128.385 126.596 128.598C126.823 128.809 127.004 129.088 127.139 129.436C127.274 129.784 127.341 130.213 127.341 130.722V131.077H123.137V130.353H126.489C126.489 130.045 126.428 129.77 126.304 129.529C126.184 129.287 126.011 129.097 125.786 128.957C125.563 128.817 125.301 128.748 124.998 128.748C124.664 128.748 124.375 128.83 124.131 128.996C123.89 129.159 123.704 129.373 123.574 129.635C123.443 129.898 123.378 130.18 123.378 130.48V130.963C123.378 131.375 123.449 131.725 123.591 132.011C123.736 132.295 123.936 132.512 124.192 132.661C124.447 132.808 124.744 132.881 125.083 132.881C125.303 132.881 125.502 132.85 125.679 132.789C125.859 132.725 126.014 132.63 126.145 132.505C126.275 132.377 126.375 132.218 126.447 132.029L127.256 132.256C127.171 132.531 127.028 132.772 126.826 132.98C126.625 133.186 126.377 133.347 126.081 133.463C125.785 133.577 125.452 133.634 125.083 133.634ZM131.195 128.066V128.776H128.255V128.066H131.195ZM129.136 133.52V127.313C129.136 127 129.209 126.74 129.356 126.532C129.503 126.323 129.693 126.167 129.927 126.063C130.162 125.959 130.409 125.907 130.67 125.907C130.876 125.907 131.044 125.923 131.174 125.956C131.304 125.989 131.401 126.02 131.465 126.049L131.224 126.773C131.181 126.759 131.122 126.741 131.046 126.72C130.973 126.699 130.876 126.688 130.755 126.688C130.478 126.688 130.278 126.758 130.155 126.897C130.034 127.037 129.974 127.242 129.974 127.512V133.52H129.136ZM134.892 128.066V128.776H132.065V128.066H134.892ZM132.889 126.759H133.727V131.958C133.727 132.195 133.761 132.372 133.83 132.49C133.901 132.606 133.991 132.685 134.1 132.725C134.211 132.763 134.328 132.782 134.452 132.782C134.544 132.782 134.62 132.777 134.679 132.767C134.738 132.756 134.785 132.746 134.821 132.739L134.991 133.492C134.935 133.513 134.855 133.534 134.753 133.556C134.652 133.579 134.523 133.591 134.366 133.591C134.13 133.591 133.898 133.54 133.67 133.439C133.445 133.337 133.258 133.182 133.109 132.973C132.962 132.765 132.889 132.502 132.889 132.185V126.759ZM140.259 126.248V133.52H139.379V126.248H140.259ZM144.277 133.634C143.766 133.634 143.326 133.513 142.956 133.272C142.587 133.03 142.303 132.698 142.104 132.274C141.905 131.85 141.806 131.366 141.806 130.821C141.806 130.267 141.908 129.779 142.111 129.355C142.317 128.929 142.604 128.596 142.971 128.357C143.34 128.115 143.771 127.995 144.263 127.995C144.647 127.995 144.992 128.066 145.3 128.208C145.608 128.35 145.86 128.549 146.057 128.804C146.253 129.06 146.375 129.358 146.422 129.699H145.584C145.52 129.451 145.378 129.23 145.158 129.039C144.94 128.845 144.647 128.748 144.277 128.748C143.951 128.748 143.664 128.833 143.418 129.003C143.174 129.171 142.984 129.409 142.846 129.717C142.711 130.022 142.644 130.381 142.644 130.793C142.644 131.214 142.71 131.581 142.843 131.894C142.978 132.206 143.167 132.449 143.411 132.622C143.657 132.795 143.946 132.881 144.277 132.881C144.495 132.881 144.693 132.843 144.871 132.767C145.048 132.692 145.198 132.583 145.322 132.441C145.445 132.299 145.532 132.128 145.584 131.929H146.422C146.375 132.251 146.258 132.541 146.071 132.799C145.886 133.055 145.641 133.259 145.336 133.41C145.033 133.559 144.68 133.634 144.277 133.634ZM150.013 133.634C149.521 133.634 149.089 133.517 148.717 133.282C148.348 133.048 148.059 132.72 147.851 132.299C147.645 131.877 147.542 131.385 147.542 130.821C147.542 130.253 147.645 129.757 147.851 129.333C148.059 128.91 148.348 128.581 148.717 128.346C149.089 128.112 149.521 127.995 150.013 127.995C150.506 127.995 150.937 128.112 151.306 128.346C151.678 128.581 151.967 128.91 152.173 129.333C152.381 129.757 152.485 130.253 152.485 130.821C152.485 131.385 152.381 131.877 152.173 132.299C151.967 132.72 151.678 133.048 151.306 133.282C150.937 133.517 150.506 133.634 150.013 133.634ZM150.013 132.881C150.387 132.881 150.695 132.785 150.937 132.593C151.178 132.402 151.357 132.15 151.473 131.837C151.589 131.525 151.647 131.186 151.647 130.821C151.647 130.457 151.589 130.117 151.473 129.802C151.357 129.487 151.178 129.233 150.937 129.039C150.695 128.845 150.387 128.748 150.013 128.748C149.639 128.748 149.332 128.845 149.09 129.039C148.849 129.233 148.67 129.487 148.554 129.802C148.438 130.117 148.38 130.457 148.38 130.821C148.38 131.186 148.438 131.525 148.554 131.837C148.67 132.15 148.849 132.402 149.09 132.593C149.332 132.785 149.639 132.881 150.013 132.881ZM154.752 130.239V133.52H153.914V128.066H154.724V128.918H154.795C154.923 128.641 155.117 128.418 155.377 128.25C155.638 128.08 155.974 127.995 156.386 127.995C156.755 127.995 157.078 128.07 157.355 128.222C157.632 128.371 157.848 128.598 158.002 128.904C158.156 129.207 158.232 129.59 158.232 130.054V133.52H157.394V130.111C157.394 129.683 157.283 129.349 157.061 129.11C156.838 128.868 156.533 128.748 156.144 128.748C155.877 128.748 155.638 128.806 155.427 128.922C155.219 129.038 155.054 129.207 154.933 129.429C154.813 129.652 154.752 129.922 154.752 130.239Z" fill="#1F2024"/>
<mask id="mask5_248_4309" style="mask-type:alpha" maskUnits="userSpaceOnUse" x="92" y="25" width="16" height="14">
<path d="M106.531 25.3334H93.494C93.2779 25.3334 93.0707 25.416 92.9179 25.5631C92.765 25.7102 92.6792 25.9097 92.6792 26.1177V28.4706C92.6792 28.6786 92.765 28.8781 92.9179 29.0252C93.0707 29.1723 93.2779 29.2549 93.494 29.2549C93.7101 29.2549 93.9174 29.1723 94.0702 29.0252C94.223 28.8781 94.3088 28.6786 94.3088 28.4706V26.902H99.1977V37.0981H97.5681C97.352 37.0981 97.1447 37.1807 96.9919 37.3278C96.8391 37.4749 96.7533 37.6744 96.7533 37.8824C96.7533 38.0904 96.8391 38.2899 96.9919 38.437C97.1447 38.5841 97.352 38.6667 97.5681 38.6667H102.457C102.673 38.6667 102.88 38.5841 103.033 38.437C103.186 38.2899 103.272 38.0904 103.272 37.8824C103.272 37.6744 103.186 37.4749 103.033 37.3278C102.88 37.1807 102.673 37.0981 102.457 37.0981H100.827V26.902H105.716V28.4706C105.716 28.6786 105.802 28.8781 105.955 29.0252C106.108 29.1723 106.315 29.2549 106.531 29.2549C106.747 29.2549 106.954 29.1723 107.107 29.0252C107.26 28.8781 107.346 28.6786 107.346 28.4706V26.1177C107.346 25.9097 107.26 25.7102 107.107 25.5631C106.954 25.416 106.747 25.3334 106.531 25.3334Z" fill="black"/>
</mask>
<g mask="url(#mask5_248_4309)">
<rect x="92.0127" y="24" width="16" height="16" fill="#8F9098"/>
</g>
<path d="M116.496 29.5085V28.7273H121.95V29.5085H119.663V36H118.783V29.5085H116.496ZM124.842 36.1136C124.316 36.1136 123.863 35.9976 123.482 35.7656C123.103 35.5312 122.81 35.2045 122.604 34.7855C122.401 34.3641 122.299 33.8741 122.299 33.3153C122.299 32.7566 122.401 32.2642 122.604 31.8381C122.81 31.4096 123.097 31.0758 123.464 30.8366C123.833 30.5952 124.264 30.4744 124.756 30.4744C125.041 30.4744 125.321 30.5218 125.598 30.6165C125.875 30.7112 126.127 30.8651 126.354 31.0781C126.582 31.2888 126.763 31.5682 126.898 31.9162C127.033 32.2642 127.1 32.6927 127.1 33.2017V33.5568H122.896V32.8324H126.248C126.248 32.5246 126.186 32.25 126.063 32.0085C125.943 31.767 125.77 31.5765 125.545 31.4368C125.322 31.2971 125.059 31.2273 124.756 31.2273C124.423 31.2273 124.134 31.3101 123.89 31.4759C123.648 31.6392 123.463 31.8523 123.332 32.1151C123.202 32.3778 123.137 32.6596 123.137 32.9602V33.4432C123.137 33.8551 123.208 34.2043 123.35 34.4908C123.495 34.7749 123.695 34.9915 123.95 35.1406C124.206 35.2874 124.503 35.3608 124.842 35.3608C125.062 35.3608 125.261 35.33 125.438 35.2685C125.618 35.2045 125.773 35.1098 125.903 34.9844C126.034 34.8565 126.134 34.6979 126.205 34.5085L127.015 34.7358C126.93 35.0104 126.787 35.2519 126.585 35.4602C126.384 35.6662 126.135 35.8272 125.84 35.9432C125.544 36.0568 125.211 36.1136 124.842 36.1136ZM129.004 30.5455L130.31 32.7756L131.617 30.5455H132.583L130.822 33.2727L132.583 36H131.617L130.31 33.8835L129.004 36H128.038L129.771 33.2727L128.038 30.5455H129.004ZM136.301 30.5455V31.2557H133.474V30.5455H136.301ZM134.298 29.2386H135.136V34.4375C135.136 34.6742 135.171 34.8518 135.239 34.9702C135.31 35.0862 135.4 35.1643 135.509 35.2045C135.62 35.2424 135.738 35.2614 135.861 35.2614C135.953 35.2614 136.029 35.2566 136.088 35.2472C136.147 35.2353 136.195 35.2259 136.23 35.2188L136.401 35.9716C136.344 35.9929 136.264 36.0142 136.163 36.0355C136.061 36.0592 135.932 36.071 135.776 36.071C135.539 36.071 135.307 36.0201 135.08 35.9183C134.855 35.8165 134.668 35.6615 134.518 35.4531C134.372 35.2448 134.298 34.982 134.298 34.6648V29.2386Z" fill="#1F2024"/>
<mask id="mask6_248_4309" style="mask-type:alpha" maskUnits="userSpaceOnUse" x="164" y="79" width="16" height="17">
<path fill-rule="evenodd" clip-rule="evenodd" d="M178.434 87.4545L172.098 81.119L165.763 87.4545L172.098 93.7899L178.434 87.4545ZM172.999 80.2178C172.502 79.7201 171.695 79.7201 171.197 80.2178L164.862 86.5533C164.364 87.051 164.364 87.8579 164.862 88.3557L171.197 94.6911C171.695 95.1889 172.502 95.1889 172.999 94.6911L179.335 88.3557C179.833 87.8579 179.833 87.051 179.335 86.5533L172.999 80.2178Z" fill="#006FFD"/>
</mask>
<g mask="url(#mask6_248_4309)">
<rect x="164.098" y="79.4545" width="16" height="16" fill="#8F9098"/>
</g>
<path d="M188.979 91.4545V84.1817H191.436C192.004 84.1817 192.471 84.2788 192.835 84.4729C193.2 84.6647 193.47 84.9287 193.645 85.2648C193.82 85.601 193.908 85.9834 193.908 86.4119C193.908 86.8404 193.82 87.2203 193.645 87.5518C193.47 87.8832 193.201 88.1436 192.839 88.333C192.477 88.52 192.014 88.6136 191.45 88.6136H189.462V87.8181H191.422C191.81 87.8181 192.123 87.7613 192.36 87.6476C192.599 87.534 192.771 87.373 192.878 87.1647C192.987 86.954 193.041 86.703 193.041 86.4119C193.041 86.1207 192.987 85.8662 192.878 85.6484C192.769 85.4306 192.595 85.2625 192.356 85.1441C192.117 85.0234 191.801 84.963 191.408 84.963H189.86V91.4545H188.979ZM192.402 88.1874L194.192 91.4545H193.169L191.408 88.1874H192.402ZM195.412 91.4545V85.9999H196.25V91.4545H195.412ZM195.838 85.0908C195.674 85.0908 195.534 85.0352 195.415 84.9239C195.299 84.8127 195.241 84.6789 195.241 84.5226C195.241 84.3664 195.299 84.2326 195.415 84.1214C195.534 84.0101 195.674 83.9545 195.838 83.9545C196.001 83.9545 196.141 84.0101 196.257 84.1214C196.375 84.2326 196.434 84.3664 196.434 84.5226C196.434 84.6789 196.375 84.8127 196.257 84.9239C196.141 85.0352 196.001 85.0908 195.838 85.0908ZM200.136 93.6136C199.732 93.6136 199.384 93.5615 199.092 93.4573C198.801 93.3555 198.559 93.2206 198.364 93.0525C198.173 92.8868 198.02 92.7092 197.906 92.5198L198.574 92.0511C198.65 92.1505 198.746 92.2641 198.862 92.392C198.978 92.5222 199.136 92.6346 199.337 92.7293C199.541 92.8264 199.807 92.8749 200.136 92.8749C200.577 92.8749 200.94 92.7684 201.227 92.5553C201.513 92.3423 201.656 92.0084 201.656 91.5539V90.4459H201.585C201.524 90.5454 201.436 90.6685 201.323 90.8153C201.211 90.9597 201.05 91.0887 200.84 91.2023C200.631 91.3136 200.349 91.3692 199.994 91.3692C199.554 91.3692 199.159 91.2651 198.808 91.0567C198.46 90.8484 198.184 90.5454 197.981 90.1476C197.78 89.7499 197.679 89.267 197.679 88.6988C197.679 88.1401 197.777 87.6536 197.974 87.2393C198.17 86.8226 198.444 86.5006 198.794 86.2734C199.144 86.0437 199.549 85.9289 200.009 85.9289C200.364 85.9289 200.645 85.9881 200.854 86.1065C201.064 86.2225 201.225 86.355 201.337 86.5042C201.45 86.651 201.538 86.7717 201.599 86.8664H201.685V85.9999H202.494V91.6107C202.494 92.0795 202.388 92.4606 202.175 92.7542C201.964 93.0501 201.68 93.2667 201.323 93.404C200.967 93.5437 200.572 93.6136 200.136 93.6136ZM200.108 90.6164C200.444 90.6164 200.728 90.5395 200.96 90.3856C201.192 90.2317 201.369 90.0103 201.489 89.7215C201.61 89.4327 201.671 89.087 201.671 88.6846C201.671 88.2916 201.611 87.9448 201.493 87.6441C201.375 87.3434 201.199 87.1079 200.967 86.9374C200.735 86.767 200.449 86.6817 200.108 86.6817C199.753 86.6817 199.457 86.7717 199.22 86.9516C198.986 87.1316 198.809 87.373 198.691 87.6761C198.575 87.9791 198.517 88.3153 198.517 88.6846C198.517 89.0634 198.576 89.3984 198.695 89.6896C198.815 89.9784 198.993 90.2057 199.227 90.3714C199.464 90.5347 199.758 90.6164 200.108 90.6164ZM205.017 88.1732V91.4545H204.178V84.1817H205.017V86.8522H205.088C205.215 86.5705 205.407 86.3467 205.663 86.181C205.921 86.0129 206.264 85.9289 206.693 85.9289C207.064 85.9289 207.39 86.0035 207.669 86.1526C207.949 86.2994 208.165 86.5255 208.319 86.8309C208.475 87.1339 208.553 87.5198 208.553 87.9886V91.4545H207.715V88.0454C207.715 87.6121 207.603 87.2771 207.378 87.0404C207.156 86.8013 206.847 86.6817 206.451 86.6817C206.177 86.6817 205.93 86.7397 205.713 86.8557C205.497 86.9717 205.327 87.141 205.201 87.3636C205.078 87.5861 205.017 87.856 205.017 88.1732ZM212.609 85.9999V86.7101H209.782V85.9999H212.609ZM210.606 84.6931H211.444V89.892C211.444 90.1287 211.478 90.3063 211.547 90.4246C211.618 90.5406 211.708 90.6188 211.817 90.659C211.928 90.6969 212.045 90.7158 212.168 90.7158C212.261 90.7158 212.337 90.7111 212.396 90.7016C212.455 90.6898 212.502 90.6803 212.538 90.6732L212.708 91.4261C212.651 91.4474 212.572 91.4687 212.47 91.49C212.369 91.5137 212.24 91.5255 212.083 91.5255C211.847 91.5255 211.615 91.4746 211.387 91.3728C211.162 91.271 210.975 91.1159 210.826 90.9076C210.679 90.6993 210.606 90.4365 210.606 90.1192V84.6931ZM217.976 84.1817V91.4545H217.096V84.1817H217.976ZM221.994 91.5681C221.483 91.5681 221.043 91.4474 220.673 91.2059C220.304 90.9644 220.02 90.6318 219.821 90.208C219.622 89.7842 219.523 89.3001 219.523 88.7556C219.523 88.2016 219.625 87.7128 219.828 87.289C220.034 86.8628 220.321 86.5302 220.688 86.2911C221.057 86.0496 221.488 85.9289 221.98 85.9289C222.364 85.9289 222.709 85.9999 223.017 86.142C223.325 86.284 223.577 86.4829 223.773 86.7386C223.97 86.9942 224.092 87.2925 224.139 87.6334H223.301C223.237 87.3849 223.095 87.1647 222.875 86.9729C222.657 86.7788 222.364 86.6817 221.994 86.6817C221.668 86.6817 221.381 86.767 221.135 86.9374C220.891 87.1055 220.701 87.3434 220.563 87.6512C220.428 87.9566 220.361 88.3153 220.361 88.7272C220.361 89.1486 220.427 89.5155 220.56 89.828C220.695 90.1405 220.884 90.3832 221.128 90.556C221.374 90.7289 221.663 90.8153 221.994 90.8153C222.212 90.8153 222.41 90.7774 222.587 90.7016C222.765 90.6259 222.915 90.517 223.038 90.3749C223.162 90.2329 223.249 90.0624 223.301 89.8636H224.139C224.092 90.1855 223.975 90.4755 223.788 90.7336C223.603 90.9893 223.358 91.1929 223.053 91.3444C222.75 91.4935 222.397 91.5681 221.994 91.5681ZM227.73 91.5681C227.238 91.5681 226.806 91.4509 226.434 91.2165C226.065 90.9822 225.776 90.6543 225.568 90.2329C225.362 89.8115 225.259 89.3191 225.259 88.7556C225.259 88.1874 225.362 87.6914 225.568 87.2677C225.776 86.8439 226.065 86.5148 226.434 86.2805C226.806 86.0461 227.238 85.9289 227.73 85.9289C228.223 85.9289 228.654 86.0461 229.023 86.2805C229.395 86.5148 229.683 86.8439 229.889 87.2677C230.098 87.6914 230.202 88.1874 230.202 88.7556C230.202 89.3191 230.098 89.8115 229.889 90.2329C229.683 90.6543 229.395 90.9822 229.023 91.2165C228.654 91.4509 228.223 91.5681 227.73 91.5681ZM227.73 90.8153C228.104 90.8153 228.412 90.7194 228.654 90.5276C228.895 90.3359 229.074 90.0837 229.19 89.7712C229.306 89.4587 229.364 89.1202 229.364 88.7556C229.364 88.391 229.306 88.0513 229.19 87.7364C229.074 87.4216 228.895 87.1671 228.654 86.9729C228.412 86.7788 228.104 86.6817 227.73 86.6817C227.356 86.6817 227.049 86.7788 226.807 86.9729C226.566 87.1671 226.387 87.4216 226.271 87.7364C226.155 88.0513 226.097 88.391 226.097 88.7556C226.097 89.1202 226.155 89.4587 226.271 89.7712C226.387 90.0837 226.566 90.3359 226.807 90.5276C227.049 90.7194 227.356 90.8153 227.73 90.8153ZM232.469 88.1732V91.4545H231.631V85.9999H232.441V86.8522H232.512C232.64 86.5752 232.834 86.3527 233.094 86.1846C233.355 86.0141 233.691 85.9289 234.103 85.9289C234.472 85.9289 234.795 86.0047 235.072 86.1562C235.349 86.3053 235.565 86.5326 235.719 86.838C235.872 87.141 235.949 87.5245 235.949 87.9886V91.4545H235.111V88.0454C235.111 87.6169 235 87.2831 234.778 87.044C234.555 86.8025 234.25 86.6817 233.861 86.6817C233.594 86.6817 233.355 86.7397 233.144 86.8557C232.936 86.9717 232.771 87.141 232.65 87.3636C232.53 87.5861 232.469 87.856 232.469 88.1732Z" fill="#1F2024"/>
<mask id="mask7_248_4309" style="mask-type:alpha" maskUnits="userSpaceOnUse" x="62" y="145" width="17" height="17">
<path fill-rule="evenodd" clip-rule="evenodd" d="M76.8356 153.52L70.5001 147.185L64.1646 153.52L70.5001 159.856L76.8356 153.52ZM71.4013 146.284C70.9036 145.786 70.0966 145.786 69.5989 146.284L63.2634 152.619C62.7657 153.117 62.7657 153.924 63.2634 154.421L69.5989 160.757C70.0966 161.255 70.9036 161.255 71.4013 160.757L77.7368 154.421C78.2345 153.924 78.2345 153.117 77.7368 152.619L71.4013 146.284Z" fill="#006FFD"/>
</mask>
<g mask="url(#mask7_248_4309)">
<rect x="62.5" y="145.52" width="16" height="16" fill="#8F9098"/>
</g>
<path d="M87.3807 157.52V150.248H88.2614V156.739H91.642V157.52H87.3807ZM95.329 157.634C94.8034 157.634 94.35 157.518 93.9689 157.286C93.5901 157.052 93.2977 156.725 93.0918 156.306C92.8882 155.884 92.7864 155.394 92.7864 154.836C92.7864 154.277 92.8882 153.784 93.0918 153.358C93.2977 152.93 93.5842 152.596 93.9511 152.357C94.3205 152.115 94.7513 151.995 95.2438 151.995C95.5278 151.995 95.8084 152.042 96.0854 152.137C96.3624 152.231 96.6145 152.385 96.8418 152.598C97.069 152.809 97.2501 153.088 97.3851 153.436C97.52 153.784 97.5875 154.213 97.5875 154.722V155.077H93.383V154.353H96.7352C96.7352 154.045 96.6737 153.77 96.5506 153.529C96.4298 153.287 96.257 153.097 96.0321 152.957C95.8096 152.817 95.5468 152.748 95.2438 152.748C94.9099 152.748 94.6211 152.83 94.3773 152.996C94.1358 153.159 93.95 153.373 93.8197 153.635C93.6895 153.898 93.6244 154.18 93.6244 154.48V154.963C93.6244 155.375 93.6955 155.725 93.8375 156.011C93.9819 156.295 94.182 156.512 94.4376 156.661C94.6933 156.808 94.9904 156.881 95.329 156.881C95.5491 156.881 95.748 156.85 95.9256 156.789C96.1055 156.725 96.2606 156.63 96.3908 156.505C96.521 156.377 96.6216 156.218 96.6926 156.029L97.5023 156.256C97.417 156.531 97.2738 156.772 97.0726 156.98C96.8714 157.186 96.6228 157.347 96.3268 157.463C96.0309 157.577 95.6983 157.634 95.329 157.634ZM101.441 152.066V152.776H98.501V152.066H101.441ZM99.3817 157.52V151.313C99.3817 151 99.4551 150.74 99.6018 150.532C99.7486 150.323 99.9392 150.167 100.174 150.063C100.408 149.959 100.655 149.907 100.916 149.907C101.122 149.907 101.29 149.923 101.42 149.956C101.55 149.989 101.647 150.02 101.711 150.049L101.47 150.773C101.427 150.759 101.368 150.741 101.292 150.72C101.219 150.699 101.122 150.688 101.001 150.688C100.724 150.688 100.524 150.758 100.401 150.897C100.28 151.037 100.22 151.242 100.22 151.512V157.52H99.3817ZM105.138 152.066V152.776H102.311V152.066H105.138ZM103.135 150.759H103.973V155.958C103.973 156.195 104.008 156.372 104.076 156.49C104.147 156.606 104.237 156.685 104.346 156.725C104.457 156.763 104.575 156.782 104.698 156.782C104.79 156.782 104.866 156.777 104.925 156.767C104.984 156.756 105.031 156.746 105.067 156.739L105.237 157.492C105.181 157.513 105.101 157.534 105 157.556C104.898 157.579 104.769 157.591 104.612 157.591C104.376 157.591 104.144 157.54 103.916 157.439C103.692 157.337 103.505 157.182 103.355 156.973C103.209 156.765 103.135 156.502 103.135 156.185V150.759ZM110.506 150.248V157.52H109.625V150.248H110.506ZM114.524 157.634C114.012 157.634 113.572 157.513 113.203 157.272C112.833 157.03 112.549 156.698 112.35 156.274C112.151 155.85 112.052 155.366 112.052 154.821C112.052 154.267 112.154 153.779 112.357 153.355C112.563 152.929 112.85 152.596 113.217 152.357C113.586 152.115 114.017 151.995 114.509 151.995C114.893 151.995 115.239 152.066 115.546 152.208C115.854 152.35 116.106 152.549 116.303 152.804C116.499 153.06 116.621 153.358 116.668 153.699H115.83C115.766 153.451 115.624 153.23 115.404 153.039C115.186 152.845 114.893 152.748 114.524 152.748C114.197 152.748 113.91 152.833 113.664 153.003C113.42 153.171 113.23 153.409 113.092 153.717C112.958 154.022 112.89 154.381 112.89 154.793C112.89 155.214 112.956 155.581 113.089 155.894C113.224 156.206 113.413 156.449 113.657 156.622C113.903 156.795 114.192 156.881 114.524 156.881C114.741 156.881 114.939 156.843 115.117 156.767C115.294 156.692 115.445 156.583 115.568 156.441C115.691 156.299 115.778 156.128 115.83 155.929H116.668C116.621 156.251 116.504 156.541 116.317 156.799C116.132 157.055 115.887 157.259 115.582 157.41C115.279 157.559 114.926 157.634 114.524 157.634ZM120.26 157.634C119.767 157.634 119.335 157.517 118.963 157.282C118.594 157.048 118.305 156.72 118.097 156.299C117.891 155.877 117.788 155.385 117.788 154.821C117.788 154.253 117.891 153.757 118.097 153.333C118.305 152.91 118.594 152.581 118.963 152.346C119.335 152.112 119.767 151.995 120.26 151.995C120.752 151.995 121.183 152.112 121.552 152.346C121.924 152.581 122.213 152.91 122.419 153.333C122.627 153.757 122.731 154.253 122.731 154.821C122.731 155.385 122.627 155.877 122.419 156.299C122.213 156.72 121.924 157.048 121.552 157.282C121.183 157.517 120.752 157.634 120.26 157.634ZM120.26 156.881C120.634 156.881 120.941 156.785 121.183 156.593C121.424 156.402 121.603 156.15 121.719 155.837C121.835 155.525 121.893 155.186 121.893 154.821C121.893 154.457 121.835 154.117 121.719 153.802C121.603 153.487 121.424 153.233 121.183 153.039C120.941 152.845 120.634 152.748 120.26 152.748C119.885 152.748 119.578 152.845 119.336 153.039C119.095 153.233 118.916 153.487 118.8 153.802C118.684 154.117 118.626 154.457 118.626 154.821C118.626 155.186 118.684 155.525 118.8 155.837C118.916 156.15 119.095 156.402 119.336 156.593C119.578 156.785 119.885 156.881 120.26 156.881ZM124.998 154.239V157.52H124.16V152.066H124.97V152.918H125.041C125.169 152.641 125.363 152.418 125.623 152.25C125.884 152.08 126.22 151.995 126.632 151.995C127.001 151.995 127.324 152.07 127.601 152.222C127.878 152.371 128.094 152.598 128.248 152.904C128.402 153.207 128.479 153.59 128.479 154.054V157.52H127.641V154.111C127.641 153.683 127.529 153.349 127.307 153.11C127.084 152.868 126.779 152.748 126.391 152.748C126.123 152.748 125.884 152.806 125.673 152.922C125.465 153.038 125.3 153.207 125.18 153.429C125.059 153.652 124.998 153.922 124.998 154.239Z" fill="#1F2024"/>
<path d="M55.9873 61.3613V31.7475M85.1776 10.4115H63.9873C59.569 10.4115 55.9873 13.9932 55.9873 18.4115V31.7475M55.9873 31.7475H85.1776" stroke="#8F9098"/>
<path d="M157.206 86.4545H149.513C145.094 86.4545 141.513 82.8727 141.513 78.4545V75.7865M157.206 65.1185H149.513C145.094 65.1185 141.513 68.7002 141.513 73.1185V75.7865M141.513 75.7865H101.423" stroke="#8F9098"/>
<path d="M22.5 87.8164L22.5 131.184M51.6903 152.52H30.5C26.0817 152.52 22.5 148.939 22.5 144.52V131.184M22.5 131.184H51.6903" stroke="#8F9098"/>
</svg>
