<svg width="301" height="151" viewBox="0 0 301 151" fill="none" xmlns="http://www.w3.org/2000/svg">
<g clip-path="url(#clip0_252_6804)">
<mask id="mask0_252_6804" style="mask-type:alpha" maskUnits="userSpaceOnUse" x="194" y="134" width="17" height="17">
<path d="M202.157 134.982C202.492 134.648 203.034 134.648 203.369 134.982L205.746 137.359C206.081 137.694 206.081 138.237 205.746 138.571L203.369 140.948C203.034 141.283 202.492 141.283 202.157 140.948L199.78 138.571C199.446 138.237 199.446 137.694 199.78 137.359L202.157 134.982Z" fill="#1F2024"/>
<path d="M210.512 142.125C210.847 142.46 210.847 143.003 210.512 143.337L208.135 145.714C207.801 146.049 207.258 146.049 206.923 145.714L204.546 143.337C204.212 143.003 204.212 142.46 204.546 142.125L206.923 139.748C207.258 139.414 207.801 139.414 208.135 139.748L210.512 142.125Z" fill="#1F2024"/>
<path d="M202.157 144.515C202.492 144.18 203.034 144.18 203.369 144.515L205.746 146.892C206.081 147.226 206.081 147.769 205.746 148.103L203.369 150.48C203.034 150.815 202.492 150.815 202.157 150.48L199.78 148.103C199.446 147.769 199.446 147.226 199.78 146.892L202.157 144.515Z" fill="#1F2024"/>
<path d="M200.98 142.125C201.315 142.46 201.315 143.003 200.98 143.337L198.603 145.714C198.268 146.049 197.726 146.049 197.391 145.714L195.014 143.337C194.68 143.003 194.68 142.46 195.014 142.125L197.391 139.748C197.726 139.414 198.268 139.414 198.603 139.748L200.98 142.125Z" fill="#1F2024"/>
</mask>
<g mask="url(#mask0_252_6804)">
<rect x="194.763" y="134.731" width="16" height="16" fill="#8F9098"/>
</g>
</g>
<path d="M223.621 141.277C223.579 140.917 223.406 140.638 223.103 140.439C222.8 140.24 222.428 140.141 221.988 140.141C221.666 140.141 221.384 140.193 221.142 140.297C220.903 140.401 220.716 140.544 220.581 140.726C220.449 140.909 220.383 141.116 220.383 141.348C220.383 141.542 220.429 141.709 220.521 141.849C220.616 141.986 220.736 142.101 220.883 142.193C221.03 142.283 221.184 142.358 221.345 142.417C221.506 142.474 221.654 142.52 221.789 142.555L222.527 142.754C222.717 142.804 222.927 142.873 223.159 142.96C223.394 143.048 223.618 143.167 223.831 143.319C224.046 143.468 224.224 143.66 224.363 143.894C224.503 144.128 224.573 144.416 224.573 144.757C224.573 145.15 224.47 145.505 224.264 145.822C224.06 146.14 223.762 146.392 223.369 146.579C222.978 146.766 222.504 146.859 221.945 146.859C221.424 146.859 220.973 146.775 220.592 146.607C220.213 146.439 219.915 146.205 219.697 145.904C219.482 145.603 219.36 145.254 219.331 144.856H220.24C220.264 145.131 220.356 145.358 220.517 145.538C220.681 145.716 220.887 145.848 221.135 145.936C221.386 146.021 221.656 146.064 221.945 146.064C222.281 146.064 222.583 146.009 222.851 145.9C223.118 145.789 223.33 145.635 223.486 145.439C223.642 145.24 223.721 145.008 223.721 144.743C223.721 144.501 223.653 144.305 223.518 144.153C223.383 144.002 223.206 143.879 222.985 143.784C222.765 143.689 222.527 143.606 222.272 143.535L221.377 143.28C220.809 143.116 220.359 142.883 220.027 142.58C219.696 142.277 219.53 141.881 219.53 141.391C219.53 140.983 219.64 140.628 219.86 140.325C220.083 140.02 220.381 139.783 220.755 139.615C221.132 139.445 221.552 139.359 222.016 139.359C222.485 139.359 222.901 139.443 223.266 139.611C223.631 139.777 223.919 140.004 224.133 140.293C224.348 140.582 224.462 140.91 224.473 141.277H223.621ZM228.429 141.277V141.987H225.603V141.277H228.429ZM226.427 139.97H227.265V145.169C227.265 145.406 227.299 145.583 227.368 145.702C227.439 145.818 227.529 145.896 227.637 145.936C227.749 145.974 227.866 145.993 227.989 145.993C228.081 145.993 228.157 145.988 228.216 145.979C228.275 145.967 228.323 145.957 228.358 145.95L228.529 146.703C228.472 146.724 228.393 146.746 228.291 146.767C228.189 146.791 228.06 146.802 227.904 146.802C227.667 146.802 227.435 146.752 227.208 146.65C226.983 146.548 226.796 146.393 226.647 146.185C226.5 145.976 226.427 145.713 226.427 145.396V139.97ZM231.445 146.859C231.099 146.859 230.786 146.794 230.504 146.664C230.222 146.531 229.999 146.341 229.833 146.092C229.667 145.841 229.584 145.538 229.584 145.183C229.584 144.871 229.646 144.617 229.769 144.423C229.892 144.227 230.057 144.073 230.263 143.962C230.469 143.85 230.696 143.767 230.944 143.713C231.195 143.656 231.447 143.611 231.701 143.578C232.032 143.535 232.301 143.503 232.507 143.482C232.715 143.458 232.867 143.419 232.961 143.365C233.059 143.311 233.107 143.216 233.107 143.081V143.052C233.107 142.702 233.011 142.43 232.819 142.236C232.63 142.042 232.342 141.945 231.956 141.945C231.556 141.945 231.243 142.032 231.015 142.207C230.788 142.382 230.628 142.57 230.536 142.768L229.741 142.484C229.883 142.153 230.072 141.895 230.309 141.71C230.548 141.523 230.808 141.393 231.09 141.32C231.374 141.244 231.653 141.206 231.928 141.206C232.103 141.206 232.304 141.227 232.532 141.27C232.761 141.31 232.983 141.394 233.196 141.522C233.411 141.65 233.59 141.843 233.732 142.101C233.874 142.359 233.945 142.704 233.945 143.138V146.731H233.107V145.993H233.064C233.008 146.111 232.913 146.238 232.78 146.373C232.648 146.508 232.471 146.623 232.251 146.717C232.031 146.812 231.762 146.859 231.445 146.859ZM231.573 146.106C231.904 146.106 232.184 146.041 232.411 145.911C232.641 145.781 232.813 145.613 232.929 145.407C233.048 145.201 233.107 144.984 233.107 144.757V143.99C233.072 144.033 232.993 144.072 232.873 144.107C232.754 144.14 232.617 144.17 232.461 144.196C232.307 144.22 232.157 144.241 232.01 144.26C231.865 144.276 231.748 144.291 231.658 144.302C231.44 144.331 231.237 144.377 231.047 144.441C230.86 144.503 230.709 144.596 230.593 144.722C230.479 144.845 230.422 145.013 230.422 145.226C230.422 145.517 230.53 145.737 230.746 145.886C230.963 146.033 231.239 146.106 231.573 146.106ZM237.997 141.277V141.987H235.17V141.277H237.997ZM235.994 139.97H236.832V145.169C236.832 145.406 236.866 145.583 236.935 145.702C237.006 145.818 237.096 145.896 237.205 145.936C237.316 145.974 237.433 145.993 237.557 145.993C237.649 145.993 237.725 145.988 237.784 145.979C237.843 145.967 237.89 145.957 237.926 145.95L238.096 146.703C238.04 146.724 237.96 146.746 237.858 146.767C237.757 146.791 237.628 146.802 237.471 146.802C237.235 146.802 237.003 146.752 236.775 146.65C236.55 146.548 236.363 146.393 236.214 146.185C236.067 145.976 235.994 145.713 235.994 145.396V139.97ZM241.636 146.845C241.11 146.845 240.657 146.729 240.276 146.497C239.897 146.263 239.605 145.936 239.399 145.517C239.195 145.096 239.093 144.605 239.093 144.047C239.093 143.488 239.195 142.996 239.399 142.57C239.605 142.141 239.891 141.807 240.258 141.568C240.627 141.327 241.058 141.206 241.551 141.206C241.835 141.206 242.115 141.253 242.392 141.348C242.669 141.443 242.921 141.597 243.149 141.81C243.376 142.02 243.557 142.3 243.692 142.648C243.827 142.996 243.894 143.424 243.894 143.933V144.288H239.69V143.564H243.042C243.042 143.256 242.981 142.981 242.858 142.74C242.737 142.498 242.564 142.308 242.339 142.168C242.116 142.029 241.854 141.959 241.551 141.959C241.217 141.959 240.928 142.042 240.684 142.207C240.443 142.371 240.257 142.584 240.127 142.847C239.996 143.109 239.931 143.391 239.931 143.692V144.175C239.931 144.587 240.002 144.936 240.144 145.222C240.289 145.506 240.489 145.723 240.745 145.872C241 146.019 241.297 146.092 241.636 146.092C241.856 146.092 242.055 146.061 242.233 146C242.412 145.936 242.567 145.841 242.698 145.716C242.828 145.588 242.929 145.429 243 145.24L243.809 145.467C243.724 145.742 243.581 145.983 243.38 146.192C243.178 146.398 242.93 146.559 242.634 146.675C242.338 146.788 242.005 146.845 241.636 146.845Z" fill="#1F2024"/>
<mask id="mask1_252_6804" style="mask-type:alpha" maskUnits="userSpaceOnUse" x="60" y="136" width="16" height="14">
<path d="M74.3577 136.065H61.3207C61.1046 136.065 60.8973 136.147 60.7445 136.294C60.5917 136.442 60.5059 136.641 60.5059 136.849V139.202C60.5059 139.41 60.5917 139.61 60.7445 139.757C60.8973 139.904 61.1046 139.986 61.3207 139.986C61.5368 139.986 61.744 139.904 61.8968 139.757C62.0496 139.61 62.1355 139.41 62.1355 139.202V137.633H67.0244V147.829H65.3947C65.1786 147.829 64.9714 147.912 64.8186 148.059C64.6658 148.206 64.5799 148.406 64.5799 148.614C64.5799 148.822 64.6658 149.021 64.8186 149.168C64.9714 149.315 65.1786 149.398 65.3947 149.398H70.2836C70.4997 149.398 70.707 149.315 70.8598 149.168C71.0126 149.021 71.0985 148.822 71.0985 148.614C71.0985 148.406 71.0126 148.206 70.8598 148.059C70.707 147.912 70.4997 147.829 70.2836 147.829H68.654V137.633H73.5429V139.202C73.5429 139.41 73.6287 139.61 73.7815 139.757C73.9344 139.904 74.1416 139.986 74.3577 139.986C74.5738 139.986 74.7811 139.904 74.9339 139.757C75.0867 139.61 75.1725 139.41 75.1725 139.202V136.849C75.1725 136.641 75.0867 136.442 74.9339 136.294C74.7811 136.147 74.5738 136.065 74.3577 136.065Z" fill="black"/>
</mask>
<g mask="url(#mask1_252_6804)">
<rect x="59.8394" y="134.731" width="16" height="16" fill="#8F9098"/>
</g>
<path d="M90.5723 141.731H89.6916C89.6395 141.478 89.5484 141.256 89.4182 141.064C89.2903 140.872 89.1341 140.711 88.9494 140.581C88.7671 140.448 88.5647 140.349 88.3422 140.283C88.1197 140.216 87.8877 140.183 87.6462 140.183C87.2058 140.183 86.8069 140.294 86.4494 140.517C86.0943 140.739 85.8114 141.067 85.6007 141.501C85.3924 141.934 85.2882 142.465 85.2882 143.095C85.2882 143.725 85.3924 144.256 85.6007 144.69C85.8114 145.123 86.0943 145.451 86.4494 145.673C86.8069 145.896 87.2058 146.007 87.6462 146.007C87.8877 146.007 88.1197 145.974 88.3422 145.908C88.5647 145.841 88.7671 145.743 88.9494 145.613C89.1341 145.48 89.2903 145.318 89.4182 145.126C89.5484 144.932 89.6395 144.71 89.6916 144.459H90.5723C90.506 144.83 90.3853 145.163 90.2101 145.457C90.0349 145.75 89.8171 146 89.5567 146.206C89.2963 146.409 89.0039 146.565 88.6796 146.671C88.3576 146.778 88.0131 146.831 87.6462 146.831C87.0259 146.831 86.4743 146.679 85.9913 146.376C85.5084 146.073 85.1284 145.642 84.8514 145.084C84.5744 144.525 84.4359 143.862 84.4359 143.095C84.4359 142.328 84.5744 141.665 84.8514 141.106C85.1284 140.548 85.5084 140.117 85.9913 139.814C86.4743 139.511 87.0259 139.359 87.6462 139.359C88.0131 139.359 88.3576 139.413 88.6796 139.519C89.0039 139.626 89.2963 139.782 89.5567 139.988C89.8171 140.191 90.0349 140.44 90.2101 140.734C90.3853 141.025 90.506 141.357 90.5723 141.731ZM94.2477 146.845C93.7553 146.845 93.3232 146.728 92.9515 146.494C92.5822 146.259 92.2934 145.931 92.0851 145.51C91.8791 145.088 91.7761 144.596 91.7761 144.033C91.7761 143.464 91.8791 142.968 92.0851 142.545C92.2934 142.121 92.5822 141.792 92.9515 141.557C93.3232 141.323 93.7553 141.206 94.2477 141.206C94.7401 141.206 95.171 141.323 95.5403 141.557C95.912 141.792 96.2008 142.121 96.4068 142.545C96.6151 142.968 96.7193 143.464 96.7193 144.033C96.7193 144.596 96.6151 145.088 96.4068 145.51C96.2008 145.931 95.912 146.259 95.5403 146.494C95.171 146.728 94.7401 146.845 94.2477 146.845ZM94.2477 146.092C94.6218 146.092 94.9295 145.996 95.171 145.805C95.4125 145.613 95.5912 145.361 95.7072 145.048C95.8232 144.736 95.8812 144.397 95.8812 144.033C95.8812 143.668 95.8232 143.328 95.7072 143.013C95.5912 142.699 95.4125 142.444 95.171 142.25C94.9295 142.056 94.6218 141.959 94.2477 141.959C93.8736 141.959 93.5659 142.056 93.3244 142.25C93.0829 142.444 92.9042 142.699 92.7882 143.013C92.6722 143.328 92.6142 143.668 92.6142 144.033C92.6142 144.397 92.6722 144.736 92.7882 145.048C92.9042 145.361 93.0829 145.613 93.3244 145.805C93.5659 145.996 93.8736 146.092 94.2477 146.092ZM98.9867 143.45V146.731H98.1486V141.277H98.9582V142.129H99.0293C99.1571 141.852 99.3512 141.63 99.6117 141.462C99.8721 141.291 100.208 141.206 100.62 141.206C100.989 141.206 101.313 141.282 101.59 141.433C101.867 141.582 102.082 141.81 102.236 142.115C102.39 142.418 102.467 142.802 102.467 143.266V146.731H101.629V143.322C101.629 142.894 101.517 142.56 101.295 142.321C101.072 142.079 100.767 141.959 100.379 141.959C100.111 141.959 99.8721 142.017 99.6614 142.133C99.453 142.249 99.2885 142.418 99.1678 142.641C99.047 142.863 98.9867 143.133 98.9867 143.45ZM106.52 141.277V141.987H103.694V141.277H106.52ZM104.518 139.97H105.356V145.169C105.356 145.406 105.39 145.583 105.459 145.702C105.53 145.818 105.62 145.896 105.728 145.936C105.84 145.974 105.957 145.993 106.08 145.993C106.172 145.993 106.248 145.988 106.307 145.979C106.366 145.967 106.414 145.957 106.449 145.95L106.62 146.703C106.563 146.724 106.484 146.746 106.382 146.767C106.28 146.791 106.151 146.802 105.995 146.802C105.758 146.802 105.526 146.752 105.299 146.65C105.074 146.548 104.887 146.393 104.738 146.185C104.591 145.976 104.518 145.713 104.518 145.396V139.97ZM110.159 146.845C109.634 146.845 109.18 146.729 108.799 146.497C108.42 146.263 108.128 145.936 107.922 145.517C107.719 145.096 107.617 144.605 107.617 144.047C107.617 143.488 107.719 142.996 107.922 142.57C108.128 142.141 108.415 141.807 108.782 141.568C109.151 141.327 109.582 141.206 110.074 141.206C110.358 141.206 110.639 141.253 110.916 141.348C111.193 141.443 111.445 141.597 111.672 141.81C111.899 142.02 112.081 142.3 112.215 142.648C112.35 142.996 112.418 143.424 112.418 143.933V144.288H108.213V143.564H111.566C111.566 143.256 111.504 142.981 111.381 142.74C111.26 142.498 111.087 142.308 110.862 142.168C110.64 142.029 110.377 141.959 110.074 141.959C109.74 141.959 109.451 142.042 109.208 142.207C108.966 142.371 108.78 142.584 108.65 142.847C108.52 143.109 108.455 143.391 108.455 143.692V144.175C108.455 144.587 108.526 144.936 108.668 145.222C108.812 145.506 109.012 145.723 109.268 145.872C109.524 146.019 109.821 146.092 110.159 146.092C110.38 146.092 110.578 146.061 110.756 146C110.936 145.936 111.091 145.841 111.221 145.716C111.351 145.588 111.452 145.429 111.523 145.24L112.333 145.467C112.247 145.742 112.104 145.983 111.903 146.192C111.702 146.398 111.453 146.559 111.157 146.675C110.861 146.788 110.529 146.845 110.159 146.845ZM114.681 143.45V146.731H113.843V141.277H114.652V142.129H114.723C114.851 141.852 115.045 141.63 115.306 141.462C115.566 141.291 115.902 141.206 116.314 141.206C116.684 141.206 117.007 141.282 117.284 141.433C117.561 141.582 117.776 141.81 117.93 142.115C118.084 142.418 118.161 142.802 118.161 143.266V146.731H117.323V143.322C117.323 142.894 117.212 142.56 116.989 142.321C116.766 142.079 116.461 141.959 116.073 141.959C115.805 141.959 115.566 142.017 115.356 142.133C115.147 142.249 114.983 142.418 114.862 142.641C114.741 142.863 114.681 143.133 114.681 143.45ZM122.214 141.277V141.987H119.388V141.277H122.214ZM120.212 139.97H121.05V145.169C121.05 145.406 121.084 145.583 121.153 145.702C121.224 145.818 121.314 145.896 121.423 145.936C121.534 145.974 121.651 145.993 121.774 145.993C121.866 145.993 121.942 145.988 122.001 145.979C122.061 145.967 122.108 145.957 122.143 145.95L122.314 146.703C122.257 146.724 122.178 146.746 122.076 146.767C121.974 146.791 121.845 146.802 121.689 146.802C121.452 146.802 121.22 146.752 120.993 146.65C120.768 146.548 120.581 146.393 120.432 146.185C120.285 145.976 120.212 145.713 120.212 145.396V139.97Z" fill="#1F2024"/>
<mask id="mask2_252_6804" style="mask-type:alpha" maskUnits="userSpaceOnUse" x="63" y="1" width="15" height="14">
<path d="M77.0994 1.33331H64.0624C63.8463 1.33331 63.639 1.41595 63.4862 1.56303C63.3334 1.71012 63.2476 1.90961 63.2476 2.11763V4.47057C63.2476 4.67858 63.3334 4.87807 63.4862 5.02516C63.639 5.17225 63.8463 5.25488 64.0624 5.25488C64.2785 5.25488 64.4857 5.17225 64.6385 5.02516C64.7913 4.87807 64.8772 4.67858 64.8772 4.47057V2.90194H69.7661V13.098H68.1364C67.9203 13.098 67.7131 13.1807 67.5603 13.3277C67.4075 13.4748 67.3216 13.6743 67.3216 13.8823C67.3216 14.0903 67.4075 14.2898 67.5603 14.4369C67.7131 14.584 67.9203 14.6666 68.1364 14.6666H73.0253C73.2414 14.6666 73.4487 14.584 73.6015 14.4369C73.7543 14.2898 73.8402 14.0903 73.8402 13.8823C73.8402 13.6743 73.7543 13.4748 73.6015 13.3277C73.4487 13.1807 73.2414 13.098 73.0253 13.098H71.3957V2.90194H76.2846V4.47057C76.2846 4.67858 76.3704 4.87807 76.5232 5.02516C76.6761 5.17225 76.8833 5.25488 77.0994 5.25488C77.3155 5.25488 77.5228 5.17225 77.6756 5.02516C77.8284 4.87807 77.9142 4.67858 77.9142 4.47057V2.11763C77.9142 1.90961 77.8284 1.71012 77.6756 1.56303C77.5228 1.41595 77.3155 1.33331 77.0994 1.33331Z" fill="black"/>
</mask>
<g mask="url(#mask2_252_6804)">
<rect x="62.5811" width="16" height="16" fill="#8F9098"/>
</g>
<path d="M87.064 5.50852V4.72727H92.5186V5.50852H90.2316V12H89.3509V5.50852H87.064ZM93.9141 12V6.54545H94.7522V12H93.9141ZM94.3403 5.63636C94.1769 5.63636 94.036 5.58073 93.9177 5.46946C93.8017 5.35819 93.7437 5.22443 93.7437 5.06818C93.7437 4.91193 93.8017 4.77817 93.9177 4.6669C94.036 4.55563 94.1769 4.5 94.3403 4.5C94.5036 4.5 94.6433 4.55563 94.7593 4.6669C94.8777 4.77817 94.9368 4.91193 94.9368 5.06818C94.9368 5.22443 94.8777 5.35819 94.7593 5.46946C94.6433 5.58073 94.5036 5.63636 94.3403 5.63636ZM98.8093 6.54545V7.25568H95.9826V6.54545H98.8093ZM96.8065 5.23864H97.6445V10.4375C97.6445 10.6742 97.6789 10.8518 97.7475 10.9702C97.8186 11.0862 97.9085 11.1643 98.0174 11.2045C98.1287 11.2424 98.2459 11.2614 98.369 11.2614C98.4613 11.2614 98.5371 11.2566 98.5963 11.2472C98.6554 11.2353 98.7028 11.2259 98.7383 11.2188L98.9088 11.9716C98.8519 11.9929 98.7726 12.0142 98.6708 12.0355C98.569 12.0592 98.44 12.071 98.2838 12.071C98.047 12.071 97.815 12.0201 97.5877 11.9183C97.3628 11.8165 97.1758 11.6615 97.0267 11.4531C96.8799 11.2448 96.8065 10.982 96.8065 10.6648V5.23864ZM101.175 4.72727V12H100.337V4.72727H101.175ZM105.147 12.1136C104.622 12.1136 104.168 11.9976 103.787 11.7656C103.408 11.5312 103.116 11.2045 102.91 10.7855C102.706 10.3641 102.605 9.87405 102.605 9.31534C102.605 8.75663 102.706 8.2642 102.91 7.83807C103.116 7.40956 103.402 7.07576 103.769 6.83665C104.139 6.59517 104.569 6.47443 105.062 6.47443C105.346 6.47443 105.627 6.52178 105.904 6.61648C106.181 6.71117 106.433 6.86506 106.66 7.07812C106.887 7.28883 107.068 7.56818 107.203 7.91619C107.338 8.2642 107.406 8.69271 107.406 9.2017V9.55682H103.201V8.83239H106.553C106.553 8.52462 106.492 8.25 106.369 8.00852C106.248 7.76705 106.075 7.57647 105.85 7.43679C105.628 7.29711 105.365 7.22727 105.062 7.22727C104.728 7.22727 104.439 7.31013 104.195 7.47585C103.954 7.6392 103.768 7.85227 103.638 8.11506C103.508 8.37784 103.443 8.65956 103.443 8.96023V9.44318C103.443 9.85511 103.514 10.2043 103.656 10.4908C103.8 10.7749 104 10.9915 104.256 11.1406C104.511 11.2874 104.809 11.3608 105.147 11.3608C105.367 11.3608 105.566 11.33 105.744 11.2685C105.924 11.2045 106.079 11.1098 106.209 10.9844C106.339 10.8565 106.44 10.6979 106.511 10.5085L107.32 10.7358C107.235 11.0104 107.092 11.2519 106.891 11.4602C106.69 11.6662 106.441 11.8272 106.145 11.9432C105.849 12.0568 105.516 12.1136 105.147 12.1136Z" fill="#1F2024"/>
<path d="M278.513 67.8632V135.442C278.513 139.86 274.931 143.442 270.513 143.442H254.573" stroke="#8F9098"/>
<path d="M31.5132 95.6735V135.442C31.5132 139.86 35.0949 143.442 39.5132 143.442H51.9854" stroke="#8F9098"/>
<path d="M31.5132 37.8951V16C31.5132 11.5818 35.0949 8.00004 39.5132 8.00004H51.9854" stroke="#8F9098"/>
<path d="M17.1893 49.1434V48.0496H24.8257V49.1434H21.624V58.2314H20.391V49.1434H17.1893ZM26.5695 58.2314V50.5951H27.7428V58.2314H26.5695ZM27.1661 49.3224C26.9374 49.3224 26.7402 49.2445 26.5744 49.0887C26.412 48.9329 26.3308 48.7456 26.3308 48.5269C26.3308 48.3081 26.412 48.1209 26.5744 47.9651C26.7402 47.8093 26.9374 47.7314 27.1661 47.7314C27.3948 47.7314 27.5903 47.8093 27.7527 47.9651C27.9184 48.1209 28.0013 48.3081 28.0013 48.5269C28.0013 48.7456 27.9184 48.9329 27.7527 49.0887C27.5903 49.2445 27.3948 49.3224 27.1661 49.3224ZM33.2128 50.5951V51.5894H29.2554V50.5951H33.2128ZM30.4088 48.7655H31.5821V56.0439C31.5821 56.3754 31.6301 56.624 31.7263 56.7897C31.8257 56.9521 31.9516 57.0615 32.1041 57.1178C32.2599 57.1708 32.4239 57.1974 32.5963 57.1974C32.7255 57.1974 32.8316 57.1907 32.9145 57.1775C32.9973 57.1609 33.0636 57.1476 33.1133 57.1377L33.352 58.1917C33.2724 58.2215 33.1614 58.2513 33.0189 58.2812C32.8763 58.3143 32.6957 58.3309 32.477 58.3309C32.1455 58.3309 31.8207 58.2596 31.5025 58.1171C31.1877 57.9746 30.9258 57.7575 30.717 57.4658C30.5115 57.1742 30.4088 56.8063 30.4088 56.3621V48.7655ZM36.315 48.0496V58.2314H35.1417V48.0496H36.315ZM41.6657 58.3905C40.9299 58.3905 40.2952 58.2281 39.7616 57.9033C39.2313 57.5752 38.822 57.1178 38.5336 56.5312C38.2486 55.9412 38.106 55.2551 38.106 54.4729C38.106 53.6907 38.2486 53.0013 38.5336 52.4047C38.822 51.8048 39.223 51.3375 39.7367 51.0028C40.2538 50.6647 40.857 50.4956 41.5464 50.4956C41.9441 50.4956 42.3369 50.5619 42.7247 50.6945C43.1124 50.8271 43.4654 51.0425 43.7836 51.3408C44.1018 51.6358 44.3553 52.0269 44.5443 52.5141C44.7332 53.0013 44.8276 53.6012 44.8276 54.3138V54.811H38.9413V53.7968H43.6345C43.6345 53.3659 43.5483 52.9814 43.3759 52.6434C43.2069 52.3053 42.9649 52.0385 42.6501 51.843C42.3385 51.6474 41.9706 51.5496 41.5464 51.5496C41.0791 51.5496 40.6747 51.6656 40.3333 51.8976C39.9953 52.1263 39.7351 52.4246 39.5528 52.7925C39.3705 53.1604 39.2793 53.5548 39.2793 53.9758V54.6519C39.2793 55.2286 39.3788 55.7175 39.5776 56.1185C39.7798 56.5162 40.0599 56.8195 40.4178 57.0283C40.7758 57.2338 41.1917 57.3366 41.6657 57.3366C41.9739 57.3366 42.2524 57.2935 42.5009 57.2073C42.7528 57.1178 42.9699 56.9852 43.1522 56.8096C43.3345 56.6306 43.4754 56.4085 43.5748 56.1434L44.7083 56.4616C44.589 56.846 44.3885 57.1841 44.1068 57.4758C43.825 57.7641 43.477 57.9895 43.0627 58.1519C42.6484 58.311 42.1828 58.3905 41.6657 58.3905Z" fill="#1F2024"/>
<mask id="mask3_252_6804" style="mask-type:alpha" maskUnits="userSpaceOnUse" x="272" y="49" width="13" height="8">
<path fill-rule="evenodd" clip-rule="evenodd" d="M284.044 56.5056C283.751 56.8066 283.276 56.8066 282.983 56.5056L278.513 51.9117L274.044 56.5056C273.751 56.8066 273.276 56.8066 272.983 56.5056C272.69 56.2045 272.69 55.7165 272.983 55.4155L278.513 49.7315L284.044 55.4155C284.336 55.7165 284.336 56.2045 284.044 56.5056Z" fill="#006FFD"/>
</mask>
<g mask="url(#mask3_252_6804)">
<rect x="272.513" y="47.2307" width="11.9995" height="11.9997" fill="#8F9098"/>
</g>
<path d="M24.5927 81.2314H23.5359C23.4734 80.9275 23.364 80.6604 23.2078 80.4303C23.0544 80.2002 22.8669 80.007 22.6453 79.8508C22.4265 79.6917 22.1836 79.5724 21.9166 79.4928C21.6495 79.4133 21.3711 79.3735 21.0814 79.3735C20.553 79.3735 20.0743 79.507 19.6453 79.7741C19.2191 80.0411 18.8797 80.4346 18.6268 80.9545C18.3768 81.4743 18.2518 82.1121 18.2518 82.8678C18.2518 83.6235 18.3768 84.2613 18.6268 84.7812C18.8797 85.301 19.2191 85.6945 19.6453 85.9616C20.0743 86.2286 20.553 86.3621 21.0814 86.3621C21.3711 86.3621 21.6495 86.3224 21.9166 86.2428C22.1836 86.1633 22.4265 86.0454 22.6453 85.8891C22.8669 85.73 23.0544 85.5354 23.2078 85.3053C23.364 85.0724 23.4734 84.8053 23.5359 84.5042H24.5927C24.5132 84.9502 24.3683 85.3493 24.1581 85.7016C23.9478 86.0539 23.6865 86.3536 23.374 86.6008C23.0615 86.8451 22.7106 87.0312 22.3214 87.159C21.9351 87.2868 21.5217 87.3508 21.0814 87.3508C20.337 87.3508 19.6751 87.1689 19.0956 86.8053C18.516 86.4417 18.0601 85.9246 17.7277 85.2542C17.3953 84.5837 17.2291 83.7883 17.2291 82.8678C17.2291 81.9474 17.3953 81.1519 17.7277 80.4814C18.0601 79.811 18.516 79.2939 19.0956 78.9303C19.6751 78.5667 20.337 78.3849 21.0814 78.3849C21.5217 78.3849 21.9351 78.4488 22.3214 78.5766C22.7106 78.7045 23.0615 78.892 23.374 79.1391C23.6865 79.3834 23.9478 79.6817 24.1581 80.034C24.3683 80.3834 24.5132 80.7826 24.5927 81.2314ZM28.9432 87.3678C28.3523 87.3678 27.8338 87.2272 27.3878 86.9459C26.9446 86.6647 26.598 86.2712 26.348 85.7655C26.1009 85.2599 25.9773 84.6689 25.9773 83.9928C25.9773 83.311 26.1009 82.7158 26.348 82.2073C26.598 81.6988 26.9446 81.3039 27.3878 81.0226C27.8338 80.7414 28.3523 80.6008 28.9432 80.6008C29.5341 80.6008 30.0512 80.7414 30.4943 81.0226C30.9404 81.3039 31.2869 81.6988 31.5341 82.2073C31.7841 82.7158 31.9091 83.311 31.9091 83.9928C31.9091 84.6689 31.7841 85.2599 31.5341 85.7655C31.2869 86.2712 30.9404 86.6647 30.4943 86.9459C30.0512 87.2272 29.5341 87.3678 28.9432 87.3678ZM28.9432 86.4644C29.3921 86.4644 29.7614 86.3493 30.0512 86.1192C30.3409 85.8891 30.5554 85.5866 30.6946 85.2116C30.8338 84.8366 30.9034 84.4303 30.9034 83.9928C30.9034 83.5553 30.8338 83.1476 30.6946 82.7698C30.5554 82.392 30.3409 82.0866 30.0512 81.8536C29.7614 81.6206 29.3921 81.5042 28.9432 81.5042C28.4943 81.5042 28.125 81.6206 27.8352 81.8536C27.5455 82.0866 27.331 82.392 27.1918 82.7698C27.0526 83.1476 26.983 83.5553 26.983 83.9928C26.983 84.4303 27.0526 84.8366 27.1918 85.2116C27.331 85.5866 27.5455 85.8891 27.8352 86.1192C28.125 86.3493 28.4943 86.4644 28.9432 86.4644ZM34.5699 83.2939V87.2314H33.5643V80.686H34.5359V81.7087H34.6211C34.7745 81.3763 35.0074 81.1093 35.3199 80.9076C35.6324 80.703 36.0359 80.6008 36.5302 80.6008C36.9734 80.6008 37.3611 80.6917 37.6935 80.8735C38.0259 81.0525 38.2844 81.3252 38.4691 81.6917C38.6538 82.0553 38.7461 82.5155 38.7461 83.0724V87.2314H37.7404V83.1405C37.7404 82.6263 37.6069 82.2258 37.3398 81.9388C37.0728 81.6491 36.7063 81.5042 36.2404 81.5042C35.9194 81.5042 35.6324 81.5738 35.3796 81.713C35.1296 81.8522 34.9322 82.0553 34.7873 82.3224C34.6424 82.5894 34.5699 82.9133 34.5699 83.2939ZM43.5504 80.686V81.5383H40.1583V80.686H43.5504ZM41.147 79.1178H42.1527V85.3564C42.1527 85.6405 42.1939 85.8536 42.2762 85.9956C42.3615 86.1349 42.4694 86.2286 42.6001 86.2769C42.7336 86.3224 42.8742 86.3451 43.022 86.3451C43.1328 86.3451 43.2237 86.3394 43.2947 86.328C43.3657 86.3138 43.4225 86.3025 43.4652 86.2939L43.6697 87.1974C43.6015 87.2229 43.5064 87.2485 43.3842 87.2741C43.262 87.3025 43.1072 87.3167 42.9197 87.3167C42.6356 87.3167 42.3572 87.2556 42.0845 87.1334C41.8146 87.0113 41.5902 86.8252 41.4112 86.5752C41.235 86.3252 41.147 86.0099 41.147 85.6292V79.1178ZM47.8572 87.3678C47.2265 87.3678 46.6825 87.2286 46.2251 86.9502C45.7705 86.6689 45.4197 86.2769 45.1725 85.7741C44.9282 85.2684 44.806 84.6803 44.806 84.0099C44.806 83.3394 44.9282 82.7485 45.1725 82.2371C45.4197 81.7229 45.7634 81.3224 46.2038 81.0354C46.6469 80.7456 47.164 80.6008 47.7549 80.6008C48.0958 80.6008 48.4325 80.6576 48.7648 80.7712C49.0972 80.8849 49.3998 81.0695 49.6725 81.3252C49.9452 81.578 50.1626 81.9133 50.3245 82.3309C50.4864 82.7485 50.5674 83.2627 50.5674 83.8735V84.2996H45.5219V83.4303H49.5447C49.5447 83.061 49.4708 82.7314 49.3231 82.4417C49.1782 82.1519 48.9708 81.9232 48.7009 81.7556C48.4339 81.588 48.1185 81.5042 47.7549 81.5042C47.3543 81.5042 47.0077 81.6036 46.7151 81.8025C46.4254 81.9985 46.2023 82.2542 46.0461 82.5695C45.8898 82.8849 45.8117 83.2229 45.8117 83.5837V84.1633C45.8117 84.6576 45.8969 85.0766 46.0674 85.4204C46.2407 85.7613 46.4808 86.0212 46.7876 86.2002C47.0944 86.3763 47.4509 86.4644 47.8572 86.4644C48.1214 86.4644 48.36 86.4275 48.5731 86.3536C48.789 86.2769 48.9751 86.1633 49.1313 86.0127C49.2876 85.8593 49.4083 85.6689 49.4935 85.4417L50.4651 85.7144C50.3629 86.0439 50.191 86.3337 49.9495 86.5837C49.708 86.8309 49.4097 87.0241 49.0546 87.1633C48.6995 87.2996 48.3004 87.3678 47.8572 87.3678ZM53.2229 83.2939V87.2314H52.2172V80.686H53.1888V81.7087H53.274C53.4275 81.3763 53.6604 81.1093 53.9729 80.9076C54.2854 80.703 54.6888 80.6008 55.1831 80.6008C55.6263 80.6008 56.0141 80.6917 56.3465 80.8735C56.6789 81.0525 56.9374 81.3252 57.1221 81.6917C57.3067 82.0553 57.399 82.5155 57.399 83.0724V87.2314H56.3934V83.1405C56.3934 82.6263 56.2598 82.2258 55.9928 81.9388C55.7258 81.6491 55.3593 81.5042 54.8934 81.5042C54.5723 81.5042 54.2854 81.5738 54.0326 81.713C53.7826 81.8522 53.5851 82.0553 53.4402 82.3224C53.2954 82.5894 53.2229 82.9133 53.2229 83.2939ZM62.2034 80.686V81.5383H58.8113V80.686H62.2034ZM59.7999 79.1178H60.8056V85.3564C60.8056 85.6405 60.8468 85.8536 60.9292 85.9956C61.0144 86.1349 61.1224 86.2286 61.2531 86.2769C61.3866 86.3224 61.5272 86.3451 61.6749 86.3451C61.7857 86.3451 61.8767 86.3394 61.9477 86.328C62.0187 86.3138 62.0755 86.3025 62.1181 86.2939L62.3227 87.1974C62.2545 87.2229 62.1593 87.2485 62.0372 87.2741C61.915 87.3025 61.7602 87.3167 61.5727 87.3167C61.2886 87.3167 61.0102 87.2556 60.7374 87.1334C60.4676 87.0113 60.2431 86.8252 60.0642 86.5752C59.888 86.3252 59.7999 86.0099 59.7999 85.6292V79.1178ZM64.5691 87.2996C64.3589 87.2996 64.1785 87.2243 64.0279 87.0738C63.8773 86.9232 63.802 86.7428 63.802 86.5326C63.802 86.3224 63.8773 86.142 64.0279 85.9914C64.1785 85.8408 64.3589 85.7655 64.5691 85.7655C64.7793 85.7655 64.9597 85.8408 65.1103 85.9914C65.2609 86.142 65.3361 86.3224 65.3361 86.5326C65.3361 86.6718 65.3006 86.7996 65.2296 86.9161C65.1614 87.0326 65.0691 87.1263 64.9526 87.1974C64.839 87.2655 64.7111 87.2996 64.5691 87.2996ZM70.8922 87.2314V78.5042H71.949V86.2939H76.0058V87.2314H70.8922ZM80.2849 87.3678C79.694 87.3678 79.1755 87.2272 78.7295 86.9459C78.2863 86.6647 77.9397 86.2712 77.6897 85.7655C77.4426 85.2599 77.319 84.6689 77.319 83.9928C77.319 83.311 77.4426 82.7158 77.6897 82.2073C77.9397 81.6988 78.2863 81.3039 78.7295 81.0226C79.1755 80.7414 79.694 80.6008 80.2849 80.6008C80.8758 80.6008 81.3929 80.7414 81.8361 81.0226C82.2821 81.3039 82.6287 81.6988 82.8758 82.2073C83.1258 82.7158 83.2508 83.311 83.2508 83.9928C83.2508 84.6689 83.1258 85.2599 82.8758 85.7655C82.6287 86.2712 82.2821 86.6647 81.8361 86.9459C81.3929 87.2272 80.8758 87.3678 80.2849 87.3678ZM80.2849 86.4644C80.7338 86.4644 81.1031 86.3493 81.3929 86.1192C81.6826 85.8891 81.8971 85.5866 82.0363 85.2116C82.1755 84.8366 82.2451 84.4303 82.2451 83.9928C82.2451 83.5553 82.1755 83.1476 82.0363 82.7698C81.8971 82.392 81.6826 82.0866 81.3929 81.8536C81.1031 81.6206 80.7338 81.5042 80.2849 81.5042C79.8361 81.5042 79.4667 81.6206 79.177 81.8536C78.8872 82.0866 78.6727 82.392 78.5335 82.7698C78.3943 83.1476 78.3247 83.5553 78.3247 83.9928C78.3247 84.4303 78.3943 84.8366 78.5335 85.2116C78.6727 85.5866 78.8872 85.8891 79.177 86.1192C79.4667 86.3493 79.8361 86.4644 80.2849 86.4644ZM84.906 87.2314V80.686H85.8776V81.6746H85.9458C86.0651 81.3508 86.281 81.088 86.5935 80.8863C86.906 80.6846 87.2583 80.5837 87.6503 80.5837C87.7242 80.5837 87.8165 80.5851 87.9273 80.588C88.0381 80.5908 88.1219 80.5951 88.1787 80.6008V81.6235C88.1446 81.615 88.0665 81.6022 87.9443 81.5851C87.825 81.5653 87.6986 81.5553 87.5651 81.5553C87.2469 81.5553 86.9628 81.6221 86.7128 81.7556C86.4656 81.8863 86.2696 82.0681 86.1247 82.301C85.9827 82.5312 85.9117 82.7939 85.9117 83.0894V87.2314H84.906ZM92.0359 87.3678C91.4052 87.3678 90.8612 87.2286 90.4038 86.9502C89.9493 86.6689 89.5984 86.2769 89.3513 85.7741C89.107 85.2684 88.9848 84.6803 88.9848 84.0099C88.9848 83.3394 89.107 82.7485 89.3513 82.2371C89.5984 81.7229 89.9422 81.3224 90.3825 81.0354C90.8257 80.7456 91.3427 80.6008 91.9337 80.6008C92.2746 80.6008 92.6112 80.6576 92.9436 80.7712C93.276 80.8849 93.5785 81.0695 93.8513 81.3252C94.124 81.578 94.3413 81.9133 94.5033 82.3309C94.6652 82.7485 94.7462 83.2627 94.7462 83.8735V84.2996H89.7007V83.4303H93.7234C93.7234 83.061 93.6496 82.7314 93.5018 82.4417C93.357 82.1519 93.1496 81.9232 92.8797 81.7556C92.6126 81.588 92.2973 81.5042 91.9337 81.5042C91.5331 81.5042 91.1865 81.6036 90.8939 81.8025C90.6041 81.9985 90.3811 82.2542 90.2248 82.5695C90.0686 82.8849 89.9905 83.2229 89.9905 83.5837V84.1633C89.9905 84.6576 90.0757 85.0766 90.2462 85.4204C90.4195 85.7613 90.6595 86.0212 90.9663 86.2002C91.2731 86.3763 91.6297 86.4644 92.0359 86.4644C92.3001 86.4644 92.5388 86.4275 92.7518 86.3536C92.9677 86.2769 93.1538 86.1633 93.3101 86.0127C93.4663 85.8593 93.5871 85.6689 93.6723 85.4417L94.6439 85.7144C94.5416 86.0439 94.3697 86.3337 94.1283 86.5837C93.8868 86.8309 93.5885 87.0241 93.2334 87.1633C92.8783 87.2996 92.4791 87.3678 92.0359 87.3678ZM96.396 87.2314V80.686H97.3676V81.7087H97.4528C97.5892 81.3593 97.8093 81.088 98.1133 80.8948C98.4173 80.6988 98.7823 80.6008 99.2085 80.6008C99.6403 80.6008 99.9997 80.6988 100.287 80.8948C100.576 81.088 100.802 81.3593 100.964 81.7087H101.032C101.2 81.3706 101.451 81.1022 101.787 80.9033C102.122 80.7016 102.524 80.6008 102.993 80.6008C103.578 80.6008 104.056 80.784 104.429 81.1505C104.801 81.5141 104.987 82.0809 104.987 82.8508V87.2314H103.981V82.8508C103.981 82.3678 103.849 82.0226 103.585 81.8153C103.321 81.6079 103.01 81.5042 102.652 81.5042C102.191 81.5042 101.835 81.6434 101.582 81.9218C101.329 82.1974 101.203 82.5468 101.203 82.9701V87.2314H100.18V82.7485C100.18 82.3763 100.059 82.0766 99.8179 81.8493C99.5764 81.6192 99.2653 81.5042 98.8846 81.5042C98.6233 81.5042 98.3789 81.5738 98.1517 81.713C97.9272 81.8522 97.7454 82.0454 97.6062 82.2925C97.4698 82.5368 97.4017 82.8195 97.4017 83.1405V87.2314H96.396ZM110.441 87.2314V80.686H111.446V87.2314H110.441ZM110.952 79.5951C110.756 79.5951 110.587 79.5283 110.445 79.3948C110.306 79.2613 110.236 79.1008 110.236 78.9133C110.236 78.7258 110.306 78.5653 110.445 78.4317C110.587 78.2982 110.756 78.2314 110.952 78.2314C111.148 78.2314 111.316 78.2982 111.455 78.4317C111.597 78.5653 111.668 78.7258 111.668 78.9133C111.668 79.1008 111.597 79.2613 111.455 79.3948C111.316 79.5283 111.148 79.5951 110.952 79.5951ZM113.408 89.686V80.686H114.38V81.7258H114.499C114.573 81.6121 114.675 81.4672 114.806 81.2911C114.94 81.1121 115.13 80.953 115.377 80.8138C115.627 80.6718 115.965 80.6008 116.391 80.6008C116.942 80.6008 117.428 80.7385 117.849 81.0141C118.269 81.2897 118.597 81.6803 118.833 82.186C119.069 82.6917 119.187 83.2883 119.187 83.9758C119.187 84.6689 119.069 85.2698 118.833 85.7783C118.597 86.284 118.271 86.676 117.853 86.9545C117.435 87.23 116.954 87.3678 116.408 87.3678C115.988 87.3678 115.651 87.2982 115.398 87.159C115.146 87.017 114.951 86.8564 114.815 86.6775C114.678 86.4956 114.573 86.3451 114.499 86.2258H114.414V89.686H113.408ZM114.397 83.9587C114.397 84.453 114.469 84.8891 114.614 85.267C114.759 85.642 114.971 85.936 115.249 86.1491C115.528 86.3593 115.869 86.4644 116.272 86.4644C116.692 86.4644 117.043 86.3536 117.325 86.132C117.609 85.9076 117.822 85.6064 117.964 85.2286C118.109 84.8479 118.181 84.4246 118.181 83.9587C118.181 83.4985 118.11 83.0837 117.968 82.7144C117.829 82.3422 117.617 82.0482 117.333 81.8323C117.052 81.6135 116.698 81.5042 116.272 81.5042C115.863 81.5042 115.519 81.6079 115.241 81.8153C114.962 82.0198 114.752 82.3067 114.61 82.676C114.468 83.0425 114.397 83.4701 114.397 83.9587ZM125.477 82.1519L124.574 82.4076C124.517 82.257 124.433 82.1107 124.322 81.9687C124.214 81.8238 124.067 81.7045 123.879 81.6107C123.692 81.517 123.452 81.4701 123.159 81.4701C122.758 81.4701 122.425 81.5624 122.158 81.7471C121.893 81.9289 121.761 82.1604 121.761 82.4417C121.761 82.6917 121.852 82.8891 122.034 83.034C122.216 83.1789 122.5 83.2996 122.886 83.3962L123.858 83.6349C124.443 83.7769 124.879 83.9942 125.166 84.2868C125.453 84.5766 125.597 84.9502 125.597 85.4076C125.597 85.7826 125.489 86.1178 125.273 86.4133C125.06 86.7087 124.761 86.9417 124.378 87.1121C123.994 87.2826 123.548 87.3678 123.04 87.3678C122.372 87.3678 121.82 87.2229 121.382 86.9331C120.945 86.6434 120.668 86.2201 120.551 85.6633L121.506 85.4246C121.597 85.7769 121.768 86.0411 122.021 86.2172C122.277 86.3934 122.611 86.4814 123.023 86.4814C123.491 86.4814 123.864 86.382 124.139 86.1831C124.418 85.9814 124.557 85.74 124.557 85.4587C124.557 85.2314 124.477 85.0411 124.318 84.8877C124.159 84.7314 123.915 84.615 123.585 84.5383L122.494 84.2826C121.895 84.1405 121.454 83.9204 121.173 83.6221C120.895 83.3209 120.756 82.9445 120.756 82.4928C120.756 82.1235 120.859 81.7968 121.067 81.5127C121.277 81.2286 121.562 81.0056 121.923 80.8437C122.287 80.6817 122.699 80.6008 123.159 80.6008C123.807 80.6008 124.315 80.7428 124.685 81.0269C125.057 81.311 125.321 81.686 125.477 82.1519ZM131.355 84.5553V80.686H132.361V87.2314H131.355V86.1235H131.287C131.134 86.4559 130.895 86.7385 130.571 86.9715C130.247 87.2016 129.838 87.3167 129.344 87.3167C128.935 87.3167 128.571 87.2272 128.253 87.0482C127.935 86.8664 127.685 86.5937 127.503 86.23C127.321 85.8635 127.23 85.4019 127.23 84.8451V80.686H128.236V84.7769C128.236 85.2542 128.37 85.6349 128.637 85.9189C128.906 86.203 129.25 86.3451 129.668 86.3451C129.918 86.3451 130.172 86.2812 130.431 86.1533C130.692 86.0255 130.911 85.8295 131.087 85.5653C131.266 85.301 131.355 84.9644 131.355 84.5553ZM134.323 87.2314V80.686H135.295V81.7087H135.38C135.516 81.3593 135.736 81.088 136.04 80.8948C136.344 80.6988 136.709 80.6008 137.136 80.6008C137.567 80.6008 137.927 80.6988 138.214 80.8948C138.503 81.088 138.729 81.3593 138.891 81.7087H138.959C139.127 81.3706 139.378 81.1022 139.714 80.9033C140.049 80.7016 140.451 80.6008 140.92 80.6008C141.505 80.6008 141.984 80.784 142.356 81.1505C142.728 81.5141 142.914 82.0809 142.914 82.8508V87.2314H141.908V82.8508C141.908 82.3678 141.776 82.0226 141.512 81.8153C141.248 81.6079 140.937 81.5042 140.579 81.5042C140.118 81.5042 139.762 81.6434 139.509 81.9218C139.256 82.1974 139.13 82.5468 139.13 82.9701V87.2314H138.107V82.7485C138.107 82.3763 137.986 82.0766 137.745 81.8493C137.503 81.6192 137.192 81.5042 136.812 81.5042C136.55 81.5042 136.306 81.5738 136.079 81.713C135.854 81.8522 135.672 82.0454 135.533 82.2925C135.397 82.5368 135.329 82.8195 135.329 83.1405V87.2314H134.323ZM150.839 87.3678C150.294 87.3678 149.812 87.23 149.395 86.9545C148.977 86.676 148.65 86.284 148.415 85.7783C148.179 85.2698 148.061 84.6689 148.061 83.9758C148.061 83.2883 148.179 82.6917 148.415 82.186C148.65 81.6803 148.979 81.2897 149.399 81.0141C149.819 80.7385 150.305 80.6008 150.856 80.6008C151.282 80.6008 151.619 80.6718 151.866 80.8138C152.116 80.953 152.307 81.1121 152.437 81.2911C152.571 81.4672 152.675 81.6121 152.748 81.7258H152.834V78.5042H153.839V87.2314H152.868V86.2258H152.748C152.675 86.3451 152.569 86.4956 152.433 86.6775C152.297 86.8564 152.102 87.017 151.849 87.159C151.596 87.2982 151.26 87.3678 150.839 87.3678ZM150.976 86.4644C151.379 86.4644 151.72 86.3593 151.998 86.1491C152.277 85.936 152.488 85.642 152.633 85.267C152.778 84.8891 152.851 84.453 152.851 83.9587C152.851 83.4701 152.78 83.0425 152.638 82.676C152.496 82.3067 152.285 82.0198 152.007 81.8153C151.729 81.6079 151.385 81.5042 150.976 81.5042C150.55 81.5042 150.194 81.6135 149.91 81.8323C149.629 82.0482 149.417 82.3422 149.275 82.7144C149.136 83.0837 149.067 83.4985 149.067 83.9587C149.067 84.4246 149.138 84.8479 149.28 85.2286C149.425 85.6064 149.638 85.9076 149.919 86.132C150.203 86.3536 150.555 86.4644 150.976 86.4644ZM158.6 87.3678C158.009 87.3678 157.491 87.2272 157.045 86.9459C156.601 86.6647 156.255 86.2712 156.005 85.7655C155.758 85.2599 155.634 84.6689 155.634 83.9928C155.634 83.311 155.758 82.7158 156.005 82.2073C156.255 81.6988 156.601 81.3039 157.045 81.0226C157.491 80.7414 158.009 80.6008 158.6 80.6008C159.191 80.6008 159.708 80.7414 160.151 81.0226C160.597 81.3039 160.944 81.6988 161.191 82.2073C161.441 82.7158 161.566 83.311 161.566 83.9928C161.566 84.6689 161.441 85.2599 161.191 85.7655C160.944 86.2712 160.597 86.6647 160.151 86.9459C159.708 87.2272 159.191 87.3678 158.6 87.3678ZM158.6 86.4644C159.049 86.4644 159.418 86.3493 159.708 86.1192C159.998 85.8891 160.212 85.5866 160.351 85.2116C160.491 84.8366 160.56 84.4303 160.56 83.9928C160.56 83.5553 160.491 83.1476 160.351 82.7698C160.212 82.392 159.998 82.0866 159.708 81.8536C159.418 81.6206 159.049 81.5042 158.6 81.5042C158.151 81.5042 157.782 81.6206 157.492 81.8536C157.202 82.0866 156.988 82.392 156.848 82.7698C156.709 83.1476 156.64 83.5553 156.64 83.9928C156.64 84.4303 156.709 84.8366 156.848 85.2116C156.988 85.5866 157.202 85.8891 157.492 86.1192C157.782 86.3493 158.151 86.4644 158.6 86.4644ZM164.227 78.5042V87.2314H163.221V78.5042H164.227ZM168.848 87.3678C168.257 87.3678 167.738 87.2272 167.292 86.9459C166.849 86.6647 166.503 86.2712 166.253 85.7655C166.005 85.2599 165.882 84.6689 165.882 83.9928C165.882 83.311 166.005 82.7158 166.253 82.2073C166.503 81.6988 166.849 81.3039 167.292 81.0226C167.738 80.7414 168.257 80.6008 168.848 80.6008C169.439 80.6008 169.956 80.7414 170.399 81.0226C170.845 81.3039 171.191 81.6988 171.439 82.2073C171.689 82.7158 171.814 83.311 171.814 83.9928C171.814 84.6689 171.689 85.2599 171.439 85.7655C171.191 86.2712 170.845 86.6647 170.399 86.9459C169.956 87.2272 169.439 87.3678 168.848 87.3678ZM168.848 86.4644C169.297 86.4644 169.666 86.3493 169.956 86.1192C170.245 85.8891 170.46 85.5866 170.599 85.2116C170.738 84.8366 170.808 84.4303 170.808 83.9928C170.808 83.5553 170.738 83.1476 170.599 82.7698C170.46 82.392 170.245 82.0866 169.956 81.8536C169.666 81.6206 169.297 81.5042 168.848 81.5042C168.399 81.5042 168.03 81.6206 167.74 81.8536C167.45 82.0866 167.236 82.392 167.096 82.7698C166.957 83.1476 166.888 83.5553 166.888 83.9928C166.888 84.4303 166.957 84.8366 167.096 85.2116C167.236 85.5866 167.45 85.8891 167.74 86.1192C168.03 86.3493 168.399 86.4644 168.848 86.4644ZM173.469 87.2314V80.686H174.44V81.6746H174.509C174.628 81.3508 174.844 81.088 175.156 80.8863C175.469 80.6846 175.821 80.5837 176.213 80.5837C176.287 80.5837 176.379 80.5851 176.49 80.588C176.601 80.5908 176.685 80.5951 176.742 80.6008V81.6235C176.707 81.615 176.629 81.6022 176.507 81.5851C176.388 81.5653 176.261 81.5553 176.128 81.5553C175.81 81.5553 175.526 81.6221 175.276 81.7556C175.028 81.8863 174.832 82.0681 174.688 82.301C174.545 82.5312 174.474 82.7939 174.474 83.0894V87.2314H173.469ZM186.185 82.1519L185.282 82.4076C185.225 82.257 185.141 82.1107 185.03 81.9687C184.922 81.8238 184.774 81.7045 184.587 81.6107C184.399 81.517 184.159 81.4701 183.867 81.4701C183.466 81.4701 183.132 81.5624 182.865 81.7471C182.601 81.9289 182.469 82.1604 182.469 82.4417C182.469 82.6917 182.56 82.8891 182.742 83.034C182.924 83.1789 183.208 83.2996 183.594 83.3962L184.566 83.6349C185.151 83.7769 185.587 83.9942 185.874 84.2868C186.161 84.5766 186.304 84.9502 186.304 85.4076C186.304 85.7826 186.196 86.1178 185.98 86.4133C185.767 86.7087 185.469 86.9417 185.086 87.1121C184.702 87.2826 184.256 87.3678 183.748 87.3678C183.08 87.3678 182.527 87.2229 182.09 86.9331C181.652 86.6434 181.375 86.2201 181.259 85.6633L182.213 85.4246C182.304 85.7769 182.476 86.0411 182.729 86.2172C182.985 86.3934 183.319 86.4814 183.73 86.4814C184.199 86.4814 184.571 86.382 184.847 86.1831C185.125 85.9814 185.265 85.74 185.265 85.4587C185.265 85.2314 185.185 85.0411 185.026 84.8877C184.867 84.7314 184.623 84.615 184.293 84.5383L183.202 84.2826C182.603 84.1405 182.162 83.9204 181.881 83.6221C181.603 83.3209 181.463 82.9445 181.463 82.4928C181.463 82.1235 181.567 81.7968 181.774 81.5127C181.985 81.2286 182.27 81.0056 182.631 80.8437C182.995 80.6817 183.407 80.6008 183.867 80.6008C184.515 80.6008 185.023 80.7428 185.392 81.0269C185.765 81.311 186.029 81.686 186.185 82.1519ZM187.938 87.2314V80.686H188.944V87.2314H187.938ZM188.45 79.5951C188.254 79.5951 188.084 79.5283 187.942 79.3948C187.803 79.2613 187.734 79.1008 187.734 78.9133C187.734 78.7258 187.803 78.5653 187.942 78.4317C188.084 78.2982 188.254 78.2314 188.45 78.2314C188.646 78.2314 188.813 78.2982 188.952 78.4317C189.094 78.5653 189.165 78.7258 189.165 78.9133C189.165 79.1008 189.094 79.2613 188.952 79.3948C188.813 79.5283 188.646 79.5951 188.45 79.5951ZM193.752 80.686V81.5383H190.36V80.686H193.752ZM191.349 79.1178H192.355V85.3564C192.355 85.6405 192.396 85.8536 192.478 85.9956C192.563 86.1349 192.671 86.2286 192.802 86.2769C192.936 86.3224 193.076 86.3451 193.224 86.3451C193.335 86.3451 193.426 86.3394 193.497 86.328C193.568 86.3138 193.625 86.3025 193.667 86.2939L193.872 87.1974C193.804 87.2229 193.708 87.2485 193.586 87.2741C193.464 87.3025 193.309 87.3167 193.122 87.3167C192.838 87.3167 192.559 87.2556 192.287 87.1334C192.017 87.0113 191.792 86.8252 191.613 86.5752C191.437 86.3252 191.349 86.0099 191.349 85.6292V79.1178ZM200.806 87.3849C200.392 87.3849 200.015 87.3067 199.677 87.1505C199.339 86.9914 199.071 86.7627 198.872 86.4644C198.673 86.1633 198.573 85.7996 198.573 85.3735C198.573 84.9985 198.647 84.6945 198.795 84.4616C198.943 84.2258 199.14 84.0411 199.387 83.9076C199.634 83.7741 199.907 83.6746 200.205 83.6093C200.507 83.5411 200.809 83.4871 201.113 83.4474C201.511 83.3962 201.833 83.3579 202.08 83.3323C202.33 83.3039 202.512 83.257 202.626 83.1917C202.742 83.1263 202.801 83.0127 202.801 82.8508V82.8167C202.801 82.3962 202.686 82.0695 202.455 81.8366C202.228 81.6036 201.883 81.4871 201.42 81.4871C200.94 81.4871 200.563 81.5922 200.291 81.8025C200.018 82.0127 199.826 82.2371 199.715 82.4758L198.761 82.1349C198.931 81.7371 199.159 81.4275 199.443 81.2059C199.73 80.9814 200.042 80.8252 200.38 80.7371C200.721 80.6462 201.056 80.6008 201.386 80.6008C201.596 80.6008 201.838 80.6263 202.11 80.6775C202.386 80.7258 202.652 80.8266 202.907 80.98C203.166 81.1334 203.38 81.365 203.551 81.6746C203.721 81.9843 203.806 82.3991 203.806 82.9189V87.2314H202.801V86.3451H202.75C202.681 86.4871 202.568 86.6391 202.409 86.801C202.25 86.963 202.038 87.1008 201.774 87.2144C201.509 87.328 201.187 87.3849 200.806 87.3849ZM200.96 86.4814C201.357 86.4814 201.693 86.4033 201.965 86.2471C202.241 86.0908 202.448 85.8891 202.588 85.642C202.73 85.3948 202.801 85.1349 202.801 84.8621V83.9417C202.758 83.9928 202.664 84.0397 202.519 84.0823C202.377 84.1221 202.213 84.1576 202.025 84.1888C201.84 84.2172 201.66 84.2428 201.484 84.2655C201.311 84.2854 201.17 84.3025 201.062 84.3167C200.801 84.3508 200.556 84.4062 200.329 84.4829C200.105 84.5567 199.923 84.6689 199.784 84.8195C199.647 84.9672 199.579 85.1689 199.579 85.4246C199.579 85.7741 199.708 86.0383 199.967 86.2172C200.228 86.3934 200.559 86.4814 200.96 86.4814ZM205.762 87.2314V80.686H206.734V81.7087H206.819C206.955 81.3593 207.175 81.088 207.479 80.8948C207.783 80.6988 208.148 80.6008 208.574 80.6008C209.006 80.6008 209.366 80.6988 209.653 80.8948C209.942 81.088 210.168 81.3593 210.33 81.7087H210.398C210.566 81.3706 210.817 81.1022 211.153 80.9033C211.488 80.7016 211.89 80.6008 212.359 80.6008C212.944 80.6008 213.422 80.784 213.795 81.1505C214.167 81.5141 214.353 82.0809 214.353 82.8508V87.2314H213.347V82.8508C213.347 82.3678 213.215 82.0226 212.951 81.8153C212.687 81.6079 212.376 81.5042 212.018 81.5042C211.557 81.5042 211.201 81.6434 210.948 81.9218C210.695 82.1974 210.569 82.5468 210.569 82.9701V87.2314H209.546V82.7485C209.546 82.3763 209.425 82.0766 209.184 81.8493C208.942 81.6192 208.631 81.5042 208.251 81.5042C207.989 81.5042 207.745 81.5738 207.518 81.713C207.293 81.8522 207.111 82.0454 206.972 82.2925C206.836 82.5368 206.768 82.8195 206.768 83.1405V87.2314H205.762ZM219.056 87.3678C218.425 87.3678 217.881 87.2286 217.424 86.9502C216.969 86.6689 216.618 86.2769 216.371 85.7741C216.127 85.2684 216.005 84.6803 216.005 84.0099C216.005 83.3394 216.127 82.7485 216.371 82.2371C216.618 81.7229 216.962 81.3224 217.403 81.0354C217.846 80.7456 218.363 80.6008 218.954 80.6008C219.295 80.6008 219.631 80.6576 219.964 80.7712C220.296 80.8849 220.599 81.0695 220.871 81.3252C221.144 81.578 221.361 81.9133 221.523 82.3309C221.685 82.7485 221.766 83.2627 221.766 83.8735V84.2996H216.721V83.4303H220.743C220.743 83.061 220.67 82.7314 220.522 82.4417C220.377 82.1519 220.17 81.9232 219.9 81.7556C219.633 81.588 219.317 81.5042 218.954 81.5042C218.553 81.5042 218.207 81.6036 217.914 81.8025C217.624 81.9985 217.401 82.2542 217.245 82.5695C217.089 82.8849 217.01 83.2229 217.01 83.5837V84.1633C217.01 84.6576 217.096 85.0766 217.266 85.4204C217.439 85.7613 217.68 86.0212 217.986 86.2002C218.293 86.3763 218.65 86.4644 219.056 86.4644C219.32 86.4644 219.559 86.4275 219.772 86.3536C219.988 86.2769 220.174 86.1633 220.33 86.0127C220.486 85.8593 220.607 85.6689 220.692 85.4417L221.664 85.7144C221.562 86.0439 221.39 86.3337 221.148 86.5837C220.907 86.8309 220.608 87.0241 220.253 87.1633C219.898 87.2996 219.499 87.3678 219.056 87.3678ZM226.263 80.686V81.5383H222.871V80.686H226.263ZM223.859 79.1178H224.865V85.3564C224.865 85.6405 224.906 85.8536 224.988 85.9956C225.074 86.1349 225.182 86.2286 225.312 86.2769C225.446 86.3224 225.586 86.3451 225.734 86.3451C225.845 86.3451 225.936 86.3394 226.007 86.328C226.078 86.3138 226.135 86.3025 226.177 86.2939L226.382 87.1974C226.314 87.2229 226.219 87.2485 226.096 87.2741C225.974 87.3025 225.819 87.3167 225.632 87.3167C225.348 87.3167 225.069 87.2556 224.797 87.1334C224.527 87.0113 224.302 86.8252 224.123 86.5752C223.947 86.3252 223.859 86.0099 223.859 85.6292V79.1178Z" fill="#71727A"/>
<defs>
<clipPath id="clip0_252_6804">
<rect width="16" height="16" fill="white" transform="translate(194.763 134.731)"/>
</clipPath>
</defs>
</svg>
